<mxfile host="app.diagrams.net" modified="2024-04-07T08:33:35.121Z" agent="Mozilla/5.0 (Windows NT 10.0; Win64; x64) AppleWebKit/537.36 (KHTML, like Gecko) Chrome/123.0.0.0 Safari/537.36" etag="GQk9mij49ho6uHoRkRM5" version="24.2.1" type="github">
  <diagram name="Page-1" id="EGMvQBt21_8oYz4uSHzi">
    <mxGraphModel dx="1834" dy="822" grid="1" gridSize="10" guides="1" tooltips="1" connect="1" arrows="1" fold="1" page="0" pageScale="1" pageWidth="1169" pageHeight="827" background="none" math="0" shadow="0">
      <root>
        <mxCell id="0" />
        <mxCell id="1" parent="0" />
        <mxCell id="9OvEfXS0wGJ7kHbCijRD-16" value="" style="rounded=0;whiteSpace=wrap;html=1;fontSize=16;fillColor=none;strokeColor=default;" parent="1" vertex="1">
          <mxGeometry x="40" y="40" width="200" height="480" as="geometry" />
        </mxCell>
        <mxCell id="9OvEfXS0wGJ7kHbCijRD-24" style="edgeStyle=none;curved=1;rounded=0;orthogonalLoop=1;jettySize=auto;html=1;exitX=1;exitY=0.25;exitDx=0;exitDy=0;entryX=0;entryY=0.5;entryDx=0;entryDy=0;fontSize=12;startSize=8;endSize=8;" parent="1" source="9OvEfXS0wGJ7kHbCijRD-15" target="9OvEfXS0wGJ7kHbCijRD-20" edge="1">
          <mxGeometry relative="1" as="geometry" />
        </mxCell>
        <mxCell id="9OvEfXS0wGJ7kHbCijRD-25" style="edgeStyle=none;curved=1;rounded=0;orthogonalLoop=1;jettySize=auto;html=1;exitX=1;exitY=0.75;exitDx=0;exitDy=0;entryX=0;entryY=0.5;entryDx=0;entryDy=0;fontSize=12;startSize=8;endSize=8;" parent="1" source="9OvEfXS0wGJ7kHbCijRD-15" target="9OvEfXS0wGJ7kHbCijRD-21" edge="1">
          <mxGeometry relative="1" as="geometry" />
        </mxCell>
        <mxCell id="9OvEfXS0wGJ7kHbCijRD-15" value="" style="rounded=0;whiteSpace=wrap;html=1;fontSize=16;fillColor=none;dashed=1;" parent="1" vertex="1">
          <mxGeometry x="81.25" y="280" width="120" height="200" as="geometry" />
        </mxCell>
        <mxCell id="9OvEfXS0wGJ7kHbCijRD-23" style="edgeStyle=none;curved=1;rounded=0;orthogonalLoop=1;jettySize=auto;html=1;exitX=1;exitY=0.5;exitDx=0;exitDy=0;entryX=0;entryY=0.5;entryDx=0;entryDy=0;fontSize=12;startSize=8;endSize=8;" parent="1" source="9OvEfXS0wGJ7kHbCijRD-14" target="9OvEfXS0wGJ7kHbCijRD-19" edge="1">
          <mxGeometry relative="1" as="geometry" />
        </mxCell>
        <mxCell id="9OvEfXS0wGJ7kHbCijRD-14" value="" style="rounded=0;whiteSpace=wrap;html=1;fontSize=16;fillColor=none;dashed=1;" parent="1" vertex="1">
          <mxGeometry x="81.25" y="80" width="120" height="200" as="geometry" />
        </mxCell>
        <mxCell id="9OvEfXS0wGJ7kHbCijRD-6" value="" style="sketch=0;pointerEvents=1;shadow=0;dashed=0;html=1;strokeColor=none;fillColor=#505050;labelPosition=center;verticalLabelPosition=bottom;verticalAlign=top;outlineConnect=0;align=center;shape=mxgraph.office.concepts.web_page;fontSize=16;" parent="1" vertex="1">
          <mxGeometry x="120" y="190" width="50" height="54" as="geometry" />
        </mxCell>
        <mxCell id="9OvEfXS0wGJ7kHbCijRD-7" value="" style="html=1;verticalLabelPosition=bottom;align=center;labelBackgroundColor=#ffffff;verticalAlign=top;strokeWidth=2;strokeColor=#0080F0;shadow=0;dashed=0;shape=mxgraph.ios7.icons.documents;fontSize=16;" parent="1" vertex="1">
          <mxGeometry x="120" y="120" width="40" height="40" as="geometry" />
        </mxCell>
        <mxCell id="9OvEfXS0wGJ7kHbCijRD-9" value="" style="html=1;verticalLabelPosition=bottom;align=center;labelBackgroundColor=#ffffff;verticalAlign=top;strokeWidth=2;strokeColor=#0080F0;shadow=0;dashed=0;shape=mxgraph.ios7.icons.video_conversation;fontSize=16;" parent="1" vertex="1">
          <mxGeometry x="116.25" y="400" width="57.5" height="40" as="geometry" />
        </mxCell>
        <mxCell id="9OvEfXS0wGJ7kHbCijRD-13" value="" style="sketch=0;outlineConnect=0;fontColor=#232F3E;gradientColor=none;fillColor=#ED7100;strokeColor=none;dashed=0;verticalLabelPosition=bottom;verticalAlign=top;align=center;html=1;fontSize=12;fontStyle=1;aspect=fixed;pointerEvents=1;shape=mxgraph.aws4.container_registry_image;" parent="1" vertex="1">
          <mxGeometry x="120" y="320" width="40" height="40" as="geometry" />
        </mxCell>
        <mxCell id="9OvEfXS0wGJ7kHbCijRD-38" value="" style="edgeStyle=orthogonalEdgeStyle;rounded=0;orthogonalLoop=1;jettySize=auto;html=1;fontSize=12;startSize=8;endSize=8;exitX=1;exitY=0.5;exitDx=0;exitDy=0;" parent="1" source="9OvEfXS0wGJ7kHbCijRD-19" target="9OvEfXS0wGJ7kHbCijRD-22" edge="1">
          <mxGeometry relative="1" as="geometry">
            <mxPoint x="540" y="180" as="targetPoint" />
          </mxGeometry>
        </mxCell>
        <mxCell id="9OvEfXS0wGJ7kHbCijRD-19" value="Extract Text &lt;br&gt;and&lt;br&gt;Images" style="rounded=1;whiteSpace=wrap;html=1;fontSize=13;" parent="1" vertex="1">
          <mxGeometry x="280" y="150" width="120" height="60" as="geometry" />
        </mxCell>
        <mxCell id="9OvEfXS0wGJ7kHbCijRD-36" value="" style="rounded=0;orthogonalLoop=1;jettySize=auto;html=1;fontSize=12;startSize=8;endSize=8;edgeStyle=elbowEdgeStyle;elbow=vertical;" parent="1" source="9OvEfXS0wGJ7kHbCijRD-20" target="9OvEfXS0wGJ7kHbCijRD-22" edge="1">
          <mxGeometry relative="1" as="geometry" />
        </mxCell>
        <mxCell id="9OvEfXS0wGJ7kHbCijRD-20" value="Extract Text &lt;br&gt;+&lt;br&gt;Summarize" style="rounded=1;whiteSpace=wrap;html=1;fontSize=13;" parent="1" vertex="1">
          <mxGeometry x="280" y="300" width="120" height="60" as="geometry" />
        </mxCell>
        <mxCell id="9OvEfXS0wGJ7kHbCijRD-39" style="edgeStyle=orthogonalEdgeStyle;rounded=0;orthogonalLoop=1;jettySize=auto;html=1;exitX=1;exitY=0.5;exitDx=0;exitDy=0;fontSize=12;startSize=8;endSize=8;targetPerimeterSpacing=37;" parent="1" source="9OvEfXS0wGJ7kHbCijRD-21" target="9OvEfXS0wGJ7kHbCijRD-22" edge="1">
          <mxGeometry relative="1" as="geometry" />
        </mxCell>
        <mxCell id="9OvEfXS0wGJ7kHbCijRD-21" value="Extract frames &lt;br&gt;+&lt;br&gt;Transcribe Audio&amp;nbsp;" style="rounded=1;whiteSpace=wrap;html=1;fontSize=13;" parent="1" vertex="1">
          <mxGeometry x="280" y="400" width="120" height="60" as="geometry" />
        </mxCell>
        <mxCell id="9OvEfXS0wGJ7kHbCijRD-42" value="" style="edgeStyle=none;curved=1;rounded=0;orthogonalLoop=1;jettySize=auto;html=1;fontSize=12;startSize=8;endSize=8;" parent="1" source="9OvEfXS0wGJ7kHbCijRD-22" target="9OvEfXS0wGJ7kHbCijRD-41" edge="1">
          <mxGeometry relative="1" as="geometry" />
        </mxCell>
        <mxCell id="9OvEfXS0wGJ7kHbCijRD-22" value="Embedding &lt;br&gt;API/Model" style="sketch=0;outlineConnect=0;fontColor=#232F3E;gradientColor=none;fillColor=#01A88D;strokeColor=none;dashed=0;verticalLabelPosition=bottom;verticalAlign=top;align=center;html=1;fontSize=12;fontStyle=0;aspect=fixed;pointerEvents=1;shape=mxgraph.aws4.sagemaker_model;" parent="1" vertex="1">
          <mxGeometry x="483" y="290" width="78" height="78" as="geometry" />
        </mxCell>
        <mxCell id="9OvEfXS0wGJ7kHbCijRD-44" style="edgeStyle=none;curved=1;rounded=0;orthogonalLoop=1;jettySize=auto;html=1;exitX=1;exitY=0.5;exitDx=0;exitDy=0;entryX=0;entryY=0.5;entryDx=0;entryDy=0;fontSize=12;startSize=8;endSize=8;" parent="1" source="9OvEfXS0wGJ7kHbCijRD-41" target="9OvEfXS0wGJ7kHbCijRD-43" edge="1">
          <mxGeometry relative="1" as="geometry" />
        </mxCell>
        <mxCell id="9OvEfXS0wGJ7kHbCijRD-41" value="&lt;b&gt;&lt;font style=&quot;font-size: 11px;&quot;&gt;Embeddings&lt;/font&gt;&lt;/b&gt;&lt;br&gt;[0.045, 0.089, 0.875, ....]" style="text;html=1;strokeColor=none;fillColor=none;align=center;verticalAlign=middle;whiteSpace=wrap;rounded=0;fontSize=16;perimeterSpacing=3;" parent="1" vertex="1">
          <mxGeometry x="600" y="314" width="180" height="30" as="geometry" />
        </mxCell>
        <mxCell id="9OvEfXS0wGJ7kHbCijRD-43" value="Vector Store" style="shape=datastore;whiteSpace=wrap;html=1;fontSize=16;" parent="1" vertex="1">
          <mxGeometry x="840" y="279" width="80" height="100" as="geometry" />
        </mxCell>
        <mxCell id="dC4sRMdMSoydmVsc77Pg-23" style="edgeStyle=orthogonalEdgeStyle;rounded=0;orthogonalLoop=1;jettySize=auto;html=1;fontSize=12;startSize=8;endSize=8;" edge="1" parent="1" source="dC4sRMdMSoydmVsc77Pg-4" target="dC4sRMdMSoydmVsc77Pg-8">
          <mxGeometry relative="1" as="geometry" />
        </mxCell>
        <mxCell id="dC4sRMdMSoydmVsc77Pg-27" value="Frame Extraction&lt;div&gt;&amp;amp;&lt;/div&gt;&lt;div&gt;Audio Transcription&lt;/div&gt;" style="edgeLabel;html=1;align=center;verticalAlign=middle;resizable=0;points=[];fontSize=12;" vertex="1" connectable="0" parent="dC4sRMdMSoydmVsc77Pg-23">
          <mxGeometry x="-0.0381" y="-4" relative="1" as="geometry">
            <mxPoint x="71" y="13" as="offset" />
          </mxGeometry>
        </mxCell>
        <mxCell id="dC4sRMdMSoydmVsc77Pg-4" value="LectureÂ &#xa;Recordings" style="shape=image;verticalLabelPosition=bottom;labelBackgroundColor=default;verticalAlign=top;aspect=fixed;imageAspect=0;image=data:image/png,iVBORw0KGgoAAAANSUhEUgAAAHAAAABfCAYAAAAwGkOoAAAAAXNSR0IArs4c6QAAAARnQU1BAACxjwv8YQUAAAAJcEhZcwAADsMAAA7DAcdvqGQAABSCSURBVHhe7d11rCxFtwXwxt3dPtzd3SVACB4gEDzIHxACISQECa4J7k5wd3d3d3d3d773fpW3Js19l3POzO3k3jl3VlJpq67ae6/au6Rrzhnlv/+Lqoeuxaj/d+yhS9EjsMvRI7DL0SOwy9EjsMvRI7DL0SOwy9EjsMvRI7DL0SOwy9EjsMvRI7DL0SOwy9HY1wjF/P3339Uoo4xSUlA/D0aGDyDRm6718z///LMaddRR/5+NhmangaARDyTYX3/91SIQnBPWMYQ5upYGM4ZmD/ek0UcfvRDouWvnjp2i0e+BiqoL/fvvv1djjTVWOa+3MPk6bXHdgrqOMXHsA4hsAo0QqAgtarTRRivXPM89QqYlhtikKDJYET3pD2zj2tE9aYwxxmh5Y6eENkZggDyCfvnll9WLL75YvfHGG8UT//jjj5ZSgx2xR11XZI0zzjjV/PPPX80xxxzVJJNM0mrU8iOyEzQWQuN1BHr33Xerm266qXrsscda5BE2rbChKkdYRL/0b7ELEieddNJq2WWXrdZee+1q8sknL3YblnDaGIHCAIF//PHH6qSTTqqeeuqp6rfffmuFUQokxCJV3txLSBlzzDEL0Q2JNNxAr+iRBhvdQ+Qqq6xSbbvttsU+edYJGiMwwiLu9NNPrz7++OMi6IQTTljNPPPMrZYmH6IQ5h4i5aNwQspgAWLoK2nYH3zwQfXzzz8Xveecc85qp512KuE0tusEjRN49tlnV9dff30RUojYfPPNq4UWWqgogyj3I2ze8Qx5SB2W1jiiICbVOEUbOn7//ffVs88+W1111VXVN998U40//vjV1ltvXa255pol73AfxEjI2X///auXXnqpCDT77LNX++23XxE2YZJSEK9zDxJSBwvoItEv5x999FF19NFHV2+++WaxD/K23HLLauyxx+6YwEYm8jE8AT/55JMiDELmmmuuIhyieJY5ofsGNT/99FPpIynoeb3VDoYUfdiGF2rcE0wwQTXddNMVW7ARe3333XcdkweNrYUSWMsSKpBCyMUXX7wcKYE0SRi56KKLqjPOOKM666yzqtNOO60699xzy4hV/5CyujlpkEl01+cjyfE///lPq1F/+umnJZx6p1M0tpSmhb399tuFJNcTTzxxEZYCrhH5ww8/VLfddlt18803V3fddVd17733Vg899FB1yy23VDfccEP11VdflfK8082JByYK5dpRtzH99NOXSMRe3377bZkv1yNQu2jMAwkjfEZYocLENQogMOFS+KSgc6OzX3/9tfXeYAadp5pqqjImYA8kfvjhh62BTidorA9EnpiOCIIaHgsZaVnIMqUw/1lnnXWqBRZYoFpsscVKmHVv5ZVXLpPcwY7JJpusmnLKKQuBbPP6668XAgP3kgaCxkahQuOZZ57Z6qx32WWXaqmllvqHQIQ2cBFK5RNS3Ec6b/XcvcHsibqY8847r7r99tsLcVNMMUV1wAEHlNDKFkOiP1s04oFIEQrS/xFKK6sLhBxAkFYolFgP5HX6S/2CPCNDGDWJd2Qfo1CDPxEqaMcGjRCoT3v//feLJxFK/yfOE4RgOYJ+sE6s+3nm/ZEB5sdGosAeRuYZH4S8gZLYkcV4WqBiU4fPPvusEMCLeNd4441XBAopISlehkRHLdG9kYU8dhCBNHLn7PDee+8VJ4iN3Ks38r7QltVSKNIC9wxgMp8RCsVzLcw1kkIUIMp1jjDkcTCDTdhinnnmKUekmUrogujvuTRQtN3sI0Dg/NVXX61++eWXcs3zLF6nz+vhn0gEEkb1/QjkfUajbMk52mnIbRGYggkR9zeHM4EPhAeDmHYFGRkQ72KXGWecsdjKOVsi0MjcdTt268gDU4GjTySWhNKHzTbbbCWMejay9GsDRchhQ9439dRTFxshkA2tRMW2UD//N3RsYYWrWPg0iAFThEUXXbQVJnoYOhAoXM4yyyzVuOOOWzyPDTlD7JYI1x/aIlCBKdRRmDSHMSpVcT7egmuCDQQDEXSwgK7IYR+DPWMG57oiXjhQ4oK2CUwLQZ4Vlddee601otSiMvqUBjKQGVJY1+0q0U1gp9hlmmmmKQTqciyG8EBHqI/S+0JbBNYLFQJM3jN9sO4500wzFWECRPwbeGemI0MKmmvvy8PD+yqrG0FHEUs/SDfJVIJTpPEOROe2+8B6WHzrrbeK67snlvPA+hSjL8jXX1+pwcijb3U+WBCCeN8MM8zQijpDDmQGEoXatkq8BnG+PjCwiqxpTjvttOVZBOjL6Gl13k1yHc8c8pk0WEA3YDvfTBO1siQJ9O2rcQdtE8hzCPD111+XFRggiKWhbFaNwfsSwLN68h7i6veCwUQevaIPfc0Hbf4CjfeVV175x+el/tARgSow7EWiSt3z9aHe/4XEf4Nn3vVBV+iwg/v555+vHnjggerhhx8u5zYI62PzlWOwgU4WPeoEvvPOOy0CB6Jz298DVcLj7rzzzvJdy5d4AmyzzTbVkksu2QqxCZ+Kl997oAXa+6LDtvpgFGsPqc477/JG+QyMrFYYHPlAPOuss5aRW/07oqOUlp1zaUQE+YB86SrsYr/iiivKOZ0POeSQoq/n/Y0p2iZQJciwEcleFtc643nnnbe1NFQnAhJ2Hb2ro7b8JuantdUNLq9rxDvPu8I0Mk1Vopx8IS31gXveHxHBBoiiA7l9jdCYycweO++8c7XWWmsV+et2GRo6+iLPW4488sgS5nhDCOMRwh3hnNfnNJnsM3rOY+QIiYDs2KIIRb0rNDsaOKlLHvUqP+QqSwqpqWNEAnnoS+7IDO6Rl566FNtL7Ggwsu8PbRGYrPq+gw46qIyYGDCGY1xGtj3COSMTWh5H+XJOaFsvhESh0RREf4B8eXinQRJP1RdmlUK5DKAMdaY8R4S7p+w0qhENkZUtNErnZEYge9FB+DzwwAPLR/H+0BGBn3/+eXXwwQeXaQTCzGX0g4QhVAyor9O/ObrnfQrIazPTfPPNVz6rINJzCng/9ShDi/S9zJLdI488Un6y5r5yKAumMJal6sSRZURD9A9x5AUya6BffPFFsQF7Hn744cUD5e8LHRGoMhUYiDCin0qtv/76pSUBgQh59913V9ddd10JuQQhnA+Z6667bjX33HOXUOgd5dZT7qVBgJDKKx988MGyr1TDYAD1K2ujjTYqXpz8IyroxBYSHR3d84OgJ554ouhubnjooYeWaBSb/hs66gO1FCMloc3rG2ywQbXFFlsUglwLcVZp5OF97iNAbPdjF1MOgiNafuHDwEZozlZzXmlQJHlfflMXA6Ynn3yyuvLKK8ucKSHXNv599923tTgMOQ4UMUXkivHaLacvKFf5aaRA/mOPPbZMoUBUEuF0Rf1htAPsaWsTSLn//vvLFAJ4wCKLLFIUJYz9MVdffXWZ2zE+T1l99dXLflB9Hq8hvBD86KOPVtdcc035RdN9991XwqSfqCFJ0hDkpYxvaOpAqv5SaFWXOsjCo/NTNsS2C/WQPwbWsHKviaRcsqVhOKeP4+OPP95ahaGfvbL06g+NeeBWW21VnvE+c8RLLrmkEE1YG3i333770ldRQkLUPffcU7xIGRJl5M/UIvd5rJ8mawS25DGG+34FZS8qIoVpH5N33HHHMgioLyoMFEK0HWJG12CbSL7XNQUNb4UVVigbv+igcbPZiSee2JEHNkagn0kxvmf6RyNIBrE+uuuuu5a+L6NHE1deZ4DifYQwFq8htDzygpAoHyMuuOCC1SabbFJ+bwgaAs+97LLLyvs8UMvdbrvtSutttz9UnrIuv/zyck0GMpFHGlbQ09eHPffcs5CkvgxoOg2hjfT4aQMEee6558qIkcHdX3rppUtYc661+TGLH7Lo74DRTc4NQnbfffdq7733rnbbbbfy8+NlllmmEJEknPqBJM8DZcqTTVTqVL/lt04GMwgzqlYu4sjmnF5NJFCm6JBrR3V0ikb6QAMIv3VggIsvvrh4oTwWajfbbLMS0wnKK63gmIYghCII4L3LL798mQ8KLUZhwqAylaEeSfnI4Q2e804Gcf+FF14ofZbwy+uR2gmJBlEih3Av8ZisVzoOS9IVkI1eGkj6aY1Gfz/c+0CT7sMOO6wYmzEtB+2www7FkJLfBPpNQLxzvfXWK8mIE5neAYp5jiiE2HdjUERJz+TnpQZO3knYthCsHOHaiLTdflBI0xiMdhmvbpomQiiQX7/KHuoD58ccc8zwC6FAGGt6PIS3Md5yyy1XDEH5rPchz7WR60orrVRam/DnHUcJGE+iMG9bddVVyygUofpEZOr3lD/RRBMVj9MHK8fINNGhHaiP0XgK71OuIxmbSMoib2wQfUNkJ2isDySUPR2EIZTQhiQg7Msvv9z6+RlyhQh9H4MzvPfBu2n5nqUx2O2mZXrm3tNPP13mjuC5UapyPHefV7YLspODF0Lqcq+JJFqoo+7dbJPzTtBYCDUI8ZNpKyWEMt8zNAZG8NcrbrzxxmJk/YH3tXB5660yocUxyjlK3teHKo9nGvDoTzwjy1577VXK0af44wr613ag3sxBNSRlpf4moBy6r7jiiuUYqPe4444bfiGUYBQ1cNF6tbSstoCwxysIKl/Ck+fI8w5iGc095EH9nDHzRxNi2OxHlU+IUj44Goi0C+X4PnnrrbeW3ztaCjRXveOOOxpJKTPdDB2A7p2iEQIjDAM4Z/R6KHREakKcIxLkkd/Rc8/yvrJc517KznP5eVqdbPdA+SGzHahLOalbw9L4IsewJqBrBlfqgU5kDRohMOAdMQDviOCE5nEh0FDdACRK5X48VEJU4BpRpiGI90yZtuVFeeXF8AwkxHYCkcMoVhizsmPlxyDKsYmk3w9xOZK5UzTWB2688cbVhRde2OrnzOdOPvnklpdZebnggguK0OZv+igGQgBj8x7h1AgTMcoNURHx1FNPLdMQZMqzzz77lDKUaQnMHxkCBOoPfbJqF+qX4sVZSuvATEOFcshOV6CjSHLKKacM32kEo5n0MjhYaan/6FPrCzHWLS2nZa3UPe87+ohJIcbzLgXd11jyS1aE+XTEqz1j4GeeeaZVt7KyUagdKAdhvND7+lWNLT8FbyKRmZzCc3RRZ6dohEBGJJTwkNAlpNV/Omx1xVSAwPKaBvjjPhmyO8onv+fyuWZU3/54nkXrNAh/QMG80LU5nwVojQE0pE4IVG48gjyiAnmcu9dEijfzQLKDe52ikRDqY66VGIbk+ibtOv+FF164rG9qeQxhiC4MGpFSwFd0048lllii9J91IFCy7HbttdeWT028Wlgxv7Txx5drBjfs9zfIGMK1Mi3Peb8dIMw6q6SsNCZlNgHysAV9TSOUDerqdBrR+fh1KCCcfseEndKG5DzNiguiTQOsefrcZJjve6GtibzHJxbrnvE+/ZAlNHmVo0F4ZmfaGmusUTxMHRqNT1O8xHvCtAV09bVLoPIthuuvkcmjQ168ZVhAJpHIVpI0DDK2K2cdbUkVZ9UyQcUUixDOTawZ0bkw6uuDvhDctwJj/6jWpa/ijeZaPqccccQRxUNPOOGE6qijjqrOOeecskidMGsh2PKcNVAey8iigDzqZ3AL4vJFxk7AsCGMoZsgrw5lQmSs25ON1UeGNJ6+0LZkKkjLAechVijgRUIE6A99WvLlQn55hc0NN9ywWm211Qqh7lPI1IKn2ZXNa7OuSjlkCysWvi2Qp9Pn6Ua9Wfc04ODJGkb6w3agQRi4WFfVEIToJhPb8ED2is0cMyJ1zh7tNJi2+kBZkcBg+kDf5yi96aablj4HkIG0448/vrXpiVHs3LaEFCGFRGQhV59jRCpvBkHyIcGIUMjxrmMagnnmpZdeWr4tZnXGnhv1GDUiPi29HZCj/jWCDDHwsILcBjIGXymfnGQ3jbBKgzyN1Vcdefojs63vgTGeCoW9bEDSWoXOtPoobZcVCIE8imcgBEkEN4czIDF6NS0Q+jznpSFNf6cPdU/dwPNsakI+BZVv7dVAypGcCUuMNNCkHI3BVIaX83yySvQZ1qQcZWpYqTM204/rajiEsYTtI9AogcCIFOU9medR1teAzOUcTeT1gYyNcGRndGoulA1KFEMgwmzPF35NEeyjMehRTrxSOfbQ2KpoM5SBkPqFJ+HVlgv1KxdyHCgYlgHVk3c1hBh7WBPbOaZMYA9fcayVimw81JxZX0+e/nRoexqhcpWef/75ZXGWslotAhkSIRGUMIbGQpJ7iCAUbzUaNc3wcTaeRdi0TuUix7Vzc0EerTyjV3nVqw59lpEn2dz3vmO8cKDQh2aJj2dk5NufEdsFfeNZnMFAzOc25+qzp8deW+f9eWDbBKqcQkaXlsbMCbVaoLTE4BJPDJneYZz0V7yWx5l2IDQDDw0A0lDMA80f7cimpPveRZwyvaMOicLAEPK41w7IFfIYjoeTt0koX1I++ehLXkf16kb22GOPMtiBRgmUlQEZinI6Xb9Qyu8WUlRabK5j5HiIxFhpYfocfZewyku9ZzChcVh9oSDUy099/Sk4oqKuCzs4GhPYO6sLoZc8bNcXOlqJSctGokm4/ij/YidhK0QlbwT1HDmOSMwzYkjx2pANznmcZ/kdBQXzvNsQXcmPIMncVv9f/+bpfn86tk1gsis45KS1qNQ9z2Jg9xHg6B5v0ifa+Guakf2jnic0pkwIaUanFNR3ZmkudfWn5IiE2M+R3Eiiawijk2caqfPY4d/QUR8ICq4LUz/WDRoS6+f6TEej2JDonGd6RnihVGg1CjU4Mo1AnHrlcYzC3QR6D9ngYpchjxJb9IW2CExYk5wr3HlaSioP3E/+IQ1df0dZSBGCk88zHTsinecepFxwzP1uQN1GMX3sU9fJM6k/3doexEh1AerXEUKlQwpRJwbyXkIhb4J62fV3kjflp2zXeacbQOYcI3/0iY7OE11ir39DR4OYHkYcdE/s6WGo6BHY5egR2OXoEdjl6BHY5egR2OXoEdjl6BHY5egR2OXoEdjl6BHY5egR2NWoqv8BQS3n1aB+gIwAAAAASUVORK5CYII=;" vertex="1" parent="1">
          <mxGeometry x="634" y="640" width="90" height="76.34" as="geometry" />
        </mxCell>
        <mxCell id="dC4sRMdMSoydmVsc77Pg-21" style="edgeStyle=orthogonalEdgeStyle;rounded=0;orthogonalLoop=1;jettySize=auto;html=1;exitX=0.5;exitY=1;exitDx=0;exitDy=0;fontSize=12;startSize=8;endSize=8;" edge="1" parent="1" source="dC4sRMdMSoydmVsc77Pg-7" target="dC4sRMdMSoydmVsc77Pg-8">
          <mxGeometry relative="1" as="geometry">
            <Array as="points">
              <mxPoint x="1095" y="1080" />
            </Array>
          </mxGeometry>
        </mxCell>
        <mxCell id="dC4sRMdMSoydmVsc77Pg-7" value="Piazza discussions" style="shape=image;verticalLabelPosition=bottom;labelBackgroundColor=default;verticalAlign=top;aspect=fixed;imageAspect=0;image=data:image/png,iVBORw0KGgoAAAANSUhEUgAAANIAAADACAYAAABxhz3SAAAAAXNSR0IArs4c6QAAAARnQU1BAACxjwv8YQUAAAAJcEhZcwAADsMAAA7DAcdvqGQAAE+USURBVHhe7d0JoPX1nD/wnzapVAgVhqyhZMTYwowMlRZZJjLGZM9YGiS7kaZIjWWyZFdjMhHFYFAYRouyDMYwjIkh/CmNovV5fv/v63PP5/R9fp1777n3nnPvPc9z3vf5Pr/9u3y+n+27nhu0Bc0UU0yxJGzUO04xxRRLwFSQpphiBJgK0hRTjABTQZpiihFgKkhTTDECTAVpiilGgKkgTTHFCDAVpCmmGAGmA7IDsNIkucENbtA7m2JSMBWkgtVOgqlgrX5MBamgS4KVJklXcKaCtPoxbSNNMcUIMNGCxHLMZj3cX7t2be9qdqy09anLwPLU1ifLMEw5plhZTLRrh8Fkf6ONNgoGdO64Zs2a5pprronnntVIRvVuhLWl+B3PqWbmcUL6KSQbb7xx5FVwnuW49tpr43qTTTZZtnxNsXBMriCVXK9tZ7T1RjfYqFy2zVVXXdVcfvnlzW9+85vm//7v/5rf//738RwzOmLEFCzXguJ3GXQlBImgbLrpps0WW2zR3OIWt2hudrObNTe60Y3imXc23WTTZqONZxTGFKsPEyFIdRYxUjJgcYTKjSYE5he/+EXzH//xH83Xv/715vzzz2/+53/+p7nooouCQTfbbLN1voMUoox7pRg088PqEKRb3vKWze67797c+973bu573/s2f/AHfxACFVZp403i2LWgU6w8Vr0gZfYcQ3gKw2MmVobrc8kllzQXXHBB88lPfrI544wzmksvvbS5+uqrQ4DAN97zvW9TYFyvlqJnvkJICpSNZbrXve7VPOYxj2ke9rCHNbe73e1mBGmTGTdvitWFibFIKQzpmrn+5S9/2Zx66qnNu971ruZHP/pR3LvhDW/Yb2dAXbz8di4slRwL/V4+hRQm31955ZXN7373u7jeaqutmn322ad5wQte0Nz97nePb1goz6ZYPZgYQaoZh8D87Gc/az760Y827373u5vvf//7vSdNc+Mb37jZaaedmt1226156EMfGozo+yuuuKIfz2xMOApSzBWHdAlzHEu77gYbzeSFBb3sssuiXfdf//VfzRe+8IXmxz/+cZTT8y233DJcvTe/+c3NbW972xCkaefD6sLEdDZw0XQm0N4Y74Mf/GDzhje8IRhOETDb/e53v3CF9t5772b77bcPZtP5AARsNUBeo322tgh1EaS0nAll+973vtecdNJJzSmnnNJcfPHF8Q53T5uJ9dVu2nzzzaeCtIowMYIkm5hMt/a//uu/Nm9605uaf/u3f4trvVyPf/zjm2c961nBZBrt3sVoXD1Yu6a0r3oWYDaMghTRnT4A0o5jlX59ngIG7lMaZ599drh03/72t6NMN73pTZsnPOEJzctf/vJm66237lulbr7nKuMUY0KphIlAcXMiXHjhhW0RmLa4N+1mm23Wbrfddu2zn/3strSR2iJU/feKBu+fZyiMOmcYBQbFu5BQ57cIU3vBBRe0f/qnfxplLW5hWyxte8YZZ7SlHdVLcf40pxg/JmZmQ2rec889t/na174Wrg7c5z73aZ70pCeFJao7EyZVK8t3BlboLne5S/PUpz61X15d/e94xzv6bb4cK3OeYYrlx0QJkp4sXd3GizDM3e52t+Zxj3tcc4973GOdnq8MK4FuHhYTamgL3fOe92wOOeSQGA/T5uPy/fd//3fQYNpWWh2YGEHS5tGjhYG0izDQne50p+YP//APmxttfqNoA62PYGW1AffYY4/+bAfWiDJBE2HSrJD8qq/1yZJOTGcDhvnnf/7n5rjjjgurpLH9tKc9rXnlK18ZHQrd3q/FYDVqdtVz1ZVXNd/89282z3ve82LmBuEq7cLmqKOOCsFyjT7/7//9v5gexQ1ED/eTSUdZzeJNektL3O6hn/vbbLNNc5Ob3CTqJZ8RGp0jrtNNdV+YDZNkaSeq+1t38LHHHtt85zvfaW5+85s3z33uc5uXHPGSmGeXlbQUrFZBYoFZ4r/6q7+KMSZtp0c/+tHNiSeeGAoFzOoQ/vd//7fffko4T+0/CognaZVxuiYUBHvbbbeN8S4ut3CHO9whhMu7eiMhB87rPHXpP0mCpCATg3e/+93tne98Z5Rvb3Ob27THH398WzTxrD1T7i8krEbI17XXXNv+5Cc/affdd98oux5LPXkXX3xx9O798pe/bI844oj21re+dbvlllu2RalED18dClOOLMhDBnEXwY5QhKMtLne7xRZbtEXRtaUN2+6zzz7t0Ucf3RblF72QehuF7EWteynruhAmCRPTRgLajHYGDW/tJCiVG8f1FqV4rBBtr6wCF64wW4xboQULrQ1V6jSsM42fwfNRBnQXxM2Vi3yUdJ177tocSDNOvvjFLzbvec97mmOOOaY57bTTmt9c8puwREVwZh1zm0RMjGsHb33rW6ONdOGFF0ZHwwtf+MLm6U9/+px+9kIwClKMWqjlCcP94pe/CFfWtCgMbBbHxz72sWarLbeKwV6dD4YFfvrTn0YbBE3kZZzVK25CAykcJg2bA/nDH/4w3FFuJnD3dtlll+hlFbShikroD1RDl3ajpuU4MVGC9Pa3vz0EyRKJ29/+9s3hhx/ePOMZz1gQwRV3tvdHQYpxVD5m/flFP28OffahzSc+8YmwOMW1a079p1ObzW64WQhO9uClxZaPOi+jzFfSqW9RStQpSLrnf/vb30Zb7atf/Wrz5S9/OYScQJnGZciC8jNDI4U989bN4yjzPHYQpEnB2972trY0XMNPd3zHO97RezI/CjMuS+hi0Dt1GAbaDz/935+2++23H86NNtDee+/dXn7Z5dHuKEwa7Q7txZzdsZh0hkXGKR2hCHI/zYQ8/eAHP2g/+MEPtgcddFC0mbSfzETZc8892zPPPHOd/I47z+PGRLWRJg2Fvr2z8SLbQtpR2imp5eswSmScLIogzbQuUIQgrm9961s3e+21V1ggR/csEfnGN74R7SWz3XVZFCGK7yYZG5wgYe7lYvDEXGkud17GjSwroSHY22y9Tcxa//M///Pmj/7oj6LDyJKR8847r/nmN78ZQsclHYRJos0GJUhRMb26yQofd2UNk2Z9v/tsWCzl28WiznMd0lql5TLzxAwUnQyWs7BAP//5z6NH78qrrgyL5l5+X6N7vVqxYVmkUidRMeqmCmOtrF783XRHnWa6VasOslUCy2QvCvMGQeeDGSo6JrilY62DZcCGZZHyr8fYGUbF2P34KsS9SOC65xm4NY7rOwj5Jptu0tzqVrdq7n//+0eZTUDWRW7hImukJ3KSsUEJUl9rl4NGL19dha5ZO7Oku0Yyu/uCc76893Xx0qgpBPmtiZj1IGPcz7Qun0lLHGvbngB51aEXD3TzsVjUcY4Lg/Lq3qD78qP7e+edd47nXL/cOk27CV36NJlAbHBtJJX4k5/8pPnUpz/VnPrhU5szzzoztu3KiZTeyQotLBH3aEw9TOb4mThrIJR/X38HKSD9OApMODXR9OMf/3jz0Y99tDn/gvODeSD2qeut2p2NAReKTBfqfIwLdd7rULeRwLWZGbnkP3v2CJNOiQCy9/I87nyPGhuUIBEIPrmFcSaAPuc5z2mOPPLIEA4uxjqVp/57fG2Qkxvy/ve/P5Z+m4X92te+tvn0pz8dlglTJPPkNyC+7//X92NGhsFjM7b/9m//NvbdY6WgZrYNCWgGFBFBCtpNMDYYQUpmNSvC7ABulso06v65z30uNpicDQTC1Burcy1VoEWtjWKVCFkyBT+/yxBf+tKXYm8JgioPRvq/8pWvhFUi2ML6jq6icD3I4oR1riz0JGGDskgYnp+OeZ1jfBVGGAiWYw2VLeTETAIEvmOJfv3rX89UevlLxkgmqYMJnjZ8pH3FkwOYroXu++sz0EfZ17dyblCCpBL56Q94wANiEiWhsp7HHnjbbbddPK+B6QkdxrcnhLEQ75vhbNT+wQ9+cL/rNoVEqGG3VPPLCJP07MFwxzveMc4J5Er0Vi1WaOvvumEQQslUIe+hZ54PConu9WrGBidIt7nNbZonP/nJzaGHHtocfPDBzWte85rmL/7iL2a2BB7A1L6hQQmDb0x3MUr/qle9Kto8BMmgIj+/b2HWFubqBTOen/nMZ8ZWYdJ70Yte1Oy5556xcWVapi4zzsWco0SmU4fZMOx7w6Dr/iZScDJMFApRJgaLnbRarMTM5Mprrm2vvurqmOj529/+NkJO9vS8ftcRPCsuXX/7K0cL6orAxDsmXXruXLyCdISMI+Nec+1MHhwvu+yytriT/XgyzTokPJtr0mq+6zhXPIm8P8y7iXw/w7Df1TCRtbRPY/GhOtxxxx3b008/PZ6h8yRjg7BItBstaAP6TTfbNNwv01a4VywKhDW5prhnNlEp7FpoE+/5lrVx9A6rxZo4N/7hPW6bXjjv1FYtN/hIDay7O4M4tJvSzVkuyK+wUCjbFLNjg3LtEhifUGEOjJ4ulq5r9+rFZu4TDsLkiAkJkeNmm242s4e3b0pwnqjjkEYy8GwMWd/P+MYF+TEAGuUo7memJ2Q+E/U1Wgj5HuR3Gzo2SEEahGSSHAdKBqkD5iFMOixYshQWzOiHwPI8UQvTbKiZdk6MiFeVQxnkX6cJ6zgIKUCC3sz+zIMekiajRJ1mndYkYCpIQ4IWrxnKNXcuphcZ++iFUSOZKgU5EZZBmkMyc8YzCLPdT6Q15srmNKf5vtnQMJGCNGpNOAwwLoYSQB64iBhs3Cjiso4gLbT8fSHq8b5l4H6I4D//8z+bS39z6TpWNNH/pgdu4A9+8IPYF8IsD0I1xXWYOEFKJupWdH0+DDIex26oUd8b9CzcwQpdy1R/Pwj5vA5drK3m8OXzfLdul8Gg78G3uunN6tBtb3NNe6Yfd/xxzUU/v6gff74bxyJgaYn9IqJufFsn6/63f4bfqMp3ByHjzJD3ElkGqNua9f1JwcRapJUidLeia8YYNzKtxZTdt2Zi2DfclCVWyXZZNpw855xz4p0sV7YXtZ8IkY36/aCbFa0W5JlWZX4iy8TNGxbLSavlxsQIkkpYCiONE8mA48pXltuxTifOh2iXeU/PJKY3i930pjVr1sTRHEOz2AfBd9L0rh908717rgkibLzRxv38bciYGEFK5oE853aAiszz5YD06/wsF7oCpczD5CPf19voZ0EF19p3FtvZI9A7ScdcV+VIAH1nvwXbDmsrGX/ze7axIWX5803mbUPFRLl2umtVrErjcmSDNxkgmSHDfMBM84X5MOibOiwV4uBmsR4CGgAhYBmGBXqYJ/jABz4w9pR77GMfG79yqJ3kN6bynQx6I9GUxTFepk1litMjHvGImGJlP0HTreI7nRUbuFGaGEHCNBaF0YbOdcPa1ZMwJbOtr1A+isNaKhbBtZ96WaigsizmDBKgww47LNZkEQy7nkIon55AhED1LpzbDN98wZe97GXRWUEg1QW6cy/z3Q0VE8N9tOMOO+zQ3PKWtwwGIki2xLW+SEXPJkjBHJOMkv0rfn9FdD1b00SQWOW73vWu0RW/kPKhEWXklyLMeBf8aHW4cyXUsoDGIajln+909Zu57tfVuYKmOGVPWwjTAoV6fcPECBLm4dubpW2OGqtkHKRebVojNGqPyfK8GyYBXCx7aX/mM5+JXjdAizvf+c4zY1i9YgxbHgzve0LITRRH0KMzllTEKP5CWIrFISzec+37EB5d/Ru4ACUmRpBUnDVDXJMdd9wxKlBPkoFFm+oTLFrVMc8FDJKCkyEx2/2lQL7mCvNBnlkdZdAmspjwa1//WnRTUxim9tjWKjsMhG6Z5oL30RKy3HHN+IivJxyzhur5FNdhYgQJaFAL5eyNxtWwC5AxET+wpQs33JOCYCb/eowSWrsKcW+VIvPmSHC+9a1vNR/+8IdDWSi/njMdBRYWYuZr13Q2bRkCKQT5fhGLmXuVMMV575hgvWYToNnubyiYKEFSWVyaP/7jPw6NDBjsH//xHyOwUIQp3JCQmsIs/npMVjNbHlcj0hp997vfbT7wgQ80Z511VnSqaN9QJBYGauiztjohllKWFJzZZkjE817oYtC9DRUTIUgYhYBgMF24D3rQg+JnTXQ8YCQbkbzzne+MaStf+PwXYqOSZLDVLDCDYBaBmQOnnnpqc8IJJzSnn356uHeskca+aTrp1rEWc1mJYZFx1XBvmHiHfW99x0T8PpIsEqKEEXYuzz/8wz/EfnGmrQAtrZv2wQ96cPOoAx8V51nR/pJZsuK7DOA6hS+/I5BcSD1mfoWOpVgsMm4hrzMPFIVy6VgwZUebiEIA3daEyBw3guQ7nQV1fmtknHOh+00ivx0mjvnQTYOreuaZZ8Y4FoWhrfu2t72t2X///Zs1166JNWKTion5obEUpGwoY7rvfe978QPN2hAmUGJGxdGOMNbx8pe/vP9+9j71odS9S0wj+F4gPCqa4NhMUu8gN0tXu3uLgXwJmUaSXbp6wXQwGCcSpK288k5gKAQDonvvvffM5iubzgzKKg/3bp1yFYxCCEYRRyLLOhWkVYBB2cSQ2kXcoJNPPjnaS97Ts2VDk9e//vXBpDBIkAprr8Pc9poTWDjuot/x+fd///cYryJAKWyjQDIqYck8Eh7n3DhWyBiP8SKdC1xZ3f7e7zL5fNeLwSjigLrepoK0wpDFbjZVNKZmmTD73/3d3zX/8i//Eo1ybYhXv/rVzYEHHjirIPlexZodwZpxqcyG/va3vx3hRz/6UViHFByWgYCmS7VY5LdpKcWvbO7riSQsN73pTWOw1HZfe+yxR8yHk1cCluWZC0vJX2IUcWSd5VHdzCZI5vWNw7IuFyZakGjwX/3qV/EDxa973etiJrOJlATob/7mb8LFywFHc8as6+G2mQHN8rA09vO2tID1MeDpubgzEB574GFmg8Gm5sRA6CIhTvlxBOfKQUDlVzomhGoTsUruJ7h/BK++NwgZ91IwTBx1Obqo6yvPCY/lF7Y009a0V6Dtox/+8Iev835iFOVYLkyUIEVWe7lFZAvVjCO98Y1vbD7/+c/HfWNMRx99dPMnf/InoQFpcBXIcnHPTP+3bbD3tXlYJNo+48e8LIOuZj+5bzNHP0UiXpYuJ2ouBskYhDW6m8slwRDSxYsyFtRM5Nz9tI5pzRLjYLj54sx8dlHfzzjcE3SesEAnnnhilGXXXXdt3vve94bSyDZhjXGUa1yYWEFyfuGPL2ze9773xaIzVgbjP+YxjwmNh+n1tmk3sTx+1MrPLVqMxvKwNCpPhbIwhMc97oYdVS0bMIPAuFX9CwrQrfBhkYxBoLlp3DiQDxBvnUa+XzNk/U5iHAw3X5xZH933oo568CyvKTV14EcE9EqiN7f17//+74PmLBT61/GNo1zjwuQI0trrNDJNrnH65X/7cnQo6CrGmKzG85///JiUqbPA5vh+op7gECqukbgwo4pUUbrMCQvtaHxK24TLYVKm9PIbwpbtk6WQLONklRxZS0dMRLBYRNaqlLjPSF3mWo4qm4uJ6/TnzUt57J3fXPqb5kMf+lDsNOuacnrxi18cM9DVAUFLl7Wb9lx5WS2YKIuUmhthWRkunZF/QoEZtV8IggFNbSdajtuW36QwpMtG8AiPHwvutn3EJxC6QR0MiyWbeDJeHRqsKU39yEc+Mtb7aOPlmFem2T2Oq8rEK1/zIdPv5kP+uvdcK+85Z5/THP7iw2PzFErj9re/fQw4o3/SPRVlljPRvV6VKAVd9SgEjq2Bi9aKY2nvtKecckq7yy67tIXJIyhKYYK2VFIcC/EjOC/C0xYN2JZGbVtci/bcc89tS/sotiwWp/gznXGHOp03v/nN7e1ud7vIf7Gi7eGHH95+61vfiq2MlbEw4DrbKY8T8rOQdPL9PMqro+2YIzgvoSiz9qyzzmr33XfftiiJqI/tt9++feELXxhbPyctIL/Je/Wz1Y6JsUgsC2vCOtDgXDo9QDRodhYkaDDvch+Mv5ibZyGajoJsC3knNZ1v8xzGSZJMx3oqk21ZVbM0lEN+DzjggGjj3eEOd4gFdzpJPIP8NjoqCrrdxcOgMGZYCGAJxF2YN8rsPN3Xmh6D4P2kkzgF1/k9l1VHjtn5pm751ULuLBdcXRQlEjP5pVPHBd2058vLasBECBJkNhGVAGm0EijXKlEFERKL/1QUl8EETy5EMqJ38n3MUzNOjXGRRJqCPGAqP1rGtdNzpQNCXgRtNrMYKABd4brfIRmqe1wIlDnpQaDQQpqE065BC4mzphNlJl40NqDtB9aM6zm6lob0dOIcddRR0aFDcdRx1HVcYzHlXG5MjCCBStd+OPucs2PcSEVpqBIWKzfNiqblbn2rW8evaGu4qzwCpnOCBk8mUuzZKmicJBE3K5MMTJg++MEPhkDpYZQn93V2yD+r1J3R0D0uBBk/gSbMxq20ES05d66NNixqOqGzPJqTeNJJJ0VvqulVyipNzyg2ngQh8m32WiYyvm65FlPO5cZECVJmVWVZeq03jgY0C5wlMg+N67fJxptErxf4ZjVVjPxgYEcMDTS2cS0dJ3ogAeN5LshvXU31+WJQx8fNJbSsnjVOrCDBopjQNt1gkG/uYPSgtjNjX/Uz12aIvOENbwhBck9vnI4cLutTnvKU6OBRR9AtVxcZ9yRgogQJZJc2pelUFKjsusLnK9JKVZB8RbBqt/zltCXanGtHg2tT2NXUHEIBMF5dpvnKNxdYQgHQgaCKzznBySlK2pM5JMC93Ol2O4WVD9qV5LuKSpuIkBEcE4mND+mV9Mx43Cte8YqISxrqbZj6yueTgIkTJJDlOtsYwzWNKMyHlaqgbr6DF0tW5EcZKAjz+8wAyOlLpjIZbK6xThwLRNIJxGumBwF27r4hA0eMrg3DtWTpze7Q9iRcrD+BM+2KIsj8O4pfx8Lxxx8fCkFcLNJzn/vc2IXItfYUK9hFt1xTQRozVBqthtCprTGhShLmw0pVkHzW5A4FUKwTYUrrJG/KgqEvv+zysLxXX7PutsBLqTLfSgOdWELjbdxky0RM1jUBmDCnq5YWS1vU+Jt2FFfahFpjdqb3bH3jrcNC+cb74v2nf/qncPHMJBGP9qtrs9mV23tddMs1FaQxQ0WYLRwM2BOcnD1cE3++iliJikLuJLljCFM5KkeWJfJVXsGckO/Pld98Zxh4V6cNYPrYI/D/Lo19L8yAt87LPt9cSxYru+DllfumE4SVscxj5513jl5Ga6ZM6tVZwdqYx/imN72pec973hPpcBUtbXnlK18ZcRE6bt76go3/xjTpCQSmSmboIhluPkGZ7/m4EWXohBr1vfqdFLh1BK93HDr4K4qHZdj8Rps3226zbbPDjjvEjA89n9w4nQ7mLOqI8E1aSq6ZNp3lJ6wZKyaYUcItJZjZ8cMisXoElkCKm0UTj97U9QUTaZFAttfJutMeH6r0YTDse6NEl9xzkT/zl+908+v6enRYBFgaIJgCgSFgBEbPaK7V0nlg8Ji1EQiDzgXvExrtJhZJG8p8Re0s77Nu4mXFTCp+wQteEBNV1yeLNNGCVB9hoYIxyYLkXgrSUuD77EUkPGnl3M92p3RYGZaFJeICWn5PmLSrWCWdIgQyvydYXEDfmjDMleMWcgNtAfDoRz96KkirAcNku2a81YgsQx6Hye+s5S63CQMstNwZZwoBuEcwCFfGl8LAChnLY620o8y0167ixhlUZsG8A94nMDlcYfGiFbHHHXdcWKj1BRMrSDBf1tdnQarL7rvo/esh4llg0WdLe9B9AqbNA/JhDInwECqWimBxA3Xhm7nBBfSe78Sng8LKWOuR1hest4I0G2OsNiyU/N6Pb+rPFLW6HrcgwaB8ExR78BGe2lI5cgdtBUDojEUdeeSRMaF4fcFEC9L6gIWS3/vZpknogauxHIKUiPz3sqJNJV330mppV2XnBAtl4FfP3X777bekZfurDVNBWgZoG2R7o25zAGajxTGckCt5812Ndl3J2ham7hijcX+dauvU4HIKUo1097SLMn+O7qMBF09QBoO4tt/yfCFprFZMBWnMQF7dyLS1RjfBwDhmDxiH0UDX60Vb09qEScM8G+nGWnJGgVkEJpbmWIxnZkQQ0hqjFKTEsMw+iJ3cy5AQX925AcOmsRoxFaQxIpknGd05oTLb214S1urYCERPl/s0dzJTVgtmE3JJBctkhyRTdCxL2GH7HUI4a0QcC+TJ+Zh4WCYfxE6D7kE3zmHTWI2YCtIYgbQsEQbRHcwKnXvuuc1nP/vZ5otf/GL0bCX560FNloZQuUcIvZPdx87FxzpZmmCvh3vuds91xmSCIRfIk/Mx8bBMPhc7dZ914xw2jdWIqSCNEEnKZAhCEA3wAi6cEf63vvWtMZ2GYBEW02/8gJoZAbmuSlso2xV6ufSC6V5muQx8itMzbSWC9NznPDcmkG6z7TYxI3uhQgSjEiSYjaWmgjTFUCA4gvYNsCLIa/Dy/e9/f6yEJVCEwBIFAmOhm8V097vf/WLUP5YnFAHJBrs4CJE2lM0wuYKWV+hKFg+Xz2TR5z3veTFbgFBiyIVW6ygFqYth8zIVpCn6IEjaNMiKMTC8bacIUf5ihrYOwdEF/NCHPjSskPve9y03zdGMdt3cXD7PuYaE0g+P2evc2AyBM32HUB5zzDHNvvvuG/EvlCnne38pTL4hCNLEzv5ereCKYXzMowPhpJNOis1NLEcgDDlx00I3e15jehZIuwgj+Y5w5E5B3DT3s62ls8GaHp0NuX+5dARriozN2CDThNGFYD4mXgqT+3aY75eSxkpjKkgjBmEhCBjbsnGbfWB291gNPxT25Cc/OYSBAHlf0CYKa7TpjDWyxMExLFN5TkAJGVeO0GlPmWojbpbJ98ajjNOYOeB5WsVRMPFyMPkkC9K6HflTLBk5WMo987u26c6xKI961KOaJx78xOZud71bs/kNNw/LxXIQDMF1d3FiCsOWW2zZbHGjLWJWQworgfGrhXbl8Y420yc+8YlY4m08yrcCeD5XWA4MSrcOk4ypII0YmBxT6BjQza39gumN/djn2sK5pYIw2V5MWmYJvPa1r431P6ySewRJh4RzyOMU48NUkEYMlogbpm3E1cLEurj1qJmhkN3hC0VYql5IpECxTKyd+Fk23eu29dJtzkJyD6cYL6YUHgO0W+wGS6Awtl1TbUVlztw4YGMSP9RskJYrxwKySJZ96z6fWqTxYypIIwb36lOf+lQwb/r+urjNkdNRYKJmWJWqSTBXG2HQs9o6CdLiMt7nPvcJV48An3/++TGHT7spOi968Sw2TDE3poI0YnDdTP3BwBhQz5otlbl8g5hyFEya3ec6HXSvuzZzQocDoZoKwvgxFaQRg2tlNx3d36Cb29gOq0C4FutmpRAOEorsJjdNqN7xx+RYg7hTjB9TQRoxCJLlEOlSmbWQg6OYO7ujRwmCI16Du6YIaSNpGxEk65umGD+mgjRiYOi0OgQJcxsfgq4Qda3LbBYn788WEgRWh0YKUv7Q9BTjx1SQRgiCorMhBlYLgxOoFKou8wuJ7vVi4HuCRIicS3cU8U4xHKaCNGKwBLk2iCtnQDbbRsnY3TBKmCKUY1VmkmdephgvVp0gjasdAeIdFEYJQsMqcOvErdcs1x6NC2n1pGMiqzzouSNIm26y6cxmKWMo76jjmw11GlmWOF+GtIfFqhSkRD2YGJVmntmamXlrGBPDeAcDpQB639EzIRHf90IXs91fKFgXs7N1Qad7ZyyHlXAtj5m/bpoLyUNtzTKAAVjLLJIWtgXeeput40fBamRaC0lzEKI+SnkyqBN1kXR3L+tTOp6rr6ybfFajm586n4KyRHqWmPTurQasivVIWREYwjH9/GuuLpp1k42D+LkvmrERzKI3SkUYPzHQqZGtm9kiN8ysWJiXZYi4y18he6SXjJfI6+79xUCenv/858dCPtbIQOmHPvShGEuSH+0YeUoMSnMx+dCpYFrS0UcfHUs20MPv7D7+8Y8PetRxLjXNFKAYEC5/a9YWgUDaEkXWozpMC2lhojypP9OmWEsLG7NzhOIRzFg3+z12F2J5RBr/rhMYcYcAlsv+D591sJCyjAqrQpDMF7t2zYzrwxWhdRCbhrV5u3EZO3jqzrX3tMrR9lBphIgL46gyjNv4RXC/MmcwNGYTbDTzmz0YWLwYoEYSfhQVQOhPP/305tBDD41eM9N3jj322FjEd4ub3yKYpMaoGAFdrHH63Oc+F/SxMYqfUDFZlrLpxjnf9VzAMiFMpZ6c+1ZIBUHRWRul3qwINkBt3p98ES7vqRfCJm+67P1EjJ+Guffu927uvsvd4766CvbsCROo80xTPEKmv5JYcUFKzYNAmF3jGAP6FQPreey2Y6dOFaESZNe7SVDERswshgFJAkWQHvCAB8TPk9z9bncPrRnaTuWUv6x0yEoYRWUog7l2BMd4knxiZqtXd9lll/4Mh8SgNIfJB7qlQqChbapidrk0uZIs0Qtf+MLYuiuZrcZ818NAusrnW/TnJVB8Z599diyJJ0iskEHhmt5Qs53vCRXrTflZPezXzy3Dt3wk3i3Zc0TfUIa9NMU7qHzLjRVb2BeMUAqPMI4qBIG4AGeccUa4Rn61nCUiWDQ914igcAEEs52N07BI4uDeCDRi7j3tZx25ADReWKeSBgbIyqgroD5fLMRBm9LI8i7fGIzbyb1joaDLSIlh85B0y/L6US9Kh+tEw5ttTpGgDXDB+iin3XSGTRfkPQUof/ganS0bsaRe/Zk0y0rKHyFRTzZ4yY1eXJsX6JmyaDPJuy2OzV63jgu8j2axYriXxRRK6acgrTRWxCJJUkAAjIYgjizPRz/60ea0006LvaMRV4VZWXqnO90pXDZtIAJEKLIBT+NpQ9GGvhO4frS/ODAUxvIT+JZhE6JaqyUWwkxzQVloZRaCa6OcfiVc28lPQGofKJf7mY+hUbIrz34OU/kJ0Yc//OHmqKOOivajuOzb8KIXvSjSlEbQOpeuQ0mum+Z81zXEl3XDFf/BD3/QnHrqqc3HP/7xfueKdAkLBaLeBAJkh9WNNt4o2r+XXX5Z5JnSU3+ET12Kn/DYDOaxj31sBPWeQifuzF99vpJYMUFKC5OVQhPRqqwQYrpHG6kA7pmddhDWPY1UxPO9I63HanEjWAIu4Ve+8pVgYoKmQUv7HXLIIc1Tn/rU2LXUd90KGFWFsEDislG831KlXQmM5RTaTmZpYxT5xwgLAXqx5ldedWV8a93REUcc0S+rnjrXmA+tMJ5vRilIoH6kRwh4D4RZm1Zaua+EX/zjopkDKF8sNWGIMqj3IkxXXX1V0Ec8n//852NBpDrMfPM81BlXlUWv6eV8ofQbF1bEtUMgzI+RABO85S1vCZeAO4DYVnz6tYKnPe1pzROe8ITmHrveIyxTCo+QhHROuCxVsCZHoxUTaVNxFwgmQbMvnIphlVir/DYxH/MMC/HIp7SkSdvqwaN95YUQacelS7qQdL2rY4bWx3joxhVyTVn82Z/9WXPggQfGHL+++5o+UaJcdtOc77oLcSvX+973vuaUU04JJcZLoKS0CSktedHO4VZnvem2ln88oJ7VAzqptwc+4IHNdjffLniDMlImm+4TMrTKHlmW0PcLtuZjxIoIkopNIvixqne/+93NBz7wgSAgAmkg00J/+Zd/2dzrD+/Vb1cEevbTe75PYUjN5KgdxRUkUCqDu8ECEirtJhXL0qVlS4yqUpRNPrigGIimxmiEidtJWbiP8bP3KtNWLnDtHNPkNbAENLb2kKqz7gjQiKXzs5LKDvIQdCmfhjCJoj6v0C37bLRIulMILBEhUj4WRGfBQQcd1Dzj6c9oHvTgBwXTpwDJR8YpjshXD/mMm7jT7XeKThnWLl10wqQNVitBZajjXGmsjEUqf9dec22YdXu0yQImRxg+9WGHHdYcfPDBYWGSyXwDeqq8l8wa96qKyiM3gtbnDmhHaD+pbMzMleBybHez7cJfz8rI41KQjAbyQotKF7OxipQFBslOlMwrgfJ+Ck8dMBWFIA4/NelHurjB4vENbW3xoDaY3koC6n7SIlAOzuN6QDH77/XQvc5yCYT5zDPPbN75zneGUIN6e+ITnxi/XJ4umNCF+su66+bRM0Ki3tSP7nIChGYULoHCE7ndWJ3Hbn6XGyvm2hEcxHnZy14Wphu4bs961rNi3zfafBBxhiWeNFQ466SN9Y1vfKO/ow/rgPl22XWXaPhnPKOojG4cFAF3h3YmONw7eaNpWRPbGOfgcrqhGCbHXTzTk6nNd9JJJzVvf/vbQ/lgRmWhpXUXH3744aHJlVeaNYMOg+679bX8yh+4j7ltM/a1r30tLD1rSIB4EJgcfCOPC4X45Z1i0SY2dsj156Yb2FVf3EC8knl0rPO7IigFXhEURmqLa9AWAkQold+WymiL5WhL5bSFSdYJpSIj1PdmQ75fNFmcX/H7K9rSKG933333SEexi+ZuP/vZz7aFefvxjgPFkrRFoNsiGG1pkLdFSbSF2dpihdri9kR+lL9o4bZo4XbvvfduS5uwfcpTntI++clPbvfff/921113bYsg9ukkFI3cFmvXFuZti5VqiwC2RejawnB9+mRI2s0Vut90ob7ErSzFFW+L+9gWQWkLY7elLdSe/9Xz2zXXronn+V43nm4ac4XEd77znXavvfZqi7C2xVq1O++8c1sUSluUTFu8i6HzP26siCApKMYqjdK2aJ9gip122qn91Kc+FcRJ5qsrehDBZkP93BHR4cgjj2yLxg4GUCkvfelL2+IutcX16sc9aki7WJhIoy3RF23eHnfcce3973//drvttguBQgPC7ZiC5dqRsKGPZ/Is/0VTt3vssUd7/PHHt0VjR95rdOkkJP1mC933uyBIFJP0CM7NbnazyNtd73rX9uSTT45yXn7Z5dcxdxGqQfEuNIjjQx/6UCgT5d96663bQw89tC2ucf/5MPkfN1bEtStCEiPxr3vd68IN0YbgznENmHTXBvq6U3mgMFfv7Dp077kWSvniWhsEuFjcIu2NQuxwIbh9xje873pQ/IuF9PnyGtF5zcXb/d67x65CuoTRgnskbWXPvMoH2mgzOPpO24O7oyOGK/WoAx4V9wehWw7Xc4Uuuvfy+rzzzgsXk8slz34NQ1e7XkLtzag37/Y+HxT3sMAHaKYHVs+kTiMuHnpoC+rcqON3nmG5sSKCpMFv8E6DFaGM85jOost7nV6s0MszoZAnKmcQkYYlHIHR6aBtQpg0Yh/ykIf0G8djq4QZeQ4or7bDzW9x85gPp6vYPt56GLUvtA35/4QMPUyZMZBsQFmXsu2OfaPRLR7xCXW+R1GGbhzoQ/kY5/PbTtpxBlx1MBgvojDkIwSoqrfsJIKF5isUauEF8Wpbmv4k3WKBgi6EiaJJiH8UZV8USiaXHaXR2D5yn0cGqblZhaHiXrpATDNz7fzaa2bCXK7CbBj03hmnn9EWZg13Sdpvectb2osvvjhcEu7kKCHNKEevDN1wzdUz7QmBO6udc+mll0ZIl5A7lTQB8Xnf9zXqco4iDAL6HHzwweFebbHFFm0R/rYIVt8VX6d8PXe5DoPSmSsoZ373la98pS1KL1xfLuVf//VftxdddFE8q+NfKVy/f3LMKGmGef7xT34cWoxW5a44N0GR5vOO0ftKmY0MD3jgA6JLuhA90qbpdI+zkjSgtIeFd8UjLAa0p5nvvufSZdAzlW6ecZi0luCcFo5pNj23UBzzIb5HUnTN6wVCeXV3J61YUVYTCiPHcZRQdvkUjP3xXAC99G7q5VwtWBZBCsHoMagjQdKli0CYwX5siNZdYjAIGVfGB93rRFZCBuAqcJ0IkXu63lWMtoZnCxLe8i7GFFKglEf5MLg8YfxYX1P+jOibhR5jKeVeBu9iTjQgJPJFscR5+TMbQNzeS+bByMogvXR5u6EvaIXJu/QZRK+5QFh1xcunvIiTq0zgIdIs5eqHTl6ExUA5pafOuJLp6hkeoAQTS0ljFFgRi4Q4yXCujYX0LVEvLBdUUiLSXoAkpUCwDikMykYAxGXcQwPZ/DEzAN74xjc2L37xi2Pg1Mb3fq1Cmw1z1AwpT9pwQZ+eALqnfWBOogFZ8/hMirXmSLzisnSBgrryipkZIvIhEDj5Ek/Eb3VpzzINC+Us7mbEB+LB3AReqK1HhqWi5gPxGftDJ+fZxl1OXpkLyzJpNZNAAJrMABsrhBhgepB5WSrEu4MqOSqmUzfdyupeD4JBURMgTWyVlkb8q1/96pgy5BrTEer54F1lwaDex0juueZ2EB77f1uTI01CQNBSaHxD+HQqPOxhD4sOBZM7aXlCIy7lcc71NPipoU9YzGjwLWUUFq/kGZMZjDWrwVQhcZr1ngPOBCDdrxT0uTCIltw6e4ybXeE5ITYXUo9dF/PFPyzkWfnQ9KUvfWlMAkZLk5gN5jvKy6D8LidWRJDMdzPFP10gP+NoRoMK9k4yUj1jOQjVoVWXeMMQczZB2mmnneI5Rh9WkPIoyDPGth7H3t8XXHBBuGGEx/MUUOeELcvoPt9fj522ot443b20PfqYRWA6EUvElVFGjOTbhHiz7M4JFYHUK6h8pg+JE7yXIVHHlaifJ/Sa+dULykH+S4M/fruWR6Ec4RqPGNJRJoJkaQjLTgHrdn/JS14Sszq65VkRFCKOHYUY/R6VwkRtEaS2aLEYjJSFotXaSy65pL36qqtjVkNhoDgWxuz3AmWvXR0y3jr++fCLX/wiegmLVYhBziLAkR+9Y9IV72zopuPdIijxrd6rAw88sC0WJnq0inXtH/VymblQhCQGU70j/cJ40QNVmDAGG80SMEjruYBGvjOqL69o5V3vmR1xxzveMQZEk5aFmeIdR+/7zjuHHHJIe9ZZZ0VvoDIuFnoSzQ6RB+k88YlPjFkVZoeIt66LUQTI489+9rO2KMCgJ7oVy9h+61vf6j9faSxrG6mkF0eWh0vDGgGNS5vTKoUwoYGEomfi+SihzWKOn7TNEeOWyA/MpdXkPRv9eZ1u3Nve9rZo93zmM5+JRjAXVVxcuL322itcoHe9613hltgIxRia9TvaSWktlJfPz4qZHW6JgrjMyZOOPOohM4Ykvfe85z2xmM5RnH6nVvvLmqfsBJAHFs1iSftGcDVZM2WoreIw8B43Ub2l52ASrfK7Zo28k2FUkA7e0CmEJkV5RVqsODd2tWBZB2QRGGEQA2HMbnDtvpWjBiO5CEJXiLy3VNcO8/ipSIvhuAfcKKPy/U1SeukOisc9f0VX9tsaJsFiau4cdxW8h7G0+fj04tdmsTREFy6hIby3/YPbxuK3e+1+r5hsyj0i2IQQtLlcmwltKcn+B+wfM+If97jHxcxoXfiY2nPxcgut/dEuuv/97x95wOgEU7lN1OUeorWZ2tGmK23RKHOvvLUAdGmQ71rFbJYBl9U7usC1L3XVd9GNY6HI76VFCZiVQnDxibVq9VL6lcaKzGxAIJVGk9IuKlUbAWNhHgxbVyoEUTv10q2o7rU46nsskR4unR3um9Fg/UxqWVZBGt14EgSIdqTJaXo9ZXx2bQdpEQJtEu097TCMrcuWJlfOVBLgeqsbbxWChRG1Z0xXolBYMZblgAMOiKlT++27XzSqc9wG86CZfIonAw1NILX3jPoTNl3W2oXaW8qvV08+rVmyl4XvotwdXI8G5ZLFFDC0HjwCShkRYh0ddTyz0XAhyDiUgbLS7kRn6VlOr3Mm6bniKBkbOwrjrRNKBbTFIoX/Xogffm9xcdovfvGLg0fJF9lGkg7f3RFKZbRFG0ea2iaHHXZYW1y98PG9M1980hTfhRde2B5zzDFtEYBor4hPO+WII47oz8T2rji19RyFzPegc+k5Krtv0CHzPlt+amR8kHH96le/ihnuT3/606N9Vpgu2mL3vve92+ISRpsp481vMmSaGUCeiiC2++23X7T/xHXf+963PeOMMyKuuqzd7xcb0OMTn/hEpLPNNtsEvc2OP++88+LZasGyWKRB2on2Ms7y9a9/PTQ8DcdF0S1eKjL2oruehutE04130LV2DddAe8OGiVwT8bNGJn5y62hoaXl/rjidy6e2EEskrsI04aqxQty4esutbkjU55kuOLoWWAraNr+tvxmE+p1Sr3HkrrIY3D9aXRtDm4uF4vJx8Vi4+M4nVRLd9PLaL6vnAkNuljYX64ie0sk813W3FLD2FhBaEcwdZ8FZ/T322KPvjq8GrJhrh9CIYjYxJidM/Hiuicr38/ldJluMa8elsVvNCSecEHtCECpMuv/++0dXbnTdFqGtR+Nr1NcEUDtDx4F8EyJuG/fwmc98ZuQbUw1Cxt0Nw2DY91KAwHlJIQZS0Vm7AtNr13HPdGhwU3MxIHg/adxNU/2ojxCUQitulvoSB5dR/FxJSgRGweCE/+STT47OGWnBwx/+8Gh/3mrHmQ1s1OVqwIoIUkLvEs3IKmF4xDI9n49/i1veYsZS9MaSomI7/NSt7PoaI2F0cRbXIFaW0sTuaT/YzUcbhsCaPeDbDF3kvbRG2nbyjWm0aVgj2l2De5AmHhTnQjDM9xi9L0jl4DxC+ZNPwqQNhR4GdHO6j6Uld7vr3foMmWnVaepooETcI0S5lN0AbVo3lk5PGq+CchmFIH3kIx+JzVV05IhPW9KAMGt0w81nvIgNziJFJfQCZMVzLQgPd0HFcve4DCqLljORFbHs45ZaUaXmuaNrAiLkM3FzC2wfzDXAPNIWp6k1NFvdQHas85j5BOfiNhB50kknxbL17CB5+ctfHr1y+b685rm8QMaXoYvu824YBlxY8/iUw14Y8utb+XFPfpUdbQw3GNzN4Yfd7rFbs82228RUp6QDZPopkOUqjuIigGZcYHLxsHA8C0Kr84Yw1XFkgLqOoE7TMx0in/70p6NHlAsJ6ooXIYg/y5XfrTRWzLXzp7L1anGvEM/WVSqFULnmE6uQbW+ybZ/oubOnOBASoqJL4GaI01EXra5u1oM7BtoythJ+xjOeEUxFC0deenF1KyWfAc1rX21tIwJP0I2ul4Z8MBYGwhz5DYaQD+WshauL2e4vFsqBBoLyJY1Am4KVp1RsxsgLELikXDzP6vz0z8sBfZUFeAmb32jzECZuHSuXbTBxixN9WGh5UP74vsTnmIKUAcR9+e8uj3r72Mc+FuNjhMi7ZnnotbT2KdugUJdtpbFirh0XASEIC7dIJaoU1klF6F7WmKc5vaNCEDBDMqc4knlYM1bjS1/6UjA835pQAjfSGMyTnvSkWFmpkpNR+gwzACmkrJuBTWNfBEcXLPcw5+ilEDlyhZJxugHyCPX5UiAedJA+AXae7hrIDyg3pcAty6lGXDIDvYYeYGA+CZHLXkD/XNqQ9ca9y4m6eU0Q1FcqLcg6c+05Afze978XWx4TImNGxhmVQ/wWPlJYFhDq+k/ariasiCAlIRAzCc3FE7gL2ZZR0awJ7UnTsVIayypLcM618A53S/tFRRAimk1FSkubS0+PpezGqggCyMO8FVL4j5UUP0HCIPJrMFB8Me5V4iD8lIH0vvHNb8SPAHB3ttpyq+aGm/XaeiWpTG+otIdAzVRJM8JurEw+sz0TAl7exdACBZNz5giXdgfPAGbLW94XCJJvWQsCxUprQ+rIcMx6IRCUIrcvLZa0Be/kZFxKz0wNVsi7yiJeA6+W1pub2RX01YQV2bJYBWSFAKKBCrZntqk0ZjmzSIQBvMs1YVl0s6pADKKhy63QrlIB3hc/JuIWsj4GNmOfvFvdOpYS6KVb2143FSnj7wJpBPETTksXuDFcRNbIJErCg3mSQZ3rwSPI8mmPvoc8+CHROMZ8md4okfmUNvfzxBNPDFoosy55DKl8SXe0simn8lASrKvpSpRNxiWvibxXQzyUoLpTJgLBktg2LPfsA++gEZpx4ymxdCHVHeGicOo0CAx306CrzoW0+vIk+HbVoWRw2VEqNEKNotFjQK8wQ0xQtFWXSYq77bZbDMSVCogBwDoUxo3B0ELcOFccx9L+iYmpz3nOc9qi6WJgsrgJ1w3u9gYdCxOsM/jYRb5TmLI96qij2qK5Y0Jo8dNjkDC/le+MU1pFs/cHP+0YZCl7vjMORD5Lua684sqYAIxe0i+M2BbrNLNN1tXX9Glge7LSfmxLGyfes4PTG9/4xn5c6qIL5cwyDgoGaw1Uf+QjH4kBYMvQi9KLelMvAtpJL+tSXWVwXTySqDfbkJ188slBtzqNrKc6rBasXGdDR6sUQoVGBZpLFzWfmGai8Vgj/nIheLwDtBvtlVZKB4JpNDoBaGPjDRqnvhN/1/rMdky4FrgqLKQ1RuJg5XRa6D1yLeS3NDGLoF3nvu5xg8zZJuumMQrosQuUqC3h4LKxNKYBaV/oFOi7leVfqfdo8ykPV5qFMDBtAi1wQ7VhF4IiDOFGGpjVi8mdFi/aa9c49446K8IUR6uS1VkODGun2bc8N1RJtzkxiHbjoOdisCKu3SCoeG4CIidjOicA/H4+v8rnbwuYW9ZVhsDV4wKoRJWS8H3RXFFxOgGcd5kkK2NQpUiDL//mN785xqIwBIYrliaYRrwJ73JVzJvDoPJvNsVTnvKUYCjX46j43LOh6Ojo2tfW4DaZr/eKV7wiJrnW1YwmNuC3DsuOSgSA0jHQ7L3Z6FCjvu6+75n6lAcuJvoRbu0iylJ7Ul0b21JXhJjC5GKm26ejAW3ruAfla9C9FUEp9KoAlyPNdWmTrDOPinvFNeJyCNwILqBzLkvOw/NemvuMy3ulQuM83ivBe4JvhLngu8IEsfNpEfC2MF1b2h2xsWSdR/CuuWhcS+8WRmiPPfbYcFG86/k4kC4rGnGruq5dlL1X1qBTedfOs8UChFtl3txBBx0UcXl3UD7j/pqZePrx5fxHNO3lwXl+j8bhTpajOijKLzaazHryLOtVnTqqe3MV3fc8v89067CasGwd8SWt64VEnueRSae98z3ntBO3zpHWcs5VMIjIXUkNWAheIir/el3Q3km3iqXzvndKRfTvzQXveL9UaO/OTD7lSdzzIcvEXcrzlYYy5VzGpEFtWbmK8lqHoMPaNUFntMt34vtCU1a+vBl/EYd3eqE4tOHeGVR1TMuMfkJaHkdBfrwjLQH963xkSOQzYaUwdkFSOMQsWiUChhSSmTPoPtW+yAE+LpIubm5d0VT99x3Fk8TNNBCfwDj3I1wG97hXBnm5gs7Fr+2ikoTFQPyZl7zuBs+692Zennl/uTFsmt7D9IOQtPcO+jsSLPTMyavoK3C79XR6P5RNidL5IIiLsBAM34hP+PWvft1c9tvLmt//7vczofAHvkm6JwaVzb0My4UV+8U+BEQwDI6AJoHmNJNkeN3XfnlAY92ESBqNtaK1utl2rULEZ8zHrzxoU9GAKklFaENp1+y6667RyBW/uFJDzgbjWFaYWhOj08PYxlvf+tbobKghD8a2zOFTFvHqYjaTQgcKKxnae460FoPiTsVR+s/+q2ev00YyhUkbaR0U0ummfs2Rr4nBaxbeBF7TnwgSpg9L30MKkPJgZHVDcCg7g6+UlfE1NKbQBG0e6VrQqCMo6VwjFQ4BQS9zLgXDHqlstaPUmQ4JnTxork1MaUqnS0vX4pwNo6Z9HyXRsaAQIfxlKASL6yI84fOWSmjPOeec2OXULw0UYkX3ZykkCkQoDNvvQi5EjG7dU045JdYPlQoLn9pR4H+XBm17wgkntI94xCOiHZPxZChEj/tFEOOXFErjOtbkfPWrXw3fXf66kG/B3gBPetKTIg7fF6aLLvr6nSxjYajo9lWWwjyxbqlY2Xim7IPSWQzqdLVNMn1tpKJwou1j3dA5Z59zXVumCl/+8pfbPffcM/KoTPZAmIl43fZqBt+gM3r5NYqHP/zhQcftt98+6KqexFWEMoYJnBemj3iLgLbf/e53+/tbaAtpK2ln+vWR9773vUFTfOD7mg/QXHxF6cWaqgMOOKA98cQT26Isg654alBeM3SfjQtjsUisDY3CrNNCemoE13pwbL9lFgIXjvUBmqLWFrJVZ02bSDc3raRbN9e++J5GFK9R80xbXDRWQlyFkHHuvm9ZiVxtaSWqSajymPkwuCsuo/OWYdD0vmORXBvorPPonGtq9gTtzHq+6lWvimlJtKj0pV3nazGo0wTX4pRXswAMyrIYhgHs46AXsaYtsEhGPopAhbXQnW9eYh23dpAJsLQ/K2Huor0mWPqkMXool+/q68LEES9r53u0Um/qj1XnOeAJ64zMgBCf+9z4Og/iE6/4kn56GXWvm8BqwPmOd5iZ8sWFzHcS3XJ3Md/zYTHycaQkAgIoEAIoJHcAI+qONSXEHDqE9B6CExSuG2bmgnENEDYJCIhsmhC3TQXouuXGqWQV4z1B5RE0xM4l11y8jEOc0uP+cElUpKkp8mkE3pQes80JlXuO0rXXg2tjHDbfV6F1pTvXPtC1zMXz3JgI9zR/pUGjfBSVV6cb8ZagPITe9CTnxtAsX8+ZDQnlJ+gUEPoZOiB02U2eykTwHgFSb5QfeqkvdYvW6s/3hERAP7TmZqtzR0LiXHqmL6Gj9UzqEb3ERQFKm7JUb2im7tDQM+9I1zvi4goqpzikt+Otdpyp1003K8QpheyRpy73IMz3fFiMxSIhPobVBkFIhfV7o6bGq4gkHEHRXlGBBi5zYJVAEQbCQXOaeqICEE98WYGyLh7XCIKgBmRZDFpYW0WcoO1lLEpl+jUFgmhcQ3yEClgn03tYJ/mAwk7BlN/9z+9GXqRnHAmTKgem6+KTn/xklJnQGRjGXLS7dodvloJudYkXxC2flIo9+1hq+dz9Xrv3lUjCNCl1RHkQDtbSshKWVPxor/4wrJ/YNH7mPqbHrMqMyW2yYsBXO0ibU3nRhzU0RYplNOhLUUEKqPoSXx6lxzvYZ599wjtQd+4L0mPleRv2itCGUofKJy7fUrq+teJZXnING8w2ZpjoXi8WIxGkbhR57Wgg7uijj44Kc81dknkm3nw1jVyMfOOtbhxMlqbcyk7vq1AuIAKqeFv86oVTWSyab7NBamIjQmIIWjI1J6g0laxifGf2s4mS3BmNZpCub/2KugFKcYJ8+BajEjxxpwAlI0OuB5IGLSzv3DuV7fu00ktBTVuQFsiPe67lUaCo8j6FoHxpEeUPHZzLkzxm3tGKEuMWopFyyLsj5WT2AZeKshF/fpvB994lANxASkVnkrqjSKVJuRBgE2V1JgkGZtWlOJIP5BPtnCsTgeLR6PhRh9JXz5QvBchy3mTbmwRNaqRAiadG93qxWLQgDfos7pV/Cs63VlC9W5Z4qyDEZaptc2tVKS2E0QDxatQFzG8zIKh7AiA6gRKXFa80I0Gs45C3DPKogi75zSVhnfj9eq9YPMyncmk3MxL0FonHd8q1zvSZDglK7JGnYILy5xvvunZfGUdRcf1yOF87c8zewP59afeu816mncf6HWURByEw7HDMMcfEXnlmZLhGF0vqCdDuu+8eyiTrrBtvQlwpsLqwr7jyirh2H018r95YTPETSPcTme/Mp6AOWEZW7rTTTgve4m14xipSgGZ3mDHhO/SprVI3j93rxWLJbaQsrIqIjJc/Gec26U41k9s4gwxr+9jiliXCrIjofoZBcN/gYRKcu0iT0UAZVLb7dWXMFp98gnfkl19vWyfva7dxeVg7mpN2vPOd7hxaTwUK+et7g0B4/IvzXpnQQjrdZRSjQgi2ODvRZjrdI3TvyR/mxtgskU36rSo2LKHMXCfWidvLpUPvueJPuJcWa8uttmy2vvHWUV8UqDrMelOv3quFqEYdt3e8r92nLSXP2q/yqu5YQC4pFz+UdKnv+vtuPgflezEYWWcDAUrQEDSFRirmlFkVcNRRR8Xm7sYCVFwNBEmmWCf0OCTOC1M6ejePCCuoiIijhC5TrYPrshnCSfgIjMZtVoQjN46F2mHHHaLtJE4uROZhnVAlmPcSed49LgXrxOV0EVHW+chzmp7bpEeSu+s+y0PDW86w4w47NpvdcLPwCDzLAHkchP67hXZZXxmyDqPeFgD1TRi53zwQvbbqi9LWfiL83HTxhnKfJZ9z5XshGIkg9TPTY1I9MpYK61Xh0tD6tvTV08U3hr4l66FuIA5CVEQvdK/rMC96yab19I8bqFIQn0ZmTQkSH5/2u/NdZjZAVHkD03Br3eL0ke93jyuNbj7Uk84YnQu5xFvZbZSvw8QMcsovFSDmF8dCypXvd8NiIQ8smraafOmxJEhcSXVHeVOE6sZz73exlPRrLFqQusRAeCPselT4rpYNM7EYVH+/0X3MGK5Rj+nSAuUoejfOmZu9wvaO/fsLxDrxBeeXI+tSWRguBz+bq6BSWCYVw2LpXUxB6oaIy9+AZxkS9flS0I1/rjDo/S5oc21FCxi1Y5TVbrFcce3EFJy0IN14BsW5UGScddzd6xruyQuvAp9xyXVuyT/r6rm9HrxDkPBb1/INincxWJg9nQUyKUN6rXQw6CZWEBpNT5penpvd9GbRx19bIt9kmLlx/VCezhxHVOBALz5EreNFcD1H3E8ug3KxTnqcCFaWM8M6cDlbWOWgBJVTzyrFoZyEhzvn6BrQK2l2vfIvM+r0CZJ60wWeOzrxKLKnUJ4phmuuveZ6ntCoMDJBAg0+3dSESYZpeHsBECaYi/iexZ9jFcbGiAPilWcNVIOYumM1kllVc+104Xbdz8hf79jP7wRCvVkqroxogDHzh89odwpmNYOg6LgwHkmYtH214wyTGFPT04tHCdO4MBJBCiYqfzlmoLEn07S6QTtd3gqLeWfVCHhwhflQ3gSzK1RKujS0NUbjOnQxicKT5UxoT9grQ/nUm7aibm4eBUEapoyz1usyAX9pK1GA8i8/vCIDwsqn93GcCmEkgqQQMq5vX4NV7xZrZIRa2yIErbRFQANf28PovxFzO/NwLbKy4t3OeV5DlwkWgoxLPvUoWhGqQ4TVSXiOgfwSnC5UZZNf3/zof37Ue+s6dPOSaWRYDejmp6Yh2hvwNlUIo7HC6gxDEiravQbGNEtFO1hPmQH2uv5GiTrPwMLgF3VnZgo3tEYqb7Mt8KBOB20mbd6MJ+Psxr1UjMwiWQOkQmgBzGdqDr+1b41676nAiy+5uHnLW97SHP93xzevP/b1UdiFVsZihIl2lQ4h1jtlaYSdWHXR01iAmbgBxrx0n6oQ32iMs0yTjqRxChMXSL2ZGwiUCAWo3tBC+cF32h2EyDJ7tGPFuIVjR6lqA6va3pTvG97whhifJFhd6CxKJaB8vCP1ljw4LowkdoxHOxAi2h3DskhGlz1TIMwIjlwIrpLxJm0q2zfl83EC0wjcT+touKIsDa1KkJK55AVD6fLV0+geJjLCnzMJwP1JBKYKgSrZp7WVS/nUlbYGS9yFshIaQxs5MTbHmsbpMmWdrG3XRl3pPDCf0Dl+68KYknHKVODZVhp3XY1EkGQyBUnDzjVBUiCuguvU+M65SgQutQRGHndBgZaSD2ljGsAI7mMGeRBcy1uOwruH0WhuFVpjOfI9aiizjpNS2qgvY2cYjvUxLqON4Z06AJqlwkEfIWk2TmQa6kB+pStPg9JVBt6Q8UrPKXXz87K+M65uWCpGZu8UkIDQ5hhRzw/toGDdjOa1b5K5R1GY+UCo5S+tZM0k9XQleXLM6UjeldfU2onlyPO4UNgnjmiv3gAN0Ei9DQLaqc+kn28xak2TcUBepSctFlQ+XNf0r8/l3xQ0+RIoihT62TDXs2EwEkEK7VYykkxKu2NGyAzWBVFh6XtDMvFyQDopuPKZeYbUsnmuK5xC8Nz7ecxyJLrXkELZDasFJTfxB3X+0YQwdaHs6OaINugGQbPOsMC4kPUjD2hZexH0gmPWZ3pCrilA5wSx//4AzHZ/GIyGAqU+aiapmSbP48e8eucER6YVOMNyQUVk3hJJ3HyW14m8Fq6X18XTfmXRI4EyJYNmGZ13gSFTeBJoFQsWez2y48JAug9Cry7ki9CnoGW+3Yt3xlBnY1UlCpHIc4VLZAV2GXtckIdBabk3bB66FVqXcVKhDig3R8zGje0i66qLInr+WxbMS+tShTwdrp36xGuCe3kUx6CwVIxEkNKqyHwSPBkzM5mNdC5ftouY2q6WGyfkUd7yKMxFxFrAHAe+O5z8rUoEE62d0djaHpCM6H4d0Co1fNZz0sTfOBFplIBvpDsbvKMsjumGCjqXBB0q48LIBAkQOgXFuUJ7lgwZldIjiu5l91Sc3jHn40bmE0HlUdruZZ4g8yrkO1mB3lEuqN+fVHDJCIGyZHnXEZAqJANnOyPrd9zllxaop+y8kmbWQx8lG5kX5cBT2Xkin8mbOVE54ZtRlGEkgiQjMgmYlGug4O6FIJW/LATC0H7uJ3MaNEuCjROIKX/W2NBcQubh2mtmNFgXWWF1mSYdypFlVf5ss+q9M/6iPnkQdYD0HgiTQOv7nkGiJMeBZHJHdZd5cN0VJnlxX748U2feVz6dRo7jwkgESaZpANMzrFq0a0/+wrVnClMLCs1iIqvBP7MHLJzrEmUcQGh5se+AFZbGS+RZ79wmm85YURWRwfIJ5TBa7j3rW/IdyOOkAR2S6XgGSQdjL/mDXrHkoArqT72pL7RzzD0bwqqRpjFBPuVXXZhxgsfMhyT0NeRR/cqT8sinQXX1Tbgo9HFhJJuf0G40+g//+4cxBwrB/aKdikGEKFxvOyplMUJunpY1SyrEzjFZsYlhslW/PwzkU16MyFsy4FraiD1bXOag2ftNWcxkz4G+RJ53v19o3pYbaZXQw1w0MxZMlfLTKjvfZefr5d/OQ+7ZAs27mPpBD3pQ37p7pg5HDfQVv7waDzKb28wYk6HxTq2AvZvlMi3Ial+WSL1R1tbLdXsYR1VvI9tFaLYMZME8T2J33x/0/TDZmi3N2TBXPheK2fI3qvjHDXWiDBhxUFm690IZDnBrlddOSo5dJh0F5IPbKL+DtjOr8xnvljCoTPLHHZ3PNV9s/Y1lX7saop8vc4PeGSZbiy30KDBb/lYyTwvFXDTuPputXO7nu+Mou7jr+LtpzFWGxWCxZRi7IA0DWVgMgcZRcQtFN5+rIU/DYpRVv1LlHjX7LrYco3dqp5hiA8TUIk0xxQgwtUhTTDECTAVpiilGgKkgTTHFCLAq2khTTDHpmFqkKaYYAaaCNMUUI8BUkKaYYgSYCtIUU4wAU0GaYooRYCpIU0wxAkwFaYoploym+f+qJHxHarsZFQAAAABJRU5ErkJggg==;" vertex="1" parent="1">
          <mxGeometry x="1030" y="803.14" width="130" height="118.86" as="geometry" />
        </mxCell>
        <mxCell id="dC4sRMdMSoydmVsc77Pg-20" style="edgeStyle=none;curved=1;rounded=0;orthogonalLoop=1;jettySize=auto;html=1;fontSize=12;shape=flexArrow;endSize=6;sourcePerimeterSpacing=43;" edge="1" parent="1" source="dC4sRMdMSoydmVsc77Pg-8" target="dC4sRMdMSoydmVsc77Pg-12">
          <mxGeometry relative="1" as="geometry" />
        </mxCell>
        <mxCell id="dC4sRMdMSoydmVsc77Pg-8" value="Embedding &lt;br&gt;API" style="sketch=0;outlineConnect=0;fontColor=#232F3E;gradientColor=none;fillColor=#01A88D;strokeColor=none;dashed=0;verticalLabelPosition=bottom;verticalAlign=top;align=center;html=1;fontSize=12;fontStyle=0;aspect=fixed;pointerEvents=1;shape=mxgraph.aws4.sagemaker_model;" vertex="1" parent="1">
          <mxGeometry x="640" y="1042" width="78" height="78" as="geometry" />
        </mxCell>
        <mxCell id="dC4sRMdMSoydmVsc77Pg-9" value="Piazza API" style="shape=image;verticalLabelPosition=bottom;labelBackgroundColor=default;verticalAlign=top;aspect=fixed;imageAspect=0;image=data:image/png,iVBORw0KGgoAAAANSUhEUgAAAIUAAAB5CAYAAAAXiuJeAAAAAXNSR0IArs4c6QAAAARnQU1BAACxjwv8YQUAAAAJcEhZcwAADsMAAA7DAcdvqGQAADAjSURBVHhe7d1VrH1Jlcfx3TTu7u7u7o010Dg0ECzAA5rwQEh4IpknXnmGhPDWQDcEd3d3d3d3Z4bPHr7/qZy5/3v2+c8599KXWUll165dtWrJr1bJ3ufek/7zHzQdcUrFk046ac5L8t2vI3X+9re/TSeffPLcpjI03p/jHOeY82d3OvKgoN7f//73+bqfU9dRPDh+BFPtgaZnZ3c6GtBeQJz617/+9ZgzkTJpCXH48SIBnngfFfq3mD4QNVM153a/bnQDzp///Oc5vwoObd3jdTzQnN3oSIPiT3/60+zQc53rXNM5z3nOf5b+N1F7KShQ0wOq/sjD1HRU6EiDQkgHjD/84Q/zlaqc5wosqb4EFOprCxwAduELX3i6wAUuMPP4y1/+MpcdFWAcaVBw4He/+93ps5/97PS1r31tBoeogag9jvh1pE6guOQlLznd4AY3mK5znetMF7zgBf8fFNsgXRp5zceVoRzl+fGecczogL1UUFek+OAHPzi95jWvmT75yU9Ov/nNb2ZQ4Dvy1td+hFd9q3/5y19+uuc97zmny172snN7oKjOOsJDim+2kNJlKa9d0IGujHKAxLHSWCZllOqMz0rKOVy++iOfygDnV7/61fSjH/1obnPe8553ushFLjJd/OIXn5O8aeBiF7vY2nSpS11qOve5zz3z+dnPfjb99re/nftAmzgwOUfdy4/pMOlAI0WONKrGkcooEuNyZGG6FX+hOYe75xRXI3+MGqODtH/9618/vfzlL59+/OMfTxe96EWnm93sZtP5z3/+uX/t1Md3P1JH+vCHPzx95zvfmfs87bTTpgc/+MHT5S53ufkZ3eK3H9ELpY+phyybRJpd04GCghECRZRDMjxxJIZybRTlRPUtGgNDbeKjDLn37E1vetN01llnzaC48pWvPD3pSU+arnjFKx6bRpY6gvNe+MIXTu9///vntcmpp546g8JUok/P8VzHL1kbBIFBGWDJ40e2w6ID7TmFGUBiIGWlQMDARnlbypzHaJ6f5zznOeZ89xJaNSQ+eEi///3vp9/97nfzjuFCF7rQnM53vvPNSeRYl0w9I+BG5yL3mxBZJTKKeviMADlMOnBQULhpJKqscsZptIzGrl4gcR+wAgTjqlO7rviph+rbM/Vd16XkQvWbY/HNoetIf9qnnyuQa4vnqMth0YH3noERAzCShDKy57/4xS/mkZ2hJAaURJGxPMcg5WisXz35+I8O6PnxElKP44tgZPYMT7xKSwgv7S2CLVqTJcB4fph04L1TntISY2TcDCHMf/nLX57e9ra3TR/60IfmnYMQG5A4RrsRWKND4oWvuT8ASZ61FtHe/Qia46XkTWZl+AeOQLaEAtHPf/7z6TOf+cz09re/ffr4xz8+/fSnP50jHN5Lee2KDgUUqyM2YztHAIjXvva108te9rLpzDPPnN7znvfMB1B//OMfj00vtobqS+5zTA4ErB/84Aez0b/xjW/MbSOgACz1JRSv/VLgtbYQ7jmVrPj/8pe/PAauJaT+5z73uRn49DzjjDPm8xTRUV+HTSf/xz/on/mdUwZGnIdyJEB89atfnd773vfOOwaLr+9973vTT37yk3kx6JBo9fRQO+3x5GDP8PniF784fexjH5uNbhQK0epf4hKXmO585zvPi81GZc7cLyHA+sIXvjB961vfmncyQCcvkiHb3eqO7RD53JPRlPipT31q1pGM+NBTVKOf8xPyqV+7VTpe+bZoa6AgaM6J9hJcWZHB6GvUfulLX5pe97rXTW95y1tmBxjRwNDhkzqAwbHjYlNyz7gA9ZKXvGQ+wQQGzmNs5Gj61re+9XTd6153Nv44sruSKaoMyesPuICUY01LAMihnPyud71rBnKRBH8JT/rQU/33ve9905vf/Obp85///BzR8HGAJnp8+9vfntvbOtOfXngAOz7kYDPl+O2KtgYKApcQJVJkr3uKprgwb1Q7imYo20XvFtRlBM7gdMC49rWvPU8fyDz86U9/em77hje8YQ7BnISH+Z4jr3KVq0x3utOd5sMmUeIyl7nMzJczXHNcspVWCS8noFe60pXmAyvOAzjO5HRyiiScLeKZCvAGQCAhk3cw7373u2eZAYQst7/97WdZ1HcFLLIABj3JsiqbvvSZHbZNOzm8wpLgFGhEF0FcAYJCjGYx+da3vnWeYzmZAe9617tOd7nLXeYo8c53vnMGi9HpoMho51zOF12+8pWvzJGEgwABf0fSV73qVacb3/jG07Wuda05wjiqFpb1OY62QEHG45HnmYkzOE4U+vrXv35MBqAlAz4inGmAY4H46le/+qzbO97xjhkw2l/60pee7n73u0+3u93t5mnoVa961fyM/qLZKaecMt3jHveYz0jIS84ihsFET9dd0NZAkdMzLrarhlZH8gxYjCxTxkc+8pHp17/+9ey4G97whtMDH/jA6ZrXvOZcz+g3pRhlRhtjMxogCOWAo5453QjmCEAQIZxcqs/Q6ug7ECRvoB3ljpR13zWwaw+o5AAOyaLTorhRr1/TFjkAwZta5WQEBo4nJz4GhoiHB5mucY1rTPe5z33meqYXpE/PdgWGaOtrCsRohEeMuEqUY0QhHyBMD5x6y1vecrrXve41Xf/6158jCR4MwrhGKAAIu9/85jfnkacfUQGAbnrTm84GvOMd7zjnGduIBYKAIOX8rtEoPxqfk9coRfHAE39ABkaRqYhkdKsDxGQG3hakAGI6EwXIiE/gobPp6Ic//OHcTjTqBV6RVXQjQwDZBW11TYEyrHv5QEEBZUI8p4oQFl0B4la3utX8KppDjYTqmpOFWqFfeBZRGIRxhWbtGNncDExAwsj11zUZyJSMqPvKqhsp1x9ZOETKGZ6pb30BvNYbHO3KycChPkCxA/Dc4Q53mKdGkQCfpgTrKG1Ma7a79GQbIAkY+qlfCUh2QVtdUyQsynAMGjFAEcIK3Kg3sm5zm9vMC8Gb3OQms5EZRjvOZUy8jBwLtA984APzM+sFo/MKV7jC7JCc6SrVTl59qfvKyCNfOB5NoTyqvHbj/Uj1yVk51xTp7SonWzwDBUAj7ckAOOojUcIuypQpDxQiqJdvN7/5zWfwoF0BAm0NFCMbeSnBKWyUixAWjhTmZCHRovIhD3nIvBjLoIzr6t4c7MpwyltQiiDaI3UYVxshXd/qNaqTB9VHDsVTe8/lA486wIKHMvN+99IqaHJq5Dk+OV57IJfwTibPrTdEFXppAwgWpRafbasB4uEPf/i80NZ/9tkFbQ0UjEJBwjKilPEBAOod6VpMWYh5bv1wv/vdb7ra1a42h8ZRSUZUhsfoLPwkVD4Vxmfqo+7JJzIJydYj5LFjIBv+HCfhBWymK2HbyHQ1LTgjEdmKLMmUkyvDT7/KK3OvbnLJj6YHzLGOKCNivOIVr5hlJZPP/0yxdl8tPndBWwcFYpRGE+faatmfC6McYVRA/sMe9rA5QjRXqh+PRh4jRYnK2Iyoj4wrZVSkvRFmkWfLJzEuYwOC0Wlkqlf7EtIH/gDAIZwAHLbFdg+SNYL1kOe1Q5zqPn1KAaL72sgHJAm5B15bdhHDzkWUudGNbjRvZQFDtESrfJGy0Xab0NZAQYlRuIgzXvnKVx576SO8U0yEcHVvhKJGIMIDz4w7UtFjtU7lHUM7ISzZKprXgSA5Ga1QrH394KGeJJ+BgVnkAASLXwtKOx+LRvfAPTpaOynQAHJgW0fa2XGJbKZc0wkdyGDLbdoFDPbL+emgr2ROp01oa6AgBAMiiqfUq1/96vnY2ZYMsi0Q73vf+86LSgrqnvEpoJ37VeXGshIgufZc36ISAFiQ2u8DpMggYnjOaUa7KcDIN0WQgWHxyojqcqB2kq2liCO66KNQj4dFo7AOGNe73vWObR89l7IH3mSWl/ajbEI3CcC9GJSsy0QMO62nPOUpMxjpgL92SF47NMqxlLYGCpSDJHkGfe5znzsfYzOmY137cwsmziEsB6hPkXiUT5lEHO85Rj1lePcpv/cQdjjAYHoABGsBZwjCvUQO2z+jHlADRYkMHBgorEWAjHOcpIpERrByddtOWgQ6fDO1AJ6+Rb9xsKTDfoSnNkVOoHSqa4CZggFGlHrWs541X0WuERSBDo9stAltFRSxIgxjQvTzn//8Y+cREG3KuP/97z9/QEvp0cHj9EHxjJij4u/qmXbWB96KGkX6MaKNYI7mfItY5xlGc9vX1iLRaAJ9uc8xTSFIuUWyNZJj+Y63TUuiIn31Jaw7PwHEoiHHer5k6oiSg052bBbqIiE+pq2nPe1pcx9ASR91yR9A3B8qKAjAgATgMIZkACPYm0sfvDIoBYymxz/+8XPIrW3tUihQpCx+6mRUzznEXGvO1Y9n2nK8vb3zD6AwaluU4aPOaKwlRtNG5EH6AQLT00c/+tF59AKKiEXmpklnL2SIPx7ptI6ygSnLa3aHffoDMgC/293uNif3eKqP9CXPZuhEQLHV7ylGBxYFgMApY4smIZeiwnDHwi3EJArgIU/Z7pF7hL+3kS996UvnLa5dBRKub3GLW0yPfexj54UY0AmtRhaKb4aST97IfWX1iwCika4t/awfgM6otWUVtegpWVSb/0VMz+mIn7ZLQcFOdm0W6uylfwdg1mT0sybCb5Q13qOem9LWQJHCHAfhQiqhCUYZzhfuOVAo/f73vz/fm+MZTLuiAIVWjZfyQuknPvGJ+assoxPQtDMtnX766fNLJNOENQu+KOcjPEdjla+/8iXkSj48yByI9Es3wDO32xUguosa9BTBDAR6GtWBaj9iP3o6vQUIee0sZL1Es3YRDclDN/KMNou//InQVl+IjYZPQEQhTqKIeoDh1I5D1bH3B5oiw5gCm3qM24LLOsJIaoHnUMc8bjUeyKKRHxpH1lhONrRaX3m6uOLt6rkr/axhLGitYwyGImN6crTIYmoZZduLRBzAp6d1i34AwnRhWsxWdFiVxZW8oy6b0lZfiIVYRpIYImGFW8BgMM70SysjSrntFWdWF2lLYfyUq2sXY361w2B0o9OLMKNHpMAf4RGfeLpKo7HGNNJqefn4jvxHojOnmy5Nm6YcW3FJ1NC3qGJw4JduqLMa93ZO1inWS2wq8tm13fa2t53tlD5oBMWYojG/lP63ZidIq0IlTHkGMOeLCl5kAYNy4bfnyNUIGEMig3qxZPXtu8YM5eWS0WPhytAoZ9VWGslzhhyNiVzdj2VoLx5Rz0r6lPqiyq/IAB5Pi2Kf7Pk+RKSkA+AjVzrXHi/2SR5AasFcmXp0iJIhqt6J0NZAkTJ7CVYZQwiNtlWMYGQ55qa0fJFBvRaf8o54LbgAQpkwfO9733seOaIFsClHrlJGPkjSZyC3fvAZwIMe9KD5SJ8dREdbZ3qwA920ESWAICeLNuwCXOpYtIo2Fq2jfXdFWwMF5dCIzlEBeeHUiLFANDqAoVNAz/GQ8GAgdSyynD94OSTP6M7+TRlGoTAdECR8AuNBU6BGQG5k25I+4AEPmA+0ONiuScQQ+QChaQPRXXtTrGhq6+kegDqQi3YJjq1ZLme4ZhjEEDmLUh34KAcIYdGoitRjXMbCz5RhfrUOYWRThvcmRhHDMyTw4DcaSn68Pygid/0aBGT0EZDIxsl0812ncxs7MM+LikhbehswfT9BN78xEWHtfqq3K9oaKEZAFDW6RxSzPbNrEAaFfCtpyjNUbfBpxDg19JYQiBjHgRDjBogMkyG7r8+DJjoa/WSjU6AV3awxRA1bU4tkugE8J5MdsMlNB20AxaARYZSZesZosUsdtx5jcyhFJMZxtXuglFM5xrJQtEC0lUPqjFf7fEYzlzIcIPj+0lkAI6L6cT+WJcNB09hncqW/KOdgzeGTNQO9REA7KYBQD6UTcNlpmCLlbccdhjnEop+0K9o6KHIqoiDDcKrQZ8FofrRTsIW0EwEQNLZjJG86+x2I/T/jeLPaKd6qA6LDAENE16ay5AisyqwTREdTpuccbH1hN1J9V/poZ1r1joj+ytQ3sABkl7Q1UKQU4XNaI5ZjrSWEQPdA0avzRpKEzMkOfOw2vI103we6ooX2DFZ9pExCY/lBU30nT6lRTV/gNiBMh5xr4ck2bISqjxfbmELaYdmFeFvruks9TxgUBId+NCrvSuDKkBdhKdPby16GqVt97QOQgyoLNYa0lmi/H/+MUh9Inkye4SVFPSu/SpW5psempI21wKqc+rWuUGZKMIV4VyKqmFZNIQZCOqlfe7by7gSIOvSzNqsuWpXVfelEaBEoMnAdyVOI01COUGaq8Ny9qUF96wjTRzsIUcKpnyjgeW0ldRzwMBLjMqDRYh4eV/auyYPUJYf2SD7jIjKR173yvfRx9Uw/8qjn1a9sr0SGKH2UJTPASM4gLDpNC+S1EzFg9C06tL5IR1OIBao8UPhuxGI9GZMPqZOso/6b0CJQpKxOUpbgRjFKEAobEShwcC5QNBKcSYgSIoaU4hnC6tr2i2OETL8GM1ostvAeZdC29hI5gUedjIQyDHnVjwcZpeprD8iNdnV6seV+5IsPUiZFytXFg8zqc6Cknuf05mTg0D9giI5shMjbACCD6cPACBgWqdZn+sEfX/XiXzs2ld+UFr37IEidofJGnj035NpqUkziVMmiyCGNkWD6YCgrcEfTHE7olMLPHOtFkO8jGEWI9cW3bRkDSOppFwhGUuYZB+irRSwDZSR1que5a3rhl4OVuedYyT2ZiiI9H6+17b6kn7EvzyVyWlCzI8ADiQiqjroIaICZbdiTHS3WAUl06W9keGZ3YgCKJl7CWbsl+ya06CObjDAS4zg/8CaPYIQM3RTO+Ixh1cwAFox+J+qsgQEZAu+cBP3+iMcb3/jGmY8vtHzxbfuawTnbs2QaxZdXlpHd1w5/cmmHcpznACOPt7bVjXd1tS3Vl1Q/6nFCbRu9BoA28up7LvpYSzzvec+bR75vPZ/4xCfO227146k+eTj7zDPPnL/AYmfTsHUGYuP0Ulfy9pidHYCJnpvQoukjxaXuCQG9DmGKCk7o7BgoCQiQa1EE7VBrwSRRAuHBQJTAG7q1kedUi8sOt1BG8tw1ki/hyblGkS2tL6NWF2Y5GT/1M6S8o3QOcBRf5JMAlm5Ak8yupXjgCQx4odV+I4636BQFyUt3g8zgqk2y4Wn9IZKInqYf0YI8dLNek0QIUUN0lvBj+01p0fSRsctLFDf/e5UNHBSzD+d0X1RR2FxoBEgcbHHlqJfD45VRRRLbM1MNw1tHeGfgyjABUn6kDIjKkxUYHH7hiczHHIHSQT1XPOkDSPoHpqZE06OrxPB2UuqKCPQAcPLjQwdO4Si7CtS6SV/VkxCHcayBIHKwGxsCAH2BQT/a1o8+RQjTDICwM936ig0BDLIOcdjX2m8pLV5T5JTIPTAI9SHZGb8fzxJGAoK2kw5tTB8On1COzkBGinAqeaYNXgxQPeWjUcsnX0bnXL9X9SJNxGJYB2UMWBspHohDRQc/R3C0DkzN08pFQ6OP0zmck4TlFq+AYmT6kwJ2T6JlC0pyBcBkJK82BoB1hQUtfg62DKJRp9qImqZSYHAaLLGTcw9XAwg/cmhj52YQbgqKRdMHpxOqUZqCDEMI96YHTud8B03mMoIChx0EpzASRfHTJsXljcDCMyfaoYg+6kpoNGjtUXyQuhxnhHM0w5vWOFZbPMb6qHJ9A5SRhg9j9sUYh5jL8RFNOF4/3mPEj2NFFKASbQCDLuxGlwZC9hO5eiHomalL9PXcvUR+9xJ7G3xGPyBwuEHnFX1H6ICvXZFMP5vSIlCkRPkEpahyQjCoxJjKKJBDCad+TvI8MMWXQTmD4RlOeKRY/CV5z7SN3CvnVPyktsDK8OM8EUiIVl9C6pIPKSObkA68QGnRZ7FrceyzfYYXooHMNxFGOCDrX+LcZMYv3ki+PuTVaV3hSj/rCdE3PdRjR8/o4r4y7fWlHLkq85wOrtlyU1oEilFRAgIDogQjESChEsK9RAGkDWO7V8d9efUYQ7SQ14eo0+jCN0PJtyZByuKBhPbePpKrfo1a6wz18USuyRBveeWcZfrzkcxDH/rQ6QlPeML09Kc/fd5Om79NdxagIou2+LjqE5EHv+SSR2yZTZDnphhlQMumog8ZyF57V23Hsii5y0tkUa9+N6FFoFhl3H0dJ9BI1RmvpYQtac+JkvscKb+O4oVHi1UAAA48GFfeiHZ03khF9S/hE0A4RR0j2NQhAgCihbOpkRPx5UThXvva7GWL41F9WktwOHviUyTEd6RkPR6t9r1f3f1oESi2RQmdciXGAAjhjqE4o+gkReXxqV332nK+w69Gmvm27zc50GIRONTVVjtX9wgYJX2PI1o9/PTpirTRT2BQd5R1P8IvHegLvPpDTcOHSQcKCpQxRmJUoDCKGR0oGJnB1Efa1C4eHCrJc5JVt3MTIdiuxQLMd5xW6+oBhIWgvtzrt/ao+/rl8I65rXesTawjTBna6MOxvbpLQaGO+vqJRKFA17rmMOnAQRGNBsxBknIGbkSuEoNK5REncp5IYBHImbZuVvZ2P/b+SJ0+7YuP/urL9MMh5OB4ZxV2GpIPbp3J+FbUeqJ3OKYU7bVJnqWkPt0DBHI/AuYw6NBAsUqMkmFGh+1HjAkQHGIdYc3AqdYApg5zv9T3CMKyXYOTPyNyNRrhE0DsYPxXoRe84AXzj6T9RNEZhnMPI9vposWwaEFOkWpTUCBtT6TdLunAQTE6PuKI5nCjpNEqvxdQMiSHyhv5nGg34N7CzfmCPN52EqYQYLHusBi1ZcUfn0bqyJ8M6ooKooapyTkC3s4IHKw5i2n6EGVc11F16kff6eoZndjhMOlAQcEIKAOUGMboAwwGEv73GnnVR5wWHzsAJ4+cqK3538miv43x7Gc/e3rRi140v7vgYGTdwcH6QoHPgs9CE3G+aceBkORQzh9s8++mnvrUp85bU4AgpzXH+I5mP0r+bOFee5ELsYN0mHQo00eGQfJGR5HCvTCfkSLltWNQznMPBN5JiBKAgpeQDiSAYJ3hXQRSX1unkq09EFAEQv26AoSDq2c84xnTM5/5zOnJT37y9OhHP3o+xDIltVsAhMCcfPuR/otw6msnyugf0etsAQrGpgDjlShV6PPMvYTcU3JUXBt5CTF+fJQJ7ZypTFtrhBw18kXqMKxk6gAKc71yawej1ii2FTWNlBy0AZ7IAkRFDnzoop/AqK03mF7wOVZ2dY83p6mfDEAx8hgpvSP57l0NAId2CA/Rii3IkW0lfLKjlJyejT6oTH6176W0CBR1NiqcoByXkISLlEXajQKPCiD3XpSNIdhIbr+e0oyGtI0/MIgIpgw8HEX7cwT+hJJvMR75yEdOj3rUo+Y3rr4vaBTamtpi1gfe9UGG0cGuY5k6Us9rg8Y2Ep7dj1dEBye5ZJcHCDqIFqv10je+qIEV6UvyPJlGPktpESgK63Xm6p5ArjqXNzfa9hX+RRh5qVGP1G10IeWBgtPcG/21aYTo11U7V3x7k6k/70v8pBAAemfhiNpfq3Xvj32IIProOwTrELyiUSblUnKvI/VGeUen1If77Ec/ZydthUUyNiDDaOcGm3v5vezL7pLyFuxL5V6lxZFiRKV7QlMaqiXC2uo5Uex7BElemZFpFa9eysYPL+Ha10IcRlnhvTlffaR+CWUUcjCoN7G2iqYhoCvMI3l1vLHVF5nppD1Z0klC2jFusi6l2rs24rUnK7nl46fMrokzAcRahQ08V5etqouPeuo7QPOCz5tgV3+O0vmLBXTvj1B9bkqL/z6FDnSWkQlMAL/PMDfb4gGFv8rvkzF/dsi3lpK/yOJbBORQycqeERCeEqWtI2wX20X43ahXxfpkHH3KU5TDEGfjJwI4rOpFGlDgyfHa5iCAYFyHWr4q9+2CORxvaw3Rw701BF6iT0ZeR0Y9GyDrD33gHyU7echi6mAfi2H2dfra53PkVoce2pGP833+6H+s+V7EDsv3LKON/bCI7URevKyHTEub0GJQUIRwBKUYoc2F3jwWAdShnNHnHqlvMcjRHGM0e8uo3jiFqNdRsjMB7SmkPsfHHw9tOFYbI4sDvePgBNEgkEnJDITyPkTp+wO8AwuQOc8AFGcQruqOU+c6Akwy51yAKFpJZGA78uFJT851VU+/tr+cqF9tkDYGIMf7joO92T/e7OjeNAQQ+sHD9xbkAfJNaDEoopBOaAYlgNEs9DGqkdVJIoeZI4GkqcBzIzBHIPwYCi9Rx1SDoJ1SHE35jFlbZfE1uhjJM4mcgKe+esoAC5jUjfCMrysDep5jtFO+hPDX3k7HFMY+ytIT4UUeUcI0YJRbizlcs90V7ZB29e1qQe24XSSlG9uyi8TuAMzmIpTjd6AWaQ3Asf8ltOhr7qo0WglJMcIJV0a4Z5yvrNHHYRDuvYH1hTp+fW2/b5RCeCBTXzQxEhwt46mOL5z9TSsAUbcRb2Ror0+GK5qokxHkJbyVeS7lLOUScq0+0ge+ZJOWAANP9eKBpzJ9V9ZzZyX+GLspQD1/vsjhmKiH1KlPQO6v+ttpObb31/GcrKoj5aOuwAkgwB2fpbQoUhBwNJ6UsYwIYbMoAZkQKy9BMAeba83ZnCes9h1i/CRO5nQGU1c7/NTVDwNrw8j1z3mSvOfyaDQE3khZgMqY0Wr9UjTm9yP1kjO5usZDBLNI9D9PDASRyR9y63vKsW+2N7BEFAtJZIqxs/K5YxGanaX80C5r1GspbdSCctKqMTlTuatEIUZAwhv0E1S5+dCCSMisTkbgbPWEPodQ5kiGaHuK9KNu/eg/ecY8wt+9Nkh91KhF8ShPBklZ8o0811HOr68Ij8pMkXZX1hL6MqJNH8ChffLVvy23XQd7cLbpoQXsKCNeoiDbNZWeCC3SNkdE8soIUXnGiAhpRCq3TZSsL4x+U4nDqYytTklE8HUTcFBQuAQMYNKnVF39lcZn7l0r67mrPhmteyka82j1+RIa5WoKqAyZ7gDCNl1eePdepblfG/WRq8Fg12FnRmZgsK1uIEqBeJU2lT1aPgQWUMpklEBjPWABRfHCof01hUeDIQ6juJ0EgKijrkWZsKwuA0gMgvDMmD07DBqjGVlME5VFBoNX/EY/+xgoBoGImv1G+dUXKUVWAGp63qWOO+Gco3OaedJ86SWTcqAwUmxVORNpUzth1OmjOdKIMLJ8Ns9A6gAHUnevdFiUo8jI4WNEUkZfeqc70NuGmj7UVxePbNGAsE232LResHMDjF3quTVQjA6hEKJgiy4OBgojQtjkYM6Wrz6Sx8d0w2AAZcQxjL/6AlDxLTqor8xVWREleQ6KOLaohciWbtYDtpM+8rG9NOpFQz+g1g4A0keSD0SmXLqIttZnptVd0tYjRUbIURmJEYCCYu6bQhhrbCNvxFgo2WebP0UOp4WOch2W2ermdLysXUYgxO8wqOjIyVIyWhvZmruS12j3f1SLhmwF/J5po61pw8CRN5gMFNv0Xeu4k+mD0F1TgLEccXOy0W8UWHBaiTPEXsRwfopota2OedjxufcpIgyKP8MfNpEh3RGdldmOO3iyYKSvacDi0i5LfYAQLWrr6nDLAtvWHB8DyjRjgFRnV7R1UBBWCskUojTqGNhCkpONBCMHQNSvDUPKC5OOix0bMwggiC729/b5fVKnj/oc+4/fQZH+AieZ3Ns1AIQ1kWhn0e2YHdgtGNUpOrSjEDG0s7iWBwRrsnGBuUvddgIKRGghnRIpwsnCHwWNDE61Ejd6UrL2jKEdIAGFqcTRLgB56eZFUOcd9ZFD4nHQxKGtoVw51vsKIBYtTIkOnpzqtq0kd23kyU4n9b0oo5Opw2BiiwZM9toFbRUUozMInwLlJcAQPhmI40UK4BgVxacFKIOJEuZf4dZbTkYzjRiBoo01Ru2ljLuO6m9bpE88ye743xrIf/QR3QDA8TRwO552zx5kla8tog9AWXepI7r0ur86yveT//+i28YvxPYjDkxRo6awbnS7em4F7lN5H85yLoD4Q1/WG9pRRjugQdopt31T13MjyOILoPBhNAu22iALWG2lDCQfkUVC9Stl7BIa80h+1Sny+JPd4tDrbRHClOGZNYEvwYDbyE8vlJwl6wh2Ei0AA9GfjrWV2CAeozzy+eFEaGugyCgZ2DwpLxpAOPQb2V7qeLdBIatpP+C1NevFDaOmHH5dTTf42Pt7C2lbp57tmrwrw2U09WsbH/UznjJ9ZbjquR/T2Ha8R2MdAANy0cHvRawhANZz+tGzX60r24/oKPXHT4ocdOqdRrLrm04o+V3TUdqUtgoKRCh5RqKEe5HCyru/Xi+8Qr3P5vqjqTmx9qNy8QYKgFDfcwZz/G1kSZwAjEJt83WGwQMQJdQzlFFHUj8A1b/6ysYI495OQUTwJtOvyOwaAARIrZ/oCRBOLzmzfvcjoLCwNLXizYbWXshCHe90GEERbzKPOm5CW50+MiJBEkoYt4X0ithq2j2n+pbSbydMCaE+g60qh6/kOWM1lcgbRQwnzEpeMrlq5zkgZRxJvhSN/UVjWe3Ge9SC0IGUnxN6k9kaxzcm/pSBj4j9Wg1QRzn2I8+BWlTRDiACv5NNuhkcps14KpNG/mN+E9oaKHRuFHJeo97UYXdhUdjRrrWD3YQvq40ETkMUGg3vHrkfR4I6+Bt1XpoBCMIbGITZkkjCiOTSRl8BUBoNiVavPUfqi0JArR/Op5vdhWkR8JWbBh3Q+QbERzO2n7aUokv9xv94lJ6AYbogN/1EJH0UMSxc1aETGmVFo26b0FYjBaMhgiIjyX/LYzgKUdCi0uhxIJWhKEUBzk8hz1IqQ3atnpEiYkjmWSOU0/TloMsodpxulDGq54BKTvwDG8I3A+rXc3VNdXhyREfzIp6PgQJDnw9yUn+ryzmENRNb6AfvALmO9J/uDQBt6QHs1k/A3icG+kh219FOrj1bSlv9D8aMiF1CEvw5z3nOvCVDziiMHqtwihI65ZE8haTmfkZZVSwwqZORjSAnpBxl3SLUep48wq3IZBRzHoA6WQUsI3l0GNAEMFcRx47HNhMwAATw1DOKnZ8AJkCYMgAeX31LgAW0+C9xELs0KMjOro73DTBrM8SW/q219QXdGlhIP/J4KF/S50hbBQUhGIoQjCV/xhlnzJGiudbWzH/28fkZZ6jL6Jwv9BKHUtpmxESUlwJF5HnlwGCqMoKFd4s04PAsYmh9m685zz1+8VwFBacCOB7Jog1gOVSyWDZqOYgTUI5VTxke9bOEtNWGXUQiv3q3bgFG6xXT0uMe97h53QHc8c1e+kfKlW1CWwNFbChDIAaAcFOIz9ItNG0dhTtv+tp5pFBO0w6vAIByhvtGhDyjuZf0WeTwHNBs6YR7e34j3QhPvnhE2uFTmTpSfWdcYOJ8uwpbTZHH2oYe6nNi+oz3eKCxz/1IfTzo8OIXv/jYexP92Mk84hGPmF+jZ4/0kdJv1GcT2hooMiAhCIMaHT4lE/78RkRoZyjA8MstiIf2KCWNUiEXX5RhAQ2w3Kd8xhjzAGLEA6WpxXwsGXXWGuZmo04kUHeUn3z6Frn05SpcA4DTVRGiKCMikkUb/ZfwUZ5c8mjUR17feBQVlKtPdnZzrmP9IgJaVBtI1mR+0kA2pD7SF1q935S2GilGUFCYwRmUI0UJf+wUMCirPsV8TOPYtx/9NMIytHwJKVfPVd3Ed4/UI4PEsKg8eSw4bWFbeErk8zx++I+gkMzbkrznwC4hbXJA8kQ5mfPpg/SD8AEGbdNLnjy+HxFhrZEMkCKEaZe9xilj27T1NQWiHOcwBMMRnvGNUCd+/qShsO6Z3YgvmUUMI5BRcuw4+hjPaOlfKxmxRg4e+kMjIHKwfM9QhvdMmXquUn15rl6J/Dm3+u7jg+Qrk9ThXGsR6xpA7PcxwOY5qn060BMg2MhBmJ2GNl61W6SbskxhybQL2uqJ5migjISUU9pIM1W4ZygKO4UEHsi3IxGStVOG8DGK1TevOvOwy9BW+FdP/cCnPv6cVzjmgBGw1audJISLDiVl2qdLumk/jni8e+6ZqwFgqgJ8MouQdmBADRDsoD/tkwEfugCEk1Gnv+qzl88HHPZ5w8pO6abfXdBWzymiDEVhlPHcM4gDLPccLTSa512NfKNJiM6xyPxvB2OxChDOICwefVPhmdGVs/FFjK4MZfgRJPivOnyVKq9ueqF0wjOnAimdONYaym9q+72GKGkAiB7pCXzpCBC2uwAhSlhUqmPKEEntckQIstRvsmybtnqiORrM6OaAUqOIQoxCSUY0ooRW04J7I8OiLmNbJJpXhVKLVOSZPuwwGNvOgiPcA4PRpM7obP26l5IpeZO9svF+TCgePUciA3CaGn3n4fehXojZOQABkJOXLvTU1pRggAAG2QDGm9W+QxUxnXs85jGPOQYIpC0dXXdFWwNFiGeoBM5wrqUM6SocihCAYToQLhnXNAI4IoBRw8hCMQP60YxvEuSNLkACKu1EDmcUDA+UnNFUUL+BAmnPIUWU/Sj5y+NjveD1vSnNP68BBG+AjXKycx6A92NjstoNiQiiI2A49CK7badoSHbtrLVOP/30eZdGj/onL6DRaVe0tYUmAxOagTNaJC8p5xB5yskbIaKAXYlpAVlM+SMjjKdcJMDXbsU7EwYDItFB9PCckRkdb9tFwDLCGNVWUnLymHwoGVfvV0k5RxTu7aT8CNoU1t/P0rdnHArQTk3tEgCf8zlbFPDyDAhEAi/KvBS07pAqt6g87bTT5kjBTpLolyyIPEWPbdNWzykk7DhbGsHhWjQR2o1kZZxki2ruZTQnn0UEo8ocjRwWMaC/rC/samukGpWcxDkA4i/bmEb0bYQxsreynGOP78DHYg8l6zpKds53UmrRCJAiGxkDA9A52dQHUPjwGDiNapFDJBNVTDOmCE4lm0gnkQUgerPqOTuxa5EBGJQVAXdBW11TdJUydvcRA4/O8IzyRoI8IxsxHThxrO0qQDBY5xnqcq41iBAsTOcIQFAHaEQiwGJ00Qw48JRHgXdd4hiLR4td34jiqa3+RSNvfr0E82WVPsgCvE1dnCiC0RMvka5pj87AQ89TTjnl2GeH+qWHlJzIFQh3RVvdfRB2FH6k8ZmRJVq4h3p5wGAIxFCc5rkIwVBeNHE+gzKSa/y05wDAEGGMvk4d9QUcDK8vjmtbpz1e6wiILSaNcGsW0Ykspge7A7KJYJypHOjwjrIHRwKR/kUOEc2aSn1TooMpPOiyV3uknL67pJ1sSfcjBkY5g3MozWCMBRyeAYV1gNfQDNZ6gFFyqIQfgAQSBvYuwuEWgAACkDG+yGKRas6Pl75Ho+9FgcK0YcGrL84T5oHM2oWzlwBM5KCjpH+kvb83gaeIgdbJtEv6HzgeADGulMKuoyEZyqfv3ol44ePPHYoSQjEDAgPilNFoeHpmvnU1kkQJ3zOYTvShTfXkleGRTPsl9ZpyimCAB3TAamqI/zrSP1CKMkBFR7qKNgDhOSAfJh0oKFDOpDwjciAHyStjcCHYCDTHNgVIDC81n+YI7TmNc/DPeZJ2yjwTKYzUZIjc75cQPkJ+jleu/xaamxAeZPHdhWnHGsS9aOTZLtcLS+hAQcGQnN6oZ2SGRZUjI0VdTs1QnNmIRznLdczjAWjqd5XwwFfKsUtJfbLqn8PckwN/YFOu3+TYj9SVULq4jjoeNh0oKCjfqKI8I646KMe65tTA4qpdPEZHKAOippCoPoBB/5xbeWkdqcP5gWvsP9nGKLIf1d6VLqNu9CUjPQ6TDg0UjMDIOYWRep5x1fGcQxlKeUbMyTm25Hl1kDaSZ3g7E3HG4DzDaaSF47rkDEQ75xIiF16BOlo6wpNlpO7Tb5T/MGirr87XUU5nhFF5Iowpoxfqc74y9674aK9cWeRe0kZyRO4I2omi8wsLWTsFoxKP5FlH+ujPMgGzE0cLYqeV6bGUT1fypQ8a9TxMOlBQIIrn0HXKmwqQeurXllMi4qfCCBL1kBPEs846a44MyloToE1VFyX0YZdw6qmnzkfxfZdJtsCxhNQv2rVAdv+vAIoDj1MMx6lLFOdASd2M5V6+hJ/y6iBXkcDVCagtrShhh+JgyJZQXpn8pglPwODMgDCCcwlpRxdyJDeZl9hl13TgkeKgyTrAGsI7FdvHwFPUoX5O2Y8CH0c6T3Hg5IBMOV7WPAH27E5HGhQtTnOaHQKniVQ50/NG+/FIHW2LDBIekmfAhe+/wijfBh1pUOQsTqRmqiqTNlEdgOKjLd7KAoJnyo8CHWlQUC31ciYqQrhv5O9H6gIB0radi/y46F3H5+xCR0OL4xCnlTi2KzqRUT22WQqosyMd+TUF4rhVh54IaQdYrkUO0wcTKjtRvv9qdOSnj5FyKvJM2nS0176oM64pjgodaVAgzutQqLOLHLvJ6NaG4wPDGH16dlToyIMCpeJSAPy7078FKP6fNqFp+i/k063dXAYmDgAAAABJRU5ErkJggg==;" vertex="1" parent="1">
          <mxGeometry x="880" y="998.34" width="54.96" height="50" as="geometry" />
        </mxCell>
        <mxCell id="dC4sRMdMSoydmVsc77Pg-14" value="" style="group" vertex="1" connectable="0" parent="1">
          <mxGeometry x="552.63" y="1231" width="252.74" height="40" as="geometry" />
        </mxCell>
        <mxCell id="dC4sRMdMSoydmVsc77Pg-11" value="" style="shape=image;verticalLabelPosition=bottom;labelBackgroundColor=default;verticalAlign=top;aspect=fixed;imageAspect=0;image=data:image/png,iVBORw0KGgoAAAANSUhEUgAAAlQAAAEUCAYAAADtKKjYAAAAAXNSR0IArs4c6QAAAARnQU1BAACxjwv8YQUAAAAJcEhZcwAADsMAAA7DAcdvqGQAACALSURBVHhe7d1prB1lnt/x31N17uq7ejfeDV4weMEsZjE7TauX9DTTdHpmklGkUbo1IpooL/JilBctJCJF5EWUSFEGTTIMPdMzPdNML0DTdLODMRibzRgM2GYxBgzern23c5dT9eSpcx9GyYie9r11zuNTPt+PdPrW8y83dWr/1XpMuVy2AgAAwIxF/i8AAABmiEAFAACQE4EKAAAgJwIVAABATgQqAACAnAhUAAAAORGoAAAAciJQAQAA5ESgAgAAyIlABQAAkBOBCgAAICcCFQAAQE51+XFkMzEmlUelyQnJ8tvLAADgLCm1SO3tsu2dLqDU7zxSzQKVGR2WOXJI8ctPK37rFYIUAABoGHb+YlWuulXp0vNl++dLccn3qY38gSpJFL+5y312K3pnj0uCJdnuPtklq6S+OVJU2y8MAABwxkaHZD79UOboJ9L4mGxXj5Irb1VyyTbZWd3+H+WXL1AlFZVefFzxsw/JuC+ZXnCx0m1flXr63Rfuldra63p6DQAA4J81OSkzOiiVRxS9+ISiPc9Xy+mi5Zr8vT+R7eyqtvOaeaCytnp5r+XhH1aDU3rLt5Vsvdn3BAAAaDzm6MeKf/xn1b+2t18T3/1+Tc5Uzfj0UfzWyy5M/Y3snAWq/MF/IEwBAICGl91LlXznDtmV62ROD6j0+D/IjI36vjM3o0AVnfi0+gXU0qr0mq/ILl/j+wAAADQ2O+88Jd/4N7J9sxXve0nRe2/5PjM3s0D16nMyA8dk++covfR6V+A+KQAAUBx2zkIlt/+xNDGm2OUa2dT3mZlpJyEzMqjos4+q91Alt33XFYzvAwAAUBx24TLZlRcqOrBHZuC4r87M9APVwDFFh/ZLs7plz1vhqwAAAAWT3bp04RYXbiJF+17yxZmZ/rW6JJEmx5Vu3sbZKQAAUFxZjumfV31bQbx/jy/OzAxufrLVy33pms2+DQAAUEy2pa16psp8dthXZmb6gerzt1Z1dPoOAACAgooiWRNVX1CexwzOUAEAAOD/RaACAADIado/PRN98I5a77tblTvukl20zFcbQJpKlQkpyd4jMfOfJwQAAL9F9kxaVJJaWqpPyBWZcbkmvv8emcGTGrvzXl+dvuIHKmtlPn5f0Y5fyQwPuC8Y1zROmclJ998MvLBkT1KGFrm1I+RK4eZbVcgnRVM3XbNxDDnMbF7GsW8E4KerLbkNXSjZOugOaGzA8TQVt166eRl2mJWp4YVafrLpmlSq4xnU2dj+ZNM05HbWTVubDS/gMLPlp3qvTshhTkxIrW11WmbdtiZx631Pv9Lrvy47b3GdhlN/BKqM26jGv/57mT3PK7noMk1uudb3qI3st33aHvhLmWVrpI5ZvhrArid9R0Dz3cqwYq1vBHDsE7cwuZ3TnAW+EMDeXdKSVVL/XF8I4JXt0qarXKgKFHBOHlPq1ovxW2/3hfozp46r9OZLmrzqS1PzNIDWX/xQdun5msymbSCtv/6xJrd9pSY/onomzPBptT3xU5kFS6X2gA8BnY3tz9yF0qr1vhHAkUOaWLtJScBhZstPsu4SJctX+0r9dfz5f1b67/+L1N3nKzU2VpZ54dcyrz2v9LLrldzwO9Wn5YqmVoEq8KFP7WQjXvqb/y57+oTGb/9ezcMUAAD4Z7R3yN74Tdk/+lOZk0cVP/zX0uiw79l8ihmoKhVFu59W0jtbE1ffKhvy7BEAAPhH1u2L7Ze/I2NdqHhjl682n0IGqurLt/bvUWXd5nCXUgAAwBdr75TdsFXxc7+cekCsCRUzUA0cVXLeCtnOMPcyAACA32LJqupv/Eav7/SF5lLIQBXteV52VpdLVsV8ogAAgHPSsguq++hmVMx7qI4eka3XUwsAAGBm+ufLfPaRbzSXYgYqm728k7NTAAA0lOzK0efvGWwyxQxUAAAADYRABQAAkBOBCgAAICcCFQAAQE4EKgAAgJwIVAAAADkRqAAAAHIiUAEAAOREoAIAAMiJQAUAAJATgQoAACAnAhUAAEBOBCoAAICcCFQAAAA5FTNQxSWZNPENAADQECqTUkuLbzSXYgaqBUtkTp/wDQAA0BBOfCa7YJlvNJdCBqp0w1aZ4UHXwVkqAAAagtsnm8MHlW6+xheaSyEDlV24TNHQKRn3AQAAZ585tF92rKx09QZfaS7FDFSz50sr1qntsZ+4RuqrAADgrBg6LbP9l0qv/pLU3umLzaWY91AZo+TGb8pesEHtD/xA0fEjXP4DACC0yQnpo3cV/eKvlKzZqHT1Rt+j+ZhyuWx99xmJPnhHrffdrcodd8kuOvs3nkUvPCrzzmtKW9ukrl6lvf2uGPu+OU2Oq/XFJ6V550nZfz+UA3t9R0C9c6T5bjxDGRyoBmN19/lCAIcOSHMXSLN6fCGA9/ZVz6YqCnTsMjzoji0qqmy+2hfqz4wMKf7woCrrNrlGmPEsvfSM7NyFSlas9ZX6K726Q8n6LbJtHb5SX6Y8qtLrO2X650otrb4awNnY/vS47faCJb4RwMAxVRavVBpwmKXXdihdvErpvEW+Un+tj94v+/U/lDpm+UoNJYmUncw4dcJtz08qvfR6pRddHnZZrRHjck18/z0ybjzG7rzXV6ev8IFK1n39kUGZox8rdhtZc+SQbMUl5hpwu/up9J3tDLOdfyiViu8IKBvHUDv9TOoXuyjgdM02AKHnZXWYLuCHGmS2PriPLYV7bNlkw8zOEMclTWtjkoPJHs1289LW6uDpDFSHWcrGMczMNNnUzLYF2fLK9qe20rS6XtqAw6wuP7EbZqCDjoyZHHepqj3rmirUklsX0mWrlW65TnZO4APVGiNQAQAA5FSrQBXwkAAAAODcRKACAADIiUAFAACQE4EKAAAgp+A3pSfHP/FdAAAAtWM6uhRN84nDwj7lVzl8wHcBAADUTtTdp6hvnm+dmcIGquTEp74LAACgdkzHLEWd3b51ZngPFQAAQE68hwoAAKBBEKgAAAByIlABAADkRKACAADIiUAFAACQ07nxlF+aSHZaowEAAPIwxoWC7LyM+1tgvDbBMeURRT/7PzJj5akZWw82df/twCfy0myYIRfQzxeBwCtFFoJDjmd1XmbDCz3MgMtP9cCiSQ4ugs/LwMtrpimG+fnyGnpeZh2Bh3murZtuObF9c5XedFv1b1E1d6BKEkVP/1zxzseldZuV3vovpZY237OGRocV3f9nSr/2r6W5i3yx/sz/+FNN3Hybm9ixr9RXae+L1bN8lU1X+0r9xW45Kg0OSHMW+EoAe3dJS1ZJ/QFX/Fe2S5uuciNc8oU6O3lMen9fdR055y09X1q03DcC2P+6Jq68RbZjli/Ul3Hbn9LrL6hy8VbZrun9lEYerU89oIltX3Hb1FZfqa9438sqZS98XrXeVwI4ckhq65Bmz/eFANx4avi0b5x70pt/V8m1X3UztMVXiqN530PlUn781M8Uf3hQ6fe+78LOH9YnTAEAgDMSPfVzxQ/+QBob9ZXmU7hAFT35M0XvvaX0K78vdff6KgAAOGvSVNEbuxS9udsXmk+hApUZGVK86wml37lDKvD1WgAAzjkT44of+oGUVHyhuRQqUEU7HpFdvXHq2jcAAGgs2T3O2X25TahYl/zKI7JX3uIbAACg0USv7fBdzaVYgSp7nUBbu28AAIBGYz497LuaS+FuSnezyv8FAAANJ3v/XhMqYKACAABoLAQqAACAnAhUAAAAORGoAAAAciJQAQAA5ESgAgAAyIlABQAAkBOBCgAAICcCFQAAQE4EKgAAgJwIVAAAADkRqAAAAHIiUAEAAOREoAIAAMiJQAUAAGonbvEdzaVYgSpyX3dy0jcAAECjsQuX+K7mUqxA1TdH5pkH3NyyvgAAABpJuvFq39VcChWo0i3XyRzaL3PyqK8AAIBGYfvnKV27ybeaS6ECle3uU3rT7TIP/ZU0MearAACgEaRful3qmOVbzaVYl/yc5IoblJ63TOax+2WOHPJVAABw1rS0Kr3xd5SuvcQXmo8pl8vTuiEp+uAdtd53typ33CW7aJmvBjY+pmjfS4p3PTn1HTq7pPmLpVKNnywYL8s8+7DsFTdKvXN8MYCf36vKpqvdxA6Td2M3T5WmSlZd6Cv1F332keLRYamnz1cC+GC/NHeh1NXjCwEcfFNa6aZrHOjYZei09OmH1fl5zpt3njR7nm8E8PH7qridhW1r94X6Mm77E73/ltIVa2Xbwx3xl15/QZX1l7uOkq/UV/zhAUWDp6RFS30lgOy2kZY2qbvXFwL48KBUHvGNc8ycBUqu/brSDVulVjddC8a4fWB8/z0ygyc1due9vjp9xQxUGWtlhgakkSHF2x+u3luliXHfs1bcpMn+my55ywQ8mec2pFPh0Ey16y2pTP2Nw2xAq9Jk6uGCKNA4ZhI3zGw+hhxmxU3bbLqGGmTqpmk2bZtBdsAR6KCjKlt+Qq6X2fYnWzer62XIZXYi7Himbhyz5TbUQUemesDhxi/09udceqCq1Kp09cVKr7zVHdwsqt6SU1QEKgAAgJxqFagCHhIAAACcmwhUAAAAORGoAAAAciJQAQAA5BT8pvTkxBHfBQAAUDumfZaiWdN7NU5hn/KrHD7guwAAAGon6u5T1De999MVNlAlxz/xXQAAALVjOrqa5wwVAABAo+A9VAAAAA2CQAUAAJATgQoAACAnAhUAAEBOBCoAAICcCFQAAAA5Ffq1CaYyoehnfyEzOiylqa8CAIC6iyLZ/nlKbrpN6ur1xeJp7vdQ2VTRsw8rfuZBqbtPWr5WKsW+Zw1VJqU9O11YS3zhHDZ/sZuOq30jgGNHpNjNs9nzfSGAbF5OjPlGQFuunRrXEAaOSSfd5/z1vhDA2KiS4SFVLr6iuoENofX5Xymdt1iV1Rt8pf5aXnxC+tb3prY5IZw+qejxHyu96VuS22mFEt33X5X+wZ+4idzhK/Vlnv2F7OEDmtxyna/UX3xgr2xnl9LFK32l/lpeeFRR72ypb46vBLD7aWnT1W5etvpCjU26feRH70qnjiu95dtKrvxSuG1dDTX1e6jipx9QvPtJaf1l0gUXuyW1xU0RNyr1+DSTLxr/un1MNsB/Uqvz52zJxvWLvk89Pp+v0l/Ur16f6nx0f7IwFepTHab7fFG/en2ycYzd32yHEeTjhpXNz2zYX9i/Tp/qvPyCer0+1fUj9LzMhncWhln9ZN2BPpl6DrO1TVrlDt7WX6po1xOKf/lDabw8Ndwm5KZIsUTPPKho91PS8jVSW7uvAgCAs6J9VnWfHB0+qOitl32x+RQqUJmxEcXPPyqt3uhmYKevAgCAs6qlVeqdo/iRHzXHbTJfoFCBKtr+iNTpknCpxVcAAEBD6OmvnuyI3tjlC82lWJf8RoekRct9AwAANJTuPkWv7fCN5lKsQJW9GiEu+QYAAGgoHZ0ynxzyjeZSuJvSAQBAozLVVxs1IwIVAABATgQqAACAnAhUAAAAORGoAAAAciJQAQAA5ESgAgAAyIlABQAAkBOBCgAAICcCFQAAQE4EKgAAgJwIVAAAADkRqAAAAHIiUAEAAOREoAIAAMiJQAUAAGrDplJc8o3mUqxAZdzXTd3MAgAAjWesLLtgiW80l2IFqt5+6cgHvgEAABqGtdLQKaUbrvSF5lKoQJVuuU4aGa4mYAAA0ECGT8vGJaXrLvGF5lKoQGV7Zyu97l9I778lJYmvAgCAs6oyKX3ywdQ+urPLF5tLsS75Ock1X1a6ekN1xml02FcBAEBw2WW+kSHpwwNKN16l9MLmPDuVMeVy2U2NMxd98I5a77tblTvukl20zFcDGysr2rtT8fO/kkqtUmub1NHpxib2/6BGkor07hvNcSN83zxp4VLfCOD08amHDHpm+0IAB928rEz4RkBrNrkVp8bL5m8yNCANnpIWr/SFACbGlJZHlKy6cGqeBlB640WlbplNl6zylfor7XtJuuEb7ui721fqbGRQZvdTspdeJ3X3+2L9mUf+VvaWb0ktbrsawp4dsp99rCRbTwKJPnpXau9UOneRr9Rf6c3dMrN6pK5eXwng7VekCy6e2k/WWvY039ioVHYf43aXl9+odNM1brp2+H9QHMblmvj+e2QGT2rsznt9dfqKGagyLuSY0ydlTn6maOdjMocOSJPjvmcNZacxm0HkdoShdvqZLKS6lTDUDriq4gKyprW410apxXcEkG3kUjeOccB5mR2hZtM15KPS2XqZLTshxzMbZmu7G2624AaQTddsm5YFm1DDzIyXpbaAO8Vsuma3cJQCLj/Z8LJpmm33Qvl8mQ05L7NhVqdrHYbptmt22Woll90gnbdCtseF/pDjVkMEKgAAgJxqFagCxnMAAIBzE4EKAAAgJwIVAABATgQqAACAnILflJ4MfOa7AAAAase0dSqa5qtNCvuUX+XwAd8FAABQO1F3n6LsvYrTUNhAlRz/xHcBAADUjunoUpS9QHUaeA8VAABATryHCgAAoEEQqAAAAHIiUAEAAOREoAIAAMiJQAUAAJATgQoAACCnQr82wVQmZR75W0WDA9LkhK8CAIAgjJFKLbILlirZerPU3ed7FEdzv4fKpop2Pq74yZ8q7ZurysVbpbZ237OGJsbV8tLTqmy8Urar1xfrr+XpBzV5/dfd3AlzAjHe97Li4dPS0vN9JYATn7qFKZb6p/dG21wO7pW96TbZVRf5Qv1F/+v7Sv/tf5Ja67B8fgFzYK/0ynZNbr7aV+rPuGWnxS1DWrLKNdzGNYRsPHv6pQVLfCGAd/dJyy5wK2irLwRQHpHee0saL/vCOW7xCj9PAy1H776pyrLVSt0nlJZnHlLlihtlO7p8pb7MqROK39tX3Y9lwafmrJUZG63uR7JtQfrNP1K6ZqMbcHEugDV1oIqffUja84IqG7bKZhvVOjETYyq98Jgql2yr63D+qdbH/kETN982FTgCKO19UfHQKWn5Gl8J4NgnU+M3Z4EvBPD2a7Jf/o5strIHEv23/6j0393lAn+Hr9SXeftVadeTmrjsel+pP+OWnVa3DCnbKYUKVNl49s6WFi33hQD2vy6tWOtW0DZfCGB02B0IvCG5HVZTWOIO6rL9SqjlaP8eVVasU7JynS/UX+vjP9Hk1bfKTvP35mYqGjim2B2ATLr9WF0PBlywio4fUSnbzrphJVd/uT4Brg6a9sWe0Y5fSS9vd2n7qqAhBwAA/AYuBKfzztOk2zebV59T5D4uZU31axKFClRmrKx4+8OqXHGTbHe4S3AAAOC3s739mrz0WkVvvSwzeMpXm0OhAlW045dK+ufIdnT6CgAAaCS2rVN2ckLm8EFfaQ7FuuQ3PKhkzWbfAAAADSeOlWb3xw4cr95b1SyKFajSNOwNoQAAYNpsqVVmokmeTvUKd1M6AAAogOa6J51ABQAAkBeBCgAAICcCFQAAQE4EKgAAgJwIVAAAADkRqAAAAHIiUAEAAOREoAIAAMiJQAUAAJATgQoAACAnAhUAAEBOBCoAAICcCFQAAAA5EagAAAByKmCgMv4vAABoTLbpdtfFClTGfd008Q0AANCITJLItrb5VnMoVqDq6VNp/+u+AQAAGk6ayAwck3rnumTVPKepChWo0i3XKjr2sczokK8AAIBGEg2dlrFWdvEKX2kOhQpUtm+u0q23qvTydimp+CoAAGgEJk3dPvoZ2fWXyvbP99XmUKxLfk5y4zekxStVevMlmcEBXwUAAGeNC1LRqRMq7X5SduU6pZff2FSX+zKmXC5b331Gog/eUet9d6tyx12yi5b5amDlEUWvPlf9pL39sp3dsl297svVOB9OTqj0xm4lazbKzur2xfor7XpSlctuqP34/Abxu28qGh2WFgacn6eOuaXPjV/vHF8I4NB+2a03S8su8IX6Mz/6n7K3f1dqCXRzphtH7XtZlXWX+EL9GbfslA6+6ZafJVPzNIRD70jZOj9noS8EcPjg1DrS0uoLAYyX3XDflSbGfOEcN3+xNDebp4F2xB8eULJoudLzlvtC/ZV2P6Vkw1bZ9k5fqS8zdEqRW4ay/ZhKLb5aQ9n9UtklvmH3SSqyF12uNNt/xSX/Dxqfcbkmvv8emcGTGrvzXl+dvmIGqkziZuLpEzJHDsm8/IzMJ4ekyoTvWSPZU5/Zf9MthDZg0jYT40GfjjCVihvXNOwKUH1a003TQKGxqjIptbaHHc+yC6ods1xHoOUnuxTulllbjw3nb5DdK1GdtnGctaaK9ZYNLwtv1WEGkq0n2fBCHnVn0zabp9nfZhC56XsW5qkNOMxs+56F8lD7FJNOLUPVbUI9BpmNy9LVSjddJS1ZJdvdH3a7XgMEKgAAgJxqFaiKFSMBAAAaEIEKAAAgJwIVAABATgQqAACAnILflJ6eOu67AAAAase0dchUn6w+c4V9yq9y+IDvAgAAqJ2ou19R31zfOjOFDVTJsU98FwAAQO2YzlmKZvX61pnhPVQAAAA58R4qAACABkGgAgAAyIlABQAAkBOBCgAAICcCFQAAQE4EKgAAgJwK/doEU6nIPPVzmZOfyYyNSnZaowIAAPKIYqm9Q+miFUq3bJNm9fgexdHc76FywSl6ZbviX/+d0q5eJRdukZ3mq+bPyOS4Wl55TpWLLpftCreQtD79oLR2s5s7xlcCOPGp9NF7vnGOikvSsgukntm+EMCbu6QLL53a6IRw+oRseUSTm6/xhfozI4OKPzyoyrpsmQ1z0rtl91NK5y5SsnKdr9Rf6dXnpK/9K7fD6POVOhsakHnsflXOv0i2s8sX6691+8OSG2awZfbTD6WJial1M6RD+yV+Cq22evpV+d3vyq5aH3b/lVNTB6p4+y+lPTtckLpEaf98X609MzGm0guPqXLJNlm3oITS9siPpA1XBNs5VR39WHLz9pxWcoFqpVvR+6f3swS5uOCvTVdNhbkQTh6THR3SxNabfaH+zNApxe/tU2XDlW4DEWaZbX3uEaXzF6uyZqOv1F/Lzsekb/+x1B1oW+DCsXngPk2uuyToAV3boz+W3DCDLbPZgZzb1irbCYd08A23vhz1DdRMS6uSW25XesVNbpvb4ouNrWlf7Bm9+Lj00lOqXLy1rmEKAABM0+SE4sd/omjPC77QPAoVqLIzRvHTD6py2Q2yPYFOuwMAgDM3Oa5o787q2etmUqhAFWWn+Xv6ZWd1+woAAGg05tB+mcPv+lZzKNYlP5d2K9nN2gAAoHFVJqcedmqip++LFajSVGpr9w0AANCoTHnEdzWHwt2UDgAACiBtrndDEqgAAAByIlABAADkRKACAADIiUAFAACQE4EKAAAgJwIVAABATgQqAACAnAhUAAAAORGoAAAAciJQAQAA5ESgAgAAyIlABQAAkBOBCgAAICcCFQAAQE4EKgAAUHvG+I7mUKxAZdzXTVPfAAAAjcq2d/iu5lCsQNXdo/jdN3wDAAA0pLgk9c9rqrNUhQpU6SXXKvr0I5nyiK8AAIBGYxculV28wreaQ6EClZ09X3bLdSq98qyUVHwVAAA0jLgku/Eqt89e4AvNoViX/Jzk1m9L85eq9OZLMsOnfRUAAJx1La2y6y9VsvXmprsp3ZTLZeu7z0j0wTtqve9uVe64S3bRMl8NrDysaPfTit7YpaRvttTVJ9vZ7b5cjfPh5LhKe19Usnaz7KweX6y/lh2/ki642I1PwIXxxDHpyAe+cY7KrukvXin19PlCAG+9Kq3Z6IYd+0KdnR6QHRtV5eIrfKH+zOiQoo/eU7J6g2uEOUYrvbZD6ez5Spet9pX6i/fulPnS7VJnoG1BdsD4zEOqrFgjdXT5Yv217HxMWrE23DL72cduWzshLXHrZkiH33Xry0nfQC3YOQuUXn6j0itcmHLBqiiMyzXx/ffIDJ7U2J33+ur0FTNQZZKKzMAxNyHeVrR3l1spP3K1Sd+zRtyUMS5UqeQSd8BwY8bH3DBbfCuQ7OnJZriMWnKhKtBOvyrbUYTcsGTz0VrZbJiBFlmTuhXFLTs2W2ZDDXPCrZdR7Ibp5mcgZsLNy/bOcAc62bwcL8vGbrqey9ufJHH/45ah7IAnpGx7x1Pj+WX7x2XnK92wVXbVRbK9c8KF8RohUAEAAORUq0BVuHuoAAAAGg2BCgAAICcCFQAAQE7TD1T+3khTHp7qAAAAKKrqwzzu09buCzMzgzNULlEZo2j/674NAABQUBNjMpMTShcs9YWZmcEZqixQRTK7nqg+ng0AAFBILseYoVPVV5SkF17qizMz7UBl++cpXbmu+n4dc/RjXwUAACiYLMvs3enSUKR09UZfnJnpB6ruPqXL17r/Z6z413/XHC+DBAAA5xzzzmuKPjyodNV6pbPn+erMzOAeKpehLr1etne2zPtvK9r9lK8CAAAUgxk4qtLDf139ZYDKluuqJ4rymFGgsrO6Vbn2a9Vrj/H2hxW9/arvAwAA0MCy+79PHlX0k/8tjQ4rWX+Z7Kr1vufMzShQZRKX5irbvlr9MvEDf6nohUelkUHfFwAAoPGY/XtU+vlfKDp8UOnKC1W57uuybR2+78xN+7f8/j+VSZV2P6nSMw9Vu+3CpVO/NL15m4tqM85qAAAAtWPTf7xNKXJ/NTqk5OIrVLn1O9V7w2shX6DyokP71fLTP5cZHZ76df1Si+y886SuHtmc1yQBAABmwmQv7MxyyfFPZYZPZxVZl02SS7apsu1rUmvb1D+sgZoEqowpjyja95KiD96WGTgmc/KozFhZShP/LwAAAAJzocn2zpl67dO885RsvkZ27kIXXGp7Ja1mgaoqu9FrclxmZFBmeHAqFWavdAcAADgbsqtmnV3SrJ6pv9kLyuugtoEKAACgCXHnOAAAQE4EKgAAgJwIVAAAADkRqAAAAHIiUAEAAOREoAIAAMiJQAUAAJATgQoAACAnAhUAAEBOBCoAAICcCFQAAAA5EagAAAByIlABAADkRKACAADIiUAFAACQi/R/AUi89Q69OL4RAAAAAElFTkSuQmCC;" vertex="1" parent="dC4sRMdMSoydmVsc77Pg-14">
          <mxGeometry width="86.37" height="40" as="geometry" />
        </mxCell>
        <mxCell id="dC4sRMdMSoydmVsc77Pg-12" value="" style="shape=image;verticalLabelPosition=bottom;labelBackgroundColor=default;verticalAlign=top;aspect=fixed;imageAspect=0;image=data:image/png,iVBORw0KGgoAAAANSUhEUgAAAlQAAAEUCAYAAADtKKjYAAAAAXNSR0IArs4c6QAAAARnQU1BAACxjwv8YQUAAAAJcEhZcwAADsMAAA7DAcdvqGQAACALSURBVHhe7d1prB1lnt/x31N17uq7ejfeDV4weMEsZjE7TauX9DTTdHpmklGkUbo1IpooL/JilBctJCJF5EWUSFEGTTIMPdMzPdNML0DTdLODMRibzRgM2GYxBgzern23c5dT9eSpcx9GyYie9r11zuNTPt+PdPrW8y83dWr/1XpMuVy2AgAAwIxF/i8AAABmiEAFAACQE4EKAAAgJwIVAABATgQqAACAnAhUAAAAORGoAAAAciJQAQAA5ESgAgAAyIlABQAAkBOBCgAAICcCFQAAQE51+XFkMzEmlUelyQnJ8tvLAADgLCm1SO3tsu2dLqDU7zxSzQKVGR2WOXJI8ctPK37rFYIUAABoGHb+YlWuulXp0vNl++dLccn3qY38gSpJFL+5y312K3pnj0uCJdnuPtklq6S+OVJU2y8MAABwxkaHZD79UOboJ9L4mGxXj5Irb1VyyTbZWd3+H+WXL1AlFZVefFzxsw/JuC+ZXnCx0m1flXr63Rfuldra63p6DQAA4J81OSkzOiiVRxS9+ISiPc9Xy+mi5Zr8vT+R7eyqtvOaeaCytnp5r+XhH1aDU3rLt5Vsvdn3BAAAaDzm6MeKf/xn1b+2t18T3/1+Tc5Uzfj0UfzWyy5M/Y3snAWq/MF/IEwBAICGl91LlXznDtmV62ROD6j0+D/IjI36vjM3o0AVnfi0+gXU0qr0mq/ILl/j+wAAADQ2O+88Jd/4N7J9sxXve0nRe2/5PjM3s0D16nMyA8dk++covfR6V+A+KQAAUBx2zkIlt/+xNDGm2OUa2dT3mZlpJyEzMqjos4+q91Alt33XFYzvAwAAUBx24TLZlRcqOrBHZuC4r87M9APVwDFFh/ZLs7plz1vhqwAAAAWT3bp04RYXbiJF+17yxZmZ/rW6JJEmx5Vu3sbZKQAAUFxZjumfV31bQbx/jy/OzAxufrLVy33pms2+DQAAUEy2pa16psp8dthXZmb6gerzt1Z1dPoOAACAgooiWRNVX1CexwzOUAEAAOD/RaACAADIado/PRN98I5a77tblTvukl20zFcbQJpKlQkpyd4jMfOfJwQAAL9F9kxaVJJaWqpPyBWZcbkmvv8emcGTGrvzXl+dvuIHKmtlPn5f0Y5fyQwPuC8Y1zROmclJ998MvLBkT1KGFrm1I+RK4eZbVcgnRVM3XbNxDDnMbF7GsW8E4KerLbkNXSjZOugOaGzA8TQVt166eRl2mJWp4YVafrLpmlSq4xnU2dj+ZNM05HbWTVubDS/gMLPlp3qvTshhTkxIrW11WmbdtiZx631Pv9Lrvy47b3GdhlN/BKqM26jGv/57mT3PK7noMk1uudb3qI3st33aHvhLmWVrpI5ZvhrArid9R0Dz3cqwYq1vBHDsE7cwuZ3TnAW+EMDeXdKSVVL/XF8I4JXt0qarXKgKFHBOHlPq1ovxW2/3hfozp46r9OZLmrzqS1PzNIDWX/xQdun5msymbSCtv/6xJrd9pSY/onomzPBptT3xU5kFS6X2gA8BnY3tz9yF0qr1vhHAkUOaWLtJScBhZstPsu4SJctX+0r9dfz5f1b67/+L1N3nKzU2VpZ54dcyrz2v9LLrldzwO9Wn5YqmVoEq8KFP7WQjXvqb/y57+oTGb/9ezcMUAAD4Z7R3yN74Tdk/+lOZk0cVP/zX0uiw79l8ihmoKhVFu59W0jtbE1ffKhvy7BEAAPhH1u2L7Ze/I2NdqHhjl682n0IGqurLt/bvUWXd5nCXUgAAwBdr75TdsFXxc7+cekCsCRUzUA0cVXLeCtnOMPcyAACA32LJqupv/Eav7/SF5lLIQBXteV52VpdLVsV8ogAAgHPSsguq++hmVMx7qI4eka3XUwsAAGBm+ufLfPaRbzSXYgYqm728k7NTAAA0lOzK0efvGWwyxQxUAAAADYRABQAAkBOBCgAAICcCFQAAQE4EKgAAgJwIVAAAADkRqAAAAHIiUAEAAOREoAIAAMiJQAUAAJATgQoAACAnAhUAAEBOBCoAAICcCFQAAAA5FTNQxSWZNPENAADQECqTUkuLbzSXYgaqBUtkTp/wDQAA0BBOfCa7YJlvNJdCBqp0w1aZ4UHXwVkqAAAagtsnm8MHlW6+xheaSyEDlV24TNHQKRn3AQAAZ585tF92rKx09QZfaS7FDFSz50sr1qntsZ+4RuqrAADgrBg6LbP9l0qv/pLU3umLzaWY91AZo+TGb8pesEHtD/xA0fEjXP4DACC0yQnpo3cV/eKvlKzZqHT1Rt+j+ZhyuWx99xmJPnhHrffdrcodd8kuOvs3nkUvPCrzzmtKW9ukrl6lvf2uGPu+OU2Oq/XFJ6V550nZfz+UA3t9R0C9c6T5bjxDGRyoBmN19/lCAIcOSHMXSLN6fCGA9/ZVz6YqCnTsMjzoji0qqmy+2hfqz4wMKf7woCrrNrlGmPEsvfSM7NyFSlas9ZX6K726Q8n6LbJtHb5SX6Y8qtLrO2X650otrb4awNnY/vS47faCJb4RwMAxVRavVBpwmKXXdihdvErpvEW+Un+tj94v+/U/lDpm+UoNJYmUncw4dcJtz08qvfR6pRddHnZZrRHjck18/z0ybjzG7rzXV6ev8IFK1n39kUGZox8rdhtZc+SQbMUl5hpwu/up9J3tDLOdfyiViu8IKBvHUDv9TOoXuyjgdM02AKHnZXWYLuCHGmS2PriPLYV7bNlkw8zOEMclTWtjkoPJHs1289LW6uDpDFSHWcrGMczMNNnUzLYF2fLK9qe20rS6XtqAw6wuP7EbZqCDjoyZHHepqj3rmirUklsX0mWrlW65TnZO4APVGiNQAQAA5FSrQBXwkAAAAODcRKACAADIiUAFAACQE4EKAAAgp+A3pSfHP/FdAAAAtWM6uhRN84nDwj7lVzl8wHcBAADUTtTdp6hvnm+dmcIGquTEp74LAACgdkzHLEWd3b51ZngPFQAAQE68hwoAAKBBEKgAAAByIlABAADkRKACAADIiUAFAACQ07nxlF+aSHZaowEAAPIwxoWC7LyM+1tgvDbBMeURRT/7PzJj5akZWw82df/twCfy0myYIRfQzxeBwCtFFoJDjmd1XmbDCz3MgMtP9cCiSQ4ugs/LwMtrpimG+fnyGnpeZh2Bh3murZtuObF9c5XedFv1b1E1d6BKEkVP/1zxzseldZuV3vovpZY237OGRocV3f9nSr/2r6W5i3yx/sz/+FNN3Hybm9ixr9RXae+L1bN8lU1X+0r9xW45Kg0OSHMW+EoAe3dJS1ZJ/QFX/Fe2S5uuciNc8oU6O3lMen9fdR055y09X1q03DcC2P+6Jq68RbZjli/Ul3Hbn9LrL6hy8VbZrun9lEYerU89oIltX3Hb1FZfqa9438sqZS98XrXeVwI4ckhq65Bmz/eFANx4avi0b5x70pt/V8m1X3UztMVXiqN530PlUn781M8Uf3hQ6fe+78LOH9YnTAEAgDMSPfVzxQ/+QBob9ZXmU7hAFT35M0XvvaX0K78vdff6KgAAOGvSVNEbuxS9udsXmk+hApUZGVK86wml37lDKvD1WgAAzjkT44of+oGUVHyhuRQqUEU7HpFdvXHq2jcAAGgs2T3O2X25TahYl/zKI7JX3uIbAACg0USv7fBdzaVYgSp7nUBbu28AAIBGYz497LuaS+FuSnezyv8FAAANJ3v/XhMqYKACAABoLAQqAACAnAhUAAAAORGoAAAAciJQAQAA5ESgAgAAyIlABQAAkBOBCgAAICcCFQAAQE4EKgAAgJwIVAAAADkRqAAAAHIiUAEAAOREoAIAAMiJQAUAAGonbvEdzaVYgSpyX3dy0jcAAECjsQuX+K7mUqxA1TdH5pkH3NyyvgAAABpJuvFq39VcChWo0i3XyRzaL3PyqK8AAIBGYfvnKV27ybeaS6ECle3uU3rT7TIP/ZU0MearAACgEaRful3qmOVbzaVYl/yc5IoblJ63TOax+2WOHPJVAABw1rS0Kr3xd5SuvcQXmo8pl8vTuiEp+uAdtd53typ33CW7aJmvBjY+pmjfS4p3PTn1HTq7pPmLpVKNnywYL8s8+7DsFTdKvXN8MYCf36vKpqvdxA6Td2M3T5WmSlZd6Cv1F332keLRYamnz1cC+GC/NHeh1NXjCwEcfFNa6aZrHOjYZei09OmH1fl5zpt3njR7nm8E8PH7qridhW1r94X6Mm77E73/ltIVa2Xbwx3xl15/QZX1l7uOkq/UV/zhAUWDp6RFS30lgOy2kZY2qbvXFwL48KBUHvGNc8ycBUqu/brSDVulVjddC8a4fWB8/z0ygyc1due9vjp9xQxUGWtlhgakkSHF2x+u3luliXHfs1bcpMn+my55ywQ8mec2pFPh0Ey16y2pTP2Nw2xAq9Jk6uGCKNA4ZhI3zGw+hhxmxU3bbLqGGmTqpmk2bZtBdsAR6KCjKlt+Qq6X2fYnWzer62XIZXYi7Himbhyz5TbUQUemesDhxi/09udceqCq1Kp09cVKr7zVHdwsqt6SU1QEKgAAgJxqFagCHhIAAACcmwhUAAAAORGoAAAAciJQAQAA5BT8pvTkxBHfBQAAUDumfZaiWdN7NU5hn/KrHD7guwAAAGon6u5T1De999MVNlAlxz/xXQAAALVjOrqa5wwVAABAo+A9VAAAAA2CQAUAAJATgQoAACAnAhUAAEBOBCoAAICcCFQAAAA5Ffq1CaYyoehnfyEzOiylqa8CAIC6iyLZ/nlKbrpN6ur1xeJp7vdQ2VTRsw8rfuZBqbtPWr5WKsW+Zw1VJqU9O11YS3zhHDZ/sZuOq30jgGNHpNjNs9nzfSGAbF5OjPlGQFuunRrXEAaOSSfd5/z1vhDA2KiS4SFVLr6iuoENofX5Xymdt1iV1Rt8pf5aXnxC+tb3prY5IZw+qejxHyu96VuS22mFEt33X5X+wZ+4idzhK/Vlnv2F7OEDmtxyna/UX3xgr2xnl9LFK32l/lpeeFRR72ypb46vBLD7aWnT1W5etvpCjU26feRH70qnjiu95dtKrvxSuG1dDTX1e6jipx9QvPtJaf1l0gUXuyW1xU0RNyr1+DSTLxr/un1MNsB/Uqvz52zJxvWLvk89Pp+v0l/Ur16f6nx0f7IwFepTHab7fFG/en2ycYzd32yHEeTjhpXNz2zYX9i/Tp/qvPyCer0+1fUj9LzMhncWhln9ZN2BPpl6DrO1TVrlDt7WX6po1xOKf/lDabw8Ndwm5KZIsUTPPKho91PS8jVSW7uvAgCAs6J9VnWfHB0+qOitl32x+RQqUJmxEcXPPyqt3uhmYKevAgCAs6qlVeqdo/iRHzXHbTJfoFCBKtr+iNTpknCpxVcAAEBD6OmvnuyI3tjlC82lWJf8RoekRct9AwAANJTuPkWv7fCN5lKsQJW9GiEu+QYAAGgoHZ0ynxzyjeZSuJvSAQBAozLVVxs1IwIVAABATgQqAACAnAhUAAAAORGoAAAAciJQAQAA5ESgAgAAyIlABQAAkBOBCgAAICcCFQAAQE4EKgAAgJwIVAAAADkRqAAAAHIiUAEAAOREoAIAAMiJQAUAAGrDplJc8o3mUqxAZdzXTd3MAgAAjWesLLtgiW80l2IFqt5+6cgHvgEAABqGtdLQKaUbrvSF5lKoQJVuuU4aGa4mYAAA0ECGT8vGJaXrLvGF5lKoQGV7Zyu97l9I778lJYmvAgCAs6oyKX3ywdQ+urPLF5tLsS75Ock1X1a6ekN1xml02FcBAEBw2WW+kSHpwwNKN16l9MLmPDuVMeVy2U2NMxd98I5a77tblTvukl20zFcDGysr2rtT8fO/kkqtUmub1NHpxib2/6BGkor07hvNcSN83zxp4VLfCOD08amHDHpm+0IAB928rEz4RkBrNrkVp8bL5m8yNCANnpIWr/SFACbGlJZHlKy6cGqeBlB640WlbplNl6zylfor7XtJuuEb7ui721fqbGRQZvdTspdeJ3X3+2L9mUf+VvaWb0ktbrsawp4dsp99rCRbTwKJPnpXau9UOneRr9Rf6c3dMrN6pK5eXwng7VekCy6e2k/WWvY039ioVHYf43aXl9+odNM1brp2+H9QHMblmvj+e2QGT2rsznt9dfqKGagyLuSY0ydlTn6maOdjMocOSJPjvmcNZacxm0HkdoShdvqZLKS6lTDUDriq4gKyprW410apxXcEkG3kUjeOccB5mR2hZtM15KPS2XqZLTshxzMbZmu7G2624AaQTddsm5YFm1DDzIyXpbaAO8Vsuma3cJQCLj/Z8LJpmm33Qvl8mQ05L7NhVqdrHYbptmt22Woll90gnbdCtseF/pDjVkMEKgAAgJxqFagCxnMAAIBzE4EKAAAgJwIVAABATgQqAACAnILflJ4MfOa7AAAAase0dSqa5qtNCvuUX+XwAd8FAABQO1F3n6LsvYrTUNhAlRz/xHcBAADUjunoUpS9QHUaeA8VAABATryHCgAAoEEQqAAAAHIiUAEAAOREoAIAAMiJQAUAAJATgQoAACCnQr82wVQmZR75W0WDA9LkhK8CAIAgjJFKLbILlirZerPU3ed7FEdzv4fKpop2Pq74yZ8q7ZurysVbpbZ237OGJsbV8tLTqmy8Urar1xfrr+XpBzV5/dfd3AlzAjHe97Li4dPS0vN9JYATn7qFKZb6p/dG21wO7pW96TbZVRf5Qv1F/+v7Sv/tf5Ja67B8fgFzYK/0ynZNbr7aV+rPuGWnxS1DWrLKNdzGNYRsPHv6pQVLfCGAd/dJyy5wK2irLwRQHpHee0saL/vCOW7xCj9PAy1H776pyrLVSt0nlJZnHlLlihtlO7p8pb7MqROK39tX3Y9lwafmrJUZG63uR7JtQfrNP1K6ZqMbcHEugDV1oIqffUja84IqG7bKZhvVOjETYyq98Jgql2yr63D+qdbH/kETN982FTgCKO19UfHQKWn5Gl8J4NgnU+M3Z4EvBPD2a7Jf/o5strIHEv23/6j0393lAn+Hr9SXeftVadeTmrjsel+pP+OWnVa3DCnbKYUKVNl49s6WFi33hQD2vy6tWOtW0DZfCGB02B0IvCG5HVZTWOIO6rL9SqjlaP8eVVasU7JynS/UX+vjP9Hk1bfKTvP35mYqGjim2B2ATLr9WF0PBlywio4fUSnbzrphJVd/uT4Brg6a9sWe0Y5fSS9vd2n7qqAhBwAA/AYuBKfzztOk2zebV59T5D4uZU31axKFClRmrKx4+8OqXHGTbHe4S3AAAOC3s739mrz0WkVvvSwzeMpXm0OhAlW045dK+ufIdnT6CgAAaCS2rVN2ckLm8EFfaQ7FuuQ3PKhkzWbfAAAADSeOlWb3xw4cr95b1SyKFajSNOwNoQAAYNpsqVVmokmeTvUKd1M6AAAogOa6J51ABQAAkBeBCgAAICcCFQAAQE4EKgAAgJwIVAAAADkRqAAAAHIiUAEAAOREoAIAAMiJQAUAAJATgQoAACAnAhUAAEBOBCoAAICcCFQAAAA5EagAAAByKmCgMv4vAABoTLbpdtfFClTGfd008Q0AANCITJLItrb5VnMoVqDq6VNp/+u+AQAAGk6ayAwck3rnumTVPKepChWo0i3XKjr2sczokK8AAIBGEg2dlrFWdvEKX2kOhQpUtm+u0q23qvTydimp+CoAAGgEJk3dPvoZ2fWXyvbP99XmUKxLfk5y4zekxStVevMlmcEBXwUAAGeNC1LRqRMq7X5SduU6pZff2FSX+zKmXC5b331Gog/eUet9d6tyx12yi5b5amDlEUWvPlf9pL39sp3dsl297svVOB9OTqj0xm4lazbKzur2xfor7XpSlctuqP34/Abxu28qGh2WFgacn6eOuaXPjV/vHF8I4NB+2a03S8su8IX6Mz/6n7K3f1dqCXRzphtH7XtZlXWX+EL9GbfslA6+6ZafJVPzNIRD70jZOj9noS8EcPjg1DrS0uoLAYyX3XDflSbGfOEcN3+xNDebp4F2xB8eULJoudLzlvtC/ZV2P6Vkw1bZ9k5fqS8zdEqRW4ay/ZhKLb5aQ9n9UtklvmH3SSqyF12uNNt/xSX/Dxqfcbkmvv8emcGTGrvzXl+dvmIGqkziZuLpEzJHDsm8/IzMJ4ekyoTvWSPZU5/Zf9MthDZg0jYT40GfjjCVihvXNOwKUH1a003TQKGxqjIptbaHHc+yC6ods1xHoOUnuxTulllbjw3nb5DdK1GdtnGctaaK9ZYNLwtv1WEGkq0n2fBCHnVn0zabp9nfZhC56XsW5qkNOMxs+56F8lD7FJNOLUPVbUI9BpmNy9LVSjddJS1ZJdvdH3a7XgMEKgAAgJxqFaiKFSMBAAAaEIEKAAAgJwIVAABATgQqAACAnILflJ6eOu67AAAAase0dchUn6w+c4V9yq9y+IDvAgAAqJ2ou19R31zfOjOFDVTJsU98FwAAQO2YzlmKZvX61pnhPVQAAAA58R4qAACABkGgAgAAyIlABQAAkBOBCgAAICcCFQAAQE4EKgAAgJwK/doEU6nIPPVzmZOfyYyNSnZaowIAAPKIYqm9Q+miFUq3bJNm9fgexdHc76FywSl6ZbviX/+d0q5eJRdukZ3mq+bPyOS4Wl55TpWLLpftCreQtD79oLR2s5s7xlcCOPGp9NF7vnGOikvSsgukntm+EMCbu6QLL53a6IRw+oRseUSTm6/xhfozI4OKPzyoyrpsmQ1z0rtl91NK5y5SsnKdr9Rf6dXnpK/9K7fD6POVOhsakHnsflXOv0i2s8sX6691+8OSG2awZfbTD6WJial1M6RD+yV+Cq22evpV+d3vyq5aH3b/lVNTB6p4+y+lPTtckLpEaf98X609MzGm0guPqXLJNlm3oITS9siPpA1XBNs5VR39WHLz9pxWcoFqpVvR+6f3swS5uOCvTVdNhbkQTh6THR3SxNabfaH+zNApxe/tU2XDlW4DEWaZbX3uEaXzF6uyZqOv1F/Lzsekb/+x1B1oW+DCsXngPk2uuyToAV3boz+W3DCDLbPZgZzb1irbCYd08A23vhz1DdRMS6uSW25XesVNbpvb4ouNrWlf7Bm9+Lj00lOqXLy1rmEKAABM0+SE4sd/omjPC77QPAoVqLIzRvHTD6py2Q2yPYFOuwMAgDM3Oa5o787q2etmUqhAFWWn+Xv6ZWd1+woAAGg05tB+mcPv+lZzKNYlP5d2K9nN2gAAoHFVJqcedmqip++LFajSVGpr9w0AANCoTHnEdzWHwt2UDgAACiBtrndDEqgAAAByIlABAADkRKACAADIiUAFAACQE4EKAAAgJwIVAABATgQqAACAnAhUAAAAORGoAAAAciJQAQAA5ESgAgAAyIlABQAAkBOBCgAAICcCFQAAQE4EKgAAUHvG+I7mUKxAZdzXTVPfAAAAjcq2d/iu5lCsQNXdo/jdN3wDAAA0pLgk9c9rqrNUhQpU6SXXKvr0I5nyiK8AAIBGYxculV28wreaQ6EClZ09X3bLdSq98qyUVHwVAAA0jLgku/Eqt89e4AvNoViX/Jzk1m9L85eq9OZLMsOnfRUAAJx1La2y6y9VsvXmprsp3ZTLZeu7z0j0wTtqve9uVe64S3bRMl8NrDysaPfTit7YpaRvttTVJ9vZ7b5cjfPh5LhKe19Usnaz7KweX6y/lh2/ki642I1PwIXxxDHpyAe+cY7KrukvXin19PlCAG+9Kq3Z6IYd+0KdnR6QHRtV5eIrfKH+zOiQoo/eU7J6g2uEOUYrvbZD6ez5Spet9pX6i/fulPnS7VJnoG1BdsD4zEOqrFgjdXT5Yv217HxMWrE23DL72cduWzshLXHrZkiH33Xry0nfQC3YOQuUXn6j0itcmHLBqiiMyzXx/ffIDJ7U2J33+ur0FTNQZZKKzMAxNyHeVrR3l1spP3K1Sd+zRtyUMS5UqeQSd8BwY8bH3DBbfCuQ7OnJZriMWnKhKtBOvyrbUYTcsGTz0VrZbJiBFlmTuhXFLTs2W2ZDDXPCrZdR7Ibp5mcgZsLNy/bOcAc62bwcL8vGbrqey9ufJHH/45ah7IAnpGx7x1Pj+WX7x2XnK92wVXbVRbK9c8KF8RohUAEAAORUq0BVuHuoAAAAGg2BCgAAICcCFQAAQE7TD1T+3khTHp7qAAAAKKrqwzzu09buCzMzgzNULlEZo2j/674NAABQUBNjMpMTShcs9YWZmcEZqixQRTK7nqg+ng0AAFBILseYoVPVV5SkF17qizMz7UBl++cpXbmu+n4dc/RjXwUAACiYLMvs3enSUKR09UZfnJnpB6ruPqXL17r/Z6z413/XHC+DBAAA5xzzzmuKPjyodNV6pbPn+erMzOAeKpehLr1etne2zPtvK9r9lK8CAAAUgxk4qtLDf139ZYDKluuqJ4rymFGgsrO6Vbn2a9Vrj/H2hxW9/arvAwAA0MCy+79PHlX0k/8tjQ4rWX+Z7Kr1vufMzShQZRKX5irbvlr9MvEDf6nohUelkUHfFwAAoPGY/XtU+vlfKDp8UOnKC1W57uuybR2+78xN+7f8/j+VSZV2P6nSMw9Vu+3CpVO/NL15m4tqM85qAAAAtWPTf7xNKXJ/NTqk5OIrVLn1O9V7w2shX6DyokP71fLTP5cZHZ76df1Si+y886SuHtmc1yQBAABmwmQv7MxyyfFPZYZPZxVZl02SS7apsu1rUmvb1D+sgZoEqowpjyja95KiD96WGTgmc/KozFhZShP/LwAAAAJzocn2zpl67dO885RsvkZ27kIXXGp7Ja1mgaoqu9FrclxmZFBmeHAqFWavdAcAADgbsqtmnV3SrJ6pv9kLyuugtoEKAACgCXHnOAAAQE4EKgAAgJwIVAAAADkRqAAAAHIiUAEAAOREoAIAAMiJQAUAAJATgQoAACAnAhUAAEBOBCoAAICcCFQAAAA5EagAAAByIlABAADkRKACAADIiUAFAACQi/R/AUi89Q69OL4RAAAAAElFTkSuQmCC;" vertex="1" parent="dC4sRMdMSoydmVsc77Pg-14">
          <mxGeometry x="80" width="86.37" height="40" as="geometry" />
        </mxCell>
        <mxCell id="dC4sRMdMSoydmVsc77Pg-13" value="" style="shape=image;verticalLabelPosition=bottom;labelBackgroundColor=default;verticalAlign=top;aspect=fixed;imageAspect=0;image=data:image/png,iVBORw0KGgoAAAANSUhEUgAAAlQAAAEUCAYAAADtKKjYAAAAAXNSR0IArs4c6QAAAARnQU1BAACxjwv8YQUAAAAJcEhZcwAADsMAAA7DAcdvqGQAACALSURBVHhe7d1prB1lnt/x31N17uq7ejfeDV4weMEsZjE7TauX9DTTdHpmklGkUbo1IpooL/JilBctJCJF5EWUSFEGTTIMPdMzPdNML0DTdLODMRibzRgM2GYxBgzern23c5dT9eSpcx9GyYie9r11zuNTPt+PdPrW8y83dWr/1XpMuVy2AgAAwIxF/i8AAABmiEAFAACQE4EKAAAgJwIVAABATgQqAACAnAhUAAAAORGoAAAAciJQAQAA5ESgAgAAyIlABQAAkBOBCgAAICcCFQAAQE51+XFkMzEmlUelyQnJ8tvLAADgLCm1SO3tsu2dLqDU7zxSzQKVGR2WOXJI8ctPK37rFYIUAABoGHb+YlWuulXp0vNl++dLccn3qY38gSpJFL+5y312K3pnj0uCJdnuPtklq6S+OVJU2y8MAABwxkaHZD79UOboJ9L4mGxXj5Irb1VyyTbZWd3+H+WXL1AlFZVefFzxsw/JuC+ZXnCx0m1flXr63Rfuldra63p6DQAA4J81OSkzOiiVRxS9+ISiPc9Xy+mi5Zr8vT+R7eyqtvOaeaCytnp5r+XhH1aDU3rLt5Vsvdn3BAAAaDzm6MeKf/xn1b+2t18T3/1+Tc5Uzfj0UfzWyy5M/Y3snAWq/MF/IEwBAICGl91LlXznDtmV62ROD6j0+D/IjI36vjM3o0AVnfi0+gXU0qr0mq/ILl/j+wAAADQ2O+88Jd/4N7J9sxXve0nRe2/5PjM3s0D16nMyA8dk++covfR6V+A+KQAAUBx2zkIlt/+xNDGm2OUa2dT3mZlpJyEzMqjos4+q91Alt33XFYzvAwAAUBx24TLZlRcqOrBHZuC4r87M9APVwDFFh/ZLs7plz1vhqwAAAAWT3bp04RYXbiJF+17yxZmZ/rW6JJEmx5Vu3sbZKQAAUFxZjumfV31bQbx/jy/OzAxufrLVy33pms2+DQAAUEy2pa16psp8dthXZmb6gerzt1Z1dPoOAACAgooiWRNVX1CexwzOUAEAAOD/RaACAADIado/PRN98I5a77tblTvukl20zFcbQJpKlQkpyd4jMfOfJwQAAL9F9kxaVJJaWqpPyBWZcbkmvv8emcGTGrvzXl+dvuIHKmtlPn5f0Y5fyQwPuC8Y1zROmclJ998MvLBkT1KGFrm1I+RK4eZbVcgnRVM3XbNxDDnMbF7GsW8E4KerLbkNXSjZOugOaGzA8TQVt166eRl2mJWp4YVafrLpmlSq4xnU2dj+ZNM05HbWTVubDS/gMLPlp3qvTshhTkxIrW11WmbdtiZx631Pv9Lrvy47b3GdhlN/BKqM26jGv/57mT3PK7noMk1uudb3qI3st33aHvhLmWVrpI5ZvhrArid9R0Dz3cqwYq1vBHDsE7cwuZ3TnAW+EMDeXdKSVVL/XF8I4JXt0qarXKgKFHBOHlPq1ovxW2/3hfozp46r9OZLmrzqS1PzNIDWX/xQdun5msymbSCtv/6xJrd9pSY/onomzPBptT3xU5kFS6X2gA8BnY3tz9yF0qr1vhHAkUOaWLtJScBhZstPsu4SJctX+0r9dfz5f1b67/+L1N3nKzU2VpZ54dcyrz2v9LLrldzwO9Wn5YqmVoEq8KFP7WQjXvqb/y57+oTGb/9ezcMUAAD4Z7R3yN74Tdk/+lOZk0cVP/zX0uiw79l8ihmoKhVFu59W0jtbE1ffKhvy7BEAAPhH1u2L7Ze/I2NdqHhjl682n0IGqurLt/bvUWXd5nCXUgAAwBdr75TdsFXxc7+cekCsCRUzUA0cVXLeCtnOMPcyAACA32LJqupv/Eav7/SF5lLIQBXteV52VpdLVsV8ogAAgHPSsguq++hmVMx7qI4eka3XUwsAAGBm+ufLfPaRbzSXYgYqm728k7NTAAA0lOzK0efvGWwyxQxUAAAADYRABQAAkBOBCgAAICcCFQAAQE4EKgAAgJwIVAAAADkRqAAAAHIiUAEAAOREoAIAAMiJQAUAAJATgQoAACAnAhUAAEBOBCoAAICcCFQAAAA5FTNQxSWZNPENAADQECqTUkuLbzSXYgaqBUtkTp/wDQAA0BBOfCa7YJlvNJdCBqp0w1aZ4UHXwVkqAAAagtsnm8MHlW6+xheaSyEDlV24TNHQKRn3AQAAZ585tF92rKx09QZfaS7FDFSz50sr1qntsZ+4RuqrAADgrBg6LbP9l0qv/pLU3umLzaWY91AZo+TGb8pesEHtD/xA0fEjXP4DACC0yQnpo3cV/eKvlKzZqHT1Rt+j+ZhyuWx99xmJPnhHrffdrcodd8kuOvs3nkUvPCrzzmtKW9ukrl6lvf2uGPu+OU2Oq/XFJ6V550nZfz+UA3t9R0C9c6T5bjxDGRyoBmN19/lCAIcOSHMXSLN6fCGA9/ZVz6YqCnTsMjzoji0qqmy+2hfqz4wMKf7woCrrNrlGmPEsvfSM7NyFSlas9ZX6K726Q8n6LbJtHb5SX6Y8qtLrO2X650otrb4awNnY/vS47faCJb4RwMAxVRavVBpwmKXXdihdvErpvEW+Un+tj94v+/U/lDpm+UoNJYmUncw4dcJtz08qvfR6pRddHnZZrRHjck18/z0ybjzG7rzXV6ev8IFK1n39kUGZox8rdhtZc+SQbMUl5hpwu/up9J3tDLOdfyiViu8IKBvHUDv9TOoXuyjgdM02AKHnZXWYLuCHGmS2PriPLYV7bNlkw8zOEMclTWtjkoPJHs1289LW6uDpDFSHWcrGMczMNNnUzLYF2fLK9qe20rS6XtqAw6wuP7EbZqCDjoyZHHepqj3rmirUklsX0mWrlW65TnZO4APVGiNQAQAA5FSrQBXwkAAAAODcRKACAADIiUAFAACQE4EKAAAgp+A3pSfHP/FdAAAAtWM6uhRN84nDwj7lVzl8wHcBAADUTtTdp6hvnm+dmcIGquTEp74LAACgdkzHLEWd3b51ZngPFQAAQE68hwoAAKBBEKgAAAByIlABAADkRKACAADIiUAFAACQ07nxlF+aSHZaowEAAPIwxoWC7LyM+1tgvDbBMeURRT/7PzJj5akZWw82df/twCfy0myYIRfQzxeBwCtFFoJDjmd1XmbDCz3MgMtP9cCiSQ4ugs/LwMtrpimG+fnyGnpeZh2Bh3murZtuObF9c5XedFv1b1E1d6BKEkVP/1zxzseldZuV3vovpZY237OGRocV3f9nSr/2r6W5i3yx/sz/+FNN3Hybm9ixr9RXae+L1bN8lU1X+0r9xW45Kg0OSHMW+EoAe3dJS1ZJ/QFX/Fe2S5uuciNc8oU6O3lMen9fdR055y09X1q03DcC2P+6Jq68RbZjli/Ul3Hbn9LrL6hy8VbZrun9lEYerU89oIltX3Hb1FZfqa9438sqZS98XrXeVwI4ckhq65Bmz/eFANx4avi0b5x70pt/V8m1X3UztMVXiqN530PlUn781M8Uf3hQ6fe+78LOH9YnTAEAgDMSPfVzxQ/+QBob9ZXmU7hAFT35M0XvvaX0K78vdff6KgAAOGvSVNEbuxS9udsXmk+hApUZGVK86wml37lDKvD1WgAAzjkT44of+oGUVHyhuRQqUEU7HpFdvXHq2jcAAGgs2T3O2X25TahYl/zKI7JX3uIbAACg0USv7fBdzaVYgSp7nUBbu28AAIBGYz497LuaS+FuSnezyv8FAAANJ3v/XhMqYKACAABoLAQqAACAnAhUAAAAORGoAAAAciJQAQAA5ESgAgAAyIlABQAAkBOBCgAAICcCFQAAQE4EKgAAgJwIVAAAADkRqAAAAHIiUAEAAOREoAIAAMiJQAUAAGonbvEdzaVYgSpyX3dy0jcAAECjsQuX+K7mUqxA1TdH5pkH3NyyvgAAABpJuvFq39VcChWo0i3XyRzaL3PyqK8AAIBGYfvnKV27ybeaS6ECle3uU3rT7TIP/ZU0MearAACgEaRful3qmOVbzaVYl/yc5IoblJ63TOax+2WOHPJVAABw1rS0Kr3xd5SuvcQXmo8pl8vTuiEp+uAdtd53typ33CW7aJmvBjY+pmjfS4p3PTn1HTq7pPmLpVKNnywYL8s8+7DsFTdKvXN8MYCf36vKpqvdxA6Td2M3T5WmSlZd6Cv1F332keLRYamnz1cC+GC/NHeh1NXjCwEcfFNa6aZrHOjYZei09OmH1fl5zpt3njR7nm8E8PH7qridhW1r94X6Mm77E73/ltIVa2Xbwx3xl15/QZX1l7uOkq/UV/zhAUWDp6RFS30lgOy2kZY2qbvXFwL48KBUHvGNc8ycBUqu/brSDVulVjddC8a4fWB8/z0ygyc1due9vjp9xQxUGWtlhgakkSHF2x+u3luliXHfs1bcpMn+my55ywQ8mec2pFPh0Ey16y2pTP2Nw2xAq9Jk6uGCKNA4ZhI3zGw+hhxmxU3bbLqGGmTqpmk2bZtBdsAR6KCjKlt+Qq6X2fYnWzer62XIZXYi7Himbhyz5TbUQUemesDhxi/09udceqCq1Kp09cVKr7zVHdwsqt6SU1QEKgAAgJxqFagCHhIAAACcmwhUAAAAORGoAAAAciJQAQAA5BT8pvTkxBHfBQAAUDumfZaiWdN7NU5hn/KrHD7guwAAAGon6u5T1De999MVNlAlxz/xXQAAALVjOrqa5wwVAABAo+A9VAAAAA2CQAUAAJATgQoAACAnAhUAAEBOBCoAAICcCFQAAAA5Ffq1CaYyoehnfyEzOiylqa8CAIC6iyLZ/nlKbrpN6ur1xeJp7vdQ2VTRsw8rfuZBqbtPWr5WKsW+Zw1VJqU9O11YS3zhHDZ/sZuOq30jgGNHpNjNs9nzfSGAbF5OjPlGQFuunRrXEAaOSSfd5/z1vhDA2KiS4SFVLr6iuoENofX5Xymdt1iV1Rt8pf5aXnxC+tb3prY5IZw+qejxHyu96VuS22mFEt33X5X+wZ+4idzhK/Vlnv2F7OEDmtxyna/UX3xgr2xnl9LFK32l/lpeeFRR72ypb46vBLD7aWnT1W5etvpCjU26feRH70qnjiu95dtKrvxSuG1dDTX1e6jipx9QvPtJaf1l0gUXuyW1xU0RNyr1+DSTLxr/un1MNsB/Uqvz52zJxvWLvk89Pp+v0l/Ur16f6nx0f7IwFepTHab7fFG/en2ycYzd32yHEeTjhpXNz2zYX9i/Tp/qvPyCer0+1fUj9LzMhncWhln9ZN2BPpl6DrO1TVrlDt7WX6po1xOKf/lDabw8Ndwm5KZIsUTPPKho91PS8jVSW7uvAgCAs6J9VnWfHB0+qOitl32x+RQqUJmxEcXPPyqt3uhmYKevAgCAs6qlVeqdo/iRHzXHbTJfoFCBKtr+iNTpknCpxVcAAEBD6OmvnuyI3tjlC82lWJf8RoekRct9AwAANJTuPkWv7fCN5lKsQJW9GiEu+QYAAGgoHZ0ynxzyjeZSuJvSAQBAozLVVxs1IwIVAABATgQqAACAnAhUAAAAORGoAAAAciJQAQAA5ESgAgAAyIlABQAAkBOBCgAAICcCFQAAQE4EKgAAgJwIVAAAADkRqAAAAHIiUAEAAOREoAIAAMiJQAUAAGrDplJc8o3mUqxAZdzXTd3MAgAAjWesLLtgiW80l2IFqt5+6cgHvgEAABqGtdLQKaUbrvSF5lKoQJVuuU4aGa4mYAAA0ECGT8vGJaXrLvGF5lKoQGV7Zyu97l9I778lJYmvAgCAs6oyKX3ywdQ+urPLF5tLsS75Ock1X1a6ekN1xml02FcBAEBw2WW+kSHpwwNKN16l9MLmPDuVMeVy2U2NMxd98I5a77tblTvukl20zFcDGysr2rtT8fO/kkqtUmub1NHpxib2/6BGkor07hvNcSN83zxp4VLfCOD08amHDHpm+0IAB928rEz4RkBrNrkVp8bL5m8yNCANnpIWr/SFACbGlJZHlKy6cGqeBlB640WlbplNl6zylfor7XtJuuEb7ui721fqbGRQZvdTspdeJ3X3+2L9mUf+VvaWb0ktbrsawp4dsp99rCRbTwKJPnpXau9UOneRr9Rf6c3dMrN6pK5eXwng7VekCy6e2k/WWvY039ioVHYf43aXl9+odNM1brp2+H9QHMblmvj+e2QGT2rsznt9dfqKGagyLuSY0ydlTn6maOdjMocOSJPjvmcNZacxm0HkdoShdvqZLKS6lTDUDriq4gKyprW410apxXcEkG3kUjeOccB5mR2hZtM15KPS2XqZLTshxzMbZmu7G2624AaQTddsm5YFm1DDzIyXpbaAO8Vsuma3cJQCLj/Z8LJpmm33Qvl8mQ05L7NhVqdrHYbptmt22Woll90gnbdCtseF/pDjVkMEKgAAgJxqFagCxnMAAIBzE4EKAAAgJwIVAABATgQqAACAnILflJ4MfOa7AAAAase0dSqa5qtNCvuUX+XwAd8FAABQO1F3n6LsvYrTUNhAlRz/xHcBAADUjunoUpS9QHUaeA8VAABATryHCgAAoEEQqAAAAHIiUAEAAOREoAIAAMiJQAUAAJATgQoAACCnQr82wVQmZR75W0WDA9LkhK8CAIAgjJFKLbILlirZerPU3ed7FEdzv4fKpop2Pq74yZ8q7ZurysVbpbZ237OGJsbV8tLTqmy8Urar1xfrr+XpBzV5/dfd3AlzAjHe97Li4dPS0vN9JYATn7qFKZb6p/dG21wO7pW96TbZVRf5Qv1F/+v7Sv/tf5Ja67B8fgFzYK/0ynZNbr7aV+rPuGWnxS1DWrLKNdzGNYRsPHv6pQVLfCGAd/dJyy5wK2irLwRQHpHee0saL/vCOW7xCj9PAy1H776pyrLVSt0nlJZnHlLlihtlO7p8pb7MqROK39tX3Y9lwafmrJUZG63uR7JtQfrNP1K6ZqMbcHEugDV1oIqffUja84IqG7bKZhvVOjETYyq98Jgql2yr63D+qdbH/kETN982FTgCKO19UfHQKWn5Gl8J4NgnU+M3Z4EvBPD2a7Jf/o5strIHEv23/6j0393lAn+Hr9SXeftVadeTmrjsel+pP+OWnVa3DCnbKYUKVNl49s6WFi33hQD2vy6tWOtW0DZfCGB02B0IvCG5HVZTWOIO6rL9SqjlaP8eVVasU7JynS/UX+vjP9Hk1bfKTvP35mYqGjim2B2ATLr9WF0PBlywio4fUSnbzrphJVd/uT4Brg6a9sWe0Y5fSS9vd2n7qqAhBwAA/AYuBKfzztOk2zebV59T5D4uZU31axKFClRmrKx4+8OqXHGTbHe4S3AAAOC3s739mrz0WkVvvSwzeMpXm0OhAlW045dK+ufIdnT6CgAAaCS2rVN2ckLm8EFfaQ7FuuQ3PKhkzWbfAAAADSeOlWb3xw4cr95b1SyKFajSNOwNoQAAYNpsqVVmokmeTvUKd1M6AAAogOa6J51ABQAAkBeBCgAAICcCFQAAQE4EKgAAgJwIVAAAADkRqAAAAHIiUAEAAOREoAIAAMiJQAUAAJATgQoAACAnAhUAAEBOBCoAAICcCFQAAAA5EagAAAByKmCgMv4vAABoTLbpdtfFClTGfd008Q0AANCITJLItrb5VnMoVqDq6VNp/+u+AQAAGk6ayAwck3rnumTVPKepChWo0i3XKjr2sczokK8AAIBGEg2dlrFWdvEKX2kOhQpUtm+u0q23qvTydimp+CoAAGgEJk3dPvoZ2fWXyvbP99XmUKxLfk5y4zekxStVevMlmcEBXwUAAGeNC1LRqRMq7X5SduU6pZff2FSX+zKmXC5b331Gog/eUet9d6tyx12yi5b5amDlEUWvPlf9pL39sp3dsl297svVOB9OTqj0xm4lazbKzur2xfor7XpSlctuqP34/Abxu28qGh2WFgacn6eOuaXPjV/vHF8I4NB+2a03S8su8IX6Mz/6n7K3f1dqCXRzphtH7XtZlXWX+EL9GbfslA6+6ZafJVPzNIRD70jZOj9noS8EcPjg1DrS0uoLAYyX3XDflSbGfOEcN3+xNDebp4F2xB8eULJoudLzlvtC/ZV2P6Vkw1bZ9k5fqS8zdEqRW4ay/ZhKLb5aQ9n9UtklvmH3SSqyF12uNNt/xSX/Dxqfcbkmvv8emcGTGrvzXl+dvmIGqkziZuLpEzJHDsm8/IzMJ4ekyoTvWSPZU5/Zf9MthDZg0jYT40GfjjCVihvXNOwKUH1a003TQKGxqjIptbaHHc+yC6ods1xHoOUnuxTulllbjw3nb5DdK1GdtnGctaaK9ZYNLwtv1WEGkq0n2fBCHnVn0zabp9nfZhC56XsW5qkNOMxs+56F8lD7FJNOLUPVbUI9BpmNy9LVSjddJS1ZJdvdH3a7XgMEKgAAgJxqFaiKFSMBAAAaEIEKAAAgJwIVAABATgQqAACAnILflJ6eOu67AAAAase0dchUn6w+c4V9yq9y+IDvAgAAqJ2ou19R31zfOjOFDVTJsU98FwAAQO2YzlmKZvX61pnhPVQAAAA58R4qAACABkGgAgAAyIlABQAAkBOBCgAAICcCFQAAQE4EKgAAgJwK/doEU6nIPPVzmZOfyYyNSnZaowIAAPKIYqm9Q+miFUq3bJNm9fgexdHc76FywSl6ZbviX/+d0q5eJRdukZ3mq+bPyOS4Wl55TpWLLpftCreQtD79oLR2s5s7xlcCOPGp9NF7vnGOikvSsgukntm+EMCbu6QLL53a6IRw+oRseUSTm6/xhfozI4OKPzyoyrpsmQ1z0rtl91NK5y5SsnKdr9Rf6dXnpK/9K7fD6POVOhsakHnsflXOv0i2s8sX6691+8OSG2awZfbTD6WJial1M6RD+yV+Cq22evpV+d3vyq5aH3b/lVNTB6p4+y+lPTtckLpEaf98X609MzGm0guPqXLJNlm3oITS9siPpA1XBNs5VR39WHLz9pxWcoFqpVvR+6f3swS5uOCvTVdNhbkQTh6THR3SxNabfaH+zNApxe/tU2XDlW4DEWaZbX3uEaXzF6uyZqOv1F/Lzsekb/+x1B1oW+DCsXngPk2uuyToAV3boz+W3DCDLbPZgZzb1irbCYd08A23vhz1DdRMS6uSW25XesVNbpvb4ouNrWlf7Bm9+Lj00lOqXLy1rmEKAABM0+SE4sd/omjPC77QPAoVqLIzRvHTD6py2Q2yPYFOuwMAgDM3Oa5o787q2etmUqhAFWWn+Xv6ZWd1+woAAGg05tB+mcPv+lZzKNYlP5d2K9nN2gAAoHFVJqcedmqip++LFajSVGpr9w0AANCoTHnEdzWHwt2UDgAACiBtrndDEqgAAAByIlABAADkRKACAADIiUAFAACQE4EKAAAgJwIVAABATgQqAACAnAhUAAAAORGoAAAAciJQAQAA5ESgAgAAyIlABQAAkBOBCgAAICcCFQAAQE4EKgAAUHvG+I7mUKxAZdzXTVPfAAAAjcq2d/iu5lCsQNXdo/jdN3wDAAA0pLgk9c9rqrNUhQpU6SXXKvr0I5nyiK8AAIBGYxculV28wreaQ6EClZ09X3bLdSq98qyUVHwVAAA0jLgku/Eqt89e4AvNoViX/Jzk1m9L85eq9OZLMsOnfRUAAJx1La2y6y9VsvXmprsp3ZTLZeu7z0j0wTtqve9uVe64S3bRMl8NrDysaPfTit7YpaRvttTVJ9vZ7b5cjfPh5LhKe19Usnaz7KweX6y/lh2/ki642I1PwIXxxDHpyAe+cY7KrukvXin19PlCAG+9Kq3Z6IYd+0KdnR6QHRtV5eIrfKH+zOiQoo/eU7J6g2uEOUYrvbZD6ez5Spet9pX6i/fulPnS7VJnoG1BdsD4zEOqrFgjdXT5Yv217HxMWrE23DL72cduWzshLXHrZkiH33Xry0nfQC3YOQuUXn6j0itcmHLBqiiMyzXx/ffIDJ7U2J33+ur0FTNQZZKKzMAxNyHeVrR3l1spP3K1Sd+zRtyUMS5UqeQSd8BwY8bH3DBbfCuQ7OnJZriMWnKhKtBOvyrbUYTcsGTz0VrZbJiBFlmTuhXFLTs2W2ZDDXPCrZdR7Ibp5mcgZsLNy/bOcAc62bwcL8vGbrqey9ufJHH/45ah7IAnpGx7x1Pj+WX7x2XnK92wVXbVRbK9c8KF8RohUAEAAORUq0BVuHuoAAAAGg2BCgAAICcCFQAAQE7TD1T+3khTHp7qAAAAKKrqwzzu09buCzMzgzNULlEZo2j/674NAABQUBNjMpMTShcs9YWZmcEZqixQRTK7nqg+ng0AAFBILseYoVPVV5SkF17qizMz7UBl++cpXbmu+n4dc/RjXwUAACiYLMvs3enSUKR09UZfnJnpB6ruPqXL17r/Z6z413/XHC+DBAAA5xzzzmuKPjyodNV6pbPn+erMzOAeKpehLr1etne2zPtvK9r9lK8CAAAUgxk4qtLDf139ZYDKluuqJ4rymFGgsrO6Vbn2a9Vrj/H2hxW9/arvAwAA0MCy+79PHlX0k/8tjQ4rWX+Z7Kr1vufMzShQZRKX5irbvlr9MvEDf6nohUelkUHfFwAAoPGY/XtU+vlfKDp8UOnKC1W57uuybR2+78xN+7f8/j+VSZV2P6nSMw9Vu+3CpVO/NL15m4tqM85qAAAAtWPTf7xNKXJ/NTqk5OIrVLn1O9V7w2shX6DyokP71fLTP5cZHZ76df1Si+y886SuHtmc1yQBAABmwmQv7MxyyfFPZYZPZxVZl02SS7apsu1rUmvb1D+sgZoEqowpjyja95KiD96WGTgmc/KozFhZShP/LwAAAAJzocn2zpl67dO885RsvkZ27kIXXGp7Ja1mgaoqu9FrclxmZFBmeHAqFWavdAcAADgbsqtmnV3SrJ6pv9kLyuugtoEKAACgCXHnOAAAQE4EKgAAgJwIVAAAADkRqAAAAHIiUAEAAOREoAIAAMiJQAUAAJATgQoAACAnAhUAAEBOBCoAAICcCFQAAAA5EagAAAByIlABAADkRKACAADIiUAFAACQi/R/AUi89Q69OL4RAAAAAElFTkSuQmCC;" vertex="1" parent="dC4sRMdMSoydmVsc77Pg-14">
          <mxGeometry x="166.37" width="86.37" height="40" as="geometry" />
        </mxCell>
        <mxCell id="dC4sRMdMSoydmVsc77Pg-34" value="" style="group" vertex="1" connectable="0" parent="1">
          <mxGeometry x="-60" y="650" width="250" height="260" as="geometry" />
        </mxCell>
        <mxCell id="dC4sRMdMSoydmVsc77Pg-3" value="Lecture Slides" style="shape=image;verticalLabelPosition=bottom;labelBackgroundColor=default;verticalAlign=top;aspect=fixed;imageAspect=0;image=data:image/png,iVBORw0KGgoAAAANSUhEUgAAAHgAAABoCAYAAAA6sjRJAAAAAXNSR0IArs4c6QAAAARnQU1BAACxjwv8YQUAAAAJcEhZcwAADsMAAA7DAcdvqGQAABRjSURBVHhe7d1ljGXF1gbgjbu7u7sTnMGDB3cCCW5/CD/5QkIgIVgIEjRIgEBwd3d3d3d3+e596s7bs+fcnp6WM6fvHPabVGrv8lpvrVWy63RP8P//RtWgazHhSL9Bl6IhuMvRENzlaAjucjQEdzkagrscDcFdjobgLkdDcJejIbjL0RA8TOjUCXHbzqIVw00wwQQjQxr0hb///ruacMLR9as32Q1Vpm392PDXX3/1NEjjPf/xxx/VZJNNNjJFA0AuGZFPq7zqZHqXdqKJJhoZMnC0leA0SGPT0NZGN+hdJsIS3k55tXUO1sCQ+/vvv1e//vprCWvw36AIXJ5/++230cgN4UNF2000IBm533//fWk4M91gFIgckTG9U0wxRTXjjDP2hPGRLl3dGg4GbV1kIXjiiSeuPvroo+quu+6qnnzyyerHH38sjWwwCuQ0ySSTFOIowqyzzlotv/zy1VZbbVVNPvnkJQ4yEIaCtmqwUffhhx9Wl156afXYY4+V0fjzzz8X0huMApGTCdlMOeWU1Z9//llIXXPNNatdd921mm222YpShJr/CQ2GX375pbrmmmuK0/hJJ520jEgdaDA6kGbqIiNWzk6Dqd5xxx2rzTbbrCgHR2mGYgHbSvBXX31VnXbaadXjjz9eGjvXXHNVK6ywQjX99NOPTNGAuLMmQR5yyeuLL74oRK677rrVfvvtVzSallOOoVjAthLMPJ944onV22+/XRplJO6xxx5llDYYHTG7X375ZXXhhRdWDz/8cCHcXHz44YdX00wzTdFg9AzFRLd19WNkxqTwmeehLhK6EbQy0xbTjEjbyhwU8YXlfShoK8HIZFoQHZIb/DeQR1YIjELEsXziEGsQ/E8RnDlDBwKN1uB2OMj8FdMVP67+DnmmIdrmmVATPhwuZJITP4qg7UiXxrOpTfxQ0HYNDtLIdkKZGf3KtockHMQhMGmiGZ4NCIcthGUARmP+KRjveoqczF/IDmnIbDVpwsWb5zIo/mkYrwgOkfGRZ+V+xx13VFdddVV1yy23VE888UT1/vvvlz25NLT5p59+Gs308f8pGK8IDjGIRRQSkerkjLvggguqU089tTr55JOriy66qLrvvvvKNoQGZ66j9ZnH/wkY7wiOBiIMUa+//nr5qCGMiaat9uG33nprdf755xf34IMPVt99913Ji+RmDu4gkETowGdKgyyWADkhiPMcrUSutJwTtKT94Ycfypk4bb7uuuuKNqdMLnUlLPn6QtL0N61y85x6OolhJVhn7Zt1nvZFszyLy3bLIJAGkcI47/WVM7faaqtV++67b7XWWmuVkyDxyqHhTPkVV1xRjlOZeHVxyuFSt3IS1htSV9zYUC9H+tTTKQw7wQQQQXnPs3DbIB8tmFdm9+mnn66eeeaZ6t133y3kISoDw/MMM8xQyD300EOrI488stp4442rmWeeuaR15vvQQw9VN954Y4+5BlqVgaR+EOc57as/J1+QsFYX6I+8dSvRSQwrwUjR6TzrfAj+9ttvq6eeeqq6/PLLq9NPP724M844o/iXXXZZz3k3IDkLJ2H2vMsuu2y12267VVtuuWX5mC7Mfvjee+8t576eI+yQYKCkPdG0tIkfkvhcLE1vTnzycrE8ncawazBBRtCeLZIsihB5yimnVDfccEO5OGAxhfTPPvusev7558tWiIAjvHwkB8/Kmm666aotttii2nbbbcvczCJYedtSuZQA0oW4vHPKhRBZJ6nupO0tnKuXA/qprE5iWAmuE0vATO/VV19dnXvuuWVxxLTms5kPFyCd8Ghg8gpDRk63Eicvktdbb71iwmm6QXL33XePdtuEz3Rz5mxTgzJSv3wGh4WbeE5+TlirS5pvvvmm+Bkk9YHYCUz0f//GyOchQ8eYP5pmBC+22GLFVEaIrdDhaM4777xTFkH3339/EQihckhZaqmlqnnnnbf6/PPPC5FTTTVV+aw233zzlatBmVPnnnvuMgfLp1z1qkOctOr4+OOPS7iBsOSSS1YzzTRTiedMCbfffnuPhfA9m2lX1qOPPlrinnvuueJeeOGFsh6QNmGtzprh1VdfrV555ZXSZn3Rnmg1X3+yroA55pijLBbrX+LiDwbDqsGETLCEiVxaSzONcvPm2muvXR1wwAHVwQcfXG2++eZlZYwcAs8cB8IQEdMsPmn40ilvlVVWKUImPB/YEU6zMhDeeOON6s477yxEWpDJn/Lee++9ovVOzQwqc7nnpG914u65557irOA/+eSTMvCU10l0pLYQ0Qqk0HorW5qPcEJ1J2mHHXYoW56VVlqp3AiJaUNE68g2KMzd2U6xHuIyF3om2CWWWKLcgWIhpHfMqb6UQ5ukSxmJU6444erivMfsOinrzcW0K0davvdOYlg1GLL1ITyEL7DAAoXY9ddfv5g1AmnVxoBwOYKk3QaIsphHJvTZZ58tJpQTzlLQXmnV5eAjVkT56ma2l1tuuTIYom0WaHPOOWe14oorVquuumqxBHk2BZmKenOLL754iV999dXLzUlt7fQc3NYrO1amJ5xwQjF9OmKLYquCgDpSpUXLMcccU7311ltF0OZDV3zq82g08LXXXqtOOumkskDK5bQRI0ZURx99dNkyRZMMCpAvAwJR0Ubam3Akuh4z++yzl/fM5anXKjzQVq6OlD0mKEed0k099dRlUCkXhIljwc4777xiysHAOeyww0rd4iH+YDBsGqyDWYAgFzk0wmiPIOrEQOsWwyCQNnOveKtWRH399dflmbPoE8aXJsLlQhAyTAXmagPNXC0dSKcO8QQvzjM/6VudcM5ByyyzzFIsR1+DYVyh4zUSGmceM/fqNDIRvMEGGxTtRCoQrLgQi9AIPeQuuOCCRYDy0V6aYp4lUO/TTjttIUe854QhYZ555in1Bik7PmiD9ww4Lu3iQHyrA2kNnNaB2Ul0zESrJsJC4AcffFAde+yxRdMsWJB7yCGH9AhNWuHKAWbYjU3zKAL33HPPapNNNin70BdffLEMGPXUNRQIWZg45fFB/NJLL100MoMqeQAxISikWg8YVMrTzno9vUF67Y9fLyt5u8ZE6xBoLOfQPwcAtMqChBASH4G35iMg6ayCLZJoqkUR0+4Otj2kZ+aeE+YXAw46Ntpoo7J4M3d7j+kMmHDzrCnDwIEQyWlvVuA5EJHOe6tzUKJvyvJuAKYPnURHNDhCgmiUfeI555xTns1nRx11VM/KVVqjHfjKevPNN6vjjz++1OHdVspqOGkyIGItvGcwmAc33XTTaplllumZ74FG00jpEGBP6zuyMKvenXbaqRyeKPf6668vhzDgXZ19iU68dMo2gO3jV1555VK2cHn5XaPBaWSEQqB5RgIhJA3hEIyBkTADAXnIEf7pp5+Wgwln1AaUgwinQVbkeWfWX3755XKAYpukDPkjXM/qSdn2xQ4kDCYnXsI4A4HGmlZSvrq41NXqUpY02kij9VNdnURHF1mEGfKiaRE2IYbM+IBMQqGtTGrSK4Orv4Py5fFuEBEq3/ZKHckH8nHKT7tovveUAcpQT6wEP/Xye3PKQKo0GSiQMjuFjp5FRzjiLJYcRHinSRY8zn5BekKKQC1SaDhTbgXMbDqU4JwxM+2e559//vJuZc3EyWdOJVztMD8Li7A9awswndqtDufeiy66aMmjfkjaRRZZpNShPs989bW6hRdeuFpooYXK2sI+W1mmCn1LmXyDblyeRXdkDlaFjoU4cNJkVUyoCN55552r7bbbrkcDkpZLB2lZ8tchHOQxKBDo9Oq4444r2ouYvfbaq7Qn6VKWOEKWx3u9DmGpW5h00WbPBkXieoNw6VO+suLE8btiDo6WBBpsH8rsembOHFlabYasCE18nUBltTpC5EsbgZpHlScPbaCREZSylZmyCV+65PfO9552iE+6lOk99Y/JJW/KZwk6iY4QnM4BgXFOgZz7EhJCLIheeumlnnT1eU7+kNwbko6w5bNAckmAgL0zkUxfyIqZTltSfoSvPfJBve15TpuSf0xOmQYvKFuYejuJjs34EUyERQMcbphTwVxp64QcIAxCjqZFQ3tDwqUnUJffTROemVGfHc2tqb8+YDxL5z2kZ6UOiFFuCOND8vcFdUXLPcujvk6io7XpYMjgW4z4mO9kihCdS+cOM6HUtSyQrzdHcOZbc6/9qv0uDaa59r8hiFMuUuWDaJltjW0Vx6LQ5BDisoEPHtYOLI3TM760nntz4py3e3YoUh9YnUJHjyoJ0nMdPu2deeaZRbhIpdn77LNPOYEyTxNItKmvpkqH3LPOOqt8zKd55vjtt9++/BCdVgYx0RkcBpcwd7UMDu20Ut97773LytzA8WcpHnnkkbIo0p4QlUHSCvHaqx7E+tsbLEm0WRy/qw46kM6PoyG2Ev5sAS3WaZrnThaBGjDCCItLPgjZwq3EnTT52UryGCiu9TiaVC8hy8sP2dFcYYiwbzXQnI/TONNH6kSygevrlHgLOD7n2LU3xxIZbPy6NegkOl9jDQTv6w8N8+HAfEmTCPO2224rf+8DcUyjc2cEEBRn5DtVcrRoQFx55ZU9Wy6EMP277LJLKT8WoA7CFq6+kKj++vxrXUC7xYGPEtJkcGm/gdGbk47L4FGmfNreSQzLB/86aBEtRN7NN99c7j0Z9YRKOMqx4s7Zs3fpESwdTZFXHcJ1h9Y6+zXHtyJkgfRciDZfOvECFsA0gSR5HD2al9WPJPWpK64VqYdFUoZDH7dC9EmcPPxxbaKHneD6fEhjnBu7OuucmfYgVRrPhJ75Uvrk8875QMAa+LDgY3u0TxcjWPAeAQfStmq6eNZEX6RHVm+fFlvz9QYDSRtjYVJ/18zBvUGHkURgNBmBPvUddNBB5eTJ6jemjpOGYPKONHO3hZDL7b4nG1TmzhAmTZ3caHkErEx+TKjnxItLeOoSr83C44S1uuSPlZAfucI6iWHV4AiAQGJ60xxxzKUzWufWvh5Z+AgnLJrkbNdZsBUvR4DKQa46I1hlRuicMEhd4mIVkh9xMcVJk/aJS9l9IeWD57RB/rx3vYlOR1uRZvGRGjOcAUFI6ogmC2sV+pjK7g2pr54++evlDKTMOlrz5b2rTTSMqfHCOYQhMXepdJxvbmbSYyKhVaMGIpjUV0fe6+EDKbOOweYbKoad4IGAkJAYIodLaOMTxjuC667B2DFeEdxg4BivCLYw4Rr0HwMmuC7kPHNWsFDfQnhuJ7rFNNflVoe+RWZ2Du3o64AJTqVIDKnCsvDhC3fqw3UDIeMC5MJFjhzZ2Xsjvq+t5UAwqH1wGpQtSopwVuvvaDhmdBDhwrk/hNJgFMgKiTmy9FXK74ddQLTP9wXMPjgXIerbwMFgwARLzmUE1t8R69uurzxpVEZmg/+AXMiDzHK2jVhEOkHze+gDDzywfAuXhiZHloPBoEx0XIjVYI1zpOjmgwanE0Zqg1Ew4BHLJztzrRM5IDNXllwYRCzSyXAoGNJRZc5sfXFx69+fDXRNpd5o8VyDUYhWRn4ooBhO64T5TZWPLX79KG4oFnBQBKdhMb8+tF977bXl4zxyae0666xTfhTWrsVCUG9u1gEwiG6MEbFOdQhrF+plRaPNwQ888ECxfr5aOcffZpttCun6SOZknbb1tz2DXmTJpkKEOij3x8lcXxHmQ7s/npIP7kMZgXWkY/y6iVMvvx1In9I/X6kyoPsr1LFB20GZabfLBj46+FCjPt+23U3zKwftSHvkzbv2jK1Ng1pkgUaABZVf/bmrJMztC5fV3Kpguts5B1t96lzMv87edNNN5VeBrvS0Az5saDfhW+j4UxFrrLFGT7/bAWVpO+vmGUneXRu+5JJLikX07teI+++/f7nNoj3CuDzLRx59YcCqlY7y/TbWLUTkgq87fndr1GlAkJE2VGewGETRMES4amtRoi3tcL47u1ni27NFowFkYLWzH5CpSz/0Rzi5WUUjUF/dRfPnmvQ5cq9r/djIhQETrCEqo0V+PeAqqYpU6odWLrPnhqQ0aVg7oKM6mI7xXc3xCZHA2uFc0lMu59ldKuEhZqggjwx+/VGuPoG974gRI8olBnHumpn+mO8Msmhwf9szqDkYmUa6v3pj70sAGsc0u3KTe0tAUO0UThCy3fqwcnf5rh3Qdose7TZQmWf9o1Ehol2oWzl9IyeyZaqtaVy3Fe7PNrlXnTWNdkQWY5PtgAnWKKbRBfP8NTjOqtk1VURrpLlsXKA+cIxq9eiC93ZA23sjsl2DFEJsvc36kH5YNFpw+VGAek0d/t2dq8WsStL2Z8ANmGBCNe9qgIqN7hyxWWA1GDwyiFDiwMPRbwa0hZa/IWaezqCWfmwDb8AEM81nn312+dFyzGQ0lt9g8CBL1pHS5IpwLAolosFIpsX9IRcGbNc0IHNDKqHJmfwbN3iHRHM9csk5cg2sM8gd8fXwvjBgDXbD37+tsbCxSvZnF5gPz/2ttEHvQDKFscjzTJ6OgP2Cw9xsGjziiCN6vjRFwfrCgAn24ywE26MZabZGu+++ezkUaDA00NrMr8y0Ofjiiy8uOxWE+/zqhNCN0qDtBNubWWA5PWJSbCucuPjDJBrRYPBAFjo4cnZsSZFoNGXaeuuty59ZFs+U9wcDJpj99x+r/ZcxF92zHRLerq3KPxUItkvh5ziWXMHPc5xN+2s9FEt8f+Q9YILBWalf4ruJYE5WUTP/Dh2oQC6HWD5N9RMdP2R3iJRPitAfizlggpPcSPO3MBx2+MtuzEiDoSGkkjHnXMHXrA033LD83pkihVQKNU4I1gjkWgRw3h3MZ+XXYPBAGhI5tJh3czZuPyw+pjtpDYi+MCgTLYsKOBU0xLYH0V4gW89kK5wieaZcdU1uO8GSq0wDaLB3lcQ1GDxyElhXGDIlY/IOBiLvQWlwg/EHzb6my9EQ3OVoCO5yNAR3ORqCuxwNwV2OhuAuR0Nwl6MhuMvRENzlaAjualTVvwB00b2Zffv/zAAAAABJRU5ErkJggg==;container=0;" vertex="1" parent="dC4sRMdMSoydmVsc77Pg-34">
          <mxGeometry x="140" y="20.83000000000004" width="90" height="78" as="geometry" />
        </mxCell>
        <mxCell id="dC4sRMdMSoydmVsc77Pg-5" value="Books, SyllabusÂ &#xa;&amp; Assignments" style="shape=image;verticalLabelPosition=bottom;labelBackgroundColor=default;verticalAlign=top;aspect=fixed;imageAspect=0;image=data:image/png,iVBORw0KGgoAAAANSUhEUgAAAXYAAAFNCAYAAAAU40QLAAAAAXNSR0IArs4c6QAAAARnQU1BAACxjwv8YQUAAAAJcEhZcwAADsMAAA7DAcdvqGQAALsSSURBVHhe7d0HtHVJWSb+Q+dE6KbJSYeoQyvqSIPkjMQGBETRkUHRZXaNs5xZS5fjH8OMAZSlIkGJreSco0hWEAUEGRBbgSY03dDQOfnfv7r3udRXnHDPPefce+796rlffTvVrvDWW0+9+92161ztPwaMOjo6OjoODI7Y3HZ0dHR0HBB0Yu/o6Og4YOjE3tHR0XHA0Im9o6Oj44ChE3tHR0fHAUMn9o6Ojo4Dhk7sHR0dHQcMndg7Ojo6Dhg6sXd0dHQcMHRi7+jo6Dhg6MTe0dHRccDQib2jo6PjgKETe0dHR8cBQyf2jo6OjgOGTuwdHR0dBwyd2Ds6OjoOGDqxd3R0dBwwdGLv6OjoOGDoxN7R0dFxwNCJvaOjo+OAoRN7R0dHxwFDJ/aOjo6OA4ZO7B0dHR0HDJ3YOzo6Og4YrvYfAzb3Ozr2BaiscLWrXa2EGrkWtT7iiCO24pRzTg+H9q+66qpy3nXxst/Rsd/Rib1j34HKtmobQr7yyitHV1xxRSFt54466qjRkUceWYi73HfVQOj/cdXW/eLk3mFvdLUjNveHc5Py6OhYd3Ri79h3CEH7u/zyy0df//rXRxdeeOHo4osuHl108UWjCy64YHTRRRcVUj/hhBNGJ510UtmeeOKJo2OOOWZ07LHHliAdZF2s9aEXFOL2b9iOI/FO7B37BZ3YO9YGtSpOIlGW+CWXXFKI/Oyzzx6dddZZoy996UslIHREf9lll5Vw5BFHjo4+5ugtIkfwyP3qV7/66MQTThyddPUNwnf++OOPH51yyillK06NlKUTe8d+QSf2jvXAoIVXXnVlIW4WNPdJOT2oZ3zhXCxf/vKXR5/61KdK+Jd/+ZfRF7/4xWKdX3zxxcUNg3y3wvBX7PpNFXeOFX/00UeX9BE6wj/uuOPK9uSTTx5d4xrXGF3rWtcqcQwAiF48cQQWf70PJf3hX9w4NVzL00Xt7+/oWCU6sXesBajhVVdeVcg9BIyoWeBI9qtf/Woh849//OOjT3ziE6N///d/L4QeLKrGuR9ZI3J52lcO1v3xJ2wQfCx84TrXuc6WhW/rmgHCfQaODCz+BYXih7yOuNoRhejj77dfXEIdHUtAJ/aOtQFVZJ3bJrDEuVv+4R/+YfSRj3xk9IUvfKEQOus9lvkyVFi+gvSKRX/EkVtPEIj5iCOPKISNuGPxx2oPsdfEz/JH/NmPfx9KuYc//4IQeyf3jmWgE3vH2oGlzkd+7rnnjj74wQ+O/vEf/3H0z//8z6Pzzz+/kDjyKxbxJqlHhR0vC3W3SLoZdMC5EPFRRx5VSNo55WLlI/G4cpB9LPtY+8jedfvOCxko3N8JvmMRdGLv2DNQvUw/RIhw6aWXFkLndkHqrHQvRZ0H5Ir4xRfGEfAyUKeLZB3Lt5R5CCF2ZaivB7m/EP8mUYf0Wfws/5r0Ef01r3nNEhC+rfNCCD/3SAPkwVUl35THueQDmfoppKzCOCxTfh17i07sHXsK6icgFeSN0N/5zncWQv/KV75SziEnIaQlhKyQVAhplcSUcgqQchiYrrhygzy3iPNqA3FuFsV7g1xXvtwHqY97cj4+elsB8SN2M3ZY9fHjX/e61y3k74WvgcC90ienEL1zCD7lrgndfuoCq5Rdx+6jE3vHnsP0xf/3//7f6MMf/vDoYx/72Oizn/1sIfWQYUIhzyM2yAqBXX7F5RtEuklYqySnkGO9L78Qcs4rY55CXA9p28/1WPbOlTD88eHbL/dv5uNe1n3SsFV3rh8vc7de8A7HJ59ycpnNc+qpp27N7DEIIH0Dg7gpz1a+m8c513Fw0Im9Y8+A4MxFR+gf+MAHRp/+9KcLoQPihpqIgLoK9blgleSUfIOUIeXL9cSxrcue+LkehOgTvx0Ecp9rgfOC84jeE8KRRx1ZyJurJpa+bdw5LP749m3j9rEvT3Hdn0GqY3+jE3vHriFTFxGZr0VZ6a9//evLXPRzzjlna/piTWLIC0JwIbWQYK7tFpKXsqRsytMi18VP2bOtr7k3rpMMBEHygvb8uLSC+rw0BXI3CNiy8usXtgYBM3iQvsC9c+1rX7uQfYInpVLezemZddr2x6HEH+pnm7gdu4NO7B0rhY7N+tapETESY6G/5z3vKW4XBM8Vkw+MxJlFACGWvUC6y7T85y3fbtZHPmSM3O2TOSB8AYkbAFyviZ7Fn1k8jmPpZ6DIwFG3nfRrepGX4+20ccdi6MTesVJ4+anTX3nFlaNP/cunisvlk5/8ZJm+iNRZjDp8XC86/W6R3OGKEC6Z14NuztsPSYceQuKx4Fn5cecgfIFf30DA2teugrjuS/oJUO93LBed2DsWhpkfXv6Ng/noX/va18pc9Pe///1ltgsiL2Eg+8wYAUTSO/vqEXmTMwLPzB3QBqUdysT8Q90p4iNo+6ENxyHvtF/cOqx6A0Cs/Vj6XvA6f8LxJ5RlGNy320j5D6qudWLv2DFKBzcDZOj4WQpAB09nsQwAIi8fGf3DP46+fsHXtyxzcH9IA9x3UDvauoHMyRqplnbcPN6u/NNm45DBISHWv0FA8DIX0SN4RH/961+/bFn8zjsWz3227qVndAzqcpbtUBTX4lZyn5lC7do908ocbLf+645O7B0LIyrEOudv9RKUu+VDH/rQ6G1ve1txx1iNUafRScd1nq6G64NVklvaGWEzAhDwUUdvELhjAbh4ED8r35z9uHrywjezfdwH0lXuEoa/es19L34nPVG2dV1l3XcTndg7FoLP/PMizUtQM1y8FP2bv/mb8pKUennsZqm7ng7cql1Xw/2Leciwjlu7hLR/Xq46Llb3psV+3LHHbS2/nFk8dC4hAwDffv1iN08M9ut85RF9a8veHu9XdGLv2DbS6Wqw0hF1Vl983eteV16MnnfeecXKEp/FroOx5sWHVu26Gu5fzEOG2jltjbjth+BDwvmat36hHqJPXsUuH/bdw+Kng/QL8ce6F5D+9a53veL3Z+27Jk7Qln2euqwzOrF3bBulU25+VRlryMwWfvT3ve99ow//44eLBa9Tiuu6jhIVS0dMR4aufocftHlNoJPItdaNb7pn+PMvcC0hSyKPc78geq4dln3cPfWL3izFbJBIftHX6D5kkGmfOgxG9utBaC/Qib1jR0DoPv1H6D404lO3WBeFbgm97ZSQ465+HbOwDIKkZ0LcPXkKOOboDSvfEg1cPSH6QvYnnjS64Y1uWAg/6/SY4eM+7wZ87Rt4ElVO16DkNwwEznmJu4w6zINO7B1zwUtQBG599De96U2jz3zmM+WLUpZLlNd+q1atYue4q1/HboHOeZFqm1k00VtEbz/uHyTPakfUiB+xZ2kGpJ8pnTe96U3LlvV//HHHl3sHSt9wKQ26Lb1Y9QyezNZp+8Oy0Ym9YwtUYZbC+WKUH92LUcrLt0lxdZJ0inFo081xV7+O3QJdC8ki7DJbZiBbRFwIfvjzkha8F2Kw0NPoavTdsW8wLEJn3wDAmhdudKMbHTKj54Y3vGF5qYv8xZVvTfAwqd+NO7dddGLvOATUIYoWxWKhezH6lre8ZfT3f//3ZTpj1KbdzsIiytrRsWzM0sdZep3701/492ORCyx/hO+lLavfi9xb3/rWo+/8zu8s1r+Pw8ZZ8O0xjDs3CZ3YO74JVEJggVucy9TFd7zjHeVn6ZynYFGbdjsL8yhnR8d+Bl1nnYMnWvte0np5e7vb3W50xzvecfQt3/It5UnhkH4x7Dpu+8o8facTe8ch8EhqZosfi/Zy9F3vetfoX/7lX0YXXXhRUTiPoxSsE3tHx3QUd8/QX664/IrRxZdcXPoIP/yll11apmJ+//d//+iMM87YWFqh6hdl37+mr8zTdzqxH6ZIs9fKwqr48pe/PPrEJz4x+ru/+7uyvov10Vka4tX3ZL/dzsI8ytnRsZ9R63rx4Q/HfPTI3sd6t7zlLUf/9b/+19EtbnGLLd97LHxo+8o8facT+2GGNDdF42qhSBTNbBczXN797neXF6PcLpbSrRUNWuXq6tPRMRn6hz4zjqS9YH3gAx84ute97rVF7HzykzAPsY9fQKHjQIKSJQByR95+uei1r33t6JnPfGZ5Qfq5z32uzAiIsnV0dOwM08hYHzP/XR/T1+ovYhdF77WHESgZJULoZrqce+65o/e+972j5z3veYXYuWAoGiUTxBe3o6Nj+fCkjMxNl7S/zKffTuwHFLV1HoWxNT/Xy9F/+7d/G73sZS8bnXnmmeVjI2umh8z52mNNdGLv6Fgu9DFE7gWqD50YW8t+Mu4+9gMKzZov6yiNY1Y6Qrc+Ouvcvpc44yC+QAmFSejq09GxfegvLHT+9Tvf+c6jhzz4IaOrX2NjsbxZ2E6coBP7AYamRezI+/Of/3z5uMhsF4TOIgfKIs5O1aCrT0fH9qG/+TL1u7/7u0cPfvCDRze/+c233Yc6sXeUT565XfxqkWV0fWRkoa5LLr6kfArNmhcoC4t+HqWp0dWno+NQpE+0fcp5680gdTNhbnvb2871wrQT+2GEcUqUL0bPOuus0Uc/+tEyhRHJx2fungTYKalDV5+Ojg3oR/qD/mffnPX0M8YTv/q3fuu3FlK/613vWq4L20Un9sMIIWqKQ6Gs4/KlL32p/CydBbssqUshKFUUr8U8CtOiq09HxzdQ9wf9SgipWy8m89a5Yzwxm7CwXczTTzuxHwBQEH50888R+Qc+8IGyaJfpjBSHYoGmTnPXStKJvaNjccRS525hcPlGRP/LipB3uctdRo94xCNGN77xjUu/EQfhbxed2A8jUA4WulkuCN3HRmeffXZxvYAv2TI7JoiCtNudoKtPR8cG0scQuf1MULCqo3XbH/3oRxf/OjJ3Xd+Z5/1WJ/YDjCgEsvYrRtZ24XKxrgtSZzUgc5aCOPzqNcaReSf2jo7FkX4UQkfw9m9wgxuM7nvf+5ZFv6zLnv4rfp6mt4N5+mkn9jVHmqdWGn50qy96MWpdF2u8OMcdI17tTx/XvK2CzKMwLbr6dHRsIP0oT8j6IQPr+77v+0YPe9jDymJfQd1vFul/k9CJfc2heVjhRn/Wt8W5Pv7xj5eZLuajm/3imngJFKX2q9db6MTe0bEa1ORunz/94Q9/+OgOd7hDeXm6W+jEvg/AX275XC9GfWT0kY98pLwYZb3nRQ1FijJFuWw7sXd0HAo6W/eTZetw+h2X6D3vec/RQx7ykOKOqfNcNTqxrwHSBGl0BF0s7uH0V8//apmPzuXyt3/7t+ULUoTul1i4X+zH9TINbR41FlG2rj4d+wV0Nfqqfwn1uXFgNAEDSn9zz7T+UtK76j9Gxxx7TLHWH/vYx46+4zu+oywj4L5F+to86MS+x4hi1Y2O2Fnpn/vs50Yf/PsPlhejX/ziF4vbJb67WkF6E3Z0bA9DLyvboddt9ZtpZOt3Cljefp/0vPPOK32vRntvMcqudsTomte6ZvkIyUwYRlhco9PyWiY6se8xiN9PZx119MbKigjdi9F6+qLFuygMUo9i1ArSm7CjYzb0mSOP2CDmK668Ymve+TQr3Fx0vnHkbnKCPhgrHtr79EXn/Jbp4x73uGKtz7LyV4FO7GsACqYZzEf3YdH73ve+Quys9HxgRDGiUG2T9Sbs6NgeQrD6TPrNNNK1lsvNbnazMrXY9yF1P4T6Xvv6q+v3uMc9Rj/+4z9eXDjT0l8Vtj+JsmNlYBV4IfrqV7+6rJFufXQvRxF6SD1K2Em8o2Nn0Hc8+QrAraJ/QcjXOyvXEbS10n0teve733103etet8RF2uImtHDu5JNPHn37t3/76IQTDv2R6t1EJ/ZdBuucclAePjsrL/r1ote97nXFUjfzheuF0nnhIm6UrbYyOjo65kNLyPztMZz0y/x6GNfLbW5zm9GDHvSgsrbLTW5yk9IHyz1TiFrflJ6vTP/Tf/pPm2f3Bt0VswvgN9fg5pvbp0C+GPWBEev8Yx/7WFEcJE7BxE2zUL6r/uMbj37QKldvwo6O+aEfIXJ9Tx9iYZuWaDldn/5zwXjx6ecj//Iv/7J8CKgPT4PlA3yMZFDYKzcMdIt9F4CoBaTNSvdSlJX+hje8oUxj5L/jjmGVH3vMxnIAFE242hHjH/k6Ojq+GfqKfsNIisFjX2jhun7H0DLrBZkjZJ//n3baaeWn6zw1e9flpyOPOfqYzTvHQ95Wbfy2b/u2rbz3Cp3YlwwNWjcqsuZWQd786Mj8Na95TbECPvvZz249/gngRzAMAEcduXEu6VGahI6OjumoiT19iHGlX4X89U0vR5E4l4sPiU4//fTR9a9//TJl0dOyuesmMojr/jo9oYbr/PKs/rrvjou7anRiXzJCvBSB24W/3EyXd77zncVKf+tb31qOEf24Rs/+cHZrv5N5R8ds6C/6nf7C0ka0ziHZLMiVaY7OcbU84AEPGD3qkY8qX4iaonj8ccdvTYl0r/7rKVual11+2VafHAcGnI+SuGDyfqzGtHuXjU7sKwAl0KimL/qN0Ve96lWj17/+9cWfbmmAcY+FLSjBbipCR8d+h/6SvoW49UPnEK6A0AUzXCzMxUq///3vP/qO7/yO4oopX4cecagRhdQZaL4mTdrSTaghTwt9ycu1WPh7gU7sO8As0mWNI/FXvOIVo1e+8pXFp24pAErlQwcNXjd8J/COjsWhPyFVBJyPiRyz1JEzS5r/+z73uU8h9Tvd6U7FbSJOXC2lT1Z8bdG9888/f3TJpZdsDRbjkAHk1FNPLXHknf69F+jEPic0oEbL6A385BSJ8pjhcuaZZ46e+9znlnXSvUl3XSNr8Mx+sT9JSVokbhuC9rij43BFyBnJcr9k/4Y3vGGZj/7IRz5ydO9737v89ujVT7p68aNbk2lcfxK8NM3EBum0yH22ngTMYS/3bo4OSSdht9CJfQfQQBmNQ/J+lo4P/SUveUkhdEvqWmfCNWQugMc9gaIg/Dqtjo6OxaHPxZgyS8XHQn7k4sEPfnB5UXrKyadszHDB6YOhVvrg1ZoFwXDwEHwoKL1JfZQ/3j2uX/va1y5z4A0ArUtnt9EZZU5k1A1he0yL28WMFwt2GeWD2sJ3r0YXch6SZhAFmxU6OjoOBYLlMmE88ZvzpVuIi7V+oxvdqFjxpb/5N2y3phNvHrfwnkxfS58t91RBXrHm5cfdYz/Yq37aiX0MttMY/OhI/IUvfGEJ1kmnBBb0qpHGFxC5xzpuG41P+eRFMTo6Or5BrumDk/ripPP6ko+K7nznO49+7Md+rHwsxK9uWiMU0m1JfAKpg/diBgvXx+VpYHBeup4O6g+YnJ+U7qrRiX0M6sagKOVFzJUb82L50f/1X/919Ja3vKV8jfa2t72trMZoWhTiHmzpQxRAWkkvFnqs91ph6rBd7PS+jo51hrnmoO/VfRFiEHlapvMIW3/SP331+Z//838uL0bvd7/7jb7zO7+zuEekh3BjrSfN7Nd51OeEWOOJ0/Y5eed63DBB7tkLdGKfAg2ncSiSz/r52971rneNXvCCF4ze/OY3l9XeWO4+YhA3aPeL4m2SuvQQes4lj46Ojg2j5/yvnV+ecMctooXQ9TfnhUxauPo1rl6sdG4XL0dvectblhlopY8Nf/qcEOT+WUj/nBTXgBIyr0l9r9GJfQxCzBqTMlAcX43+1V/91ejZz352+SUjP3qB1JE+v9pOUA8ANZzfTujoOGjQ30wZ9PLTu6oYRAHCt+wG0tYH9FEvRP1SEUvd4lus9Lhe2n4Skg5R18c5Nw5erpo9s1/QiX0CjMSsAS9Gn/Oc54ye+cxnjt70pjeV2S8ez/jeWA+t4nV0dOwc+pXZZNwn4xbRQtRXXrXxTsoURh8YWffc8rp5OWpQ0EcNErUbZSdwb0njiKtt5dtiHY2sTuwDkDOFSgPZP+vfziruFuuj2/olI1aCFySURmA9FEUb9js6OpYD/QmRpn/pn/oekuWGse+XiX7oh35o9JjHPKa4XfjXEbBpjFkPZgu69RCklT6ebQv31cETuQHCfu3KAee4aJNWd8WsGTKyUygLc/Gjc7u8/OUvL0vrshys9GZqI2vCsUe93MNC6JZ7R8fi0K/MatGvuDpjwZfVFQeSvfWtb13moz/+8Y8fnX77078xb3wgWQghFyK/aiByoSHxWeReI7NclKcldiiD0JCfrXKuCzqxD9DASPtDH/pQIXMvR/nRnUPaPiv24jRKR9lMW3SfcyH5jo6OxZCXo95rscwZVKxxc8Tvdre7jX76p3+6fD16vetdb3TMsd+80NaykRk4QmbV1Ajhu25dmXVBJ/YByNvHReajm75otgvFygiMzL2hj4WO0GMlpNG3M/p3dHR8w6rWZxhJQqzh9K1rXOMaJY5pxN/1Xd9V5qQ//OEPL79O5IkZ4YrLXSPeqiD99O82H+cMLF6s2nrCWBccVr+gpKoCJbL1ItSHRX/9139dfOgaJ+JoxVIrnpBGrvdXqWAdHQcBdb8BfU7IPHNGFtJmVFnbnJXuh6FZ7Iwr4EM/4shv2KRtX22Pa7R9dFaf9Y7tec973mgYirZ+yUx5A4OScsuTr//Xf/3Xy6AUtGXZLY44LCx2wqUwZrloCPBDFxbr4ktH6rHEJ8G1XK8bJ/u71WAdHfsZrF9Pw/ohy5ybBWGzdlnnIcV73eteo5/8yZ8cPeIRjyhTGLlkEGix0HdxHRZTL8vT+lEbSwrUcKwOiF7/57r1jm4dcFhZ7BrAj0VbI92PR2sMlgFFs09pglYss4i7E3tHx2wgQoEhpd/Z6jtIm4sFsXO5+Jk6v2Skz9ZPy0Hd39q+Oo3S2n46q9+eddZZo9/7vd8rv1HMOARlDuQlKKPym6VzxhlnlHPiqWuN3eKJA2+xEzDlMJK+9KUvHT3taU8rqzCy3lkIHuu8WfeipqOjYzXQD1np+p2Xo3FhsIZtWe6+HP3lX/7lsl46Ut+4ccPKz5N2IL3dQCz25Ffnm31kbR+Rc+/uVtmm4UBZ7D4qykcErG8KZKT1kdH73ve+Qu6Oja6UibJolIyqte9sXrHs1kjc0bGfENIT9DdB3zQhQT/UR291q1uVpQBuf/vbFxIvX3mOw9DFpLfMvjYrLVb6M57xjDIFWllhEjeoj5/X+9Vf/dUyIKTe0OazzDqMw4Gy2L1QQdhedFxy8SWjf/qnfyq/YOTHo/2K0YUXXFgWwjcCsxxMU6ynM3V0dCwXNQkiPqTu6dhPRHK7cF38r//1v0bf893fU+LUxtUh2CR1qAlz1ZCn3zHFEzAtX9dMg7ZI4F7zyb6y2BV10kgX69vWvHNWuh+8sMaLtSWOO/648oKG4njskxZXDPCNOe4We0fHaqB/IHZPxwwrS+n6aTo/gsG6hbrPjet/q+hjs9LEJ5/85CdHT3nKU4qbZRqkxa1rETLLBZeXrpvegDafVdSlxtoSe0iWACIERW0F4pyApH0ggNDf+c53lsZA2ATrmjfWBB1fel3tpFGnXV+fhVU3UkfHOiF9o+2XdT/Qf51H5s6H0BGfL0ctCeAjI+4Ny3SA+DHQ3NeiTn9ZmJUmvzn+eOITn1gmXswCy/62t73t6AlPeEIZsDIho81nFXWpsdbEfkjRhl3C2PrFE6eG696sf/GLXyyf/v/zP/9zEX5+9SSwL0izFmjtW3d91cLu6DiI0HdC4PoSdygyRNKZmIDErZXul4zyS/7jkFky2+mLu9Ffvbfj4n3xi188etGLXlT4ZhqUCaGb2eMlMLnUg1Rb5lXVYW197CpMIJSGMMvHAYMMKAvlsb3g6xcUMvfVKD/6+9///tHnP//5Q6Yj1aiFaF86Qo47OjqmQz9BykKMpZC6fse37OmY5eoDI++x/HC03xxFdje5yU2m9jXp1kS418iHUD4+QtizeEL9DWp+1J7XQHzr1ew21tJiD3Er2pYSDcK54sqNpXL9/Nznzv5ccbt88IMfLGQe/3kUowh0s2q2a1jNjo59B30sfYmb4eijji4z0TJjxOQEcRhjltE9/fTTy5ej+cBIv9RH7e8H4Bv19FKUn53xOMlwJBezaDyhGNTuec97jh7ykIcUl3AGq3ZgmDVQ7BRr64pJsShJHs+QvRejXoh6MeqLUR8YURQWAvK//IqNt9HOgfsFWJUQOzoOJyBlfQrp6af2WebOm23G7eKlqOmLt7nNbQqpiyMuktQP90tfNHvnxBNOLHV7zWtfM3r+859fOAdRH3nEkYes0a5+ZIKL1PPmN795WVr4lre45eioozd+9zhGZ7AqOaz9rJgojhej3C5WYPQj0uajO78157WSj3vaxznn6qq2Al1zMXR0rA2QHAJjxWYaoP5mPRf+c781itQs2OWFafpavdXfVkVqywRjUl2V1Qqvf/iHf1imUSNpHzfyIoD64CNwDVjqZOFlqg+uzN03yJGJkEFuFVhrYmep89d5GWoeuqUAPvOZzxRBe9yx9ejDOo+FDrEOCI3iUToNVD9CtQJdYzF0dKwN9BshrlIkj8C4HpCYKYwIPf1R/xNfn2z7XHu8jlBHbiblR8wsdivA4qSac8ItuCZGpXsF8/X9XB/Ouu51r1vkY1aQj5k86axCDmtL7KwB80bz1ag1GxC54iJzgswHRoSe0RLqKmVUFH9aVddUDB0dawcuCGuh63/6l0W6ELr1XVii+m78yvpe+tZ+JfYMYsprJVgzZPBRjEbX8Ess9dTLNQOf++3bukY2d7zjHcusGR8/+a5m2bJYK2JXFKT91a9+dfTxj3+8ELppjPUC9hGW0ZKgkL1zQkBIlM9MmljvOT8JaySGjo61hX6i/yFwL0dZnnzpXA0h+hLvqo3fJtUv0+/a/rdsMlsVkDa/OjJ/97vfXX6EhysY1IFM8IwPIdvfRSUHcS69bOOHQ2KEsuCRu4+ZWO5kWuI3PLRTGa0FsSsCkkbohMflwo+O0L2MIdhaQWBchXPOlu99eBA6xJIfd09b/TUQR0fHWkG/Sd9hUOXlKFK3zguSqt0SNfSnul/WGNcf1wF5ulc+huO///u/F7+6GXimMYZTbMUJZ+CoWXxS1/lmN7vZ6FGPetToe//L95YnoFmYR157TuwEZ6qiBbq4XRA6Pzq/lqKpzLgKtedmHU/CrIbo6DjckSdiHxtxu5jCiNgRetwR2+lvO+2juwn9H7EzKBmaPng0xRGxczG5FmyHK6bFIb/73//+o/ve976ja17jmoNANi9sYhF57Rmxyxape6T58Ic/XB5vuF2QvMc5jybxqcOsSu5UCG3190gcHR1rCy6EG9zgBuUn6r73e7+3uA64YmoLdTv9Zqd9dLfhh7P/5V/+pRiZ73jHOwon4aJx5Z1V7/Z60nDeDJn73e9+ZYmFrF816ckH5pHXrhG7bDy6pPAExUpH6kZEX2kZJRW+rnyK11Zq3uNJaKvfHnd0HHTQef3FeylLdjhmmTrHqrzd7W43usMd7jC69a1vXWaGOB9S3/qqchvdbad9dFUIHymHLXcwQ9PPZXq/xwVjiiO+CuGmzOLX20lor0uHm9j3NmbI+FEOvxZl8BSXXCdhHnntGrEToq/RBtouLxj8YHReRCB41z3WAaVyPA2zlGS7Qmirv0vi6OhYG6Sv6HOCp2WEnpejSP2GN7xhiQN130p/2W5/g3nirhKFZ67c+Mr9y+d+uRA5Uuc5sP4U4xMR1+Wdt+wtnyDuGLZZh94aOl48t1hETrtO7IRJgBauNyoSIMEasUBlUiH3TCpeW+lZx5PQpr9L4ujoWBsgGnqvfyIeU/BMX/wv/+W/lLVdkE4sVthu35qERe9fBnCOGXgXX3RxMSz//kN/X75oZ3Ba6yUE3BqY85a95hP7Aq7jhrEgGleMfR875WkpWEROu+qK4WqxCH0sdZP888jHry6OY3BuWtHaSs86noQ2j10SR0fHypE+gJxm9QckZp0X66Tzpd/m1rcZXfvUaxdSL+6W6vbt9q1JWPT+RRBZIG8GpmnVvmjnU/cxpGumNtqab94al/OWvb4Xtwmefr7ne76nLIz2LTf7li3Zzpv2NKyM2JOsrdHPCEmQb3rTm8p0Rmsw5HqEV1fMcdIYh1YIs44noc1jWp4dHfsB0eFY4shEH0NU+gVLNYaUwAWKbMx28ZERF0w+mnG9HRi227cmYdH750XqYIuHcA8ix0Nmuzh2PvUlL7KL/NwbzFv23C8thq2vUH2YdJe73KUsu5D568vGSoldoEQUh8vFp7hvectbRuecc045R5g1CC3CnbdYrcB30gB7hb3Mu+PgIbofskLil192+ejoYzZIxPnMPPMCz0tRVjpfrymNrnMX5EVeq5/z9q29BmLl02aJ+5rdXHS+9E984hPlvHqO44+cq+s/b90zKNjiPMsuPOIRjyjTRSPfVWClrhiVMfeTovCnv/rVry5z1J2nVEbGaUKbp2jjGmYerFAMM7GXeXccPESf6j4Qd0rOma6I0H01itBZ7KxK1/VPpFMTz7R+us7APYxLs11Y5wj93/7t38psF9wUUm/rNKmO89SdzARylZfFwB70oAeVLbeX86vCSi12xG1ENDL6UWlCdT4KY7/OvhXaPEXbbsNMwjx5LRt7mXfHwUP0Kf0sViMrnUVuwS6zXU477bTiDuBHD5HnnmmYt2/tJRA6C92cdFOq/XYDklWHWj7b5Y+d1B0HcsE84AEP2JqzjtS3I+udYqUWuwp5QfqKV7yizIIx8T9WwbhsdyK0SVhmWqtCK4MVNkXHYYTMsMgsNIRuHZNrnXytsj46X7qXo0ieeyZPzuKlb9pO6kPr0reUs6zFsvlzmY4ziOEeljlPgS/azXZhubseIk892n43rX7z1F1c5O2pwZTRhz70ocUFsxtYKbEbGa2G9sIXvrD42CkOTBLOPEKbhWWmtSq0ol9hU3QcRii/UTCoP3KLvxyhmInBSvcV6UknnrQZe9A7f4Pu6TP+HJe9gTCh7Uvr0reQuvopJ25RB3XGNdwufrvBrBezXYJZfWxW3eapu7hcztwuP/ADP1AW/fKB125gZcTOCvjUpz41OvPMM8ta6l4cODdNMMtUmGWmtSq0ol9RU3QcZqBH+hpS4TtH6nzpfnvUh0eul0Xyhq1+EmIHhL6FYTf9qO5P69K3lDnWt60pjGa7sNK5X8750jnlC89Y8ZB6TsKsus1Td3Gvec1rlickvvW8x9gNLJXYKVMKbhGv177mtaOXvPQlZZVGU61kNU0w8whtFuZNqxVDe7/j7YpqVryk3cbbbvodBx/RBboySV+m6SQ/bpbU9YWj2S/6Zp6a3RdSHHh9fDrDpeSdLdT7q0YtB/tt3upgtoup1D4wskSJb2XKi9Fh8CqukCs31lOHsfWskHzAvclzS1YD2jK0yD3kbTD183hcYJ6c9iWxZ2oj355V0Z73vOeVRyFCGVehWQIKaoF6/Mqax9JVfMpav4goQt38PUJlEXzdBfEnCu4XIP7FFu253Ou8kHyTjmv1tsa49GFc3I7DG9GJWq9b3co186M94nNLeOxH6ne9612LpV6/HHVfrYPR2ZrYD9HRerc6P0mPVwHlErbKOgCXpAzcLJbTtd4UD4EFu5A6qHOp98AZfpthFpJmLV/nUgYhMp+ExPe0JK4Xpqx1bYJjMrCuGku32FWGsF/zmteUl6bIXmVrAQUR5Cxk5NU4IebA7yxa1/jUU08tCu4tuPw1MEXnc3MP5aYcylP8ckPe0iz+SBiKMqls7nMtFo/7HEtXgLaOdVpB0qzThnFxOw5f0I9ax0JqMY6cN12Rpeqap+Hoppd0d77zncvyus5nqY5x2NJT/2wHtWx1M6jPT4qzKqScwhWXX1F+GJpHgPHIj+7LUbNdeAbEQarBPGUlS/Hdb8sgdO6Qfj9jkBBfPHzjQ6/HP/7xpS2Spmu7gaX72FXM2+g/+qM/Gn36058uFVGhZLOT7NwvXSRNwKxvZE5gfjw3v94iDuIWzFPV0F/4whfKl2X2jeQZ0ZG7siS0kGfZ+qveumdgSSOVhhpuL+n4G7bKkTg1ttJszovb0REUXdrUiVin9TlAFPQcELi+gNCtxMjI0R8C97U6F2ylK+nxUQrq+yeltQoom36vT5GF/vfZz3x29P6/fX+ZwmjWnQFOcC0EvJMyukdIHw8Zx0vgHEMwL5VbuG4wIHtPUKY2sta1z24RerB0Yqdsb37zm0fPfvazS4O0mCc7DSm+RtVggjm4PqjIutCmbKUR06hw6SWXji6+5OJC4oSt4ZE6wrc1+DjHurelIDVqxUDuk5S+NHxVp5TXtk4Dctyen0cmHR2QJa65Wnw1asaLD464QvWB9B0kBRkgglbnZulgfW+rv6uEvqQPq5e+iszf8573FJ+6vpw4+rj+j4xDzDuBupX+Xg7Gy2VS/ZUDl2RlzJ/4iZ8oa++AMrVtsEosndhZx0996lPLQl8EnYrMm437QtSU2COlFxHWshBufKMbl3NGz6RdGqXKj6ADx1deceXosss3fgj7wgsuHF1y6SWlISiOea7KjuBZ91w6lEVI55CGoEwJECLPueTtvroMwW41bsf+RPS41iP7SEufcEz3EbpVGG95y1sWl6TrRQ83Z7z4i/6FVOr+sVOsUn+VK/3Gvrw8XfOfWzgQqeubrGKGI0NS3SDrybu37nfbLW/u8R0A2en7Vrr0NGQg8fRf5FrJrk0bxxx3/HFlgS8/e8daFyfeBvywSvkFS/exmz/6lKc8pRDkIhVwr5BGorz3uMc9Cqmz2jVi4tXWtONUySPUOBxx5AYhiydt5TZ48N/50VmNgOxZBObEqkt+rs9AYHvJxZcUX1vtx9dwGcxS7pSlbtBsOzrGIbpDT6JTQEf51pGNOdFmvXBJjvOjb+n+pqotU/dWqb/6iz6lvyBW60qZLu0FqS9HEbn6st7FzUtJ9whcSrWrZN6yiq8/8wTc9KY3Hd3znvcsfGM5lPe+972HuLigTV9ZTHH82Z/92bIuTGmHIYqtuHHrwrxlmwdLJXZCf8lLXlI+SFLoRZLWsAQMXC4Pe9jDivulWOmVYNoRsN6flL/zuTfH9TZpqA8Sp2AhdV/Psuy/8PkvjM77yoZl75yBALkrs/uEOr2EHHd0TAL9oJv0h04JiMZn6R7tuV2QOj8uKx3EFaJbrS4vE6vUX+U2gAmMRF+ss9QNdPoUWcRCP/qoo7ee2JXJefu1QTUvWNhmFvmQy4to7/AsifIXf/EXxcArg0eFVhbaDaH/j//xP0pafsgDMti08Vcly6URu2RU/E//9E/LW2pEt0ihNRIhGi0tRm+ZS3NxazLOKNha7MGkqlGOMtNmsNwTHyGLnxcmRn7xWOUZPCiMc8qF7NVRQPosCNYFomfl56WteOK7N6jLuAiUdxlptWlMklvHclF0eAjR6WkwD/r7vu/7ystRBM9SzUd/SUM7pi3ThsvStRqrSDPQT84666yyCixL3UdHDKrUM3UsYfjjMqnPRaZB7iEfadifBh4B7i3EbuBkoXMrP/3pTy8Di/5co07PvgH4wQ96cFnBEb/U/R7a/GeVZ6dYGrGrgOlHf/AHf1AI3vEilXA/od7tbncrb5a9jKj9hGlAjdsS+6wqpWwJkHtyDOPO1ZCOOLaUxtKoccvw3/uVc4RvKhayR/z890Ksjyhs0pGXx7lifQwDl48rDAzOW+/jyKM2ftXFfbYwqXyzkPvkbT/13S/Yb+WtEXlH9p5E86TH0nMeGfla0S/tIJxrn3Lt4oqh7yHyLRDFNtTgkHv2CKlzQI/Vm1HEOn/DG95Q+g2jCSKrer89B/VxiFza+lKOQX8SF3E75xo/uncWdzj9DsWAPPa4DfeWe5H63/zN35Qnc3FrJO+Atf8rv/IrxdLXjyf10fZ42VgasROQke1pT3taEcC4gs9TGXG/9Vu+dfTABz2wfJKrEWq0jRo4nlWlecoxN2Q9JK8MGpXf3uwcj5YU1TYEz4eP/B2bqSO47j73GySihMpc/oZHuiiqY08Us+o7Du7JfbZRQOmWtFcpoyVhJ/VeB6R98zI0g7xz2lu7IxfWefGln/YdxUovOtA80rftNEsme92uyqeu6smVwlBRfwt1vfOd7ywrwOKPGrPKnOupu+P6HvkJZE23o+viZz16PwN42m1PK1Opa/JmoJm6/Y//8I+jiy6+6JBrUOejX3KR/fzP//yWm2xSe8yq06JYGrFTxhe84AWjl770pUWIQAiSV4lstwsWjHm5fOusllagKXab5qoFNgvKVRRnKF46IXk4p+GVzzF5xbp3D6L324uedszQYb2w9DOly32p27i659x2kfT8lX+baYV0gnnT3U2sc9mmIbJHbtqfS0WgD7ZejvKjC17geXItdR3+zSL2/QD11BfMIPnkpz5Zvhrlx/bdSwa5GrPqWF9HpuTKhcNdRXYMKnnmJTPjyTXv7nyhy+1yvetdr8h+64PFTfzbv//b6E/+5E9K2bRBQs1tgbzwlQW/9KOa2He7nRYi9rpiGuQP//APR29/+9u3HkGy1Yi2sJ1Gki5BP/zhDy+PoQQENblPEthuC3AclE19KSgls6/s5KF89uu6OCduHbh1LrjwguK/p1SIHvEjer57ikthF6lvab9NYg/Spkk3cl5HrHPZZkHZ6QA5p49c77rXG93uu25XrEeP8vy1ztOh0k4D1p3Y1St1mwTXPalyu7DS/aoRnUa+xx17XHE/hi9gVh1z3T0CvhCkh5dybF/ePmi0ho6Xo6ZQc321cg78yDUvhHdm+q/79U/79dZ57WXuOs7KIL1XWIjYjbgepSSh4qY5+oAAQmIqfczRx5TGatE2iHsohH0vMMwD1Qji5dokzGr83UbEOk28KfOksrtXoCRkbaU68oz7xhTMWPaZsYPsKWhe7opPaSkvi4IMnaPk4gXycd51Yd3kWaOV6TQZrwuUkUzJ1jxp66CHePjNvRzlehEsqxtjJqiny9VYt3ZKW6RcdMw5/RfomNUXBVMY6az609Vwhvg4YLtIXu6TPiDVPOnoC86b689V4kno227zbaNTrn3KN3FKOyEjL049Uad80pO29ssAop4G45/6qZ8qH1Bq1zwh7AWWRuyWy3zSk55UJvITYiql0hGCeGkEqPdDKkjIY5LFcwS+Kvc5X8dvMe3aXqCt6zIh7QyGAiWiePHds4Di0jEIuB4SSUej+JTS/SH4mtDFWWfU5Vv3sgbKSc/JHJnRaWTDj373u919dMMb3bCQh3jijBtgZx2vE9Iuykj3cITVF9/4xjcWImeM5Lq45KHe87ZnZBD+IOPWqDHfH6GbWcQb4HyMxWkyNH37ZS97WSmrcrlH2taz9+4Mz+lb8jLN0fx1rmPnWmJ3/26111JcMRrDyw/E7m02okDm0BJ7jbaShA38iqx189Zjucwq5m4JbB1AFiUM1kWZjrn5paH9tIeOxLLgykH4ZuV8/uzPjz7/hSEMFj7C9/gr/vHHHb+1FgbUspwl971CXa51LWONlDHkgyDMwvCFIl8vY6a10rVji1bP103vzdv2dB7SBPrHh87t8nd/93eFHwxsZGLCgC2OoMeeSh3PU682bvKm/0jdjKL73Oc+Zflirp7CRcMf4tUW8kv7tOCFMJc+RhGDiI+ewWkrL/dKx8Dxcz/3c1uzbb7pqWvOei2ChV+esto1pAYzh11DUUgCkLQK2o+lWKOupH2N4V6PS4985CPL16YZIGYVc7cEttcgB4rpy1tPS4HzOhWFpWxB5GabfRYHcmfZC0gfyQssfteD3LNuqMu1rmWsEevRrAtT4ry0M5U3y0mD69Hjur1qtHq+jnpf9HOoCzL0kZG1o/JLRvzQ3g8hRcQXYgXbDGaz6oUrEj8DCCRf5y1b7MtRL0ezMFrSdZ0VnifXSXjyk59cvjiVpnoZDGpXjLylaQDhs//xH//xMmi1xJ467lZ7LUzsKiwJj1fWX9dgkJGMAPkUYxFOqpjzKYrHJYvTmx2Q+LOKuVsC22tMk2GNWl6z4ht0+ToRu5ez3DiI39axazqljqA90yGl65gSZ1Cm7EDxtTtMehpYBHX9ZunGbkN5yEJd0w/Ix/siPnTvj1iPSGUSZtVpWXJcFhgVsbbV1Qt/T/FmvPjgiF60ZRY3Roj9WXUGcg2Z5h779DHy5N7yQaOX0De64Y22jEMoZfBv8/5Z+I3f+I3yAx7yxXV0n74rt610XLOMAC/Dfe973y0XjHLuFZZC7Crw2te+dvSsZz1ryzIJJO+6yqcRJkEcArMmzKMf/ejiC4PtFHFauh2zQcZpHy4eHdGCaZ7AEH7x35+7MSXz7M+fvbUoEiUWdCr3uk+QVtocXKMHCYui1ol6fx2g3gZLIBfEYvZF1jpiPZLHNJ2dVadp9+42lFW/F4CF7sUocvf0x9gjk7bM89ZBfLojH1YzruD2kDaXI0uZde5JiLzxByKmz0HJc45sEbv3AqAe2lN+yqHe0qPvvjN4zGMeU94L4r9l6PgiWCqxP+MZz9hyEaSR68ablZXrHmksIWCqo8fU7RZvXiXp2EAtXzIMGWvTyJQ1VjrmERtkpM1Z8R6pET1Xjhk6LHzLIaftzbuuf3NymW1Ul3u7OrKbUFek4otpj+isdC/VyEbHzxPPJMyq0zJluSiUFYF/9KMfLdOd/d6oJ7w8vdOl2tjbadnlE/kZLA2eniJxBvetKYyI3ZN+npRy307x//1//9/WTD+DSe1eCZSDi+mHHvND5YPKuq57haUS+zOf+cyplZqWVa4Z+R74wAeOHvKQh5QReLtYJ0XfjyB/nSakrB2FyBW5c6k41t7iuSekjcQdn3veuVtTMW1Nx+S359IRN+9gxE2b1/sgj+Rbnw8m3Qe7qQfySv51ecnNozmyQeqmv+XLUXWPjLmq2umLQVuvFrtZz2lQF4O5d2zmpXuSM+gDcqUrLeYpe+RQpxMZIllrSdXuLU+P0tcG4gnlo6MdiuuJT3xi+ZUm5UDg6lQj5dO+XDGWP0lZc20v2mqpxG4FtJ1WohYQ4fj1ESPxdrEuir7f0apDLddcq+OU/eoWx/4CRM56Q/K23DfIPlMxdTyP0ax/FhGwxjLNFUlkgClpD8E+nUsHr8/BbulCyoNg4leFrMDo5Z0fXbj6SVcvBC4uKDcR1YvQ7VaZdwplD1GmrKx0s12s7WLhP+0bVwUS1DZ12wXz1DX5ItSknZeX5v7f6573Gp32HacV3nC9hft3mjf85m/+Zhm0QDr1AAPqqGws9kc8/BGjMx52xuaVvcXaEDsoig7NFXPGGWcUYW0Xi+TbsTzU6lRcOP+xYdFT/nRwOqPjIwa/KJ+XtbHukfzXv/b14uMXP51ZJ5JGWWOERTakHWKvsWpdkJ/yK5dyxDJlPXphV//maEgOxJk0+Kyr/qorGYMyqou2YKWbLYL0tJ16ua5N3WOgI5uAHIJ56iqu/PPeBqFzb/Gjexoqy43UywAMSWcwgehGtvPkDb/1W79VnkTc7972/hC7tuZl4GdfByz95WmLccmPE65z4rJ+TFGy3oKXTNvFvA3WscsY1MC0WB2BvsRXqc0RRcieX5bl54UtwjejgmWP8PMSDnm4J4QZRNcWVOlDIK1at7KfrU6d3+A1E8PL0fh/40pUZ+UO+UGrr+3xuoEc+LNNjzVLJOu7DFQ3uvo1rl7axtOZerCcM4Ats03MKmKl+6DLwl2nnHxKeYdDd5B5QvKGRfP97d/+7VJX6dTpBs4L8vXi9AlPeMLmlY1re9WuCxO7kVTh3/SmN5WXpxTYMWW2HVexWef4y8yK8RIEpNU+uraYdL5j70En0gFYV3kJG7heiG+4ll+3CuhXSB7BI32WPdeOc46toMm6Fxeh0hchqi0vwbFtSHaa6qd80gQEnvvAvQYnZIPQ6aylANynDMi9RvKqy1SjPd5zKOZmkdSHnBF5fs3IQKv+iH1o2bL1r5Z7jfqcfUQIdVsIjsmilod8cAEL3cDJSvdE4Mlt60emhzSSZos673nx+7//+4XYDVyT0ldmuNe97lVWdkx9yILe7AUWJvbSkFf9R1mljT/KYzToECooTFLa+rxiCOIblVns3nATpjzMtnGN8kCb5qQ8OvYW2nRVbcNCRO5m5djy33tJmwGAfx4p0Rt6pHOyJjOTgo6mU05CfV09otPS8dJOZ6aniDxdaZJu1l1tHfU1dUXSIUxPR9wu3BHcLuSrP5JrXYe6jrUc6jqD4/o+snRsq32kq60QIkL3MZdP9blevLtwTfw6DWjTXRZe/vKXj175ylcWQyJ511BucvOy3FPbL/3SL5UyK4+65Mk0WEUZx2FhYnc7X+qXzvlSmRqkc2l4nUbjjGuEoD7vccp9OggBme5oSQGCM3vgqKO/8SEDtGnulsA61gP0YJzqIgfWJGKni7HsneMLBropHtKic+OgU0I+ffeCNy/n+NItB3Dve997dJOb3GTrJf8s3azLu076qlzkEJeGfks253zpnNEHPviB8iMTZrsgMNc8WYnPUq+hTtJKGFdH5wR5gf5e8r70svK0ZmkFsveuDZEjdANo3DshfmE3YPrmX/7lXxbjYVx9lEOZ6ICnil/8xV/cWotGqNscxqWxChz5vwds7u8IKSjy9ZimA0VBXKMMGqSuYO6pKxlrIY8uHmutoaFjjWvEVkDtccfhgxAJsJCQgtkoDAS+2Nve9rZlloolKhx7sSke4g+BtwgxRXfpJz3MC1JfGN785jcv+lrSGLIvOujfNnRznfRV3dQhMvSkYwmAt7z1LWV1QwNifZ01D9PqOal+SFx+CF0bGDDh+BOOL0/lfszCx0WWvvWuTXshzZokwy27AU+FVqL0TqcF3QB1EuiCKZeIPUZAi90q9ze/DdgBFFYlvexMR3DOtt2vUZ8jlDJlbDhkLZgOx7fqXooQ4u/oqEE/dHT6kw5PV1jlOht9DNGzsq3Rwn1iv56i2EJa7mXZM1SQC2vSUyRLndGRmTp5NzBuTrryrDsiP/UxbdEv8vtBeot2MdTU3XUy1V9DaDuBdBB6npjsay8yvua1rln86D/yIz9SZsbd4ua3KANKPfgqw24i0yiVW1u3CIcpIxefD/YWkc+ysDRi5yphwaRzJZT1jYe/CKAOQfZtTWHT6H4/1TKfGlzD1/E7OuiWDmQL0SmBDpaXawNpsAIZC/QwHZN75j3vec+WtTgJITxbg4OXpKa0sSh1ZITnBV5djmyh3gfHCXuN9CdbhKSv+QFpbgcz3D71qU+VvqeerNbatQp1Heo61ftBztXXsiU7BqEnKlOczSqxb70XX7Cb8ixf5XTPJEt4VdDu3G0h9uiYEF5SBzpCXqbv2ibOXmFpQwuh+/1ALxEIIRb2UL2tRmwr2la+3vcCzKfJvmB0fh1GwY71R3RtHOgQo4GbAZHNsv7osU7qPm4c0+yyzsuWPg7ZTfp6dF2hP+mfAovcLBdrjr/uda8rcmFJB+mTiMtAOU8/bNsi+SJI1zwBcblya5n/bdDM+lCTIP9pbbxsqHN+SL+tu/oIyiOoF77CXfa9e9wrLI0tVdo0JHN6M7oFyB3maZD4+YyAOuA4oXZ0jEM6WhvoDH2y6iDCdm4aQur8plw4ttFtHX6/ghw8rZi+aFVWMz/MTTejLQZZoP4htVqWs5D+WcfNva6xyL2r8IW5NekztXnd4AnBu5oysA1PZ9NQBspzzytLFcNectTSiF2D8UcZ3VQoxJ6GnIU2jvvMV7ayGn977WeLtVHfs5dC7Nh70JcWzpU585uBzlio6qMf+egh+jQJrHsvS/nUrfvCvUPPpFPSHpPnOiBlbOEct4uXxma6nHnmmeXH57ld1BXZM6hyb1u/HEs//a2VQ/ImXxwwXC2DgmNb7isvRLldfvRHf7S8IPUUZJJEbQyuCwzgniq4hGKgTgI5+GDq7//+74uc228ydhNLzdno5gMCMMJpZJVNRwhqxYB6P5AWi8nKaj4QQO5e7rDeD3kaqNLK/rj0Og4+ah2z3waGAlfDV8/f+LnAWXpCh703Ov300wsh8dMLCIpO1/q2djo3FCdlBPtcBEiHD/01r3nN6JOf/OTWlM88FXOPeCohrxZJS7zy7mKAdFtCFk8ckE7uY/T5rYXHPe5xZQljH3cVuW5eJ+91gzJxMRuMYJxcAvVA6OTKjRwZ7AWWmrMpTH7WToNRDqgrN00oLXQgynn+V88vL7p8HKFjUiJp7qXQOtYXrY7pbMhHQOqsVSSG2GeBpeYz8Zp8wCyYQvLVubXDIAblExhEJiOYk43U3/a2txU5sNJZpLPcSofIVJVL19yYFAHZBsVtMaSJA8TzAtKSunzoVkDk0sovR2mXdYa64zVz6r0/HIfIh6wRu8HSewvfUuwVlsqOGpjvzJd4dYPtpAOUxaMo5/BnfYr8XqIZDR7rdtqp1r5DdiwMHU0bJ9BFZI7czMl2zqP/OOOg1g1TIunyfvSne3GnLgjcYl3cLnzpZMCXTh7kQlZlmYeavCu05/XLrPmjfyLv2tJOfAMnuZkWahluv4hm2QXTTiNPfVE6tczXEepoJhRiT/1sU+7s0ycDFtnys3P77RUW/kCpRkiTG8UjnwpOQ6s0NWqhaXzWuk4pTb58IR1TnDYt95c0NnXGPkXOaoPj7uk4eNDG2p3++GWfzDNmhY8jlZCdx2+/u8t94Jx4CLBGqz+zjpeF6LZy5biU299mntwuXoiq81//9V8XPzr/ubq3TytDapt734xxdZKGIN/IMPEYXYib39xSAN5PsNZNrPARo0Egcett9reDeeIuCvUjW5zm69t8gav+rimLOtm3FTJocmuZTeXe1HGrrTaPwbkg5xbFUondCA4qxM+kM6nEJGy3Eonn0dH0rC+f8+UyiHghRmjlkY9whn8ELn4EWDCcR+jOuQ5t3ssSaMd6QHsm6Gh8nr6iLC+1Njsl1J3KvvNekvoQ6f73v/8GgdG1zbRqzHu8LNBrBGqLSKLr+oPHf1Pu1JXrxdfgPvSDUpfNPiDMU746bvqVc/KXVsl/ONb3/bAIX7rli637xBUDZWAk7s2k6jR3WpZVg5zld8LxJxQXiw+4MjBGd/APHQvBpz1sDXKMCMcJeUISksY4LFLPpRJ7KqOihGBqWT0ntsW0gtfX7BOarTf3//6ZjZEziz995byvbP3S/sWXXLw1YioLpaNMWdRI2cYp9bSydOxvIHMv4ZE74wDS3nXHco7emEttjZLb3Po2RW+29MUtm2HruEKrQ+3xsqDMCAdqYuWm9Pm7lVbf8Y53lHrTfa4T9xiwlEn/2Oobm5hV1vq6/fK3eU6fYmD5kMeXo2a6cGGx0vmn5VXHr7ftue1gnriLQLlrOamLQZPBGlcTuau/9mh5BVd5QrRwGi7EWed++dwyAEtL29Vo67VIPRdeBCyQTJRNBVXiec97XpkzTJHGQcGFCLCtSIrmfIQgj4yiRkJ58X3Zz6fj/Fx8qLYeqbltTFfSEOLYSq+uept3x8GBQf/FL37x6F3vetfW16b0huWE9KKDQLesLfMzP/MzW3Ort6sbbbxV6ZSyIhRQXlaimWMGLu6XLGfMeqbrrtdPKO5Vtrp8s8qa67lPkI7gvZqXi55yvBg1eUK+UCzYzSeeALGVbXVuHuz0vllo+aDI6srBwj7yiPICWp24tl70ohcVGSNn5w2YDNjUOenYFj0bQgxTLiozrXxd68kGX8G4Oi1Sz6USu0ZMYVhGZrP4RJn7xPkoF9SVjoLYr5GiJU3HQhQzSusYCM85wT7FpnR+muxaJ1+rkLpj5697neuOTrr6SWWJTccRfI2UN/mlvEHKA/W9bTodewsvDJ/73OeWD95iZGgjU/YuvWyjYzqvbVli1in5iZ/4iWIcBGnnSRjX5qvQg0KUQ1noa56Kvah761vfWmaQWURLPQxgsdDTP2IQsTChrtO0srqW6/U95OPjHSRlMDQjbpwlmndvW3lkMyXPSdjJPduFMpb6Df9KPx+yUnZb+iFvxP6KV7yivJTGM87b0hv1ThopZ9rJlvzJh/z53r1/8IQTAxVK/ptYpK5LIfYksZXUsBmqV0Y1lpLHQ2/i20I7Fuwn1HEWQYRStptJHnPsMYXcPTay5lnyHrtZ/ARuWwaCwbrPGhXiRugsPKN3yl1gM2SROJC8O9YDZlM95znPKY/FtX5pJx3zuGOPKx+WAOJ8/OMfX2ZyIEao72nvn4ZV6AFyUAYuAV+OeiLm9+WGnFRO+8oSgqerjrdTFzqvH7CyY0QhMv0mVrrfdmUcBW1a8kGQ7Qc7q5DPIlDOGHGC/dTZUx9ZM1Y//elPl4GTHCBPfuTayr3eBo7Jyzc/WXsog3AddxH5LJXYgxzrNJTv+c9/fpn6k5FcgQmB0MRxnpDct4TijEUtJA0lH2WQr/xD9hTW1gCA6Fn0BgDbuHsQgQWKYFAB/x2CRRqkY/nIV5asrBbajxECSJMV+iu/8itlqmP0NZhXN5etB/SWscTNabBiqdsvenzU0aMLL7qwxMuAJD5sp9yTyup8IfZhKx/6b9ljywEg9NrtErRplfyHf3HBBMuWzzJw5RVXbqzUOZQNP5G3HxpB6H5shIvLNfKuXUpkbVvLOvu2QngnT0y4xhe43knglhaLyGclxE4g6RSmWL3+9a8vH0aYgtViHDGuCsqZUbUmd4g1rtwZpY2qyD1bVjyLXuArQ/gGAdfqx/ZFGqRjeUhn8/hsGVovvWpof6SUD3X4S3W23/3d3y3vZsah1fVpmEcPpDstvjL6/VfkwkhisXv8NxipJ7dS1kkfh1nlnpa3PmKw8DLUgGd5BfPT6b/+Iu06/TatXGvPzyOf3QJZqq8Xz6ZX8zZ4b8HlZZVLdTG4KXtkX9ejlkP2sxVXcIzcyY/bz7TaGJh1WovIZ2k+dgWGVFjBJW2fQlpsiB+QgnJ7EB7FZCknXu5fNuoqhtgT5CfkvHooSwYnAndNHHVSXuXXuAg/pI/okbyA+F0XXxDHfWlU6QmTIG9IvuC+YBUyOoiITlq58FWvetU3fQlIpiF07UTuyOvJT37yIQP1qqEcQnQxUH5PtAYk5CIgde+sUnblpq/pc2A/6c2CeJC8hdwrPWXwtOpXjJD6LW5xi6Ljdb+ApAM5Nwmzru82ahnQBR9Ecm95IhKyfk76b3GbDH/cd3W9W4y7pm2K+2/gEHJ90IMeVL5uJutjjj7mm9xVO8VSX56CgmfkyTkvD7zA8uWbRb3E8ehBiFGOkNluoa32dpStjlPfrw4aW50QQsg9RJ/ljF0Th+UvvsZsR2kIIQXt9e2UtWMDZOkF/hve8IZicbUgS3FstSNi9wPG4x6NVwk+aN9apBz6CKuRP9dX14jGE2/eVdGbGurgvuy3+j0L4ifQy+imWS7mpJu+SKfpbVknZooKztLPddLf9DVlwlMGT1/q4ilGKI4SyMVgxqWkncg6ejMNaYds0zY+1jr1OqeW33a2cqi0y9r+60bsIClWuMYvAhtS5odynkISFrcMqwORq0x87AQk3hKLMxVtPstSNunEkkpHq6dgGqlZ984JRm1bRJInmWCSLJZV1sMBpqv95V9NJvYaOtv1b3D9XSf2Vu/1Da4WfnSuABakfjWu3XNfqyuzjmvU16K/fOcsdC/4zHxhjNS6aX+SHs7Sz3XSX3XHQbwK5C1YcNCgqg/XZS3LNAx/9blZdalla1/w9C5klUuDp+M2v0WwdIs9IyCfdS0E5z0Km2/L5+mlqspQYnGEVHw30OazU4G6L0quLqlPOoF61xaQ4JzB7+RrnVymXJIDi561yCpi4XPf6Eyx8mvstKyHI3TGv3rBXxWDYiaxD21E9k960pOWQuzRse20l5d2+ouXdaxGL+ssA8BKV64Sp+orCeP6S/pRrYOOJ5UjfTY6Z5aGdV24XeijdKLDSXtSWjDtGsy6vpsw2+VDH/pQ4SUvSX3saMqoMjK0ajmSf1v3cXVxTlz3ka2QJyzX9HdLVdznPvcp1rpjccsTwZKwdGIvlRqUlKWuQo5TKR3Lp86sJ0pbW+qwpKLsOtRBSCPmWGPV9ct51hfoKGl8jcovj/C9VNHJWPm2rHr7rKi8xHUf+UkjCpE5t66Ng3yUxaBbz1Co5a58Bwl0jn/dO57Wx95CByPbpz71qaUdFkGr00PLlylxrEPt1XZifnMfGFkCQN9gNdKT6FDaTogeCY7b9k6eOZ9767Z1TTDw8RWrO8vREsWsdC+RlTFpJL8geewEdTq7gZS1zpde8ByYwsjINLuI+ytTF4FMyC7y099m1dt1fZL75vjjji+z5+TlnPQNFgbOu931bmXwPOXap2ylL86ysFRXTCBJhc2opcD8V15E6GAWCFPxKMuyFGZd0CpuezypjuJFkXQq1noGPxYkFw7iQfy28eNTFPGPPebY8tuz5E3uGVDllzxtB4kPmX1zuWDcuf0Mncon9tYfR57TgMx15j/5kz8pA+giiMwF7alT29cm2qq0wyBr/QCpmO2SH5VxjnGUBevqtKBuo+zX5woZD1F9fOW8OrlXOSDb3EOPELoPjegS3Zr1xJKy7AR1WVeJUudh4GLEZIAy/5zbhayROisdN9VPQ4H91NN2VrkTJ8RO7vLVlvobnz1L3Y+pW7LiBte/QTmfe1PGZWAlxA6Uh3XCb0lBWSHWgbbSnLUTKE4EmQArKs6uInUJ2uNpdXSN7NxDQWzTEZFCiAEJCdln1fu1H+4d7oSTT9nYGgTKI6Wv//R2sBmKVJcr+21Z9ztYvfTuJS95SVlLJVDPth3Iknx/53d+p8zVXgTSLjK33WxT0xHlKx/HSJyVbh0bVqOBp7T1ZrEQUsqZ0LZPjuvz4kEswCsuv2LrhR/kOr2Ilc6ffuq1Ty0f8bmee8ch9+8UbR1WhqGYg9TKLi7yERdCz/IL/Ojpa+OMoEXA8tfeBgwGmi15WxjNFEfr6miP5BssSzYrI3bJ6lTeoH/lq18ZvfrVry5uGD4twnRdJVTOdtcaexfQ1qU9nkfktayEyMu52sqIguiQXDqsrrhtWPVe0LL4dd5rn3rtct6HVpMI/qCAnPKBEt0LIsMake2v/dqvFaLbKaRb0vZvM48i1+GfY4RieQMvRhGNAUfeyAcYPbHwIekJbfvkuD3fImkBSxKxWAbANEZz0ulI6j8LdVo7wXbyWBZwkKc2s4sQukHU9FHy3bKoNz0LmZlUBtcdQt20ozZkoUs7T0w+6PrBH/zBskaMfjqtPRfFSi12Cix5j5n8nB57IjSCVQkCBfvLqtReY5mNNU7JpEeurkVuOQYyRfSCJ6ajj/mGhU/hED6S9whuy9J3jnUvjvSkJU1WRlwH8eHX9XE+bbhuUDZlRZ7PetazykcmzkFkViMDpSlofhhCvXcC6UqLDMm/WN7Dn5dyZrt4OWr2hX2uAX2BDNOekWddvrasdRtAfex++V12+cbP/6mH8sjLei4I3RolCF37u76ubbhdRN7kwJgkc8SK0LU/Qjdl1Lk8CafO5Z3TcDxo+KFPtjtEIfOjjynvLrStcNOb3HT08Ec8vPwkYPpYyXNGu+4UKyN2MFoSrCUFCLfOalyFllWpvUZbj0XqFTmNa6ZJTRdZJt86f8qM8G0FRM96R+osfZYboucL9NNwLH0WB6KIa6BOL0hZxl3bKyiT8vCpWgSMDrKmUsZWfvGLmrf9i7/4i2VQ2ylK2sO/ktfwj/vRi1FzpP1WAaMnEDdltc0AU5NtW9bUIRh37H5kh1iQSZbVZaWbwgjq27oD9hNauairc9qSu8Wa9ORtUBNC/kA+IXnuKkScfrEMKIf8DJxcMAyGrBgKbZvBuHM7wUpdMXxappmx1gm1LrTrQn1uWZXaa7T1WKReaZ5pzdRek19CDfGQBuV3LQRvP0qOzHR2CikuPz2iz4taUzJZeZmDD7l/N9HqzjhELh7FX/CCF5T3OwjVfblWyw4ZnHjCiaPrXPc6o1//9V8vdV0EZGi6IrcLNySL0fcc+gKQN4hnwFEWss8TEvmPKye0da+P7aeO2oWPlx/97ne/e7HY5RtCT94G+P0I5VdPdVEP8kXkPuryG7cXXnBhWUNH20bfI9fINLpvK72kuSi0gQHVtFFfl1owLW0+CW277hRLJ3bJKRzhUeg/+qM/Kh9YEGpd6HHZzqpUroeYdkIm7kne26164skzQePXSNlS/xrt8TzYTlnbaynjuHxrpfXIGmX22E6u2kmnd14bgn0KataNa9e45saqmAjelhsH6cefb3BYxNptobzCuPpMk225j/towMtevrGsQPl5uOHRu3TgzVkngfrqeO777//9v5eZCzuFp1WuH/PRzZNmsZPvpZdcurUSYMpuG3mLo2whoSBtFrT1bo/Thr4YNVfa+i4IXjquBfnopu2f+wWlHYcAvgEga+8uPKXVg3gdr4brCUEr63mQe9O+jCLL8973vvctT8R1m45DXY5FsFRiT1Km95zz5XNKRzLNjAVCqHVW9uvjWRUqfrMhjjfNOg0LQ0ewj3DMF03DER5FVQ6jtZFch0VOEew81a7jpsGQQ84jiGnpLdpYk9KedL7Nrz1u73NcnxM/9+RaOcenMPxTd/Im05C49tDOLHmBG4dF76fRxMuAIU6NpF1DuwopU9ozaOMH487TCedNtX3mM59ZOrxj6btWdzTn6ZMOaOrfz//8zxcyhKSTPNrjQLqsRm4AP+zBekQ44kWWNZJGrrk/GJf+OCTNxFU2/nMvgO94xzsWizFyF7fNs5bBuqOuq3qSlzZjRHoiM5U60xdr1PVN/ROSZp32TpF86atBmuvrsY997Jbrq8UieU3DUok9HcVjzwc/+MGyFruOlEc9DRDMK0ykIB1pU1L5OCZIafuQR1oaNfkQbl6kiCeI4/x2BSre1qAy3M+yTTrK4LxQ77cYd24eREYtJp1v82uP2/smpTML7gvBaR9bsiELbWIgdZ1Fz3JhzSOZ+PAdU37tmftBGs5LX1sZGFxznLK2dYJx58R3Hrk+5SlPKS8suQhrPQrEo1MGKh+DmcHA2p2EUp7hiSDvHrJshp+l8/GLOnhZRx9dTz2Cer+u204hP64zPyJtcSlPVJ6i5NumXee9n6AedEo7kS1vAHmz1DOdlRxgkqxh1vFOQXcFuuW91Y/8yI+M7nKXu5S+oOy1vsGq2mGpxM5CzpdWf/Znf1b8XEDQeQxUabA/T9Y6B2ERkH1Wo0V0jITcAdKXj8cvPkyPvjqaR29b97pOIeRLoNsRqrgUyVYHqckgdajjCC0WbbxxadZor7f5tcdt/FnpT4I6C9InF/LxaJ8vLKWLsM0QyBMVotZWfPYUH8Ejev5slr5z0kp6RdZD8UodGjHOqmegHIIPj1jR9MHAkzIG9uVHT+iZD0n8RJ5BwLXavVTu2yyXp0hTKVmMDBrGjHukn7qIFx0JUt6cq6/NC08ZZOirUeUmR+mrT/S1zP4YBiGYJKv9ABxiyiIyZ6F7KsI5ZB6QZeo4rq7tue3IQ5xZbaSNlYOh6b3Gf/tv/60MsM5Hr3YDSyX2QriDEnks+tM//dOi4KAjt0qd/WnZRyEzCkpDJ9Ep+Q693beQDmIoFt/wJz3hy+d+uVhmLDVbH0jpfEZ1HY6Qt4s0etKuy+zaLKXYjtJMQ53fOLTX2/za4zb+rPQnQXsI2gkJC0C2GcAROaQNE9f55KvtdIQ8eWlPgzWr2SwCLh3n3dd2jLpuk+QsH9fMSOGOoROe7BB1dAyUWxkYB7bK8T//5/8shKm8dC+QpviMCLNdfATF3VPXV5wEqPOqy5rr2bYQd9K1wC8+8eWSF/0mL4ieI/V65cBJslp3sNLJ2RLgpo2SP9mQe8jTNphUz/b8duRRt0PdHvW9OMgP6msH66xrE7pAx92znXyWgaUTu+Re97rXjc58/plbbgud0bat1KysNZbOHPeKzua3AlkkfsHFI77OMk5Y0hY0srwphHQEiq9zW0jfdExb5O/8ZZdeVqY9uU/eOrN912zlF8WJNSYf123HlWXVjTlLjpPyr++blcYkkIX0Q1rzlMW92qa085GbSxhvWpTSEciXxZOZOMiWuwHxI3xGg04jHpfZOKs+eXLDMDhYeVCMgao88tPmLK4yiBxz7OjOd7nz6Md+7MeKBYw0tDM9pEf0xmwb6alLSLRF9CWkD3W+syCusoa0kr/0/DzdIx7xiPIugwy0g3ocUq+rhieRZjnYefLfbUSHShmHXTL/2te/Vr7U9WI0s5vIgwzIRBA/9Q9m1bO9rt2dIzPvzqSPvwwgacdWvjWig97RPOpRjypfME/iqFVi6S9PPSL5BRqj6TTrCmZlTSA6PiVmgZgu5O2yL7h06BrT0pKvUBTgym80jkdoSpPAX2eKlA7LlePxDuFrVEqkLIJ7kyZkf1IZEm9VmCXHSfnX981KYxJy33brWMfTvgLZxnXhOhKjOzqZNiNzW3GdZ2nnusHdi0IuOe4dPmXkz3/vOsQ9pKz5NS9tLK9p5ZafdwI//MM/XF5Eup8bx0/sme3y+te9vlhneVIVpqHOa1q+4xAZIRp1NNCZvmh+tBfV09LbT8ROxgJZ2qozTvHuwpMRa93SC9e65rVKnUK4Bjv607bFrHrW16UT45Sc6Y925xXwxI/TlAfadHNMV5XF+5mHPexh5VzKIl3YDdkvldhZxb7w+r//9/8W68FxjbZC07J2LZ2ZoPgOv//7v7+sbUHodePB1LQ2R988jtblcB+FgKGbl2vi8s1bDRCxm4uMCLhxuHNY+5RL3KTlXjBYSLPOo95fBabVHSblX983K41loS5LBstYRTqScuhcguva2PlY5NpGe7nPAFC7U8RjALDmWfdcOcg+X9U6NgWRle2HX6RRo5VByoVAWV/is84TlIOOKoe4jqNL47CITkhXXb2TsFCXvuBxn2+dnOQ/DW1+8+a/W9AG6qq9WeXaiwcArzC0DGjIVZ8ke+0DjD/try2k4RrMqmd73cBNV3zMRY+0PUPhpS996ehDf/+h0SWXHsppgXQE+dO9n/zJnyyuYmVJHtGvWWVaBpZG7JIhbBaRr/yQcYQbtBWaljVldb+OyRpjqSN36WpAadX3T0tLh8x1gp8E8SiVvKEoyubPVbkf2VAqpG9FPmTvl+/t58cQPDq20x+X2ZB1WuTjONuglUWbf47reO09q0JdlpQdbMnfOSTVljEDuQHU4JlBAbSTkOtQ7ht2nfd0R29Y34jfSzftljSDVgZIQz7S8IGJgd2KgEhEXOVU7txX749DW/fAPqOj1Zsa6oDIfRVrCp36nHTiSWU1z8hwGur8oD3ebajnpDKoD+PJewu+dH3LAHb5ZZePLrjwgtIu+rG20z5tWo5zLiFyHXethjTpCTmbXeSDLkbA//k//6cMLNG5FklH2bSPl6aeGoPkD22eq8BSiR3RPfGJTyxEl5FzpxXSYAK3y6Mf/eiycI40jeTSmafYpRybj6PLEGrSq8vgkdwjOoseaZAFa18wEHhkRAghCqQQy5QyxT+6FYaOHujwkPzq+usEjlOvdHLX27pOqntdj1VjUhlSD0jZ6+NxyPnEm7StkXsiJ7IO2nz4/bM29yy4VxiX5zjU8exnMKMfjAvloycIjevl9NufPvre239vcQtkEKsxT94wT9xVIfVUlvAFw4mrjMvFl7r6zzhjzD2ROZCH/aQXeeR84uUags7ALBg4vbPxUZrZLKxuT3qu+R6Hwco9G2KXTgvpeqqyHMXtb3/70k5B8odx9y4bSyN2AmDN/PEf/3EZbVOpnVZIg7CuCJq1fv3rXX+D1I+Yj9RbrEqoyqTRY0FQWo91ArcNa+/zZ39+9MUvfbEoa6ZlUmTkTn7ut1VGSkcGdXntixOlpPDO5V6wL3+hrWuO2/OLyHNeLDPv3NvWq81ju1hUDvPcX5fRvnajM9JIuyIJVmNckPpUrsEi5d2pjFYB9VB3c/9Z6EiddcwQUk79QJiEyMFWP8ATQp6wpUFuMZ5APNf0V4TuZaf55je/+c2LpZ2BFpf5zdz3vfd9ZX177QTj5CdtbrKf/dmfLdvEGddO4+5fJpZG7ARkZOO/RFhpjDr5eSrjkcab/oc85CFlamMh9eH+RYu7bIEqT0229SjtHEWILGKNcVl5IURpWAEU2Tly814iZC+++5RZsB/Cl3YGhJyDeYl9UXnOi7ZMi+Sfe9t6tXlsF4vKYp772zZwrB0FbRj/rg+kLLXsO4DEy72LlHenMlom9AV6HBeuFS/ptCffEKj+NKuskYN4dT9D5nhEWtJNH3XsuriI3Ne5fs2Iq0sauXeQ9Ogzn/1M+bDNl8TSmiZzHCWtJzzhCeUpKxh3z6rlvzCxExIBIaO/+Iu/KA2UJAmxTn47lUmDGjV9PcdasTBTuXcJsliFQGsCV+ca6p+Xt2V/COJRGr7ixKFMrHtWimldpmEKlBT5I/2LLrxoNKRQ8qrlGplB8hDUtY6XumebdByvQi7j0OZTl28nSPmh3c6LZZRlu0gZcw+dMKizHrkCTOn1opSLoFia1cdFZWbXsLvTesIi924XRb8qF2jdVvSZ25KB85znPKc8wcaHLY57s082MElfa7nb95JdPywEv7lio2P3hPQNnNwlrHR+dC6vkL5BIC/l/QCKjy09TWTKa9Dmq60e/OAHF2NUeu53XqjLC+3xsrEQsbtVRSkeV8PTn/708mWfY9fSIMG0yqQYGtMozafOt+4R1H1Gy/0KdavFbB+x152zlo2O6xsACiZw3XDncOWc95XzyjErh8z57xGC+wXKSe4UVNuQp/zaTuEYcrxbWGZetUyhTXs36wVteSYh5dI+An3n0/WNhgkC3AL8u0EhJstabC5dIB+h7V/zYFWySdkQejke/kKydE5d6bSPGE0Z9SMoIVNb5aqDtFJW+5DjIOeTN7nIB4FLFx+xwBmfyNl7OzImazNepslR+UwG8d4QWetPgbzSr8BgYTaMadnihQeFtszt8bKxELFrrEH8ZUT2lalHFi88Jj2yTKuMhiAkJBXfuvWLWTAET0j7FWncwH5k0W4h8ckDyJjFT0kpjGAqJkse4fsBEwSfF7VIP6QRYq9DabNBpohCHomzG1imQrdlbtNeZl7bwXZlSOZIR/kQDXJhPSIEM8AQYWmn4bp2qq31YNG6rUo2dIneQfqsOqgPi5wxYj44UufeQLgxTAAP1GUjK0EacY/IIxMKIHJ3nxDdl1YGFZxk8PQ0ZMaLbx9Y5bPk4EWuNa+UW3otUl9lMzD/wi/8QpkqGXfOVh9u8pmV76JYiNiNgCm8eaaInX9s3FRHmFWZCMkn3D7Hvec971kaBgoRrVgYq0IrYseTGto1MoAoUu6v73EuHUbHCOlrE21gVg4rg0LqUAnSLp1j8+Ms9+wmltmGkUswSaa7hbY800CvTeX1/gipsyIZNGmPELrt0FxLxyplQw4CXaNj9JiOZoE0vnRuC9fPO/e80fEnbExhFlL/yBKP2CcH14uRM5xrZ4oF6uW6dJKmvHgAfN5PzjjL9a00p8jCjwRxL+s7KUcN93IraTvtmBVB9z2xGwkJiQvGOhwsSJ9ix39cY1plpEUIBO2lqVXRKH0tyFULY1VoRex4UkNHKSEWTx5TkYF4uT/HLVy3IFvWWOe3589E9qx8ln3cOxQ2AwNljCKWMiv2BJGnTnX+9oUyeIwpF7Tnc2ybNLPdDuq4k9LeLbRlcVzXyTn6rc/kpV1xB5x6ndJfELl56YkPq6rDstJty0l30/76Lr3yNTeXBkLP0ySdo7/l/ZmnkU3RjZvaSy7O083IUbAffZWXYyGELn2WuRej5ce6Tz21xAuniJvjlL+FJSgsYYCf1E2aNZC3p2TEzhD14lS/1ZfSf1PmGpPyWxYWdsUQIOG+8Y1vHP35n/95aUiVj8BrzKoMARMe/xdiv9lNb3bII+iqhbFKTBJzW6fEs40CLgLplDQ3s9dBKClljNvG7BxWvpe2BgFK6Zdn/EanNna/bd2m4oD2dw3ypEYHUo+9bLO9zDtyp88JfLRcLdZ38duX3h/NQuTYYl36Ql2+tL2tQLdY6X7z2EtIlm3kAqlDDJQQeJ2m88VKH3PecfIq9w/9RVpcLN5RlN92Pf0OxUVilopvEsQLOdf3BY5r/NZv/VZZsVP7ya+9bpBWL1svTq0rJJ74ySfldm97/6qwELETDKHY+uyXxZ7Kj0t2VqWkJY4vt/yYcH6abLeEsWrsRCbLhjJQutJ2HvWP3LBYEDVSZ0nx37PukT3Sj4VvIHDdvcjcPbYhdhaKoCOajRBdaLElh2EzdPOtY3ETloHdlm0QGadeBj8WHSJnpfvUnPWYjj8NW7JqsFd1m4ToAd2gI4jcst3Wd2FI0K1Y0SBe3d5CCHZSncdBXHpoQOEC4UfP0xBid1x4ZfjzVCR+eAayDdrjmtjHQX3kj9gf/vCHF95SN5BW6mK/TXuVWCqxmxWjoqlYi2kVUwz3erQxd9faHBoFdlMgBxlkrG2EWtEoPYIt+zk/HIZ0WSSZcx9XjmlqLDJTNK2I+fULvl7i6WB0wqwIFlLyqpFjAwvkqSzlW0AlD0Gb77Ih/XH1A7rsPDKzwp8Xo4jGzAnW46rLtptIuxn4GQTvf//7y/RA03VDevQiugHqLzgO0Qrj2r7WzxbuzcBp1U++dC9ITWFkuUuvpDn8Y/Unz8BxjfZ4FrHHSPI0hrOstEn36XRdl9Rvt7BUYn/GM55RCj8pyWkVc4/rHud9aUpAB60DrAvIWpsJgGBD4qWTDX+sG9dzDlGlrVlkCB2RI/fzv3r+6Atf/ELx2RsAXNOhL7n4ktFXz99YrCkdILrRtqvzCdB2vsSv48zCKnVH2srIGoUit838Ul4zXvzWqFkYXtrVUxj3C4q8B6Lyt1XHQfy19Wtg/9I5XypuF6SO0OkAIFxz1OmDuEcfdfSWbrXyynENuuk8Uq51KP5raZo5x72F0G0dx8AMIUsj5a3zafNsj2cRe55WcZXp2Q996EPLcfLLfpvuqrF0VwxMSnJW5aSD2H2Y5LGGUnSsDttp+hJHtKHptpR1+Kej5XqC9vPIzXJD8EjfizMDgZe0F180XPv617YenYV0VsF5x9JKXrZ0TEdNftvFqjuTciF29ZAXsmGdIhZT3iwHgGh80UivU4f9hDx5kbvyC9pIndVd21qB8d3vfndZUgTRaccQHqTNtvRnQNq2Ro7r81nfPOVI2rjBQOkJyNOQF6TcW/RIG9Rp1DozLt8a7bVZxC6+PJWHxY7Yk0bympbfqrASH/skzKog4ekAvtxC7HxmHeuFWeqijRMnWwTAakP6/PYsey9qbVl2ruUJIGQhrg5MvxKQiu12scoOReelz3WonMpLX60R4kdgzMLgDhCHlars7Vz0/QBtqK5pS/VBrtqI24UPnZVuX9uljcRv9SCo06qR4/r8QIv+O+Qes+5OPuXkMr3Q05AX0shcnHDSJD1py9KiLdMsYs9CcSccf8LokY965OiMM84oadTlbdPcDayU2LOfhp5WQdelE2K3SL2OshdC6dg5tGGx8O1vzmTQhvyggamYF1504RaBZ2aOl7Yse4Rv/n0e4ZG+EKLfrk4sQ3eSRq3X4JibwPREdaO3pulyvQj8veD+ecq8rlBf5KYNDM7WN7L8sScy7eZ8+rC6IvhgnOxgnEycq89Lr8h6kCE582V7CjJzzhORj7vEcR1mybktS4v2/pnEPpRJ3UPs+XEN+bR12U0sRuxXDgI9coPYrcrmx4Lta9Q0iKDyjmFSRRPXCw8+dgLyqFUsnT0STsd80H46QGbbbBd0g7Vnq4Py2X/lq18phIHgvbD1shbps+ozIHAHxH2jc4Vc6g5lK00hrp/4Z6dBOsAiA37hGtKTFuODZe6bC8E+vVUXgUUPSW+/6XL6ra2X5pak9vN0fmjEYAwhN/KIvGuk7kEti8gj+bjXvjjp+9L2vsIvRSF1vxrF1UX24grKAO6r0x2Htjw12vue9KQnldk9qVt7rycFums+/kMe+pDyy0nAdTRPH1g2FiJ2lQ2J869ZjF6n0xnSEcRReR0QasG1+ymKRyz+Ko+1tZK0Qu9YL2i/RdqotH/5N6Tjb3NmAUKmVyx41jwLPx9Y8efHoneM/OkcMqBz7tfpBYOC88h2W+WsekbcKCESes+ni8xNz7UNEdHZlN+xsKhsdhOlHQaog4/cyJ2rRR9H6JYPQWZBW69Z9Uz6ELmQHWSAEBh5yNtA+R2nfUex0m/zbbcpJF+jTk+b1S6vRWX+3Oc+d/SKV7yilEdatjWUkSxsLSj2Uz/1U0XX9jWxU/BiuQyP1v/+mX8f/c7v/E75wpEAJOuaTukx1RZqQdf7GtY9Op8fE/jRH/3R0pDORailw1T3dBxcaHf6BWn76IIQXUHoSF9g1QuZc8/idx3Z29JB1rr7dD5PFnkJ3KK8tBvgB1Tkf/xxx5e5+eBeq48+8IEPLO4AL0ejv9HRhP0IpDRwepEXQrdgF7eLtV3IVD2DcfWcVe/6/iIzM18qMo4RyJ3l14zwgIHzBte/QRn0ybhGnR7U+S/aBq9+9avLqrVJJ8ZCwGg1GNEJ3yf89E//dHl5nviL5r9T7JjYc5uCI/Zzzzt39Ad/8Aflw4RYNOIQhNFslsWejisev9ljHvOYsnRpzidOx+EBba7DxHiIHuQ4+pVjuuSn0/wmZYje17NcOrHyMxUzLh3H0cuxGNRO+rG8lYcu+5LRC1LrpevYgutCyrKfoZ7kZbaLZQBY6ud++dzykjAWK9mnzm19Z9U//RnERezyhKOP2fjIze/TZmE0bpcyEG/Ktk2/Tg/q67PKMgtm+/ze7/3ehr4NA14G98B55eeh8L2CH9nwMld5o5t7geUQ+9DYOot1FXw+rJFUGFzTUFGISUKXnmNCOuHEEwqpP+iBDxqdep1TF26cjv0JHUMAOhCdG9fBXSskXLlAdMR8lCLk4yrk7ncsWWP2x4G+Su+4Y48bMt+w1Oixp0mEjtj9Un7Jc8iv7sB1udYRxSIfUFvJ5KffcrtYPM6ifj4yQu4GQfVLHcVNgLa+262/9PCE9yXkSJ7XvNY1i3XuQyMvoS2Ulra1TdvXSDlgp2WZBKvV/vZv/3bhtww+NSIX5VNWv3VqQDLYK9ei+e8UCw8nKTx3SxbZgTSEa7Xgp2KI5lGLteVtu8dASFodhxfS8RNYQbbjOotzrvFrbl0fNjUR+IjE5+bIWdxpcE/u1aEZHCyy+93vfuVDGH7e6PdWfptwfp31VR9TvvQrQZ/zYvS9733v6OUvf3kZ9Dx9O08OxV2yWc+6b7d13w4MmgZKcnW/9Ayat7r1rcoP69z//vcvbg1ECeKk/dMmk8KyweVmaRNlrJ/u6vwiCwOgj7PGuZ13G0shdiDwfIhRQ+USZ1pFy7XhHwFqcLMh/vWsf93y6SWNjsML9KLWmxzX57aLPB6zSM3s0BEnQfrIxKO3e8ybZqnf7jtvV2ZA5AmUzsJ+0tEiu81yq5s+5qXoG97whrL+OEudbFwjA8Fg4Fgddyp/yP0ZWA0cBswHPOABZREtHxoh0pNOPKlc32twvfkIysAD4+qedqcTn/vc57b0ai/1YWFiT0VD7N5iq1CrAK0wJkE893oJxq3jUTBpdXQsAmTikRqpexpEVJNA31iprC/vfBCO2S/XuOY1ykyRLb32N+wn7DXS90rYdLm0cM1UZaTKJeUbFD8mYWldM17UOdM0y8/wbaIMZkOSsZp3AvchSW2BMMnUx4imN5dlF65xzeLGCPHvNULstnU7J9QIsXMtkRM57xV2TOxtxexbtCsrMo7rNLmnvbeFa4Tjl4FYD6x3Vrywl8Lq2F8Yp290inXqRWvOTULWJ+Ez9W2F2Q70+pB0Kz91kGt7BYSu3ELIXb/Jse1nP/fZ8mLwla98ZbHUEbz3DcrtOreDgY1lr98BQlbf1nJvwziILx2DCeOPS8z65VZDtBKjGTDS33K3jJHrJIwrQ8KiUFdruitzPdiMy0cdvcPhly96kseiPcDCFnugcvyOPiDQMHl02SkI0fxQQjLNKkrX0bFTmAJJn3w5aYbHLOicCIhV6cOjQpLDP9bsvOSzmzBDAzkrHxcKQmWFq49ZQn6aLm4XX1WaAaM+MZrSz+ovh8F+G2c7KP754Y8l7j2cpx9rqhgskWbctxk41gkGGjN0DDytm7kF2XDDMBw+/4XPD0LaOLcXWJorRjCqeTGVX+iurwnzwP2UkT/UdCsvdmI5dHTsBJ/5zGfKp/D0in7NAiK6z33uU+ZS1x201edax+vzewH5qxvDKJa3snsCZpW/+c1vHr3qVa8qbhd9iywmlbslpRzPW0fxTzzpxPJrUY973OPK/P/MeMn1dYVB3JOaAZ5MJ8kqIE9PhQbP8NVekPvSLHZQYf4oQqg/pR4XtgOKycrijvG2nv8vU6M6OmaBhV3rGiITymNy0zmjl/V5VjrrkqGyzkZF258QUFwa6upp1/uq17zmNcWfbiojws8XuDW5Rw7LhHndZrpYivtO33en0Y1udKOtr0eVb937s9lUvl2ovRCeQuqZQkBu9MR7HJyVJRdmYRUyP/J/D9jcXwo0EkWhPArbNlotiBqTzgOXjMfFfLrrE+MMHCCP+BK3FGU4XNdH5Y7dgRd/ISzk9va3v71M4aOXOmXRm6ZDOWZQeOxmrfOvAyLM16jR1Xa7l9jS+wr6DNfTW97ylmKhm4jgnHiZIYSIijw2n2AiD3Wq6zWtju7JdWlmn6XLf/6A739A+dDoxje5cZmOWlu+5d7hbztPUHsFZUPqvsD1LQQcedTmKpb+NmWm7rjPkx4DFE9ZFkV9xaFXRT7+psgz2E6cSVg6sYMK60Bf/9rXt/x0LcYVelpFsl4FxSRkj3GxOICw/EPwOnT9YUrHYYxN1ePK86PEsaLoZKuX9CrT/KzUyAfMt+oYysvEAVs612z3CnU5BOXldkHmb3rTm8rXo558DU6Jg2SEmpSc33p5OezXaI8D90mX0SU9sDa5X4u6973vPbrb3e5WrF3nGFrJH7Jfn1tX0A0vRj/1qU9tPeGUwWgQX2RoG04yhVQ8xM4Ydf+kuub+9nx7PA+WSuwKYnQyYnkc+ddP/2tpeCRbIwWeVpE2jspTHtMgdVJCJjjCtWV5FMUaotf32K/T7Th8oN29SKQbniCtG464nQ9Z17pBfxyz1n357KUponO+kB3lGpB72u1eQhlYida5Rz4vetGLioXJGFJ//XIc9BGySF8RT11DNsG0OiJ2acRC9UPdZc7/7W5XPvApFrq/Rl62CeuIyCDl45LhYonV7nwtJ8e4j7wFgymQJ8PUjKDoXWRcdKqqfi2LReSydItdYXQGW1+Pfu38r5XK6BylgacUfFJFCEAowhgs8ksvu7QsNuYrLy/DPGIie+cMKARo5IwyS3dS2ougbfiO9QO9M/B7R8MtgYSgdKpGL+IztTwsNwzfcEgv1jrknna7KkT/YVJeBiyEzt3kBakXxYiFMeQeIWm00K/SN8UJ+dSYlK/zyIzb5bTbnlbkdsc73HF0kxvfZHTMsRs/QgLySBrtdp2RwV49DFzkim9iVNYguzy9eIegTcTnZeDB8BTlXmmaaMKK59KpUctkEfkstLrjJEiSRe3T5Le99W2j875yXjlHAaZhUkXcW490LWFLl5AE+0jdRyWUzfSqfBZMmB4JI1SQtjTSSPKxb3ByrVbM5AuuTcIiDdKxXGg/7hcr9JldpeOl7dp2Qt6mQbI0f/mXf7l0zvKBzhCtWFZgv7lv1e2tDFtPDUd8Y565Jwt5eyGMzBlSyB2h0FXxot8J45Dz4qafjYufY3EE8fU1kyX8kpGZLvqdr0YRVtKzLWXfvH9SuusG5aY/KR9OMHCeeeaZxZBs+ayur2t5ksE5QAbOmz55q1vdqriqvKAP3FfLYhG5LJ3Yk5wRTUd62cteVqxqhVSxaZhUEWkm1Gjj5zphAqVD4glGXD7TbHUM+2Y95MMqaZafMttUzBCBjqJhg7o8bTkm1aNj90EXPvnJT47+/M//vGyRHYxrI3HpqBkcP/ETP7Ghr5q4ibrb7U3PCrlf9Y3lqxGO+fgsQXPRbS+68KLyy1T0NASzjLK6J7quT8lbMAPOFEaEzo+etaLaPHJvsIwy7RaUXVBfxipi996C7MmirltbzxbaROBz947QujhcVvgnPvgai8hlqcTeVtIjiA8hzJtF9OlUkzCpItJqizmt2NLJICJPwkTMsegpvm0CgvfYzUJj5SN7gidwfjUr/A0lKOnJV9rl0bwqbl32RRqkY7nQXqb6Pf/5zy+PxXQBxrWRzqvT/dzP/dzorne96zfFic6151fd3iXf8m8jf3WwProPYbw3QDIxOqLvyjSOZBctKxl5Avb5vxlDVmHUX6Qr6GP6Wp1P21eXXaZVIq4VH0m+5z3vKU9E3ls4Vz/BB21da2gX8tMuBgW/i+tnQFnv9E569f2LyGWlxK4SOpPHYP4l5A6TGn1SRcRpi9ke15BOhETRa6ubQG2j/DpErtkn4GOOPmZ0/Akb1jyCP/Xap46+9T99a7HyKTXl9QRQoy77pHp07D60PyvLy0TvYLS19hFaHRLXY/Pv/u7vHvKIHCR+277Lbu+UcRx8y4HMkboXpd4p0V2InteD1zLKSt/1ZWn7UtSSxX5gxD7jh9yki7DkzegphtVmVq2cl1GmZWBSe9bgEze7iMwZqiZvqFtrYWe/rWuNtI249s3n/4Ef+IHyy0sMTOnW9y8il5X42ANJe1NvpPP5MqXMi00/n+d6O2NmEsSdt6gRFMWzdVwLy7kIOch1cTMQ+FV0X85l2hJS57rhT/Q4amsAyBNAOpp8o/QGjbahdJb6ujyDcWXqmB+MCeuh0D+P0tNA5p7auG20+yysql1i2dV6g8Q/+f8+OXrf+983+sAHPlAsRqAzgnuUP3pT6w/MU9aQD12WDxlaB8q7B08yvsTVBxhA5qXLK+mX70mG3VqXZ2Gesi0LRVamRg/8o76gb+uP+q8B01o63l14Isq6/bG46zJvp/xb8tlsF8eMCO4YPwNK1lC32yJyWSmxA6FZxMuo58s3Ix7LIi9+tovSEDsoqkZo781+fW5SWXK+3kqzDE5Dp6MMrHgvRJCCwLJ3zK1zysmnbM3fFTekDymXa0k/2E7Z5kHyOdyAmLzE98WlucXTQEYI7OlPe3r5JZ+6DcZhZfIcsh00o+wajLwc9YPKH/unj40+d/bnig4J/O5WmgwRt7pVY56yInJBH73G1a9RPiziNuBPt4JrMV6OOHJDr4c/ZV1EX/dKL5U55VYGcmR4cnNx33G/4CvnF9WF9rpjhqIXqI997GOLTOVRx5uV5jSsjNhjJVM2SmL9hDe+8Y3lkYaPymg1z6jeFnOeYkdA9T2LVDv3SldQRyTvvGONFP+8tbv9tNeNbnyjLeteqC3CugGlkXSCen+naNOEcecOGkLsLPbMK54EOqutuGK0XQvyqrFK2bEMWekIxgdGpvayMP0hn1iWrObMlKnLt0hZ6bK0LaF7u++6XXEVcLswTOita3V6bV7zYi91MBY4+fkJRW67j3z4I+W3IJwja/WbVcdZdWivO2b8WQzNvH9y1b71D2AvIpfVEfsVV5bHHMpgxMvHE8997nPLiGi0ItTtoi3mosXe6f2ETREotzr6IQZpOSe4XjeIuoOGMw2MS4fvnmWoYUP0jln47mUp1YPeIg0MyidMSmfR9NcZPgzhimGxe7yeBk+SZnc88YlPLE9eLVqdWaXcuC+5Asy9V+76PZE+pe84B2250t4QnYRx8cbVgZvFKq13vvOdy8tRehlDZFz8Nt15sUo5tmVr8yJHA/6HP/zh8mVyli92XziqHTTHQbpJW3z7ZJ/72nwdewJ6/OMfX/o/17QBukZ7zzxYGbF7TJR0CovgWE8U9S//8i/LFEiC2ykWKXburdOYR4jiCuPSadHmIWQQ0EkF1j2yN10MofDf60wsfL57FpSOJejU0iDPWumcFwLnSti08rY+sKmqKZ0W487tZ3C/+Jk3s7N04Gn182RpddLf+Z3fKYPrqqBdMuADgtbG8veyjtsly+mG0BOUv65DnU59XlyIgZBjCOFEd+igLUL3cVZ86YwNTy7TCCqo058m490G+QjKZ5unEfsInLHJi+DHV1jseRqKnNW9lnFdT2jr6jjx5eX+tKFj++J4+fygBz2oTBX1hJ/8arTH82BlxJ5k6+R1LHNALUrks1wC3CkWKfa4ss0rxDb+IuXR+CHmNDAl0NEMfoheh/MTYvYNALlPXFs+z0N+73MTylUGWX/DfuJDGxfGndvP0HlZ66bcziJ2hgcZ+1V6sl+VLOh9Orh2Mz+dexLBcLvoG7HSYV59RVzaWD4GC/cVHRnOw9bxkLcPshwzIKzvYl51lqg1uEUncx+My3u7ZdsrKF/kqe5mSJE3V5cPu8jbuzI6UHsS2rrU9YT6uvukrc8idx+Kgb7smnOsc5a6gdOUUXHdMw6LyHHXiF0lCdILVFMgVdbouFMsWuxF75/V4NuFdNKwGl46znk085GU/eRlq8OxpFj4XtKy7E3Ns6U0XnaxAGpfnTRLMGMhGJKs0w7a4/0OndnMhhe84AXFAp5WP53aUxJiJ8tVykJbS1+ZfMj3jne8o1jrCKY1eKJbtY5NKxsSEZdexRrMOXDsz2BPn7wQ9ZujrMi63u6v86nv3y9Q7xC6QcpAz+1iMoe1dLiIDX5kjpNgWv3qNoA6Lnm5To/se49IvtK25Xq1KBor3TuL9PtJWETOu0bsyPwpT3lK+frPOYUuijP8sViiRNstzqLFXvT+Vug7Tc99go4eJaAYwGp0zjXwRaz3FrlOUcnNlhKxOBC+jsryZOWzCJx3Xbxx5azrsogyrRs8qXAFvu1tbxs973nPK5bwtM6kg3M9IHYfrC2KyHqcTBG4j11MXUQ0LHbtjFzch4xyf7uFae2UOtKlDCAJYEsXuABPP/30Yj1avMt59zg/DtPqs65IXwHcg9Ajb3VNHyInx+o4rX51G0Ad177rtfy1p77nYy4Ly/kYKXno29PymnZtFlZK7JRT4c1f9yhsISYjpAILBGArHtKC7c5rXxTLrvYi6VGqmnDaBp12HN955uOGHBA6hdJJPWaz8lljyB7xe8wW8iiYe+1rM6jbSP0E+215glxfFyBqdfExz7Oe9ayyvse08qm/+L/wC79QZiosCukpQx7RkYj8M/3XEywfL/1HAkKwiBzTZvKVpncz6uVYmVjxCMaPSLPSA0aW+wyG0tivoIfqWfRx+Pvil75YdOBd73rXlmGpj6Rt7KuvJ1pGZo22Hdw7CdIgazI3oJCzdei5XsjZE/Yi7ToPVkrsXC0CHycXjMegojiblQuBEEQUaUXF+SYsO5/dKjfUyhFCoJw+pMoaN1dcfsWW/xQoOgIRzzS2a15rCIN175HQTBDkH3eOwcB9QtqL9ZvfCdVWmcfc1rsu214jhoV1VJ797GeXGQ/kMAnKrl5nPOyM0Q/+4A8WIt4Jiuy4vQZRkFUI9eKLLh798yf+ubwcZambsaPNyFUb1lhEjghLfp74EA2S8YTgacTLYXPSTWE0qOc9jvyRYMnXv2GbsF9BvmbgcXNxu1x4wcY6Oub+043ygdXQPlmDR9B2tY609W/1vYW2Jk/9yktoHyCZEIHkc+9uyHRlxA5InVXywhe+sMzDpWQRoBAB6nz2FWVapWddnwfLrvYKxTgVZFeUc+iYOnDpoIOMKLDg+JBzR274EWsySVzBi1kWveBFrS3F1HYU1la8uh3qui+rfZYJXw6aZuvFJNKbhDyWG+h+6Zd+aesl9U4Qa1mHtu8jIxYjUvfkIC86nzjaxdTZ9IlF5Ugv5KEPInV1YTn68RAvSaWvLbVdmTlV6++QtesJ+wnkqY0/97nPleminoys7klnU8cMtEXuw3kk71rqeogsGky65ry0DJR86F5Ck3M7dXm3sHRiLwQ9KArL0VdzL3nJS8pMGCDwCM9WvMx1J2xFGadIBON8OkKOZ2Fc1Uq+w/lck1byHRd/u1jk3kWQfJVfyOCJ5HVq19VRR0+cBKjvzyCRa7bSY9lz4eSLWi8Y7bvG0td+STNhneBJ0SJg5ikjOXUOiYdIIZarzvkbv/Ebxe8c+dBd94D6OU9/J7ktXEcYSIXVaF66JwauSHnWcs5xnc4sGbqurKDdUk5wTZrFKh3aSHv5AWmWuncH7qMfrpW8r9b0p2HXccJ+QGmPIWhfA7iPIb3XSx1Z7+Efbl+yjttF/fGQ+10Xv5zfbI9atvV+4B5xPRF50kPsjKIMIK7V89R3Q6ZLJ3bKBCpkbqgOlTU6VLSF7ClmiB3aijsu08IGhWRpOrYv6GzuT7wcl7ibgs21GvJyTtCwrW9tXixZjHMheVOgul726xC0sqiPsz8pjjwQICVmjSB4wRebtgYAlpB20KnSObSHtmDVaB/ppUylfKzG4a+QzNAB2vwXgQ6N1H0/wXqXdspWy0W9DALwwz/8w6WTuleZEfLxx23MbVdOdXGvusQadC71Eh+Re3Hr15vMp0+dSn2HkLhkYxu5QLbj0KajHoI8bLnU7GsLVvr97ne/MoUR8k4mJEPuWxhOTcp/Wnn2GtoIxyBybhdTGJ0TgEzq8uMS54rch79anpP2och5kB9XjrRdl4bB0ktoyz3rB0Huyzaoy1LvLxMrIXaF9Sj0zGc+s/yUFGHIZtyL0bbydXFqwYagKb8OqDMRKgGnYwT23VsaYgjphEmvNOyRw/lqrQ3pirtT1PkfVJCzQE7agMwca/PImJUbX73ZOJTeIMCytxXcX6elLWMNg3TSXmmznSBpaGcfxj31z55aXIIGHnm7Xre5crDslIV1yx3jnCBeXZakHV1yLE33Wz6D1cj14qMX+R919MYa6blXyD609ZxWb/mANhDPIALK6VhZ/Yi0WRi+IC3lHNoKCrEPSSf9bDOwtueD9ngvEdmTg7obrBmRAt5xjazbfg+T6lW3SQZ9TzX1/Rl4cY60GTZxb/lCV1xPe0HSyxYm5b9srMQVQyAehSyV6qMQCkgYdScKxlU++ypdB/dLX2MiEx2QcDWEffe5rsEjfOfafF13TUO5V9o5t124Z1yZDzLqOqY9nBMcQ/ZzTNHzZS1S91KJa4DPV5uxKrUBHZFeOo+Q/JLWvKjvZ9E97WlPK37X+L1baH9BuZT7CU94Qpl3LK40av1A6MXqHbKgO36ukdvlIx/5SLEYDSD0FNkqR9K2nzAN0+pMTq7H1Wb2k36m3D56MRPDy1F1uPpJVy8G1SDRck8s9SD5tOVp859Wnt0EGer7ZOAbAPK2vouZd2YbKSc5xCpXL0/jqd+0ekX3yFU+GTi1b+7PIIrIzZwygJJzCL1OL/fUsp2W/zKxVGKXlOCrrqc+9anFt0goFsK65NJLSiUIu0ayr4uR/VTaMUFrMCFC5+/1iOnxh2VoQDE/VQczcpu3zGJyf9Ko3TO2ygcp17i8g5wbd63eP6hIvUF9HetAg3S3BtLEIVf7iA10Rud0ACSPzHUkZI/ctZ8t0ndO+7ruflshhLZd1G3J92oxMC/yHTMIlClxbLfqtJkfgmS10zkf2BkQ6jggDe6bz37ms8Xt8tF/+mjRf7JQ3gwiISOhznMS6nomz5zLfbU8fKSmL/gBblY6GULaAZJOjTbNYFK83UBkB8ol5Nj6TNryrH87q0yfNo0RoYP7ooPRG8dkkPrNqpfjyDVckWPB0ygr3cBp+WJ6infkIc9Y+5A8a9mOy28VWCqxG+kIk7CtkEeZCUdlo2B1RbJfF2FccZzLvdJHAr6U89bZ/GzpiyOUhvWsOeDrF3y9EDt/o8YXPCYjfmUVjMAlz+Gfey++ZGNENhUKuGrUQWNpuLwESX7l3gHZHjTU7TUO4+rtnqLcw6VMuUw6acf6OGm4B/GbhaMDaVuzcrh1+O8ds07dIy5dEOzX6dTpB3TRB0E+kvvC579Qfmg5Fu+4ex0bgH76p3+6EHz02DZpI3TzohkwdD4fGeW6NJIuOF/kMiDn63wngT4PKW3dLw+DDd3l4kIwZmFwg437gRAYV5Z5MG/8RcB1FfeWOjIatIX2ImMvor23yI9KjytbkRUX8PBHXpNQ32ufPslXO0de+j05MzrwDkPSfq61+Y8rzyTME3ceLN1i98jrKz8fJBnNdAaNw3JRiTq7VKo+N6k4OpGvKfOjuT6wiFXinhB6Ho/L4+eQPosSHFMMlpetxzgB2bPs8+gsH9uMwhoYKUhfo2vIEEk6nPwnlfugo653kckQyE2Hcy3km7aut7m3TaOQ9tBuHqGlpVNx3SB2hI/cBRa+pzY6JtAxhKeN5Jn0BG2o7X2oZAqcPJyTd8oU5Nj2Tne60+jHfuzHSv4Z4OkHv66FunzFaI40A4LLSRnoinKLK0B82OPqPK4MNaJ3ZMqHL33vL5CL/sB6VD55iwfj0qsJblp+4zBv/J2ilovyCvJmnJE1N9c/ffSfisFwycWXlC3U5av36/TGoY6rrRxrZ7J2TK/McCFnT0NInY5BBpXIHOr0toN5428XSyV2ysyC+f3f//2tx1FCQJIE1CKVaoswrkhI3DKiLJOb3fRmo+OO31gZUh7iG50nLYK19eZ/uFSuD4cUwr3KbIvQi2X/pXNG533lvNJxDVIW2teZpKNDCyEtafkDnXanGFffdcGsstXXIxNPNfmhCrKqrdx6m3uzdS5ESJyRqetpZ52IwcCVgshs479HdKz7DALiiS9eSM+6MdwxBnPppTw1ck5ZpGWGzJ3vdOeiM/Sa5e9lrJd19Eb96Dddouvuk5fjELw065A6bxf6ET2Urjpyu+gP3/M931MGFPIRQPp1nsG8edao01klIjPQtzxB+wbAB12+iWGxx1igWwZndRWCeepcx40MpU13PD0yIC0H4OcAPUmKL44ySlu+MSJ2glXJdanEjvRMN/K4G8UiAEpJGI7rimS/LYJj13IP6+w+97lPmbal8xJk7mnTnAVp1hzMwq/L4bqt8utI/Hksez57VhkLH+E7F8uecsXCF5LGdsuVOqRO89wLuS/K7XjeNCYhaU9CfT35OVcrPuRavc29bR6ls2z67iNL2+yD+0u8TV1wzTkEjujoDGueC4fFxepH9oihfIn4sY9vud1apIwsfPchz4c97GGl/VnpXC/cedo9SHnqNnAuabV1hHHnatT3GjzUzVOrGTssSG4XRO9aSy65t8as/CZhXFrLRGQFaWOyJ2NWetalR+TI1RO3Oqu7AHXd6vK2dXasjcSho1C3mQFa2nTHFMZ73vOeZSBF9MuUabAq2S6V2L2Z/7M/+7PyllqBKZuGInxbqCsyrVKu6ThGTY+afmmEb31VaMWQY9Y+N04UTqBYOjlrTZ0poDU/4t5h+SN991AeipL7IfXOMTk5V8exnSafGnV6dR5CnV6w3XS3gzpdSBmShzqlLDVyXN+f++q47fV6C226Leiezsq4YBS4Vxt97fyvlfcnMCmNEDf3jwFCW7LYDfbuCSHUCMG2danLDO1xDddCPmDf4MQFyXr0cnTcE/B+RUiafJG3p2SzXax6idAZWPqcOGRTy64m5WBSe25hiMpoEC/ppa38wLQZL5YDYK1r+7otgvp4rrx3CUsjdslQeta6FxuOZ1kRs4Tg/tNOO23rRSkrbFWYVwzip/wUkuIhdIEbB9kjfQERUE77tggjpB8yl1YIPoMJ1PmMQ5ROvKTnXM4712JaevOilduk4zbPHLfx23j19exPSrNF4kUWQjlX/m1cg3HpiEd2AjdfIZXhDwlBnWaQ/Ta9SelPg4EoFqolDvj6vST1MllZDhLIgt4idAaT2UXWSOeC0a9cV2dxhElyD8bJG8p9w1/pJ0P/kqZ29LTNlUfOVrrMyqiekLbum5JH3ZaT8t5tLETsbk1FCMtjKovd4y6LQiPUmCacFu41ej7kIQ8pc0UpeDtQLBPbFsMQjVKk7gnl0nCu1HmIgwSKAg3HHisprTVCWPaInrXPpYPsKRbCiFsnyiu9WeUS10Dg/QIycF8Iqb63Lucy0ZZv0nGbd47b+G28WelPQl3ftAP9EXTmuh3HQXxtIr44nsCk55E81x3XOpn8sg3aY5DmUMKiJ+Og/5jz74Wd6XWeNpwbl99+h8XRzv782eWjLhyin6QvpI7kpR3r+gfbkTdIQwihS196PAE4houLzMNd8pNWBvEak/JYF+yY2AuhDLdG0BriZS97WQmsVo8wCK3GNOFIiwBtpa0DEbalRTOFq3TIFWG7YmjL3KK8qB2i1PHaeiOM8qL2nHMK4ceq90LPea4CskP+eUEUcorcA2lnWpfzuUZWkaf87KetxqWxU9TpwKTjNo8ct/HbeLPSn4Qil836Z5DToWvLbxoi75Ap/QZWHHmGdGqdTNnbOrTHQTk/VMfsH3nJk+Wo73zX7b5rdPvTbz+69a1uvZHnlRsvoL17MIjX+e4H1DInT+0h0HN+9Le+9a3F7UIGMW7sB+Kqf9pUgHGybc85zjlpCowgvvNv/7ZvL3LmEeD2VTZxS/qy2ExqXJrrjB0Tuw8FKCTFB+T0nOc8p8w60DCUE1kF4wSRc2moNDjBexR61KMeVb7805jijutEe42Ib5wYU8btlBVxIHKKjthZ81xbiD7E77ytQEYIxjbySz7kFBJzXZoUuSb2SVhUrq0c2uNF0k9adZrT0su1xM+xbVuuFrkeIqnhfnLN/iS01+pj+9pB2mkPbcSPzqC5/ffevsz2CTxdsPAhs7+m5b0uiOxsGSm2Zk15cc1d+Q8f2vj1qM+d/bkhkn8b/b9G0kidczwJtVwSN9whbS5ds4q8HEXoZj45F/6Zhv0gc9i5xX7loJTDXxHGYKWe8+VzRk960pPKj1RLkuWBqIJxAmnPOabkBovMRLB+9Has4L1CxDdOjCnjrLK6V5x6Sw6XXzZYLkOHRuCseb57PkgdgmsAwSNt12wFnUf8oC7XpHLU52eVdRZaObTHi6SftLLdblptvBy3ZZsXs+6flC8gmhCYKZtmYXAFIHY+3pNOPGm4oVwukFchdv8202m36wjlVk88YRt9NWXU9MWPfPgjhUcYMOJ4OmmJfV7U8pBWXC4GSgYjGeOXb/2Wby2EXi+zMG+briuW8vLUjzrwkf3mb/5m8a+rPGXViDBJGPV5+4KG8PGFldIElv84TEpztxHxjRNjyjirrO29jhF75ubbT3ANcSNwVv6ll1w6+vwXPl+seh2GVY/4vXQifwOAbdwH5CudGnX5FpXrODnU51aR/iy0eeZ4J2nVcH/SikwdT6pjfR7ReKIyBdPsC7+wIyAfbeuaOEExbgaEhJLWpLzWCXSOrHCDj7kYf9wv3jd5d2aQy1NoXlguglomaRdWudkunoYYizhGmeQt5J5ZOrEf5A1LIXZumQ9/5MOjJz/5yWXkBY+V8UtOEkZ93n6sGFO7fuAHfqDM1a3nj9ZFXRcBp0zjxJgybresSWNS/JByfR35s+JcQ9xkzqrXDtw59vnxkbsnKMEgYGuGTj7fTgeIojuWJsivDsqZkOvjkPPitcRX35N0toN54gZt+epy7RS5F/naN3DaOiY/cKzets6FqLUTf66Xdl6MWrKAzusz4iqf+IeUe8iOZZtz7XZdQYcYF5by8NWopRd8E0Jerim/oJ+TC51kFE5C5CNEvvYj8xyD6yxykzDMriNrLhjnci+0snZtEup464ylEDsBveENbyjL9EouSUZwk9AKiYDda4U6a2Gbr8tyEa8t5roJeJoYl1nW5FPnV6fPsit/m9d1IJ0lAaGH7MuUzPO/NrrwogsL8bPydS6B1ei47ii2dSfItTr/GsogtPc5V+4d/pR10v3LRptPLcN50d4b3Q2yj7yEWOAsUlY6Hfc1I2udlU4WUMq4Wcxx5W3P7ZbspqGUS6GHf/UAR3+QuOnPLHXr03uqJItFoM71oBCeCVfwIFgLiJXOh17kfMtbjU4+ZWNO+uGAhYnd7cLrX//60TOf8czSuAS9nWRrpUx8gvdS44d+6IfKugxpiDa9+t51wLT6LrOsyafObzvpi1/fqwMib5a9zhbity/kpS2rn8UVwk8ngqSZdKEti2vOpeNvnPTvG/ftVluOK9tOQS/JggyRGCtT+t6L+Ik7+94VkbMgjq9YETn9ZrSccvIpZZ32Uq7NopT9zWLaL8cDJpU11/cSGbxAOekJ/TEX3VIAll5wnQxsQ/6LwP2RT3TSPnL35bE5//khaQTv2uFC6rA0Yn/ta187+ou/+IttkzrUSuk+je5x1NIBj3nMY7b86+PSq+9dB0yr87LLul351nCPQLnr8uR8iPeiCy8affX8r27NxMl0TKSP4L3AdT7HtjXZ12nHTYS0ypS+K4d4w7Ey6OSQ/MehlGuJsmvTmpTvPFB36apPSa/82yi3eiZwByB0fnT7XA/l6Wq4p5B7EdRmGf0bttPK217bS5ABMucGRNp851wuvh6lL3HPps3n4YgW7hPwhHQ8FeANZG4gNYWRhe7lKHJ3TvzkPU6uBxFLIXYCfs1rXlOIfZ7kWgFTCp3AbBgWez4GGZfmujXOtHovu6zzyjhtlGMyDurzW3EHAs6PE+g0Oq0OxDo1BbMmenPx488P4WtH99i6P2nX8+1bOCdO0JZrGWjTGVeO7UL5pBdCV0/7CMc+krOPxL2sYznG7cId434ycq940qpl0G6DlLk9v1eIHNSZH91LUYRuSV06kYGN7oirruqQMC+26j3cGl2SPkInZ6TuaYhRiNTJGFjymV0n/rrIb1VYmNg1lmCZ3mc/+9mbZ7eHVriUg9B9lITYNQyMK+JBb5hZqGUyTRaJZ5t488iu3D/8y1eagvZOusgd0WdGDmJ3HEvfQIDgdWydzPXc226hLZtr067Pg3FpL4qkGYITpOvlqGmLiMa6I+Xl6FEDgVeLzoH7IPfV16A9XjcYwBA4/zlfuhkvaXNIneJXj+7stF7ul3YGQ7NqPAV5Z2FJgDwNFQzNKy9/4vrb2t8MBxVLIXaE/MpXvnL03Oc+d/PsNyB5ZD0um1qwrksLmVtG4NGPfnTxW04q3kFulGViltyXBVa+ryNZ5V7G6uxe1LLodX77XtB6TA/528bCR/z0COrytWVdpOztvZN0aycI4SB074ZYjV7cIRu+dX1AgHnyXUVbLQva0w9IWwqAL53bxfTbPO3VSN2RKyDYnUC65Iy8LbOA0K2j40dGfDvjetwuBUM2zhU5boqyluk6y3cRLEzsOqNO/cpXvbL8wAZBSdJ5Aqbw2baohSq++0xFsujXIx/5yK1pSeNwUBtk2Rgnv2XKLulnq+Oy7rW34Ly2jWsGocfKzwwd1j4rL1/WxncvPt2py7tI2dt7J+nWToC4WI+IxgqMCJ07gKXqS8tCbDso+l7oeTtnvoV2rf3ofoNBe5YP6oZr9VOJrRBdIAsIsSde3RbjzgWukbOBkx/dkgvXue51igW/NXhs3t9i3PlJcfc7FiJ2t+p8hGNWjCUFct5ozvrWoIQuXotaqGl4Fo+1181j9xHBJBzUBlkF0sSrkFmtPvOkj+yFWPMhelsEj/CRvOP48JG9e+iKAPJMGXRsx4lTnwvq8tb724F0pOc+6Ts2CCFw/l1zpfnRLSTlZZ7rW+XYfJFcl6XGTuW4bCgH+UFd10CbWNOFhc6fzkp33QDmPvFbmdt3DsQVpz7X1l1wLvEM7tJmkfOl+0KX+8Wc9BOOP6HItUWdJkinxbhzBwULEXsevzWq3yH0A9Z5IaQT5pEoLzHSUEErWI0url+GYbHzl03CQW6UVaCV/bohaqgDc8t4WRvSR/R89sjdvnMh/QsvuHB00cUbc/BTR3oUcs85IYQTOSTP7UDchDod7oB8on6b29ymuA/Li7ohXvu0MQ0py3bjrwxDMbIoGaQ8DLW8HM1HRs6Rcwh6EiKrIPHTRq7lXLb1S09yROqehMws8mGXgTO+9JS1RStLx2sj5xVjIWL3IYDHbha5DxB+7/d+b2tqk4bRSBpPA+isLdrGduxPR3n0Dz66WEGTcNAb5nBErYppX+c87Ql0iIWMxAXGA7LnxvGxFZcOskf6yD/EXoedwr3SM9ggbx8Z+fENX0eb8cKP7mkz8RBkIfYJ7ox1Risv70n86AVfOnInY26XuFzUVz9P/BZtXxXPE4wvnut8wL70ChcMAbd4V4HUbVnsZhVtTaXdvGcc6nzbMhx0LETsyFsjsLLPOuus0W//9m+XTgaS5U9j0WuIWOw1amEjdqOzp4Bv+dZvKfPYWUGTcLg11OGCaToS8nCOvtinVwie9Zhw/lfPL3PxkTtSskaJAcE1ce3X5GE/6Y1DykCPpcn1wpd+j3vc45u+aJRG0sm5dURd11rGNQyQn/jEJ8rTOMPNsYHNAMsPf+RRRx7yo+Oz5NfCwFfLC+xLi+y4Wgyadzj9DqMb3uiGWx4APCHNQu4DhhSKQRiiD8SZlPdBx0LErgEExM5iYrFTAI3CwtrysR91dCF4WU0StPNpaB3nwQ9+8Oje9773lhXU3jfruGN/Y1ybOxdCnkSa4sS6Z9XHZWMAQMpe+mVqpi2XArL3VNm+B5KWQeDqJ129kBdLXRw/fuHnGj1ZHnfscYPybcRfdx1Unxo5tkWSebogN/PQ/egF1wsr3blieA3yD4lrA/dlKuw8iKxyv3STpqcfhO7LUR8Z+XIUyN5195b8NrMsaY0Rfd0e6942y8bCL08tAEbYprj59aT3vPs9pRPkkRWMpmn8aQLONZ3MFCbTHi2zWRRoCDXadA63hjucMUuPoKh1+fcNi5BOInnHSP0lL3lJeRHoHAMC+ddAYAiNf9c+8jEn/YwzzigrBcbHG6y7DkYOh2z9G7b6F+PLS+uPfexjxUpH6OSk7tOQ9LYL8cmq9OuB2C3B4ByDzns1KzAidm4XcRiIua9GPjiahLo9Djd+WOhZMY2DyAnf/N3jT9gk80qQOhdMEq4G02mKNTb8sbbMj/WbhyymeRWno4OusUDppydBAREjCwGJIy26VkhtsAYP0dlB5wT30Ev6bSbGgx70oDLV7kDo5FCF0jeHansBzY/+ohe9aPTSl760fGjEjdXKZVGw+smUPLXB1y/4enFxcbvc6173KpMmPA3lQyPxJ2J5xTpwWNgJmBcoOofGYPmA4xrTlKO+lscySuUxmcVUOlHn9o4dIAQthORZpV4EmqqHXJyncy1Zs1Q9dYrjZSlSZ7E718bdz/Be7OUvf/noxS9+8ehd73rXlkEVUm1dVNOgL6c/k1Hb78lSn/b05MWoOeleQD/0oQ/d+tF605zdV/LV9Q+QrHcLCxF7BK5jCKZ++ahI5xmnDGn0caEeCKRrtgMLguUO4nR0wHZ1gR7VIeesOsgiZa3XSByQBx1G4ny+XIN86qxLyHY/QL0Qavqkujl33lfOG73/fe8fnXnmmaM3vvGNhdAjkzxBbwfSS8hxtgISj6VusFQO5z3h+17FV+b86dc+5drlfRwonzi2CS2S/qQQ1PuHCxa22CGCNNLe+MY3LqO9eaaLgIJ9+tOfLi9wzGHOk0FHx3awRQb+WUVxCAiFLvlaktUO0wjgxBNOLC9ZfXh017ve9RBLvTZE1hnKa6ZZ2W4SNTn4WpSF/qxnP6v8RF1mFomDhNUPCZPJPHV1v/ukwd1i3/3Ska/rDEBul8c+9rHFSr/+9a6/8aHRgMgX3LNov1/k3v2MpWknAXLDeKnkEWtei6Y04mYjZMtq/9CHPlQWF/KCq6NjHrSdGrn7rU1T+BBZTSLjcNnll41uetOblh9UZ7DsR5CB+eL6pH3GknWdTHT4m7/5m9FnP/vZYkSFkMmklVt7PA2mOCN189wZePL1tOB9Bk7gP7fA3yMe8YjyBWlctx3LxVLNDo3oJYgf5uVH2wkGei9/3DlGfNPT3va2txULg/LNo2Qdhy+iJ97ZxOpjHPhqMtMfW2IXh3VJz4Dr4L73vW+Zcte6bdYR0wYqAxn/+Qte8ILR6173ujLzxVRQfRbUHfHGUp816NVIvxTyjswc92OO3rDYzSry4vn7v//7Rw984APLvncW8jYIaJ+O5WIhYk9jJiBjL0O8YMq0su0g95f4Qxvbp2AaHVgZL3vZy8ovsbACStzB+oqVIaQzdnQEWzo1gD596ZwvlfnZ3DCtvogbfXMPFwwDhYVpGp7749IpYYgzK+wFGFR+LEWfMHhxr1hS15Lar3jFK8rvjvrmhOujkOpQ7wR1tCWbecofWRoIcYB0nDN90js3MvQbC4g9vxzFl15cRJvy7FgujvzfAzb3FwaloEwCMqZUGjmIsojXwjnXbY3gdVxK4pHR45zRn7KwLjz2sRAo8XBX98N3fBOiU5dedml5X8OtZ9kLBFSjEPcQl66JT8dY674wRYCsy+hk0OrarONVge9an1MH9fKLTJ4w9BfuFr70DGgMoxhC4qtX6uY8KPd2yx75CsrhRamA5LllfWTIj25ten1XXoUTpnB5m/d2yzIOi9y7n7FUYg80qo8bfMqdRp+GxEnHSSerwS3D527pAkrrl2hOPOnE0unE50dcdSPWZVp1Xh2LoyYdFvib3vSmMssKudHRWJp1WyIlL0nN2HjUox5V9uOiaC3LVgdmHa8K8lGnzA1nkXuP4AMsq656elb+1FefEXeQTHmP4J7o9rxlFl+IrMnVj4p42Xz/+9+/kLsvR8mwDBxDNiXuphG2nbAIFr1/v2LpFnsUhLWA2Pn2ygg9YJbyuC5unQ7YpxSsEU8B5rd7CeYTcXEpbB4DdwuHq8LsJxQiHppJWyG7t771rcU4oEssR3pDt9KWtlwZ3IneFVkLBiHRK8SZtcSDVgdmHS8KrotiaVsjpUpaPoWoh60n5fe+971lCqNBLDNRlN9++mIh2OEv/S3bcmlTJnW/zbVxyDUz4QyI3C6mh3rxzEpPvkK+QE/a4zAtr3mxzLT2ExZaUmAcJCdwnTz5yU8ua8cUC+HoY4rPbRwIX3DfsFdG81gXkDTTSLY6Wx4jKYmplnyifkmFxcBKoFTO2+ZeSiatDAI6uWvKGMjbudwj/iwkbsd6QduxSEN2PsZxjs607Yq4fQlp3vov/MIvlLnV9EK88kHN5k/bTUKrA8vSiZSTrtqnu9JOPcAcdJMMTF3MF6OBeEkDcq9tylhfr6/V99ZxY+Ufe8yxo2OOPaZMYbQCo8FQPyS3Nu06vVzbDuaJ27GBpRN7wFL3skZIY2ZmQdtQ447rYmV/UlHFD9GzsGxZMAjd23fkbg1nlphOy7KgiLlX/MDaNxmAdBrX6zAJ06517B1YudYxesMb3jB69atfXSx27doO3kgTGdFRs2B+5md+ZmvZ6OjvLLQ6sCydiNVNT6XpqVVZHZvZYl4+l4snWfP01YX+B23/mVYu16zYKE/vJUpfGowy+bO2QTriyYOr6rTbnja6053vVN5H6IfO1YZSKzv3bkeewbTydozHyoidIlC0P//zPy8LLVHGcVml0erGaxs++5OKSpEpovsoW9wyysDS0lkRPkJH7AjfIyPCR/DI3y/fUMZaIWvIu86/Vbb2uGM9gNi5BZ9/5vOL1c7VgtjpDMTidUxftP/d73730Y/8yI+UNWWAdYrgWh1osWqdyIvPsuLpVf8x+shHP1IW6+KWzNLEqV8GAUiZp+lvIE7kIA39Sv1j5IBj1/38n6caP9htsT6EHnnWaGW2bLl0fDNWRuySpWgf/ehHR8961rPKy9RaOVy3XzfypAZPEacVtU43ig15ZIyiOxbsI/8osFkQOrL1brhx+AeRvqlu4rD2a7RlnVT2jr0HA+NP/uRPytxtulCszyHQE8G+dubCYAD4zN1iVPYhcd27HR0MdqoT8kDgcbnU5XVMf9/4hjeOPvDBD4z++eOD0XTxRUV/zXph2HCFsNyDlLku+7Sy5Zoy2E/dA8aRpYsNgAwkhlReimYSg/2kU98L0/LuWA5WSuysZRbEC1/4wuL/iyuGFZCGT5iFeYvZptket+nV1+0je5YR654is04QPf99rH6EL+iA0tP5UjedQRq24FysQum7p75Woy1rx2LwnseXlmZUkXXkTc6CY1v6aX73L/7SL5a515Br2Z8HO21H+cRSRtR0DPQl6yex0j19pD9B8nJfBoQa85TdvXQVDG7KkNlCFukiG1t9gA5nyYKS52a20+o+7VrHcrAyYgdJm7niq1FLgfoBXIqH8GINbSnEDMxbzDbN9nhaespIsXWoYo1snpMGJafQrCIuHNY9q4WFT/ENBqUzHjl+GqZ802kGWhk797497lgM5q/7QMcsEQNr2p6ca1m7pr1/9Vd/tXwd2WJRHdwJ5Cl46jBdUx/ielHO1jDIcW1pB9ste4wTW/ovDfrsSdYvmnlB6se6XRMnxgtyL6iqPKn+y5BLx3SsnNgpGUvj7W9/e3nBg+QpgkfHENx2MG8xW+Vpj6el55rgnrhr7Ctv3DjOxTJynoJnrW+dwMta64tw4YhbBrNjjh0dfcw3rHgdA7mX4210iI75oR3pnjnd/NCtztWy1g4Mjt///d8vT2Zpp2BRHZwHyikgdB9V+dDIF6RIF9GOS1v52jIH2y170jWlUj4nXf2kMtPMejm+KDeg5OUtQ0Z5Er/cWxVrUv0XkUvH9rBSYq/h7b0Oxi3jYxEkZ/ZJGnlcMWoFmLeYrfK0x9PSq+MiX3DOvlDIfrDIpWGmANJ2jpLnZa0OwG9ry7LnxmHl+wFkW9fyKOteW3kIkzrndjGpbq0MDjpK+wztxaAwI8Zc9mnErk39UMyf/umfFtLSrjUW1cFpkLb4tgJd4nYx954ryfRhL/vVB4mqxxDzm/Jw7zj9GVd28ZyXZpsOnfQkyo9uTjqDhV6LJ8g/eg/dYl8v7Bqxg44Vl4xpZ0Z+HYhiIUQWwrLQKs8iyhQR1aJq02vF6FicdDKdkVsGdFABufuC1qMtv71jFr5rLKLcSz6gI0mzzjudMufqstbxakw6f9CAbMjnr9/x16OXvPgloy988QtFLpFRK4dZxL4syD9tmjb2VKvNTTjw4pOF7vdGLQXAKNI3xE2Z27LnOO3eXq/R6kZ0SP6uMUT8+EV+c5RxUmNc+Z0LpuUNs653LI5dI3bZGOVZ66961auK9c4q4dpA8pSqJfZFFKC9d5G0IqJ5lHcSIgfbWOr2uab465G6rc7FpWN7g+vfYIPoh4FBfHKqrfwWZWGlIc32Y5rEXUQW+wk1sb/oRS8qHydB2rGVQyH2gdD/9KmrJXZlovdFB47YmJbryQ+5c7u85S1vKS5L34Kwkl3X/mnzGpPadFIbOy8NaUpbmtxP+qL6movO7WJJXTrpurjKGX2K/IL2eFLewazrHYtjVy12hEaZ+Dr9Yos3+6ZoUSCKLgSLNn57/yLpRUS1qHaanvtCyKVDbwZIp3VNR7KYk47FYuLKsZCSrfn4LH2kz50jjo4vAIKSRif2DcJ8xzveUVyAIfZJILdjjzu2zKBZJbEH9B2Z6xO+9Xjzm99cPjaKnukvdGOa3k1q02ltLE3XEXqMDN9xmO3iBSl3ofNAJ6OvQV0eaI+n5Q2zrncsjl0jdspEgVmb3C58hh433/3ud5f5w8gpygQaf16FqdHGXUSZUo66PIukFyJXZ2nGekMkOpuORBY6vWuOyc01cciP2ybz7Fn4XvY59pUgfyiS96JWHso6roO2dVhW/dYFkTM9sw653zit69giT0J//Md/XFxj5LVTyKeVZy1T17Sv7zusk27mjoFH/qznxFcHoU0vSJp12tAeq0vSqe8xi4uVfsYZZxSXoPwNcAZE+63OQFuO9riN32LW9Y7FsauumLgIgnPPO7dYU4K1LiDXs52kBPMqz6LKtCwxFTlshpBtjoO6rM7rkM4Jddx0OmQf4tdRzcZB9r4G5NrxRCSw9DM4IH4vsP0gQtIMEUpzXIfeb1AndfAS8nnPe15ZICt1HAcyFP+Xf/mXy7S+3L8ThETz4Y6Xip7CBkmXwdrXsMgcqfOjG6yDEn9zW+ef89CWa9qxtvTUZ5XHuFw8kVjoTD350xkD07BTOYzDMtPqGI/dJXZhc+lTis8qoNAWLnr7295erJdLLt34BXMKGOKDWYrcYt74s7BMMUUWkPrV6ddltS+QF5nYuieWuHOJ53zSDoGJx22D6D1iCyx7bhznkD0rv5D9putHWq21lu0qoLwrS38Q6yf+3ydGz3/+88vsktrd14IMwE+3sWCVaSflKm0w6Dn9TrtKR5twPfoxbU+qflDbdx5tm+WebMdhUrlyvr4uHXriKdDAj8T9MLf15pG769PqOe3aTrDs9Dq+GbtK7PUW7FNms2OsH43gKb25uxQeuQStMsxSjnnj75IYtpC6hzzr/OuyiqNTOhdXgQ4aknc+hB6SDynnnHjOIS5b1joLjtWG6G90wxuNrnXyxkwdPntkb98MHXHET5rLxiy5z2q3WSAr73Ss7MhCri3jFuonnH766aOf+7mfKzKq26beh0llE6cldjrOcPH04AUpV2RInXzTXkG9D+3xuLzFSRu1110zoFsf3Xx0SwKIQ6eCNo9VYZLcOpaHPSV2KylSfu4BlhRCp/h+l5JrxjQvHdE9FJZC2BfsT1OQ9tq0uHWZdgvT8mzLmripewKEjBzHH48oHLdED84hO3EQfc7nPhYd/zISYNnZOkb02ikB6dmmHcaVuS5ji1wXxt0fTDq/XXivQ4+8POX2qN9bSDtlBMvy+rbCV8S/9mu/Vp5oDIpImsuqjT+ubLlum/ck8rdOjaUAuIPMDCNrbeE6WSqP+EGdD7THbd6uCzmvzTOgG6i55/jS73jHO5YpjC3a9FeJcXLrWC52jdihzWpcA5vHi+B1BCTPyvFTZiEpyi8dHYHSQtK1zX6b9ri86vtcz3GwDgpYl0tHFSDnyECcuqxtPVrkelu/+jj75Ix4uHMQBBcOwjcVk7XPd8/qMyAYKMRVJnkoq3Tiu4ZsXdeWjscRf+K1mHR+HOSB2OmOWVh+xJku0bHIrZaVgYplbfsrv/Irxf9sEFDOug6TUOrsQ50hmn3z0X0t+qEPfahY6dww8i2DxXA96am/45Sl3c5C4qVv5AlAe2gjbhdTGLWZpzBx2rrMymseuXfsPfaM2GcpisfUs88+uxA7N40ty0fH09ncL9i/4vIriuUfjKvSuPwSz9b19r5ZZdwt1OWqyyzowJFF0NajxazrSSvx2vQRBhcNAsyCaPnYygtbJI/wxXENKYrrvnoqZqnD5juXOn3EeMhxhUnnxyHz2Fnh3DCsdkYDfam/kAyUkwUNfgXoR3/0R8uHZZdfsbFMbSn3hPzVpeQ1DCIGDrr7d3/3d8U44XZxTTDQeDKQXu2qaVFkM+Fai+QNkbXgh6NNX7zNbW5TSF1fkW8MohaT8ptH5h3rgV0l9nlACaOsLB3Wj5kEOoxpYYj/4osuHn3t618rH3LoTHEzqFJbrXHKmTjtNqjv2UvlbsuV47ZMOW7jt5h1vYY02/gZTOpBRUAYLHaWPUJH8KZhInxWPneOfaSTgQHZw5BC2RYMu9Iru5vboD2eBvojvq0FwJ761Kdu/KLXMLhcedWGntTp2Re4/ywC5leUuKJiSKivME7+zhkU+PO9FGWhs9YZI3RSPZWD+9GHZmWGzHCPv3FoZd4e18iTD7DIuZDMdOF64XZB9u6PPBx3HGysJbGnSJSwLh7izqO1zmb6lrnJSB/5+4JViF9TBxUySAjuBR0UdArIsfzq/OvtXqFtorZ8QY7b+C1mXa+RuLW8yBHkF6IjV+dZhEisWOfDPvkjcGSP6JEOgg/RO0byJ55wYokXi/O444/bspJBHvbb42lI2cVjCDz96U8vU2uVOXWoIT7SZ+F78nj0ox9dfpS5TkeZcpytujM6EDq3C0Knh4wNdTPg0UGyG+eKmYSkH9Tl8BeLX5pk5rwfvbjzne9cfv3ppBNPKu8GtAEoS8fhgbW12GdBsRNAZ9WREDzC98jNn+oYyQs6t+M8butgXDt5OQYGDmnqLC2xJK+9RMpg2xLDLKII5qlHm08tj8B+iJLcWpklDW1UVgE8YoOgBWSf6ZiszVicWSjNgFAGiqOOLr+taV86uV9I/sknAbIFvwlg+V46gAhzT5D7bQ0wrPaf+qmfKu4m5K1uyVscZE3nvOh/3/veV1wv0qZTpa5DqJFyJc+6bLNQl5MMPdUYKOThKYm7xRrplgLwodGQ00Z9qq+Pk988+XbsT+xbYq+hCkWJKfPwx7fK6tLxkHise+TOujcrQQfkwimLkV140egrX92w9HVKnRipC3VHrsNeIXnbth10ux12kfKPy2NcmVqZTUOuuwehcuMg+2td81qja5967S3XjoBkEX+eAGKFJh9plDbztzmABHzdfknJr3qlXVvUZfGi+HGPe1yZGkgnfNA15FKuMQAYD9IyTdca6SzjlGMc6vzG5T0NdZr2DUrqz3duFs/973//suQEXfdjIaz5yKBG8p03/479hQND7MXPOPzlhy2KBTnUrO7cJd4VG+tcxzcfgresAeJH9LYGAha/fYgLIlZewl6gzXcRkpgX0/KSbn19nIzqY3ERrHPkmmPtmJfheXKyZa1nKiY3jv2sl4Po84Utss89tZVt0PYC9c1vevPoggsvKOfq8gYpo3stW+tn8gwm4rrmHQ8iNy2XL92qpfJ0PT+GLl47eEzab5FrtazqfVB/Vjpfurnp5ECGypxpxHk6qpG0p+Xfsf9xIIgdCjH421TkQvSD8upcgaqmulFs94F4LHbumljyOjDiZ4khftcu+Ppw/aILC0mw2uI7lW7baZKf4/oc5Bhybrto49dpbQfz5ldjnrzk0+aV48hE0AZkWJ8P6njutU2bIXpuiLhwkB2CExCtrfPIXjxbc9lf8YpXzFw3Btxj0PAbqHe/292LMWAe+t/+7d8WS71eVKyUeUgOqbPuHdeuPKj3Icd1OZzLgMBF6A/Ix9NM6mXAQejWTCeHQUIljjzJJ7Kqib3Ov97vOHg4MMS+LBBHOkb2kTeCZ73Hb8+lYwBA8F6cIX4dWjAQxFcf8bKe0kkhHeugd7BaBjvBLPnketoMsYXIMxUzlrxfAjJrBTHzi7u3TT/H0uLq8OTmS9R73OMexZXj5ShrPeQdpI41qdZGBdTx2/34zcv9A6G719Nn0b/LLi/vF5C4l6J86aYx1rNbyv0NSh7+VXkF4851HBx0Yt8GiCid1RZp1xY7omcBepEWax/xx53jSQARiG8bkY/r+MnjoCCy2ym2S0DyiNVf5okfvbGEcZ0/i96+ttMmSLNOv83LC1ZtawaPD320q/sM3G07ZT/bceWelBdr27+yv3le2egK1wo3k4+MELopjFxRSL3ct4k2P8etG6ZGG7/jYKET+zagkyGN+GuB2Ip1NWzTSXRERI/gkTpyFxABMmHVIwrXDACCdEv6m37Rg4ZWveZVt3kIqG6LdusaWbf514Nrm5f21kZe5LpXO3KFSMMgDfU9s+pWx63LFSDq/JgKqx0xezHKOrcUgAHGk8cWxmU3JJuBoq1PjWnXOvY/OrFvA0QUMbVW9jgkPjJA9oAUWO8hdTNz4s4pZH/+10bnfeW84sfPQCKAPHVEg4Z0S8ffTF9wLXHSYVNe2MtOXJej3t8tkEvaLAPxdsuRuNw65Oz++LC1ReSe9Np0p8ndNbohXYMFPzkdka59s11ucfNbjG73XbcrVjpSN9DAVn588MlzyCqEXg5ntPle6kTH6tGJfRsgop12hCLe8u8bYpZWLHuWfGbfCI6RO+L3cs41+0jAtRA5OCfIA+EILYntNdoyrEOZdoK2/VOPnM9xXb9JOuO8kMGCW8W+tuQu8rUoC92SutwuBhZti9jr9O0jd5g0+2USZl3v2N/oxL4HqEWuY+vUQhAffgjfy1mWvm1e4BoUMoNH3NLJN9Otrfe9Jvg2770sy6KYRobz1CttU/+OKNI2pZIv3dejSN3LW4QubfEzaEPyy3Za2cZh3vgd+wud2PcAtcgRr5COZpsQuO6lHRKP/z5Eb8uVg+xtEb94nggyWCyriZVpnrTETfxxpATLKttuoG6TcZhWF9fq+yNLbhfTF81J99UoQjeTJ6Re4vobBoD6/kXlNqsuHfsbndj3EEQf8etobWerrwXOIXqP7fHJIv3MyBHM0EHwGQC4dBwL4rkfoeTRPi4B8NjvvPQzMNRlS5m2i8QPsbf3J9+27gcJ6iyoYy0HsrZOuh++YKV7Ucrfrk3jVivyGv61xB608gwOsjw7ZqMT+wEDokTeSP+Siy8ZXXTxRYXcWfQI3gvbsozCpi9f3Ezh4wJC6ghFOjXhhyhst0sa0hGXirUDRbvdbpr7FepHHgI5eBlqLZrbfeftRre45S3KujjIvJUNkN8k+XRi7xiHTuwHGPlyUROzAhE3EkfqsegzJdM51n4GAdcRP0IOatIRtqM6BoYQGuSe9t6DroYGTMTtS1iLdLHSzUu32Nlxxx631U61jDs6dopO7AcUmhWphixqMnY+1xC9gMAFM3D47m0F66CYf++cgeGySy8rn81D0psKlweOClEdEn9zF6khftdmprdPgdQtBczlwpfuK1J+dPWO20WbRE7ZdnTsBJ3YDyjGkWRLxI5bAkHuCDwWfnzzrHkuBGSP6Ll18vI21r4BAjnFOrUdcthYkGogruQnOJaeD7MQe1CXuy3bOkNZzXLxgZHyk2ORxXDuxJNOLG4Xq0R6OeplqXccqStZCKk37Ke6d6wfOrEfJkgzz0MY7qkDxJ2TF7XcOCF7W2ux5EWueAaIPCHIW5BWiA/x+2cfMgAE+4XgQs7qTEaI2+wWrhY/fMFSZ7FnfRcyiDzGYb/Uu2M90Ym9Y0dAxCxuBG0bK58Fz8LP1Es/SedcrHvnxBcXebHspeV+W+TI0g/2C8EpZ+phZou1ZfjQ73KXu4xudrOblXOpi21eUk/Cfql3x3qiE3vHthFVqVUGAQkheOTmWBznWO9IPDNwbPntrZTI2ref8+K5rya1RQgu5UiaSSvlH5f2uGup0zSIo76+HPVi9Pa3v/3olre85ZbbBeFDppnOSm/W9Y6OaejE3rEUUCPkBkgpxJSta+Igf1Mrkbkt9w1LPouj2XLrZC5+/VQQaz4WPzgnj6RvP/595zLYJG6QuCkftF3BtZxLGkHuk744XoRa24WV/t3f891l5ovVIYOkkzLU+Y7DrOsdHdPQib1jz0D1Qr6IGoFnKqYpl6x4ZM9v72fokL7r/NiC+Agws0pahOwFcR2LZ1lfLzmTJ0gng4QgbuIfc/Qxo6OP2bC0xU/eAgucHx2hW7P9hje44ehaJ1+rxJ2GWcQ963pHxzR0Yu/YE4Rsa8u7trQTkD43hsDKZ+Hz17Pq/VjG2WefXV7UGgQQrntCilHt/IiF8+b2m64pXvIDcZ3LftZxcU45nSv3b5bb1jrplgK4053uNDrttNPKR0dejqqL68IkdGLvWCU6sXfsGUJ+JWyuPz7J0nW9EP1VG9a9EJdOgimYXDgC4o+Fb1CYpObO1yRaH9f7BphY6NwufOlmuvCl3+pWtyqELr7y1/cL4zCLuGdd7+iYhk7sHeuBQQsHGtw8+AZqgttS1SpuyFNAviH7uHRY91w5iJ5171ymYk4jfPnm5+by49TWdkHit7rlrUY3vdnGD2BkSV1YJhl3Yu9YBJ3YOw4cimU/kHwdWPzI3g9SZ+rlRz7ykeLLj9+epV93B4R9nVOvM7rBDW9Q3Cx+8MIXo9ZIdy2EHnRi71gXdGLvOBCo1Tik6BySF+wXgh+2ApeJY9dY8Kx85F6nY6oif3mCWS5cLjWh1/GXiU7sHYugE3vHgQA1RtJX87eNJW7LAmmbx+KPAz++dPjVg6uurKZ0TrhvGejE3rEIOrF3HAhQY6EQ7i6RYtt1Ohl3rAs6sXd0LAEZVDo61gHf/FVHR0fH3Oik3rFO6MTe0dHRccDQib2jo6PjgKETe0dHR8cBQyf2jo6OjgOGTuwdHR0dBwyd2Ds6OjoOGDqxd3R0dBwwdGLv6OjoOGDoxN7R0dFxwNCJvaOjo+OAoRN7R0dHx4HCaPT/A1JtD+ldw4gUAAAAAElFTkSuQmCC;container=0;" vertex="1" parent="dC4sRMdMSoydmVsc77Pg-34">
          <mxGeometry x="20" y="130" width="89.85" height="80" as="geometry" />
        </mxCell>
        <mxCell id="dC4sRMdMSoydmVsc77Pg-6" value="Blogs, Articles &amp;&#xa;Documentations" style="shape=image;verticalLabelPosition=bottom;labelBackgroundColor=default;verticalAlign=top;aspect=fixed;imageAspect=0;image=data:image/png,iVBORw0KGgoAAAANSUhEUgAAAHoAAABpCAYAAAD1GzfRAAAAAXNSR0IArs4c6QAAAARnQU1BAACxjwv8YQUAAAAJcEhZcwAADsMAAA7DAcdvqGQAABGKSURBVHhe7Z3Xb1xVF8VPXJLYafSSAgklQRCDEAnEIFGeaAKBgCfgAQECBH/EhxDlEUQTTZQ3XukIEE30ktCr6L2TQgKxzXd/27OG7ZOZ8Yx9y4znLmfrljn3tLX3KfucezPr3wShxIxHT+VYYoajJLpLUBLdJSiJ7hKURHcJSqK7BCXRXYKS6C5BSXSXoCS6S1AS3SUojGhc7GNjYyYlskchRIvk0dFRO2pdhfORkRG7361rLdu3bw///PNP6uUvbPUKQiG2t7c3zJo1ywrINedkqaenx867BSr333//becDcwdCb19v5dfpozCiZbUQ/uWXX4ZPP/3UCgk49vf3dxXRYO7cuWbNs2fPDgsXLgzDw8Ohr6/PfqOuplMfhRGtZL/99tvw0EMPhSeffNIIpmCbN28Oc+bMsd+7CbRiGMC8efPCLrvsEq688sqwxx57VK29I4kW3nrrrXDHHXeEZ5991rRZ/TbanSUKLnZNUHZauAULFpii33777WFoaMi6t1r5bYX4wol+7bXXwi233GJHAMG77babaXeWaEeiN23aFH788UerAwi/6667wpFHHmmtXMcT/frrrxvRL7/8cpg/f344/PDDwzHHHBMGBgYqIbJDO5FNXj788MPwwAMPVAdkt91228wi+tZbbw0vvvhiWLRoUTjzzDPD+eefH3beeedKiGzQTiQDmm3GKdddd1344Ycfwu677x5uvPHGsHbtWiNaMxKPVogu1DNGZSM+wzRbWDZ9FOdZCS1G0RLnibrYtm2bWXSsiK2QWgttQ7QEzWVQxjFL+DTbRRh0Ma1E0XUvLRRKtAeF0gAs7UKWaAOLBp5Us3D9VQivJSVaQ1tYdNwfJRyPS4nU0FZNN+L77EZQmKkK6RQteaJtiBaoAIgokS7ajugS2WBGER03jUVLcK2zuoyi0LFEW0U6WOWOVSqZYyJ4m+qJkZCRiGj7q5zjF+BYFDqWaCoOwjj6SjTL6Unm5L095jrECVFLCJOV4A+QT4A8VnfNJMpXFAr1dVP4N954w5YpX3rppbDTTjuFM844I1x00UXm967X1JFlKm/Lli3hr7/+qi7WxyBcveJl3owmyaJQg/MGw+Dg4LhyRWn6vFEXDz/8cLjqqqvCH3/8YXVx0003hTVr1nT+osZUiQb4hN988017nkUA4gLxM/XiaKWSpgIsmnXlgw46yMhikQL3pkdJdBMW/dNPP4UbbrghPProoxYPe848JvOVZ73eTfwsVKxcuTJcfvnlYd26dUaYR55Ed2QfDYk02RSUCsW6abq9sPrVSLCu+Jk0BWLoWqz5TprumOS80bEW/eeff4bHHnvM1rN/+eWXHSx4smK1Yg1TAcuQe+21V9hvv/3Cqaeeartm6oG8lk13HUAsFqPsMzjz0P2sCa0H8kd3AuGUS6hX3WXTXQca7LAtliMVs2jhIjsi7KIsUrDgvffeeweSveSJjiW601Al2M2l8yS8LYmmSSqqyc0aOFSEPMs5baLz1MpaKDr9TkEqFi2tZECEqPIbCQMVBiAMNDhnigToe5n+NAPiEWL3YpyeEN+PJSsU3UpNm2ifeTagf/HFF+G9994L7777rsnbb79tb2Ns2LAhrF+/3oRz3SPsxo0bba4JyeyAFOmNMIGgKfiQJzyfkbQTUpleQc7PP/8c7r//fpsm8bYB/mdA9Ew1fOGZcuBUkL+a6QRhli5dGs455xzzJE3mYPDxeaJ9HwikiDpWn6kcPdK2uDi+WmkKHTG9gjScFjgvsFRIh0AJXix/TVhervvqq68srNyFAAVpxqLThq+0tAlvB6TWR8tBAGlYKi5GyEMbUQSaZt4SZN7r55vsYUZb4759MhCG9FCM7SPJcfv4EcvAwolPv3vh3tjo+Av3dDXcI/8i1x8pE0rH250ICkvr5ePjupZs3brV4udc8OVrpoxpIpWmm8p95ZVXwtVXX239Mq96nnDCCeGQQw4xDxeg0gAViDLgA6aieC/66aefDp988knYc889zTN26aWXmhOkESCAF/NYwfr9998tTlU++QHcE0Qg4Jz4Se/YY48NS5Ysse6E8D4c4w3K9fHHH1cJI36UBMThPbiPYvMu2fHHH28KHcM/m3XTnZoLlEHWtddea0RjyRdeeGE47bTTzENEhiY4CpI/KokKo7m/8847w6uvvlol+pJLLmlINJXy9ddfh7vvvjs8+OCD4bfffrM0tVABUCwRDjzpAAvdf//9wxVXXGFExOlB7BNPPBHuu+8+c9MSl9LQ+IGqkwLH4D7hjj766HDxxReHVatWVbsnIU+iU2m6ARmlWUTohykU1kwmqeS+/r6q+NUjLEkV1woopPryXXfdtUqwmk2OKJKEfPlrwkP2r7/+atcxiF/lodvBImmFKCfx10rDC0Rz/O677ywNylskev+XoHI+LTC4eu6552ydmIrhdU8W3Wm+IDoWaSMjdKwaC6UytVDfaC6tZ6l44gIHHHCA+ZYXL15ssmzZsrDPPvvYUcKoXkIYLPm4446zVSbFIxA3eUAJUUbi3nfffe1Zmnofbz058MADq2lQD+TbiwcWS/dFHaLAGMopp5xi+YzzJsRxNEJqTTfNm/poCLvsssvCWWedZQOumkkkt7CO9RvWh5tvvjm88MILTTfdgGe3bN4SNm7aaBUji8GSSE8KJfhK4XetE0MAz/K7z6eskmaUeb61QP2zLd3Rsf92s9SqbMWDklAO6mMyUoi3Y1av6iWsCvHiUet3CualChRkZHwn59yBuWZprPlivbF46/LWzDVWSWWiDHEapE/l0ryjqFgy8S1esjgsXbbUrnXPpyFR+lgjJJNXxVsUUiU6FyR1JacI5GB5VCSDPQQrlIhAT6IHFV+LaJ17Yqq/JwemZ4ieqyeA+DUG4Zmi0HlEJ4AAmlIJzbC22lKpiN2rEIlw7kVgsEULIWKAP1d83GMAxlw9odH+fPxeFL/i4ci0DOUrCh1LNJXHdiLmuszFGQwyoMPbxnfLuK+jzr189tln9gzxsAc8od/ORQ6gtfj+++8tPHETD/ErHaUVi79Pf0t+UUjSKQqpDsauueaa8M477+wwGKsFmlmaXAZjfKwmHowxSPLwVkiWqUC++cG3TyCciiQ+NdvAP+PPARZG345vfdXKVfaVPl8VnFMW9qVBGHEznSIdLJzrOM4YjJwPO+ywcPLJJ9vInlamHoiv3EoUASKZm+KkeeaZZ0xJ+KoRXiyOzQhh+bYZs4St27ZapfnmlzS++eYbC4syMQVEmSU4eOI4YyFfpPH5559bnEWiY5tu5riMipla0c/K/SknB81uI4FI4on7conSYApGfPi5eU4+bNL16cVCWEAesciiie7YphuvFmlh1VS+mlMI1NHDPw8gkAUWnBlMuWiSfRjiwKuFxePrhlifxmTVRlw4WugejjrqKPP/N3qGeDvC15030VS23J3Ew+82vx4bH0Fz3agi5DJduGDhOMnROjZxEC8EY8GcY5VKm7gns1JaC/ppLZj0zEpaiigdIWuiO6/pTsori8Iq8XNjLbzbhKJ4NyjnEt1DGBjxwTqUEJKZm1PRtZp2mm/i1nOIj6uRkB85TEwpknTItyRPdGQfDagoyNA5grWY5UxiabJ2wo39+9/H4L0oHOfErXgVN2lL4WLxII526KM7j+jEKkSS5r4MfhoNjGKRgkAwzxMXzSyESJSGzukWeBbiRbJXDC/ES7fCKh7ntBpVJXB6UL2XAwrro1VRDKb4FmjcRxNHPZBlKpCVMla/tFPEW01cLMgSOGcMQP+5fPlyG5RxL34GonCqsN2J+PndFKwS12RVh5LQbbCyRli5QON+2hQpqYsZNxizQleIZidoTDQ7TOLBmAfP4yThg+4s61ExMeJixZWCldH3nnvuuWFo9VCYPWfii/RYLztUH3nkESsToMJltYA461U2CkE9sMvm7LPPtkWUIomectNNwhIPn7j/vV74qYA4WDpk6oOC4NDgHELYXoxwzj1JfC2nBu5TpmpqzgUqHlcnjhIEhSRebVtmC5O2LdcSwuCUYbsTnjVaoFgx4ussMSWia5HlMx0Tmga5MZge0SyuWLHCRt2MvrFQjbJpHdjGJOE3f02TzfzZdsH0j/fDHlg8a8lYIkuSxMlzpKXRt0b79YQwPE/eDCSRD687YEpNd/wIlYSGq+lm2tNqH41VNtt0A5pWdmTwMXP6aRD7kn0+YyJpDkmDj8BDIk2twhOWcz6Z8dFHH1k/rT6aPNuSaGX1Ko7Xg/nziuUrwpq1a2w8wPP18pR1050b0fEzcR/dCtE8q/hoEhGuEX5D5NoU4kphVEwY+lF+41mOCufjIp86VzoA5cAJEsPUoKIMtieuNyEq+fPKBHyesia686ZXICmzKp0mHKWAMI40xThDaHZRuHpCuHmD48okIolXceteb8+4d4tn5s+bb+ksmD++PYj0BgYHdhDCQvCc2XNCf9/ELU5FoSOJ9t8QA1QgIsv017EIyVXVwrgvy+QacA+SOZp1IvxW4Urx1RPyRj8vgmtZfp5oG6KpnCJgxPDn0ufa/NIF5SkLZEa0VWBFYshqYi235jNnxCTPVGRCtAijAiFVxAq69o4Dhcur0i2dOCmumxQUpCGi8JMFzxqZEF0lksqcyPEEiFSF17EZ8GwrIlSv+VfjfrOi51uRIpFp0w0SO92BbK8I9qewFYvOtVJISjKDkSrRnqBmyLIwUbBcSU5Aenmn6RG3Yq20aq0gNaJVWWSUqUXssIjhrRrImkERg7JWMV3l4HnKjLMHcI7/nrLjG2Dqx3G66QipEq1MmTcomecCu19jtYaC+KPuAynBdGDpZijNoNZzXoAUHBcrK4Bcy/GDv1zhpovUiSajuBfJON6lWpDFE1YOBZBWoToBIhjPGX57NiLit6fOcIEefPDB1XXyNJAK0Z4oztmwZ9tjtyfNUh3jJByFIhzhhW4i28qa/GOPOr5+vSjAPjU++4wrVXU6XaRCNFaJu48+BUvFmvkKweYtm6u7Mgkj67UdoCOjtnmAFSL6JkBzr/6pG0BdoOisj/MighSeZdFDDz3U6jItTKlG0TIvgNdF+VQEzn6aoueff94W9tFWiEe4T+HwVY+MjtgyI5+rotkiHtZviQNNNoVwIkVJS+L405JaiOsKEBYFp47uvfde2ymDorNGzj5wyE5T4VOJCc1jtYj3jFicx7ohke+L8EoKL6pRSKyVArIX6/333w+PP/647d5AGWiuVq9ebX1TLfjKamfxoKwoFc2xBKulJUO5Kf/1119vr/dQfuqNDRH8H9rUleJIA6ntGSMa3iJEO/nvDygIy4UQd8QRR1ifwwI/XxCiqWKbDVtuuEaT2Ylx+umnhxNPPNFG7R5pFTYPkFeJbz00AKUf5s0P3sdiGxSbGlAQ6mBoaChccMEFthmCVk3x1UOsWI2QGtFYKRrJjox77rnHiGT3JGCqwEI6SbFjkyZc22HJLNqrNV+OtfqmlLKZC0QwFky+OadMWC3lx6IpO+WlLqgfvl503nnnheHhYbun6Wkj5Eo0j5MgR0XFrhGsGrLRWBGLQCoFJizOAipDGi2CVUEeVFYngTKJCMpCmQDGgDKrG2NXDbtI+O8Y2BbM5gZhsvepcyfaHwGF+uCDD8JTTz1le8LY08XokveYOEI8Aw0KLc0VuVIaSPcFmWY2cwP5RFQeNd0I5UXJsWTGNHRpJ510UhheN2ykajtwsy/MF040IBMQykBLXwfgG6AQSFg1T7qWxeo3b9Vx3O0OEeC9fpSTGQl76LBixi/MVCCecEw38SC2RF7RREMSggZzXxniHgVGIBZCOfK7b7r1jC/INLOZK8irt2R/jzJBLNdq1UDbEw3iKBpFGWeO61rhWylEp6CZqs6q3LkSXasQuhc/MxOJngzUQVblTs/1UmLayFK5S6K7BKk03TGaibIbm+YiUVp0l6AkuktQEt0lyKSPLtF+KC26S1AS3SUoie4SlER3CUqiuwIh/B8B4NvfkY+hxQAAAABJRU5ErkJggg==;container=0;" vertex="1" parent="dC4sRMdMSoydmVsc77Pg-34">
          <mxGeometry x="137.04999999999995" y="130" width="92.95" height="80" as="geometry" />
        </mxCell>
        <mxCell id="dC4sRMdMSoydmVsc77Pg-22" value="Webpages" style="shape=image;verticalLabelPosition=bottom;labelBackgroundColor=default;verticalAlign=top;aspect=fixed;imageAspect=0;image=data:image/png,iVBORw0KGgoAAAANSUhEUgAAAIAAAABkCAYAAABO6zhfAAAAAXNSR0IArs4c6QAAAARnQU1BAACxjwv8YQUAAAAJcEhZcwAADsMAAA7DAcdvqGQAAB4HSURBVHhe7d1nsF5V1QfwTQoJIISSEFBAEFRCF1DB3uuAXUEs8zKOZcaxjB/UD46ML/pBP9jAOhYYu2OjqBTBTrCj0kGqSi+hJgR8z2/dZ112Dk+7z71P3sR7/zd7Tttn77VX22uX82ST/zQoc5i1mNc5zmGWYk4BZjnmFGCWY04BZjnmFGCWY04BZjnmFGCWY04BZjnmFGCWY04BZjlGVoAHHnigczYBM8pzs8r/vxiF/yOvBVCA+9fe35QwUfGaNWviuGjRorLJJs3NOUxiXPwIGdx/f5Q/f/78snbt2rLpppvG+bCYsgKk5av0iiuuKJdddlm566674h7MmzdvkrCp6pYy28waF/PGhaS3prvbvZmCMvGc8LfaaqvyuMc9rmy99dadp4MxsgdYvXp1+epXv1pOPfXUcuedd5YFCxYEMffdd99Iwk9oTI1xMG3caAu8fZxJ4DPvy+ge+9jHliOOOKI897nP7TwdjJEV4O677y6f+tSnyq9+9atyyy23lM033zyEd++998bzVIipov1OWyE2dGBnsrTXcSaxcMHCsnjx4nL7qtvLdtttV170oheVo//n6Hi2ybzBCjiSAniF2//IRz5Sfv/735eFCxeWAw88sOyy8y5l0eKJGGAU4UObnHEwbZyo2518SCXOa9aaKe8zGH239rqfR3CeqQ3Wf/VVV5eV566MMl74wheWt771rVEmzNtkXihCXucxMZICCP7uXX1v+dCHPlT+9Kc/Rd+j0oMOPCgUYA7rAouzW6yFnqktgslnIuwKjQp0zh7EHavuKGedfVb52te+FuW87GUvK295y1s6Tx8sqxdGUgD9vHTMMceUP//5z6F5xx57bNlvv/1GikT7YQTyNgi0mZ7tqNvznwcmzmsL7YsurLjr7rvKL3/5y/KJT3wi5PCSl7xkHQUYhCl3sNkABOc5ZUiBGwZyeZ6NktI1bqyJpXPLYqQ77rij3HbbbeXmm28uN954Y5zjlQDa9VVXXVWuuPKK8q9//Svyip9WrVpVbrrppkhiK9e623vuuaesuW9NuW9tY3xVyrrUSwEcH7i/oSVTQ1PN3zZmLMJKheiWpgLl1NaQ1xtTYgziIsL+9a9/HbHSRz/60XLyySfHfQbyhz/8oRx3/HHl05/+dPnZz34WQvTsd7/7XTnuuOPCo/7whz8M5WFU6VW7Je8BXqs/eo5OimunHdraGFkBFJbCrSP1UYT+3wR8wQ+CYY1XX311Oe+888r5559frrnmmrjnOW9wySWXlL/85S/ln//85+T96667rlx00UXl4osvjnNdqrI8k1KQmdxj+Y5ZRjuP1AsjK4CK8jioktkKglm2bFnZd999y/7771922mmnECieGbLtvffe5QlPeEJ51KMeFVbsWd43oeP+Flts0SmtP2r+pzyGkcm0PcAwlcxWPOxhDyuHHnpoef3rXx/JeVrpYx7zmHLUUUeVo48+ujztaU8rS5YsCUs/6KCDypFHHhkTOoccckjZZpttOqU9FMH7xtnWMpiqPKasACrI1L6O5K85aiiNzu7gIflmQWLVj3jEI2J0tNdee5Vdd901+nN4+MMfXlasWFEe/ehHl+233z68BSxbuqzssfsekZ/H0PenoWVyjb8BOlB1ufX5MBhpGCi6bHr68t73vrdccMEFEWl+7GMfK3vuuWdotz5MFEsBsn9SzbBVjUDSRom6nZMCjsht4hqSbxI+u7/ZZptF17LLLrvEiOLss88un/zkJ4PXL33pS3sOA7PMGiPPBCLmfe97XygAbawV4Ctf+UrcN6xRaeaXhsUIZG0USCHkEb/yqM3Zbkd58nl6VN0E4esenv3sZ8f9n//856EAntUK0E3gbUxLAd7//vdHdNtWAEOeP/7xj7FIJJ/8U61mBLI2CrQVoI12u+t8eb7tttvGnP+rX/3q4P0vfvGLSQ9gIujNb35z5BsGY1GAk046KZaKuafZrgBtQdfXyRtH9zNBHj0DfE1vILi09sIL4LG5hloB3vSmN0W+YTAWBbjl5lti1irzZhVTqWoEsjZI1AKH+nrSOEwJN7frZ21FSLgWSBoeigVMIJkK3qA8QAQyDYL4iv52Y/rhv0EBBrU32+iYwV8b7TIib3VPNzsoCOxHx8jzAP1gcWPe/HWXIY1XKc2wSUM39tStXXXKPHH8z0OfdSujfieRedsp0b6uMRYFaEPl7QYOSrzKTCYRtNTt2TAp359KapfRr43WDerr+v1u+aVasIO8TS+sFwXQLRiicFGS80x5bzpJORkk9apHwiSMxOxMVtMcvWviRqrfzfMscyqp/Z7rpDPrM9HjmWtH1zUN8e78iffdd087pFr4kjLyXEq0r2uMRQFSM2sNdUzmmx/Qd0nTGSkkWANBSlmOe+qxmmYR5vLLLo+5CRtYfvOb30Tk7GgIde6558bmVnkty6LJ+0nXuJC04sn8efMn+YIG90y42XxT00CQqQSJXsIdBuMJAlvESd4hIGvb1157bayS0WoLHrvttltodyJJqsvpRyZaxBjiDucYeOutt5brr78+VtzMTFICK3Ap2IRzO5pM2aJ/hx12iHn6HXfcMebnp8NcaL+vvuRHPnPk8leuXBm0i/DRsnTp0niWqeZBnuNnexQwlQ0h84+xrWcEIMA6to0Nzp/3vOc9SHAnol2H4Gaoo5E2NrC+b3zjGyEcY1pKwPVlIwmprUhtZNnJHPWxXJsrLLH+6Ec/Kj/4wQ/inLKl8NFAEbOPJRCbLnLZ9u9//3u5/PLLo122V6c7Rg/U9Q6DOp93QwGav8b241l6QMp6wgknxKzev//971BAM35Zd9KadCR4ChtLeDHPKM7BBx/ceToY4+sCGoGHKjSNdO7e4kWLJxZDGh66TiEYzzq6D+1GgnLqpOHxTgOM4b5Zgq3qks2qvABhE6I8ds+q3z3Xzi3KeK48ysiirrzyyvL973+/fOADHyjf/e5349o76nWUUhGmiqC/GR2lGw8Fa/r4bJduAN14sOnCiYWgUesaBmNRgEl0lH/t/Wtj+9LqNaujkVtvs3W4fStey5cvj0YTAO9AqBovXz+kx1h739roN3/605+Wr3/96+FdWARXmgxlzaA+y69cO7e/zz77lBe/+MVlyy23DEWwgOVc/ZSFdX7rW98qn/nMZyJ2oBzAKikvmocFWpRbB3Fou+GGG2KDLZrwZOeddw4rdu0+ZdAWUK/3ZhJj6QIM+bg4DSbQ3/72t/EBiW1Q9rnZIGHC4klPelII0kTG6aefXi659JJoJPc3CJSFEK67/rpy/PHHl5NPOjkEghYMNE2qfjNlNlk8+clPLq997WvD21ASTOVi3/a2t8UHFbZioZ2QH//4x4dC5J483kX3gFYC0kerGwi0H9oC4z0IXjtPO+208FTWTZT9rGc9K3b1HnDAAaHEZ511VjxHB4WlFG2PoM0bXBcAiNF4jBKEUQB74kTb7mMc98d6ReP6PorC3XZDu+HeZR0nnnhiMPDue+4Oi33+858fQrX2jnEUxfnLX/7yiDXUnV2B8jDevPob3vCGUGB06R4EU8qx4qYM8Yq4BY3qlS+6sylCfYSvn6f0tnP/+Mc/jnajB9+22HyL2A5GUfFMPmsrqXQzibEogI8Rsp8HfauASgMwM4S/oBnTNkMfGsxKWQYBylMLOuFe7ENwbARkJPHFL34xNF+Z1sZ9m/DGN74xynBfQMhqcjMGxqs7EwHyUJTp6U9/emzAIADROAFRDDt5KAHlQd/nPve58FjqoExtCx8E+dUhWdVj2eqnGMkzoxm04gmPRTF9eTXVuobBWLqARMOeYBoh2Opk65PdMRqjv731tluDAXbGPOUpTwk3TVjytxFj4gcmonju+8tf/nIIGYN0GSyfEO2u+etf/xquEwO5U27V8A6dom0eB13yPvOZzwwBUCpdhW5KHUYN9ubpCp74xCdGO73LY3lGeOolqH5Yhx+dc0rHC6FJd4NG8YiugeUzCEaDF7aR4R0F1tbJbwk6ZW2QXQDiRLqCQEQj3qZIhLGyleesLP977P/Gt4X6Xv0qaxMbLN9++aSl12AV7rF2AZluRd+MAYcddtikAtphe+mll0bfTdF4BoGmfP2AZvVn/KEcrt57hPGKV7wiFFV7eJZzzjknho6jIC2esCQbQxmCEceHP/zhCDopGn4xCnkEpwFsxd8qTQfjiQEqmtLdgoYjeNUdq8pNN94UbpY1a5w84aIXTEyXthvmmuUQ7OmnnR4eRBCnb2dBGOh9Ez76Uxb+yEc+MhSP0NpQRxsEzYt4xgvo93kR1zzBK1/5yrLHHnuEYlBcX0URVNLKi/SD55RYfuVrs4CSx1MP2nkAIwN5tEf+pDXfzfpmAuNRgAZJqKQB6Sqds0xDQUzlBhdtOvHhAwWJxvZonz7bcM9ogeKwVh4FIwkC81g/68VQzFUu942pXLdzeYEQuHXK5D6PwhtRSHlMCLFyguGW7dAVC6jXc0GaiaMEAcWcRybXdercgxSiNmmzNiif0qIB3Q33gicS/iU/aygvFatX6oexTAVL3QiVj0vFaALRaO55+2XbT7r4RPt9IIjPfvaz0U8Tpj4bw4D1YhKvQpjq4RUIiwcgbGXyDJQELZhPoN7VHnRTonTtrg0Rs00EYWSR5QtsxR6HH354CE/X1aY7usIu0NZM+IAedBmGMhCKjS6o+VnzCCiiEZTuVPu7TQV342VivSkAhKY2VhDH5k8eZXkfE8yIBZpX6/fz/MwzziwnnHhCuHh1EKyyCDW7F+fKU67kfkb7wCt4R1fCytIVy+eaYhKm++INQvCudzKfurMe8w2vO+p1ZcVeKyaEU3OzN98D2X7eKt295L6UfPTXqywKYFQyqgKMrQuokYIP5WgsXT9vGIiZiMbYGDqiU1srgvMcw8+/4PywPu+wfHvquUtWuvvuu4fgcozPO7gvkhcIsnSLPDyOuliwckTf6XY9dy3CJxQKpixehHKbqRN3uJaHsHgcHoOyhAJ02tBLYDVSyOgI3jQJ8ANSGYYpa1SM3QNE8WrQjvpejcjSaWwH9TkQvN8jsKSL+cb7Ygh1q49A0WJ5l1AMN5/znOdEnlDADs28h8kXlkMp0lqUIY/ydDG8jWGqYZjAMEcSnvMOJoQMJwlPF2CoyXWnEIdB3cakT6KgZlM9pwxtXtTYYD2ABk0KulX/QwhqLvsRCYZelACDBY4sm7WK8g3fCJyl8wDqZakUMq06x9qsGFO5e324PAfsf0B8i+dcOTwH16+czJPf9xmTK4vy6E4IQEwT6wQtvR6E5FEmPKgVKHlS55lpjEcBWnRqyCABD4IAELPB2j3XnOVKuhMWKmEi950xAquFOn83UAxJV0IplUmwykwBAeWhYJTEc4ppVJJ7IPvV0UYvwUaX2KD9vFve6WBsHmCmQfgEK+nfCacGwdUK4FoeiuI6RwGJboxcRwEacKmpAJDvC1bRwDuA+MQsXipaYlgl6Ia2Es204BNjUYBGZyc1t1eaKjCXNRNQThw1LFrnT7nyQNYjHwXw3DGfgWfyC/gIMcpsmK4bMXupu+BtXCeijqZ/to7hfnY5ysjndRqEtpKg079IFaajTP2w0XiAZABrzKjZvUwY1hYw4aZCLFj44ESK5+7zCnHeCNS5Mb5JIfBrW6961aviN/dMMStb3nw/9jd0hoLeRRcFGgVJlxTyd+xg8v6YsNEogP6c5ZuR45YNKyctpeIP4UjdUDNSHsLLoShhmmX83ve+F8uv5gm4ecLP7oYSELJ3U7HEAznj2KveDRkbjQLob1OAhGNlMK1jVAvxXgaTgjgbNCiAvXlf+tKXIlmgoRhW26zJ5wKUoagNLYaAJoOsLG6M2GgUgDWyWJZmujb73ATrY6nZJwvKCCpddMYQkjIcWb2j93iXtGJl6w4s+NgbaMeRKWhbzvxwkzUAC0JWMC1GWbEzKvCeeh3VN9VhIYyqzKNio1EAY3/DLsKyq8gauEWfTGbjdA+eE6opXRbrvrxXXnFlufaaa2PxhyuXCMkzVm1Fzvw78Arqsx5vbiGVjuDtCvIrXp///OdDOWxE/dvf/lb+8Y9/xCYVikMJ0NB0RiMJ1DuZxo3xbAtvET5KQ9rvmGWz0UOQxl2LAyzXYr4VObOAZgkJnADQxEopgV/cuvCCC8uFFzXpwgtj0cVzHkJ3cvvtt8cyr7zK089bi7cTyKRQLtmKQyiO+gma0C0JK9O7lCS9CvrFFhk/zCRq3vA2Zjf7bQjpx//1rgBdieEqW7fb+dTBUgmT8Fmb5VoJ81MAKXx5KAMhsfKLL7k4FAaz5MkyPXfNjfMIpoG9a21A/26G0JCQN3BPX2+VUVeja+F1JPRQBJtVfItAUSmtqeiB6NL+fqh5M10FWO9dAKa3U7jL5tgPmM0auWfM1ygMFowt3W7pxLFRQMEiq8MMFsty3Zece+49z+TTdxOo7sW4Xz4LO7yEJWe0mQswpWzXrl/2evvb3x4bRu0XtK3cM3TJi05rEdYKKMMw8F43tPnUD8Pk6YaxKgAhdbNkrpfVZbDUkD6Zt9s7QFjctDUAz7la8/GslDDe9a53hWDsO9RnE6IVQlvB3bdw9e53vzvG9hQAHYTvh64I1UyjQJACeF+3kON7edWZgqIwtofZC+An3Xg/3kE+71BGlu/eIGTZkAqEN448Q2wiMeT1r8k7lZRoX9cYqwJ0IwZDMVfgxjUL1jzvJvQanrN8K3yWY/XTgsFYrFmxZ0TkuYGSYsgrDyUwTLOYY3OnfGn93rXKJ2215cSWMoLLhSDrD5RU3QRCWZXJuxASSz/llFNiqKg9yhQvCCaPPOLImEzqh+SLNQRCVoYuTiwjfskVwdxfOQ6MvQug1WE5TVsdWeYZZ5xRPvjBD8bQSt+VltUPySwCtpOWlXHRytL/67eVwzK5bP1yKpn7OXsoeMNc5XHbyqEIuRVbN6CrIGzCQC+4lhI8hu8PDQvRQTHU7cuj97znPeWQQw+ZsOI+IFw0Ef7Nt9wcXyF9/OMfj28d0O1Zrx1FM4WxKwBGR6IBDXgAVsWCBEqYp6EJeX0STWiT7zYJw1MAL3jBC2IziEUbCmTChjdQDstnxboLdYnSBWjKIxDuPdf2pfQ8ntmkwruwYnXxAPetmegCvF/TpAuiZOinVJSJcrL6CPya5vIIWT54D8Kqq/upfAJqgscXdcmT70DSUd+bLsauANHYjv8iIAnjMQ+TCSwb5drRt4RtEIqy5OVi7dDFaOUZHhqTi8JTECJ3XY0o39COh1Cn/tswLutPZirXTiX9tliAQoQHuHfCAyhX7GCZVp3mCYwcjBIoIoU2ceQTsmhnI9RuyPrwIOHcCIcSqFcXxKP47lH+VBhJ2ZDlTBdjHwY6NwTzoUaOv/XVgjHv2I5lj79JFsM4ApIGgfBN0nDz3LShkGEeC/eM8HUNLBVDCRZ9hobo5uZ5At4EMJ8SSATPEglB0MkrUACfoNmWRhEIXRCpC7FZRRvMKfBu6Fc+WmqkAHm4O++6M3hi/oL30m35OMbv/9mBROEpbs59qF87UgFAef2GgbUcoH0N62UewHeBZtA0mNWxYEwSjBG6LVpnnnlmMHLbbbaN55ifZXUjXDkYQgBJAys39KIUmJ+BmjpcG8tz2ZQNswjJZI9zVqjMpEkghrnG/bwJ7/KFL3whtl/5b1q2WrJVTE+j1TDU9jEBLVrMNhIo2ihWDW1h5ZLfLxBD2MamntxzSNi2m33nO98Jr6L743GSv7USoJsCyIdnqQDdeFefJ8beBQDGIpQ1IhLjCY/7dz/dMQFy/xhQN7INwsZYliggNB43R0BgAjyTOf43M8IgeC7fB5h+N4BCKB8t6mTx4OhavZgtj/LEASzUp2g8DFd9yqmnxEebFA0de++zd3nNa14Tow1tYbXf/va3w+N1A0HoZiiaOEFSr6S8uv08mRRdVMO7vJ/CxYtM8tTXmfphvXgADWQRhmIExTK8Q7MpgGvWac+d4I2CaGyNLHey7KZdzjGL1XDxFEKZFImlS+pJ9074LFueZIz6DeWsAprXTysUPHK9IdDzJtywrkadlJfwlccLyK9LIFTWqJshNMrC0+24w47xHoUiQHXzANy897XbCAKdFBP96jA6EewauhraKisVIJEeQBfg/doDJJzX1zXWiwIgXH+NuRolUPrmN78Zc/iesWKEJ/M1simlJ9HBhOaRY2q9co35laFM1ozhEiHKJ/EGugb3HQWJkj6c0CgpZdI365JW37s6Nn9QGnXYWKo+wufqCZLHECc4+rbx+huuj3cJh8LvtutuERSiiZAALYRP8IRM4QWy5hR4HfdsPtUmxqPu9qgCtCO7APzYIKeCuXpWzko0gmVguDlzjGQ5rJ7gMnDC5FSmdgMwMvtRzzBVueqwq9f0rG7BjykLOAWa+nbWhfHyosl7hKhOApSP0Nx3LZ+fvMVkwrL128+wmgFkkcryKbl+XODIA+23/37xnz0YDlIm+YwutAfQS9jK5gGWbLUk6NZ+w1WBn7J0ZfLgmYTeNh8S6RWSV+3UD+ttMUgegpP0qVyxxu+1915hBZgsj2FWlFFNgNTl5Xl4ic6599LCbdikUKxR8CaKZxGGa7n1mzdi5ayT+/WJuK1fz3jGM0IJvG9sz1NRCJ5C/07wuiheSt26BV5DV8PLCOQoDoGpnzLySAQJNc2OEs/gaAThi2NKyuK5faMZypjvQH0OdRfQywP0w3pTgPhrhIoZ3BlGpoWwfA0NBjV5upVRo2YkqD8R4/SGqeph9ery7WEOG9XHvVIMCQ2ud96pGSYuWzoxTbxgYVmy9ZLoolgiBTU8k4+3YI0EjA5KwKPhAyU2tKQIlEjdPnxFX7Yp6W6faz+lNF3tc/HwWos3m8xTo76XXQBPhB5KbR6kRrcyEuulCwg0NCCQYAjCJIq+X6M1vo5wBwFDU+ga571IHe8B9XPlb7b5gyuDhm5ocCQwwtp00cRPt6CPArFynsFvGelK9t1n3xAIDwbKsS4hEbjAzShBcIgWisIbJa3tBGhLegWz4a0OOris2HNFrE1A5k1k/hrtPFPBjCtANwLbwCCWhvH6QYyfLqLeXlV71GH2pLI0qaa1fp5Hbv/www4Pi6IgOUOZiiIusPpIUXiSpz71qeFhCIRC1+UPQtafHnB9YWQF0EiEZmOBdQxDfMYC+Z5+rBeUPygZEna7N12w8uU7LJ9U0kzprbSV9YsfLCmbVNLVQNAxRSKC7gGo25j5Q3GalHHQVDCSAqg4K4rAq2GKe4TqmARlgvo8QEadRjRP1slf52vf75bCwjt/AWVXzM96pprSUwAXza2nZXvu6LnAT8An+Iv3Op91paKksgStHdT1ZMo84QUEwf513un3fn3fyKhG/awbRvYA2RdSgBR8MqdbSjiXz9DIOeZQoDrvSKnDNKnN9FFT0gvd2lbXA44pEP1/tCvp6rwzKGWZddlSIs/r/GgzelDfevEAkBVpMK3jxhEjKh1ERN2oOG8YNB3UzAimTYHhg1KW34Z7WV/UWV2H5U6zTf2QtCVdOSdSTyEPi5F+H0BlxsZ+0cq8u2HRO9/5zpi5ookIoY29kFVqQH3exrCkDcrXrexhkTS2y3Av600FSK+YeadTby/U9YLRh8UteyJ0QT5Wecc73jFJUzfaa0xZAWTPyRH/wzUFENGLmE1gUI6sPAloI+/J55zH6KW5w5CXeRy7NbYfAwYBXQRbMzQTuh1j6Ng8p/yO6YqzTfIk6vNh0I32rB/w27RzGqIlZQqAJsjfLerlkUZWAI31/wNadUskse1jElxXVTM0u4zMn2hf90Nddo2plNFGltlWgKS3rQD4oj92nXk8r2mrz4fBIJ64ltRntGJ/Q/5CSDzz1+kSu2HkLkCyePGTn/wkziEraR+TCXVVnmGae8ksaBPavu6FXs0Y9v02kl7v1wqQQodeCsADZJ4sJ1GfD4NB/ECbVUojFDOPJq7MWvLQwDv3w0gKABpvx435ct7AqCvdTBLpmAxoV+PZTClAlu3YLf8wZbSRNHu3qwI0/+JX0ZtzAq8VID2A/FlOoj4fBoPa41zdBG5RyeyqCao0SvRIvTCyAoBGSjnubStAjTYj5JHq+93e63avjX5NGOb9bqjLTGEmvTnP4D7UyuHYZnhdVj9au6FNf/taeRRPshqZgs8YwKjMefu9xLQUYA4bP6Y2aJzDfx3mFGCWY04BZjnmFGCWY04BZjnmFGCWY04BZjnmFGCWY04BZjnmFGCWY04BZjnmFGBWo5T/A/K9VuQMkr/RAAAAAElFTkSuQmCC;container=0;" vertex="1" parent="dC4sRMdMSoydmVsc77Pg-34">
          <mxGeometry x="20" y="21.659999999999968" width="99.6" height="77.81" as="geometry" />
        </mxCell>
        <mxCell id="dC4sRMdMSoydmVsc77Pg-33" value="" style="rounded=0;whiteSpace=wrap;html=1;fillColor=none;" vertex="1" parent="dC4sRMdMSoydmVsc77Pg-34">
          <mxGeometry width="250" height="260" as="geometry" />
        </mxCell>
        <mxCell id="dC4sRMdMSoydmVsc77Pg-37" value="" style="edgeStyle=none;curved=1;rounded=0;orthogonalLoop=1;jettySize=auto;html=1;fontSize=12;startSize=8;endSize=8;" edge="1" parent="1" source="dC4sRMdMSoydmVsc77Pg-33">
          <mxGeometry relative="1" as="geometry">
            <mxPoint x="310.5813953488373" y="1011" as="targetPoint" />
          </mxGeometry>
        </mxCell>
        <mxCell id="dC4sRMdMSoydmVsc77Pg-39" value="Extract text &amp;amp; images" style="edgeLabel;html=1;align=center;verticalAlign=middle;resizable=0;points=[];fontSize=12;" vertex="1" connectable="0" parent="dC4sRMdMSoydmVsc77Pg-37">
          <mxGeometry x="-0.0248" y="1" relative="1" as="geometry">
            <mxPoint x="-66" as="offset" />
          </mxGeometry>
        </mxCell>
        <mxCell id="dC4sRMdMSoydmVsc77Pg-40" value="ChunkedÂ &#xa;Documents" style="shape=image;verticalLabelPosition=bottom;labelBackgroundColor=default;verticalAlign=top;aspect=fixed;imageAspect=0;image=data:image/png,iVBORw0KGgoAAAANSUhEUgAAAIYAAACNCAYAAAByvgJSAAAAAXNSR0IArs4c6QAAAARnQU1BAACxjwv8YQUAAAAJcEhZcwAADsMAAA7DAcdvqGQAABimSURBVHhe7d0J8HbVHAfwk+z7LkspilevZG+xlMgw9iVLWcJQGBIyhMRMZaphMApDQsgyQ6msjclWska2ZClrRBRlfzyfw/c/1zP/91Xvc5/nufd573fmzL333Huf5/x+53t+53d+59x7NxmNUQYMmMCV/rsdMOB/MBBjwKoYiDFgVQzEGLAqBmIMWBUDMQasioEYA1bFQIwBq2IgxoBVMRBjwKpoLST+z3/+s/zrX/8qV7nKVer+JptsUvOvdKX/cM85f5X8PkBZlduWHPahKVOugU033bRulwFTE+Mf//hHVYifobC//vWvdSuvqdiklng4F5Atslx22WXlyle+8spxE2Qip3NkXAZMTQzWgUKyTeWHEPL+9re/lT/+8Y+VNCFIX0AOsl33utetCZpyRh77knPLgKmJ4fa///3vtQvRqijm6le/evnLX/5SvvnNb5bPf/7z5bvf/W753e9+t6LIKf9ybiALq6HM22yzTXnIQx5Sdtlll/+xGGQJUZYJrRAj3Umsxrnnnls+9KEPla985SvlnHPOqa2OGUYg1/dJiZGNDHe84x3LC1/4wnLve997hQzkkRwvE6YmBoUBUqj8M844o7zrXe8qX/7yl8tFF11Uz13jGtdYMckU2CclqnwplmPHHXcsT33qU+uWZSRL38h+edAKMShNV8I6HHzwwbULQQI/Lf/a1752ucENblCuec1rbhAppiziBkNZWblf/vKX5Q9/+EPNQ4Ytt9yyPOc5zyn3v//96zXpWpQz8tnvM1lacT4p4IILLiivf/3ryyc+8YlKFApCmrvd7W7l0Y9+dLnTne5UlTrp0XcZZCPDJz/5yXL00UeXiy++uJafHNtuu2157nOfW3beeefqW13talerTrYtfTRJ0UeStEIMyjv55JPLK17xijryYCVgn332KY985CPLLW5xi9rNuI6CrqjVmLKIGwzllVT4e9/73vKBD3ygnH/++SsVfec737k861nPKrvuumu9RpeZc00Zk9cnTN3ZU4CW9IUvfGHFh6CEJz3pSZUUt7rVrf575X8UfUUreVGkAHIoMyvwmMc8pjz+8Y8vm2222UrF6zJZks997nMrsskPKRz3kRQwNTEI/Zvf/KZ8//vfXznefPPNy0Mf+tBqKaJE3QvYj8KaaV1w/6KSsqZruOENb1j22GOPstdee9X9OKPf+973ypve9KY6AnPcxPrk6jqmJgbhf/vb35Y//elPVVmO73CHO5Tb3OY2tftwLF/fHP8iim8m18V0dyWxgLoIBOFHcJ6NSJ73vOeVLbbYopZZ2cVp3vzmN1er6Xr3QhpBH9HKqITDecghh5QLL7ywKko38uIXv3glhCylm4HmX7oecXj+HNhLL720/qZ8WLRiU+ZUtu0ll1xSTjjhhDo0V06yKefatWvLS1/60up7cFDBOdeEJJHL7+S3u4ipieF2xHjNa15TicH0Isb+++9fnVCKkPI3UUjmVPTTJ554YjXJhoRaJkSBzXu7AmVSfnEaMqZ8LOKaNWvK05/+9PLABz6wXhOCxHpGriZhuoiZEeMFL3jBCjEifP6KuUWA97znPeXDH/5wOe+881YU6JrJ67sK5VRGsQ5y2sozRD/ggAPKPe5xj9oQ0oU2rYT7mrJ2DTMrVQgR5VFKKtqEmpiHCKku5FrXutaKgtyXe3Nf8rqSlM02rf6qV71qbRCS/e985zvl8MMPrz4HspAh8qfbye90FTO1GE0rAJTB/BriHX/88VVJrAcza+ZSRPGWt7xlJUoUJ7muawhhgUUwSfiNb3yjEh05lJkT/vznP78GwRLjAPfGinQVcyFGgAT8iSOPPLL6E5xOFb/VVlvVQNH2229fbn7zm1elNS2F/a5BGcmOAIhtZCaewRIiiTzXiPgaxehWEKYpT5ctxqYHm9yYEmZTTzvttDqioBDK2GGHHep+s1Ip7Jhjjik/+MEPqkIp7i53uUs54ogjyk477VRufOMbV+VRmHv5KK6RZ78rSdmU0b7ywfWvf/06KiEvq/HnP/95ZbQlWmpm1pyRexEqpIjV6RpmRtk4ZFEAZfzoRz+qCSmcu/Wtb10txdZbb73SAiXnojBbCnaPlP1cu4iUctkPicG+ANgTn/jESvLkffvb3y4HHXRQnXHmdEcOCZGav9sVzIwYaRkEp0REQQo+RvLvete7VosR8kAUFHI4znnb7Od81xLr9ohHPKKG0JEDCcj+rW99q7ztbW8rX/va1+p1kSu66BpmRgwWIAJHEXwQJlY+s3q7292ubpvXSY4l90RxsSiUrKXZihN0Lans613vemXfffet8Yyb3vSmlSyippzTN7zhDeWss85aIQV57dt2CTMNcLEaqWxL/Y466qjyzne+s+7f5CY3qWP9hz/84fU6lZ9rtTLbZoui9J///Oflxz/+cfn1r39dh7wU3jWkC5VESPleLCV/xDky8cFM2d/znvesoxXXAlkl1ywaMyWGVh7LYURiPoHzqeINT03Tm2zzG1EmpYQkruPQcm4//vGP1xA0BxZJ/F4XETIDy0Z+hJCnAcSv0IValsDpNnoLGZzrAjFmVgKVmpZPObEelJQ4hVZkq5Ipo6lUQIqzzz67vOpVr6qWxgwuS2Ga3+90MSEti2jLorEaZFLhzpMXEfgab3zjG8vPfvazSpbI7bxrF42Z+hgx9RGUAlgUynLeMVAUxURx9s3WnnrqqeXAAw+shAi5KJxfgkTMcBcT4vMpyJIljcpMH82GYCkkq4kkRivkD0myDWHmjZl2JVEEYrAer3vd6+r8iMrlsb/sZS+rXQlQFIW5x/aUU04pxx57bB3qIYT/uc51rlNjBZIoqd/uC5T/Ix/5SPn6179eSe5Y+elFt/LMZz6zdisI0Vwba9uUM/fNGp0iRsyv3zn00EPLSSedtNIvi4g+7nGPq6vCLJRxXZTXB7AGYokeq6ATetOVagSIYg3py1/+8joBR17nYB4kWA2d0ixlUJjhnJYVzloeyFEz/EMQREMixOhLAvIguu7GNt2trWUHGg4HWyMiY0jhvnTH80JniEF4CqQAazSMPmJxPMOx2267VV+E0iiWZXJPX1KIYJ+VUH7zJ6wfmeCrX/1qnUcyK8tqzJsMTXTKYlCEAJj1GZTF/HLaEEOgiJWIctMK+wKygPIjBn9JdPSxj31sjek475xG8fa3v71GSuWRVeOQ5kmUzmiX4CobIRI2l8er99yo44z3pSirLyndpMplCQE5zEJbR4oczrEkSHHYYYfVoTrLAYbAsaj5HUi30zY63+woNWbY/rJBrOYpT3lKecYznlHJASqbz5Gn+lhRxJIfHWSLLIgitYleEAMpoCn8spAko49HPepR5clPfnKdZwEk+MlPflId0tNPP71ahclEH/SAHG2jNx11s1UsCymANdR9sBZ77rlntRyG8mTVjRihWfxjAg6JQgTbJjna1kkviNEkxbJB5YcEIqZiQAjCt1LZyGASTvjceo44sciRbmQW6AUx0iKaLUNrWQaoeLLEh+KYCuRZwMSKmBdynkNqpdsXv/jFOjqbdUPphY+RrUQh2e8TlJvfgAAZScQ30J2QJ1YAIZ7whCfURyJvdrOb1etZijwOqXsBw173GbG0jd74GJNE6BsxlDdWQUIAla0LUfFJCCPpVqzZ8CC19aTIgwA//OEPKzm+9KUv1d/INAKStIneEKPvUNlIECIgh24EWWIpmikWZu+9966rzPkc8pAjK8GsSvc7fjOjm7YwEGOOUOHpNi6Pj+B6M60Pe9jDqt8hICYPYcwliZAKo/utOKVtYSDGnKBC07pjDYT+xSpsJ5NljLZeMaHSH/CAB9TV51a++Q3zRWeeeWYdynJIE01tCwMx5gS+QCyFuIWlBXwF4XBD1MnE+XTOfIpV59ZreKuPUYr747yKjFoyyTFtEwMx5gQ+gIrM+gst/Pe//30liJnkyeScp9sQQbKfWVnkYjXizCLFZz7zmWqF2sJAjDkBKcwQ8xksW+REIku6lcmU0Ynk2HWSe82dyIvTaV++a10D2W4oBmLMCYjhxbGcyPve9751pZbHFm2ty7i8yQPSXiPpgemQRWI5WsX4R6fCmKWjU045ZbTjjjuOtt5669HatWtHhx122GjcIuo5GDN6NDaDo9e+9rX1vOtcf8IJJ9RzUjA2o6O99tprdPvb3360zTbbjB784AePzj333P+e/c//9RGXXXbZaOxEji699NLRuHWPxq2+5jm+Ism9F1100ei4444bjUlVdXTb2952dOihh1YdRz/T6mmwGHOCYSqrYU2J4BUfQ3J8RZJ7jUxs+RzjOlzxX9rEQIw5ATEyVAXb7OsGLm9yD58CGUI2+R4/aBO9JkZTudlOQv7YrK7z/DyRVq0s9putXF6TOOsCEuQ+BAHHQxyjARUuQRTqmImdVPL/U/g80GzhGWqCCm7KoezrQ4jhHvvkTV5b6DUxouBJAjCz8gWVDOMoXn6I1KUUiG6qXOWMJVgkek0MSKUDRSNEZi21UKFjBHJNrusSlFm5moGrxDcWiU49iQYifl5oZnLIfd62I3Q8HpLV8/4vJth+CJDj8ZCuzjr+4he/qIEgREnLDEG6BOUz2vBKhPEQveopJIlck3DOI5xeNkt+93gY60UvelG9J3JGTxuC3hPDNe5N5XunN4UJIbMcyuO/0xKnUdYsoFzk8Fmt/fbbry7MUWZYV1ldP2ti9LorIXwIRTmcME/GeyEaomiNQs8IQmG2SNmlFIvmhTAsHOsRki8SvScGQthKlCzM7AX3Vj2ZlxAM8jRb9ruWBKqUb7vttlt56EhLX7Rl63VX4jcBIWIV/LbZRusZMkWd8/5j0QqfhHIhiPeRebUDmckRfawGOph1V+IHpsJYkIXOlYwVU1P+Y6zomm9fPrhHfq7rUkoZIbLJixyrwXUnnXTSaGwdR2vWrKl6onMy5zcm9XRF0euuZKzYag1A60hLk28//bdj+bEYXUos3JgItYUrKyhn5FoUek2MgIIpl2LtA0VDlJzjZqV0IYmzNEkBIcoi0WtiUKw+2rZpIWIZ7IcsaYEU3qWkbGDrOPtkWCR6TYymIhEkx4HjWJK0SNd2KSkjUkPIIH/R6L3FiDKjXOBTxK9INxIrYr9LKaS1r8y2Keci0WtiQLqIKBUBJO8DFf30+QvJUHpdC28XmYTuvemYE4rcSBISLxK9jmOIdFKme6NQyvY/IonmTWJJXNsFhU/CQ0TiGPe73/3KeGheA3GwvnLSwRASXw8QDyEkihD+9qoASvNSVYEu7wn1KSrPfPpOipB5l5KXoiivV1eycF0hbq+JoaVQpKTlsAjmGxBEXixJgDxdS8ppco91IwOkW1wkek0MFZ/ugfWwv/vuu9fvoDDPwDTL54t0MSGBGVWPIOpedXkIQqZFotc+BqT48uxTKoV785//1OemJcpftMInoWwshsk05aMH5baNTiZBzsHHuBxokiNrLrxY1Wyl1wfYegrsRje6UT3uUtJAvJAt1oMsXSBw74lBgc2WRbEsjXz7WpRtUtcQApABqQXqWNRFl7XXxJhUXrqsSWWHOPK7lpQXQlxdscU66+pG5oVeE4NiA0p1zAwH8pCly6lJkskyLxK9JobWFscyloJitbYQhYKdk9fFFCKn7CGEc4tEr4lBeWlpIYGtcHizn47yHXctGckhd8redEIXid4v7aPIKDV5Xl9kuCrf9baw6Fa4GgwvyeCbLEZNyuqYPJFpEmSa9XC198SI1aAg+8LMvo5krsT/UFSIMY2iZoXox3sznva0p9UhbHSxrvLSwRDHWA8InnUYkqghQvlKkJeaCY9bECzcnFlW3UyXkjKxbsqsUbAWCL1o9JoYkFahlcUk55tpjkGrst/FpNxauSAca4voCdItEkvTlSSfhfjoRz9av2fqfyg/yvZ7U4rbOvJsrdcw7bDDDlUmOlTO6GQSzg0+xv+ZK1kNZlcl9/td99iP0roEFatc9BZ9pUrWVVbnBx9jAyBy6Ek0XYoth47Hb04iT4B1JSmjLWKkIm2nqdQ2sJTE0ILSbUiOk9e1lBYfK9EVLCUxdB/pmijcPl8jLbFLKQ6o/S6RYymJEUTRUboWGuvRlaRcKdtSEYMwUbxtFxBFK0/KJE/r5Jx1KaV8KatyrvaMzLwxNTFUAIUTpGm+IYJO5rcFv5ek9SlLrMIll1yy8nplAS6vO8xopUtJGfMqRv5G2zraUEw9XFURn/70p8tBBx1Ul+43h6t5CQiCENonFN797ne3Olz1u+5FBi1QNNFQ7pxzzqn/Iw+c7yLII7i1yy67lO23376WU8xFvga3GpzrfBxD5Z188sn1y8KWvxuL+34oYiRQAyGGOIaW0gYx/CbEYkk+CXXggQeuLMX3GylD/qNrUMZ73ete9QO8htXWf8K6KpY8vYljNAtiP5UxTeH+H/y2RLG2COepLqQwb0JhypGWlzJ1DcpuzkT5vV1HuaVFohViCBzFZKskE1j6TfswK3I0LYD/YK3yqiWBI+HmJOdYsK4lZaM/jzwIxgG9RZ+LwtRdCVNmqvuAAw6o6yAcr127tn51x/MSWqtKm0VXYt816Urs+x2/4SO2fAxwfX5/SnFbB2JwjvkXfAsEhvV1e2SYdVfiB6bCuFCjsfke7bPPPvXzCF6R5BVAhx9++Ojiiy9eeeXRWPiN+rMUbYIOOv+qJa1U6995553rKARLdSPvf//7ywc/+ME6sTb+n9oCsNn1A7qPqYmhslX6fe5zn+pZM21Mu/jBMcccU78P6it/nCsO4YB+oBWLIW211Vb1q8J3v/vdq4WQOKEnnnhi9SV8BdD0/KK97QGXD1MTQ9cRcuy0007l2c9+dvWwOVEsByJccMEF9XUEiDKVQzRgbpiaGCo+cQJetQ+6veQlLykPetCDqs/hPM9bl2N/8DH6gdZ8jDiXSMBiWKn9vve9r4bHdTOGnRakZBiGTPwRREGYdD8Q8sQaDZg/pibG+uATkKzHO97xjjIevtbXCSGEkC9nVMUjg7wmAUIQ54euZzGYGTF0KyyBrYied2Vvu+221aoYsSACn8M1LAdL0iQCcgzEWBxmajFUaqJ50mabbVbnAgAhfFsEOUIimCTIQIzFYGbESIu36ETAyzFfQ5g8gTAjlY997GM1JIwQzS7EftKA+WNmxNBVqGApDuoWW2xRP18t0KXCrZ0QHT3uuOPq+y6RqOmIDsRYHGZGDA4lUtgiBhixGMaKd5jg0oX86le/Km95y1vqcynHH398/Z6Z1VfuywjG7yBMHFTbprO6MYL8dJTGk664LcyMGCoz2+b+mjVryh577FFnYM2yEk5X89nPfrYceeSR5ZBDDik//elPq0OaLgiQJETZ2EGP9IIcbRMimLumdSM+DCdM7pG8dDOADB4xdI08FiatIYqwpZiNlSTkl8gfq9m0rm1h7tqNQD4naT3BnnvuWX0PwS9AilS8ZL/ZQiDHGzOio5DCcZtYiMXgZBJEAIzlOProoytJdDG77bZbfaTQdc2uhALcEwWEJBsbogNW1LbZYNrE3IlhqCqmwfEEfsbmm29eSfHKV76yvPrVr67BMOfjtFpiTwFNZ0sr2Vih0XDQbekCQSwTbBML1a6KRpRUOCLkJa3ytASkOO+886qVMZKhBPm2GwvISz9gK3JsOSWfLHkaV6wqTKufhfgYk4XOMQFZCusfCclc6k68bUbMA3EQZGMAXYQQ9MM6xEJ4ZsZXFnKOBaazNq1op+wxQVW+ORXLBQnMZIpt+GwDkmQUQ2nLnEClZ0Smq9BYzj///BoUtAX6sNTBm4TaxKYHe8qlA6AE/gaLgRDeiKMLSTyDIszImmuRXL+aQpclsQ7Ri30r333bRBDw1FNPrZZTA/EU2957710bU5sWY+rHB9oEBSCGInl84Igjjihnnnlm/QoQZWkxRjLWdrAobTtcXYKKjwXVYDSUs88+u0aKndN4wFN/++67b302ZWmJofJjPgn5qU99qrz1rW+tCpFHGRxQijGVn+dGlhFpILEgZEYSzrpJR3EfK/P322+/2lA4pIkFtYFOEUPLIDhEKSzGscceW84666z62kNWA2mQwv6yAhE0EgShh8QtkENAkF+hC0EK17quTXSKGKuBj8HX4ICedtpp9btmfA2gqGWHRoAYCMHB3G677cquu+5aI8eG9c65ps1uBDpPDILH90ASDyybZPMgE6d0WcF/UjUsBdmRYMstt6wf5MkIxTkJaTY6YiheiogkaSGU0fGiT4XICqvJylrGYrpOd9KmM94LYrAUaRFRSAiyrGhWi/3IK9mXRw+OZ6GPXhCjKbR9iGKWFZFXo9BtRFZdR9PppgcpBGkLnScGhATxzNtsGV0FWVPZTQth6zijszSUtnXSC2IMmD+Wv+kN2CAMxBiwKgZiDFgVAzEGrIqBGANWQSn/BkFgjFYKyrqVAAAAAElFTkSuQmCC;" vertex="1" parent="1">
          <mxGeometry x="280" y="1130" width="76.03" height="80" as="geometry" />
        </mxCell>
        <mxCell id="dC4sRMdMSoydmVsc77Pg-42" value="" style="sketch=0;outlineConnect=0;fontColor=#232F3E;gradientColor=none;fillColor=#ED7100;strokeColor=none;dashed=0;verticalLabelPosition=bottom;verticalAlign=top;align=center;html=1;fontSize=12;fontStyle=0;aspect=fixed;pointerEvents=1;shape=mxgraph.aws4.container_registry_image;" vertex="1" parent="1">
          <mxGeometry x="280" y="680" width="48" height="48" as="geometry" />
        </mxCell>
        <mxCell id="dC4sRMdMSoydmVsc77Pg-43" value="Knowledge Base" style="shape=image;html=1;verticalAlign=top;verticalLabelPosition=bottom;labelBackgroundColor=#ffffff;imageAspect=0;aspect=fixed;image=https://cdn2.iconfinder.com/data/icons/whcompare-isometric-web-hosting-servers/50/database-128.png" vertex="1" parent="1">
          <mxGeometry x="625.32" y="1320" width="101" height="101" as="geometry" />
        </mxCell>
        <mxCell id="dC4sRMdMSoydmVsc77Pg-44" value="" style="edgeStyle=none;curved=1;rounded=0;orthogonalLoop=1;jettySize=auto;html=1;fontSize=12;startSize=8;endSize=8;" edge="1" parent="1" source="dC4sRMdMSoydmVsc77Pg-12" target="dC4sRMdMSoydmVsc77Pg-43">
          <mxGeometry relative="1" as="geometry" />
        </mxCell>
        <mxCell id="dC4sRMdMSoydmVsc77Pg-45" value="&lt;h1 style=&quot;margin-top: 0px; font-size: 11px;&quot;&gt;&lt;span style=&quot;background-color: initial; font-size: 11px; font-weight: normal;&quot;&gt;Lorem ipsum dolor sit amet, consectetur adipisicing elit, sed do eiusmod tempor incididunt ut labore et dolore magna aliqua.&lt;/span&gt;&lt;br style=&quot;font-size: 11px;&quot;&gt;&lt;/h1&gt;" style="text;html=1;whiteSpace=wrap;overflow=hidden;rounded=0;fontSize=11;align=center;" vertex="1" parent="1">
          <mxGeometry x="340" y="680" width="130" height="90" as="geometry" />
        </mxCell>
      </root>
    </mxGraphModel>
  </diagram>
</mxfile>
